<svg width="28" height="28" viewBox="0 0 28 28" fill="none" xmlns="http://www.w3.org/2000/svg">
<path d="M13.1726 14.7514C16.6938 14.7514 19.5483 11.8969 19.5483 8.37572C19.5483 4.85451 16.6938 2 13.1726 2C9.65138 2 6.79688 4.85451 6.79688 8.37572C6.79688 11.8969 9.65138 14.7514 13.1726 14.7514Z" fill="#259ACB"/>
<path d="M22.3811 20.5126C20.7543 17.6223 17.2447 15.6074 13.1736 15.6074C9.16034 15.6074 5.70031 17.5563 4.04049 20.3722C3.37987 21.4952 3 22.7587 3 24.0882C3 24.6662 3.4707 25.1287 4.04049 25.1287H22.3068H22.3811C22.9179 25.0874 23.3473 24.6497 23.3473 24.1047C23.3473 22.8165 22.9922 21.6026 22.3811 20.5126Z" fill="#259ACB"/>
<path d="M15.4836 17.2611L15.4832 17.2615C14.4908 18.2822 13.8818 19.685 13.8818 21.2135C13.8818 22.2724 14.1774 23.2788 14.7019 24.1329C14.9887 24.6182 15.3571 25.0569 15.78 25.4253C16.7732 26.3291 18.0928 26.8802 19.5485 26.8802C21.6143 26.8802 23.4141 25.7765 24.3937 24.1353C24.6915 23.6514 24.917 23.1025 25.0464 22.5372C25.1595 22.1066 25.2152 21.6645 25.2152 21.2135C25.2152 19.7673 24.6626 18.4368 23.7606 17.4338C22.733 16.2663 21.2139 15.5469 19.5485 15.5469C17.9632 15.5469 16.5173 16.199 15.4836 17.2611Z" fill="#EAF7FC" stroke="#259ACB" stroke-width="2" stroke-miterlimit="10" stroke-linecap="round" stroke-linejoin="round"/>
<path d="M21.2862 21.1904H17.8096" stroke="#259ACB" stroke-width="2" stroke-miterlimit="10" stroke-linecap="round" stroke-linejoin="round"/>
<path d="M19.5479 19.4863V22.9747" stroke="#259ACB" stroke-width="2" stroke-miterlimit="10" stroke-linecap="round" stroke-linejoin="round"/>
</svg>
