<svg width="28" height="28" viewBox="0 0 28 28" fill="none" xmlns="http://www.w3.org/2000/svg">
<path d="M11.1726 13.7514C14.6938 13.7514 17.5483 10.8969 17.5483 7.37572C17.5483 3.85451 14.6938 1 11.1726 1C7.65138 1 4.79688 3.85451 4.79688 7.37572C4.79688 10.8969 7.65138 13.7514 11.1726 13.7514Z" fill="#259ACB"/>
<path d="M20.3811 19.5126C18.7543 16.6223 15.2447 14.6074 11.1736 14.6074C7.16034 14.6074 3.70031 16.5563 2.04049 19.3722C1.37987 20.4952 1 21.7587 1 23.0882C1 23.6662 1.4707 24.1287 2.04049 24.1287H20.3068H20.3811C20.9179 24.0874 21.3473 23.6497 21.3473 23.1047C21.3473 21.8165 20.9922 20.6026 20.3811 19.5126Z" fill="#259ACB"/>
<path d="M24.4824 16.3063V22.1396C24.4824 23.8896 23.6074 25.0563 21.5658 25.0563H16.8991C14.8574 25.0563 13.9824 23.8896 13.9824 22.1396V16.3063C13.9824 14.5563 14.8574 13.3896 16.8991 13.3896H21.5658C23.6074 13.3896 24.4824 14.5563 24.4824 16.3063Z" fill="#EAF7FC" stroke="#259ACB" stoke-width="2" stroke-miterlimit="10" stroke-linecap="round" stroke-linejoin="round"/>
<path d="M20.6907 14.8477V16.0143C20.6907 16.656 21.2157 17.181 21.8574 17.181H23.0241" stroke="#259ACB" stoke-width="2" stroke-miterlimit="10" stroke-linecap="round" stroke-linejoin="round"/>
<path d="M16.8991 19.8057H19.2324" stroke="#259ACB" stoke-width="2" stroke-miterlimit="10" stroke-linecap="round" stroke-linejoin="round"/>
<path d="M16.8991 22.1396H21.5658" stroke="#259ACB" stoke-width="2" stroke-miterlimit="10" stroke-linecap="round" stroke-linejoin="round"/>
</svg>
