<svg width="28" height="28" viewBox="0 0 28 28" fill="none" xmlns="http://www.w3.org/2000/svg">
<rect x="5.40857" y="4.04688" width="17.1829" height="19.9082" rx="2" fill="#259ACB" stroke="#259ACB" stroke-width="2"/>
<mask id="path-2-outside-1_1411_25640" maskUnits="userSpaceOnUse" x="8.79968" y="0.996094" width="11" height="8" fill="black">
<rect fill="white" x="8.79968" y="0.996094" width="11" height="8"/>
<path d="M16.1996 6.19604C16.7519 6.19604 17.2144 5.73777 17.0446 5.21224C17.0183 5.13096 16.9888 5.05064 16.956 4.97148C16.7952 4.58324 16.5595 4.23048 16.2623 3.93334C15.9652 3.63619 15.6124 3.40049 15.2242 3.23968C14.836 3.07886 14.4199 2.99609 13.9996 2.99609C13.5794 2.99609 13.1633 3.07886 12.7751 3.23968C12.3868 3.40049 12.0341 3.63619 11.7369 3.93334C11.4398 4.23048 11.2041 4.58324 11.0433 4.97148C11.0105 5.05064 10.9809 5.13096 10.9547 5.21224C10.7849 5.73777 11.2474 6.19605 11.7997 6.19605L13.9996 6.19604H16.1996Z"/>
</mask>
<path d="M16.1996 6.19604C16.7519 6.19604 17.2144 5.73777 17.0446 5.21224C17.0183 5.13096 16.9888 5.05064 16.956 4.97148C16.7952 4.58324 16.5595 4.23048 16.2623 3.93334C15.9652 3.63619 15.6124 3.40049 15.2242 3.23968C14.836 3.07886 14.4199 2.99609 13.9996 2.99609C13.5794 2.99609 13.1633 3.07886 12.7751 3.23968C12.3868 3.40049 12.0341 3.63619 11.7369 3.93334C11.4398 4.23048 11.2041 4.58324 11.0433 4.97148C11.0105 5.05064 10.9809 5.13096 10.9547 5.21224C10.7849 5.73777 11.2474 6.19605 11.7997 6.19605L13.9996 6.19604H16.1996Z" fill="#EAF7FC"/>
<path d="M16.1996 6.19604C16.7519 6.19604 17.2144 5.73777 17.0446 5.21224C17.0183 5.13096 16.9888 5.05064 16.956 4.97148C16.7952 4.58324 16.5595 4.23048 16.2623 3.93334C15.9652 3.63619 15.6124 3.40049 15.2242 3.23968C14.836 3.07886 14.4199 2.99609 13.9996 2.99609C13.5794 2.99609 13.1633 3.07886 12.7751 3.23968C12.3868 3.40049 12.0341 3.63619 11.7369 3.93334C11.4398 4.23048 11.2041 4.58324 11.0433 4.97148C11.0105 5.05064 10.9809 5.13096 10.9547 5.21224C10.7849 5.73777 11.2474 6.19605 11.7997 6.19605L13.9996 6.19604H16.1996Z" stroke="#259ACB" stroke-width="4" mask="url(#path-2-outside-1_1411_25640)"/>
<circle cx="10.0403" cy="11.6729" r="1.46582" fill="#EAF7FC"/>
<path d="M13.592 11.6113H15.7795H17.967" stroke="#EAF7FC" stroke-width="2" stroke-linecap="round"/>
<circle cx="10.0403" cy="16.3291" r="1.46582" fill="#EAF7FC"/>
<path d="M13.592 16.2676H15.7795H17.967" stroke="#EAF7FC" stroke-width="2" stroke-linecap="round"/>
</svg>
