<svg width="116" height="52" viewBox="0 0 116 52" fill="none" xmlns="http://www.w3.org/2000/svg">
<path d="M90.6534 46.693C90.8541 45.9782 91.1572 44.9555 91.5748 43.7555C91.6927 43.4037 91.8227 43.0321 91.9648 42.6623C92.6266 42.8758 93.3167 42.9891 94.0121 42.9984C94.3147 42.9755 94.6089 42.8876 94.8744 42.7405C95.1399 42.5935 95.3705 42.3908 95.5505 42.1464C95.6854 41.9212 95.7258 41.6517 95.6627 41.3968C95.5996 41.142 95.4381 40.9224 95.2137 40.7862L95.1225 40.7363C94.3398 40.4092 93.0578 41.2088 92.5561 41.773C92.5182 41.8013 92.1946 42.2804 92.0405 42.5195L92.3014 41.8348C92.4331 41.4942 92.5821 41.1407 92.7232 40.7984L92.9677 40.2711C93.0461 40.0887 93.1433 39.9245 93.2363 39.7473C93.368 39.4927 93.5246 39.2355 93.6718 38.9801C94.2637 39.2736 94.8969 39.4751 95.5495 39.5777C95.8531 39.6014 96.1582 39.559 96.4438 39.4535C96.7294 39.348 96.9887 39.1819 97.204 38.9666C97.3727 38.76 97.4525 38.495 97.426 38.2297C97.3994 37.9644 97.2687 37.7204 97.0625 37.5514L97.0014 37.5058C96.2824 37.0557 94.8817 37.654 94.3018 38.1424C94.3018 38.1424 94.1727 38.2714 94.0393 38.409C94.1942 38.1639 94.3491 37.9187 94.5161 37.6753C94.9869 36.9839 95.4912 36.2941 95.9904 35.5975C96.0936 35.4555 96.1943 35.3102 96.301 35.1657C96.909 35.4667 97.5584 35.6756 98.2278 35.7857C98.5306 35.8098 98.8351 35.7678 99.1201 35.6628C99.4052 35.5577 99.664 35.392 99.8788 35.1771C99.9626 35.0758 100.026 34.959 100.064 34.8333C100.103 34.7076 100.116 34.5755 100.103 34.4446C100.091 34.3138 100.052 34.1867 99.9903 34.0707C99.9284 33.9548 99.8442 33.8522 99.7425 33.7689L99.6762 33.7164C98.9607 33.2636 97.5565 33.8645 96.98 34.3504C96.9594 34.3659 96.826 34.5035 96.6771 34.6634C96.9336 34.2885 97.1875 33.91 97.4336 33.5213C97.8596 32.8595 98.2406 32.1699 98.5741 31.457C99.2008 31.7761 99.8726 31.9977 100.566 32.114C100.869 32.1381 101.174 32.0961 101.459 31.9911C101.744 31.886 102.002 31.7203 102.217 31.5054C102.301 31.4042 102.364 31.2873 102.403 31.1616C102.441 31.0359 102.454 30.9038 102.442 30.773C102.429 30.6421 102.391 30.515 102.329 30.3991C102.267 30.2831 102.183 30.1805 102.081 30.0972L102.032 30.0318C101.313 29.5817 99.9122 30.18 99.3357 30.6658C99.2909 30.6994 98.8168 31.1999 98.6515 31.3882L98.6722 31.3727C98.9852 30.664 99.2325 29.9281 99.411 29.1742C99.5782 28.503 99.7054 27.8226 99.7918 27.1364C99.86 26.5101 99.9178 25.9131 99.9541 25.4022C99.9696 25.1217 99.9792 24.8619 99.9827 24.6228C99.9827 24.6228 100.434 23.7042 100.452 23.6422C100.693 22.924 100.736 21.4031 100.058 20.9005C99.9481 20.8236 99.8241 20.7693 99.6931 20.741C99.5621 20.7126 99.4268 20.7107 99.295 20.7353C99.1633 20.7599 99.0378 20.8107 98.9259 20.8844C98.814 20.9582 98.718 21.0536 98.6435 21.165L98.591 21.2527C98.4684 21.5308 98.408 21.8323 98.4138 22.1361C98.4197 22.4399 98.4917 22.7388 98.6249 23.012C98.9721 23.5998 99.4067 24.1313 99.9139 24.5883C99.9087 24.8395 99.8922 25.1045 99.8715 25.3995C99.8309 25.9191 99.7748 26.5041 99.6886 27.1492C99.661 27.3204 99.6291 27.5002 99.5946 27.6765C99.5964 27.4215 99.5847 27.1665 99.5596 26.9126C99.442 26.1676 98.786 24.8048 97.943 24.6626C97.8133 24.6435 97.681 24.6502 97.5539 24.6825C97.4268 24.7147 97.3073 24.7719 97.2023 24.8505C97.0974 24.9292 97.0091 25.0278 96.9424 25.1408C96.8758 25.2538 96.8322 25.3788 96.8141 25.5087C96.808 25.5448 96.8048 25.5813 96.8046 25.618C96.8243 25.9213 96.9098 26.2167 97.0552 26.4837C97.2005 26.7507 97.4023 26.9829 97.6463 27.1641C98.2292 27.5262 98.8638 27.7974 99.5283 27.9681C99.4542 28.3569 99.3672 28.7501 99.2535 29.1578C99.0612 29.8987 98.8015 30.6205 98.4778 31.3142C98.4485 31.3481 98.4271 31.388 98.415 31.4311C98.4365 31.2806 98.4927 30.4376 98.4918 30.3791C98.462 29.6221 97.9488 28.1844 97.1325 27.9631C96.876 27.8998 96.6049 27.9409 96.3786 28.0773C96.1523 28.2136 95.9893 28.4341 95.9254 28.6905L95.903 28.804C95.8914 29.1102 95.9469 29.4152 96.0657 29.6976C96.1845 29.98 96.3637 30.233 96.5907 30.4387C97.1449 30.8751 97.7658 31.2192 98.4296 31.4578C98.0885 32.1388 97.7038 32.7969 97.278 33.4283C96.9647 33.8996 96.6282 34.3615 96.2882 34.8259C96.3107 34.6263 96.3642 33.8444 96.36 33.7885C96.3301 33.0314 95.8195 31.5972 95.0041 31.3699C94.7459 31.308 94.4737 31.3506 94.2468 31.4884C94.0199 31.6263 93.8567 31.8482 93.7926 32.1059L93.7745 32.2108C93.762 32.5171 93.8172 32.8224 93.936 33.1049C94.0549 33.3874 94.2345 33.6403 94.4622 33.8455C95.0121 34.2775 95.6247 34.6232 96.2788 34.8706L95.8115 35.495C95.296 36.177 94.7805 36.8591 94.289 37.5445C94.1195 37.7845 93.962 38.0262 93.7985 38.267C93.8261 37.9668 93.8607 37.4248 93.8615 37.3758C93.8317 36.6188 93.3039 35.1975 92.5022 34.9598C92.2422 34.8989 91.9687 34.9434 91.7414 35.0836C91.5141 35.2238 91.3515 35.4482 91.2891 35.7078L91.2727 35.8007C91.2602 36.107 91.3153 36.4123 91.4342 36.6948C91.553 36.9773 91.7327 37.2302 91.9604 37.4354C92.4895 37.8545 93.0798 38.1898 93.7107 38.4295C93.4645 38.8183 93.1926 39.2372 92.9619 39.6466C92.8689 39.8237 92.7605 40.0018 92.6796 40.1807L92.423 40.7062C92.2603 41.0701 92.1106 41.4081 91.9694 41.7504C91.8953 41.9242 91.8316 42.0902 91.7585 42.2579C91.8317 41.9611 91.9368 41.4846 91.9428 41.4424C92.023 40.6889 91.7396 39.192 90.9655 38.8476C90.8444 38.7976 90.7145 38.7719 90.5835 38.772C90.4524 38.7722 90.3226 38.7981 90.2016 38.8484C90.0805 38.8987 89.9706 38.9723 89.878 39.0651C89.7855 39.1579 89.7121 39.268 89.6621 39.3892C89.638 39.4072 89.6371 39.4563 89.6259 39.4916C89.5657 39.7897 89.5714 40.0975 89.6426 40.3932C89.7138 40.689 89.8489 40.9655 90.0383 41.2036C90.5159 41.7092 91.0661 42.1411 91.6706 42.485C91.5036 42.9004 91.3444 43.3047 91.204 43.684C90.7572 44.8951 90.43 45.9144 90.1966 46.643C89.9633 47.3715 89.8677 47.7818 89.8677 47.7818C89.854 47.8206 89.8488 47.8618 89.8525 47.9027C89.8561 47.9436 89.8684 47.9833 89.8886 48.0191C89.9088 48.0548 89.9364 48.0859 89.9695 48.1101C90.0027 48.1343 90.0407 48.1512 90.0809 48.1596C90.1197 48.1707 90.1604 48.1739 90.2006 48.169C90.2407 48.164 90.2794 48.1511 90.3144 48.1308C90.3494 48.1106 90.38 48.0836 90.4043 48.0513C90.4287 48.019 90.4462 47.9821 90.456 47.9429C90.4617 47.519 90.5281 47.098 90.6534 46.693Z" fill="#22B573"/>
<path d="M99.627 27.7815C99.627 27.7815 101.091 28.0495 101.732 27.8863C102.03 27.8285 102.312 27.7071 102.559 27.5303C102.806 27.3536 103.012 27.1257 103.163 26.8622C103.273 26.6205 103.283 26.3448 103.19 26.0959C103.097 25.847 102.909 25.6451 102.668 25.5346L102.569 25.4959C101.76 25.2479 100.563 26.1981 100.137 26.8191C100.098 26.875 99.615 27.7798 99.627 27.7815Z" fill="#22B573"/>
<path d="M91.1547 47.0372C91.6865 46.5204 92.461 45.7894 93.4307 44.9604C93.7078 44.7205 94.0047 44.4711 94.3144 44.2175C94.7798 44.7329 95.3188 45.1766 95.9141 45.5341C96.1867 45.6685 96.4854 45.7414 96.7892 45.7477C97.093 45.7541 97.3945 45.6937 97.6724 45.5708C97.7882 45.5068 97.8902 45.4205 97.9726 45.317C98.0551 45.2135 98.1163 45.0947 98.1527 44.9675C98.1892 44.8403 98.2002 44.7072 98.1852 44.5757C98.1702 44.4443 98.1294 44.3171 98.0651 44.2014L98.0006 44.1154C97.4847 43.427 95.9775 43.4816 95.2583 43.7197C95.2239 43.7455 94.693 43.9767 94.4289 44.1048C94.6266 43.9618 94.8168 43.8085 94.9985 43.6456L96.3752 42.6137C96.5335 42.4951 96.7031 42.4057 96.8691 42.2973C97.1152 42.1451 97.3725 42.0007 97.6194 41.864C97.9835 42.4148 98.4288 42.9074 98.9403 43.3251C99.191 43.4991 99.4765 43.6168 99.777 43.6699C100.078 43.723 100.386 43.7103 100.681 43.6327C100.806 43.5897 100.92 43.5225 101.019 43.4351C101.117 43.3476 101.198 43.2416 101.255 43.1232C101.313 43.0047 101.346 42.8761 101.354 42.7447C101.362 42.6132 101.343 42.4816 101.3 42.3572L101.25 42.2393C100.856 41.4916 99.3435 41.3028 98.6028 41.4333C98.5821 41.4488 98.4238 41.4814 98.238 41.5347C98.497 41.3997 98.7559 41.2647 99.0166 41.1392C99.7746 40.7807 100.552 40.4343 101.336 40.0887C101.497 40.0165 101.655 39.9408 101.82 39.8661C102.191 40.4344 102.648 40.9423 103.174 41.3719C103.424 41.5469 103.709 41.6654 104.009 41.719C104.309 41.7726 104.617 41.76 104.912 41.6821C105.036 41.639 105.151 41.5719 105.249 41.4845C105.348 41.397 105.428 41.2911 105.486 41.1726C105.543 41.0541 105.577 40.9255 105.584 40.7941C105.592 40.6626 105.574 40.531 105.531 40.4066L105.48 40.2887C105.086 39.541 103.574 39.3522 102.833 39.4827C102.813 39.4982 102.622 39.5386 102.414 39.5978C102.838 39.4036 103.254 39.205 103.665 38.9935C104.367 38.6342 105.043 38.2293 105.691 37.7811C106.076 38.3648 106.543 38.8892 107.079 39.3378C107.329 39.5126 107.614 39.6307 107.915 39.6838C108.216 39.737 108.525 39.7239 108.82 39.6454C108.944 39.6023 109.059 39.5352 109.157 39.4477C109.256 39.3603 109.336 39.2543 109.393 39.1359C109.451 39.0174 109.484 38.8888 109.492 38.7574C109.5 38.6259 109.482 38.4942 109.439 38.3699L109.39 38.2554C108.997 37.5078 107.484 37.3189 106.741 37.446C106.7 37.4769 106.024 37.6505 105.788 37.7304C106.415 37.2749 107 36.7643 107.536 36.2049C108.02 35.7116 108.475 35.191 108.899 34.6457C109.292 34.1365 109.626 33.6497 109.912 33.2145C110.066 32.9815 110.202 32.7613 110.329 32.5583C110.329 32.5583 111.176 31.9882 111.225 31.9461C111.793 31.4499 112.6 30.152 112.266 29.376C112.21 29.2562 112.13 29.1488 112.033 29.0598C111.935 28.9707 111.821 28.9019 111.696 28.8573C111.572 28.8126 111.44 28.793 111.308 28.7996C111.176 28.8061 111.046 28.8388 110.927 28.8955C110.9 28.9137 110.873 28.9335 110.848 28.9549C110.603 29.135 110.401 29.366 110.254 29.6319C110.107 29.8978 110.02 30.1924 109.998 30.4953C110.001 31.1785 110.109 31.857 110.318 32.5075C110.184 32.7157 110.038 32.9376 109.868 33.1836C109.573 33.6084 109.234 34.0883 108.832 34.5837C108.72 34.7153 108.599 34.8546 108.485 34.9888C108.634 34.7213 108.828 34.3497 108.843 34.3119C109.116 33.6074 109.235 32.0883 108.58 31.5521C108.371 31.3904 108.107 31.3183 107.844 31.3516C107.582 31.3849 107.344 31.5209 107.182 31.7298C107.158 31.7588 107.136 31.7896 107.116 31.8218C106.98 32.0942 106.905 32.3932 106.896 32.6976C106.888 33.0021 106.946 33.3047 107.067 33.5844C107.391 34.1893 107.805 34.7417 108.295 35.2227C108.034 35.5203 107.761 35.8161 107.461 36.1111C106.919 36.6521 106.332 37.1447 105.704 37.5833L105.598 37.6633C105.692 37.5446 106.167 36.8445 106.192 36.7929C106.544 36.1211 106.825 34.6253 106.233 34.0212C106.138 33.93 106.026 33.8585 105.903 33.8107C105.78 33.7629 105.649 33.7398 105.518 33.7426C105.386 33.7455 105.256 33.7742 105.136 33.8272C105.015 33.8803 104.906 33.9566 104.815 34.0517C104.788 34.0699 104.761 34.0897 104.736 34.111C104.572 34.3673 104.466 34.6558 104.425 34.957C104.383 35.2581 104.407 35.5646 104.495 35.8555C104.754 36.5085 105.113 37.1174 105.558 37.6607C104.919 38.0797 104.254 38.4565 103.566 38.7887C103.063 39.0363 102.538 39.2684 102.008 39.4936C102.13 39.3328 102.569 38.686 102.595 38.6344C102.949 37.9661 103.231 36.4702 102.638 35.8662C102.544 35.7746 102.433 35.7025 102.311 35.654C102.189 35.6056 102.058 35.5817 101.927 35.5837C101.796 35.5857 101.666 35.6137 101.546 35.6659C101.425 35.7181 101.316 35.7936 101.225 35.8881L101.154 35.9732C100.988 36.2278 100.881 36.5158 100.839 36.8167C100.797 37.1176 100.821 37.424 100.911 37.7143C101.171 38.3636 101.526 38.9706 101.965 39.5151L101.246 39.8177C100.458 40.1504 99.6595 40.4693 98.8989 40.8243C98.6296 40.9455 98.3715 41.0745 98.1099 41.206C98.2838 40.9575 98.5876 40.5094 98.6229 40.4561C98.9766 39.7878 99.2558 38.2884 98.6659 37.6878C98.5717 37.5962 98.4604 37.5241 98.3384 37.4757C98.2163 37.4272 98.0859 37.4033 97.9546 37.4054C97.8233 37.4074 97.6937 37.4353 97.5732 37.4876C97.4527 37.5398 97.3437 37.6153 97.2525 37.7097L97.1819 37.7949C97.016 38.0494 96.9082 38.3374 96.8662 38.6383C96.8242 38.9392 96.849 39.2457 96.9388 39.5359C97.1854 40.1645 97.5261 40.752 97.949 41.2783C97.5188 41.4932 97.0998 41.7159 96.6937 41.9557C96.532 42.077 96.3358 42.1595 96.1783 42.2722C96.0209 42.3848 95.8651 42.5069 95.6922 42.5989L94.343 43.6101C94.553 43.3883 94.8834 43.0331 94.9101 42.9969C95.3568 42.388 95.8665 40.9524 95.372 40.2641C95.2117 40.054 94.9749 39.9157 94.7131 39.8793C94.4513 39.843 94.1857 39.9116 93.9742 40.0701C93.942 40.0916 93.9109 40.1148 93.8813 40.1398C93.6801 40.3673 93.5311 40.6362 93.4448 40.9274C93.3585 41.2186 93.337 41.5252 93.3818 41.8257C93.535 42.5038 93.7922 43.1542 94.1443 43.7537C93.8001 44.0117 93.4387 44.2826 93.1349 44.5586C92.1385 45.3807 91.3417 46.0962 90.7953 46.6079C90.2489 47.1195 89.9374 47.4283 89.9374 47.4283C89.9095 47.4557 89.8874 47.4884 89.8723 47.5244C89.8571 47.5605 89.8492 47.5991 89.849 47.6382C89.8489 47.6773 89.8564 47.716 89.8713 47.7522C89.8861 47.7884 89.9079 47.8212 89.9355 47.8489C89.9915 47.9041 90.0669 47.9352 90.1455 47.9355C90.2241 47.9359 90.2997 47.9055 90.3562 47.8508C90.6069 47.5648 90.8735 47.2932 91.1547 47.0372Z" fill="#22B573"/>
<path d="M108.423 35.2089C108.423 35.2089 109.554 36.1788 110.188 36.3588C110.475 36.4603 110.78 36.498 111.082 36.4691C111.385 36.4402 111.677 36.3455 111.939 36.1916C112.155 36.0369 112.301 35.8033 112.345 35.5414C112.39 35.2796 112.329 35.0109 112.176 34.7937L112.114 34.7111C111.539 34.0941 110.03 34.3113 109.361 34.6242C109.286 34.6595 108.412 35.2012 108.423 35.2089Z" fill="#22B573"/>
<g opacity="0.1">
<path d="M90.6534 46.693C90.8541 45.9782 91.1572 44.9555 91.5748 43.7555C91.6927 43.4037 91.8227 43.0321 91.9648 42.6623C92.6266 42.8758 93.3167 42.9891 94.0121 42.9984C94.3147 42.9755 94.6089 42.8876 94.8744 42.7405C95.1399 42.5935 95.3705 42.3908 95.5505 42.1464C95.6854 41.9212 95.7258 41.6517 95.6627 41.3968C95.5996 41.142 95.4381 40.9224 95.2137 40.7862L95.1225 40.7363C94.3398 40.4092 93.0578 41.2088 92.5561 41.773C92.5182 41.8013 92.1946 42.2804 92.0405 42.5195L92.3014 41.8348C92.4331 41.4942 92.5821 41.1407 92.7232 40.7984L92.9677 40.2711C93.0461 40.0887 93.1433 39.9245 93.2363 39.7473C93.368 39.4927 93.5246 39.2355 93.6718 38.9801C94.2637 39.2736 94.8969 39.4751 95.5495 39.5777C95.8531 39.6014 96.1582 39.559 96.4438 39.4535C96.7294 39.348 96.9887 39.1819 97.204 38.9666C97.3727 38.76 97.4525 38.495 97.426 38.2297C97.3994 37.9644 97.2687 37.7204 97.0625 37.5514L97.0014 37.5058C96.2824 37.0557 94.8817 37.654 94.3018 38.1424C94.3018 38.1424 94.1727 38.2714 94.0393 38.409C94.1942 38.1639 94.3491 37.9187 94.5161 37.6753C94.9869 36.9839 95.4912 36.2941 95.9904 35.5975C96.0936 35.4555 96.1943 35.3102 96.301 35.1657C96.909 35.4667 97.5584 35.6756 98.2278 35.7857C98.5306 35.8098 98.8351 35.7678 99.1201 35.6628C99.4052 35.5577 99.664 35.392 99.8788 35.1771C99.9626 35.0758 100.026 34.959 100.064 34.8333C100.103 34.7076 100.116 34.5755 100.103 34.4446C100.091 34.3138 100.052 34.1867 99.9903 34.0707C99.9284 33.9548 99.8442 33.8522 99.7425 33.7689L99.6762 33.7164C98.9607 33.2636 97.5565 33.8645 96.98 34.3504C96.9594 34.3659 96.826 34.5035 96.6771 34.6634C96.9336 34.2885 97.1875 33.91 97.4336 33.5213C97.8596 32.8595 98.2406 32.1699 98.5741 31.457C99.2008 31.7761 99.8726 31.9977 100.566 32.114C100.869 32.1381 101.174 32.0961 101.459 31.9911C101.744 31.886 102.002 31.7203 102.217 31.5054C102.301 31.4042 102.364 31.2873 102.403 31.1616C102.441 31.0359 102.454 30.9038 102.442 30.773C102.429 30.6421 102.391 30.515 102.329 30.3991C102.267 30.2831 102.183 30.1805 102.081 30.0972L102.032 30.0318C101.313 29.5817 99.9122 30.18 99.3357 30.6658C99.2909 30.6994 98.8168 31.1999 98.6515 31.3882L98.6722 31.3727C98.9852 30.664 99.2325 29.9281 99.411 29.1742C99.5782 28.503 99.7054 27.8226 99.7918 27.1364C99.86 26.5101 99.9178 25.9131 99.9541 25.4022C99.9696 25.1217 99.9792 24.8619 99.9827 24.6228C99.9827 24.6228 100.434 23.7042 100.452 23.6422C100.693 22.924 100.736 21.4031 100.058 20.9005C99.9481 20.8236 99.8241 20.7693 99.6931 20.741C99.5621 20.7126 99.4268 20.7107 99.295 20.7353C99.1633 20.7599 99.0378 20.8107 98.9259 20.8844C98.814 20.9582 98.718 21.0536 98.6435 21.165L98.591 21.2527C98.4684 21.5308 98.408 21.8323 98.4138 22.1361C98.4197 22.4399 98.4917 22.7388 98.6249 23.012C98.9721 23.5998 99.4067 24.1313 99.9139 24.5883C99.9087 24.8395 99.8922 25.1045 99.8715 25.3995C99.8309 25.9191 99.7748 26.5041 99.6886 27.1492C99.661 27.3204 99.6291 27.5002 99.5946 27.6765C99.5964 27.4215 99.5847 27.1665 99.5596 26.9126C99.442 26.1676 98.786 24.8048 97.943 24.6626C97.8133 24.6435 97.681 24.6502 97.5539 24.6825C97.4268 24.7147 97.3073 24.7719 97.2023 24.8505C97.0974 24.9292 97.0091 25.0278 96.9424 25.1408C96.8758 25.2538 96.8322 25.3788 96.8141 25.5087C96.808 25.5448 96.8048 25.5813 96.8046 25.618C96.8243 25.9213 96.9098 26.2167 97.0552 26.4837C97.2005 26.7507 97.4023 26.9829 97.6463 27.1641C98.2292 27.5262 98.8638 27.7974 99.5283 27.9681C99.4542 28.3569 99.3672 28.7501 99.2535 29.1578C99.0612 29.8987 98.8015 30.6205 98.4778 31.3142C98.4485 31.3481 98.4271 31.388 98.415 31.4311C98.4365 31.2806 98.4927 30.4376 98.4918 30.3791C98.462 29.6221 97.9488 28.1844 97.1325 27.9631C96.876 27.8998 96.6049 27.9409 96.3786 28.0773C96.1523 28.2136 95.9893 28.4341 95.9254 28.6905L95.903 28.804C95.8914 29.1102 95.9469 29.4152 96.0657 29.6976C96.1845 29.98 96.3637 30.233 96.5907 30.4387C97.1449 30.8751 97.7658 31.2192 98.4296 31.4578C98.0885 32.1388 97.7038 32.7969 97.278 33.4283C96.9647 33.8996 96.6282 34.3615 96.2882 34.8259C96.3107 34.6263 96.3642 33.8444 96.36 33.7885C96.3301 33.0314 95.8195 31.5972 95.0041 31.3699C94.7459 31.308 94.4737 31.3506 94.2468 31.4884C94.0199 31.6263 93.8567 31.8482 93.7926 32.1059L93.7745 32.2108C93.762 32.5171 93.8172 32.8224 93.936 33.1049C94.0549 33.3874 94.2345 33.6403 94.4622 33.8455C95.0121 34.2775 95.6247 34.6232 96.2788 34.8706L95.8115 35.495C95.296 36.177 94.7805 36.8591 94.289 37.5445C94.1195 37.7845 93.962 38.0262 93.7985 38.267C93.8261 37.9668 93.8607 37.4248 93.8615 37.3758C93.8317 36.6188 93.3039 35.1975 92.5022 34.9598C92.2422 34.8989 91.9687 34.9434 91.7414 35.0836C91.5141 35.2238 91.3515 35.4482 91.2891 35.7078L91.2727 35.8007C91.2602 36.107 91.3153 36.4123 91.4342 36.6948C91.553 36.9773 91.7327 37.2302 91.9604 37.4354C92.4895 37.8545 93.0798 38.1898 93.7107 38.4295C93.4645 38.8183 93.1926 39.2372 92.9619 39.6466C92.8689 39.8237 92.7605 40.0018 92.6796 40.1807L92.423 40.7062C92.2603 41.0701 92.1106 41.4081 91.9694 41.7504C91.8953 41.9242 91.8316 42.0902 91.7585 42.2579C91.8317 41.9611 91.9368 41.4846 91.9428 41.4424C92.023 40.6889 91.7396 39.192 90.9655 38.8476C90.8444 38.7976 90.7145 38.7719 90.5835 38.772C90.4524 38.7722 90.3226 38.7981 90.2016 38.8484C90.0805 38.8987 89.9706 38.9723 89.878 39.0651C89.7855 39.1579 89.7121 39.268 89.6621 39.3892C89.638 39.4072 89.6371 39.4563 89.6259 39.4916C89.5657 39.7897 89.5714 40.0975 89.6426 40.3932C89.7138 40.689 89.8489 40.9655 90.0383 41.2036C90.5159 41.7092 91.0661 42.1411 91.6706 42.485C91.5036 42.9004 91.3444 43.3047 91.204 43.684C90.7572 44.8951 90.43 45.9144 90.1966 46.643C89.9633 47.3715 89.8677 47.7818 89.8677 47.7818C89.854 47.8206 89.8488 47.8618 89.8525 47.9027C89.8561 47.9436 89.8684 47.9833 89.8886 48.0191C89.9088 48.0548 89.9364 48.0859 89.9695 48.1101C90.0027 48.1343 90.0407 48.1512 90.0809 48.1596C90.1197 48.1707 90.1604 48.1739 90.2006 48.169C90.2407 48.164 90.2794 48.1511 90.3144 48.1308C90.3494 48.1106 90.38 48.0836 90.4043 48.0513C90.4287 48.019 90.4462 47.9821 90.456 47.9429C90.4617 47.519 90.5281 47.098 90.6534 46.693Z" fill="black"/>
<path d="M99.627 27.7815C99.627 27.7815 101.091 28.0495 101.732 27.8863C102.03 27.8285 102.312 27.7071 102.559 27.5303C102.806 27.3536 103.012 27.1257 103.163 26.8622C103.273 26.6205 103.283 26.3448 103.19 26.0959C103.097 25.847 102.909 25.6451 102.668 25.5346L102.569 25.4959C101.76 25.2479 100.563 26.1981 100.137 26.8191C100.098 26.875 99.615 27.7798 99.627 27.7815Z" fill="black"/>
<path d="M91.1547 47.0372C91.6865 46.5204 92.461 45.7894 93.4307 44.9604C93.7078 44.7205 94.0047 44.4711 94.3144 44.2175C94.7798 44.7329 95.3188 45.1766 95.9141 45.5341C96.1867 45.6685 96.4854 45.7414 96.7892 45.7477C97.093 45.7541 97.3945 45.6937 97.6724 45.5708C97.7882 45.5068 97.8902 45.4205 97.9726 45.317C98.0551 45.2135 98.1163 45.0947 98.1527 44.9675C98.1892 44.8403 98.2002 44.7072 98.1852 44.5757C98.1702 44.4443 98.1294 44.3171 98.0651 44.2014L98.0006 44.1154C97.4847 43.427 95.9775 43.4816 95.2583 43.7197C95.2239 43.7455 94.693 43.9767 94.4289 44.1048C94.6266 43.9618 94.8168 43.8085 94.9985 43.6456L96.3752 42.6137C96.5335 42.4951 96.7031 42.4057 96.8691 42.2973C97.1152 42.1451 97.3725 42.0007 97.6194 41.864C97.9835 42.4148 98.4288 42.9074 98.9403 43.3251C99.191 43.4991 99.4765 43.6168 99.777 43.6699C100.078 43.723 100.386 43.7103 100.681 43.6327C100.806 43.5897 100.92 43.5225 101.019 43.4351C101.117 43.3476 101.198 43.2416 101.255 43.1232C101.313 43.0047 101.346 42.8761 101.354 42.7447C101.362 42.6132 101.343 42.4816 101.3 42.3572L101.25 42.2393C100.856 41.4916 99.3435 41.3028 98.6028 41.4333C98.5821 41.4488 98.4238 41.4814 98.238 41.5347C98.497 41.3997 98.7559 41.2647 99.0166 41.1392C99.7746 40.7807 100.552 40.4343 101.336 40.0887C101.497 40.0165 101.655 39.9408 101.82 39.8661C102.191 40.4344 102.648 40.9423 103.174 41.3719C103.424 41.5469 103.709 41.6654 104.009 41.719C104.309 41.7726 104.617 41.76 104.912 41.6821C105.036 41.639 105.151 41.5719 105.249 41.4845C105.348 41.397 105.428 41.2911 105.486 41.1726C105.543 41.0541 105.577 40.9255 105.584 40.7941C105.592 40.6626 105.574 40.531 105.531 40.4066L105.48 40.2887C105.086 39.541 103.574 39.3522 102.833 39.4827C102.813 39.4982 102.622 39.5386 102.414 39.5978C102.838 39.4036 103.254 39.205 103.665 38.9935C104.367 38.6342 105.043 38.2293 105.691 37.7811C106.076 38.3648 106.543 38.8892 107.079 39.3378C107.329 39.5126 107.614 39.6307 107.915 39.6838C108.216 39.737 108.525 39.7239 108.82 39.6454C108.944 39.6023 109.059 39.5352 109.157 39.4477C109.256 39.3603 109.336 39.2543 109.393 39.1359C109.451 39.0174 109.484 38.8888 109.492 38.7574C109.5 38.6259 109.482 38.4942 109.439 38.3699L109.39 38.2554C108.997 37.5078 107.484 37.3189 106.741 37.446C106.7 37.4769 106.024 37.6505 105.788 37.7304C106.415 37.2749 107 36.7643 107.536 36.2049C108.02 35.7116 108.475 35.191 108.899 34.6457C109.292 34.1365 109.626 33.6497 109.912 33.2145C110.066 32.9815 110.202 32.7613 110.329 32.5583C110.329 32.5583 111.176 31.9882 111.225 31.9461C111.793 31.4499 112.6 30.152 112.266 29.376C112.21 29.2562 112.13 29.1488 112.033 29.0598C111.935 28.9707 111.821 28.9019 111.696 28.8573C111.572 28.8126 111.44 28.793 111.308 28.7996C111.176 28.8061 111.046 28.8388 110.927 28.8955C110.9 28.9137 110.873 28.9335 110.848 28.9549C110.603 29.135 110.401 29.366 110.254 29.6319C110.107 29.8978 110.02 30.1924 109.998 30.4953C110.001 31.1785 110.109 31.857 110.318 32.5075C110.184 32.7157 110.038 32.9376 109.868 33.1836C109.573 33.6084 109.234 34.0883 108.832 34.5837C108.72 34.7153 108.599 34.8546 108.485 34.9888C108.634 34.7213 108.828 34.3497 108.843 34.3119C109.116 33.6074 109.235 32.0883 108.58 31.5521C108.371 31.3904 108.107 31.3183 107.844 31.3516C107.582 31.3849 107.344 31.5209 107.182 31.7298C107.158 31.7588 107.136 31.7896 107.116 31.8218C106.98 32.0942 106.905 32.3932 106.896 32.6976C106.888 33.0021 106.946 33.3047 107.067 33.5844C107.391 34.1893 107.805 34.7417 108.295 35.2227C108.034 35.5203 107.761 35.8161 107.461 36.1111C106.919 36.6521 106.332 37.1447 105.704 37.5833L105.598 37.6633C105.692 37.5446 106.167 36.8445 106.192 36.7929C106.544 36.1211 106.825 34.6253 106.233 34.0212C106.138 33.93 106.026 33.8585 105.903 33.8107C105.78 33.7629 105.649 33.7398 105.518 33.7426C105.386 33.7455 105.256 33.7742 105.136 33.8272C105.015 33.8803 104.906 33.9566 104.815 34.0517C104.788 34.0699 104.761 34.0897 104.736 34.111C104.572 34.3673 104.466 34.6558 104.425 34.957C104.383 35.2581 104.407 35.5646 104.495 35.8555C104.754 36.5085 105.113 37.1174 105.558 37.6607C104.919 38.0797 104.254 38.4565 103.566 38.7887C103.063 39.0363 102.538 39.2684 102.008 39.4936C102.13 39.3328 102.569 38.686 102.595 38.6344C102.949 37.9661 103.231 36.4702 102.638 35.8662C102.544 35.7746 102.433 35.7025 102.311 35.654C102.189 35.6056 102.058 35.5817 101.927 35.5837C101.796 35.5857 101.666 35.6137 101.546 35.6659C101.425 35.7181 101.316 35.7936 101.225 35.8881L101.154 35.9732C100.988 36.2278 100.881 36.5158 100.839 36.8167C100.797 37.1176 100.821 37.424 100.911 37.7143C101.171 38.3636 101.526 38.9706 101.965 39.5151L101.246 39.8177C100.458 40.1504 99.6595 40.4693 98.8989 40.8243C98.6296 40.9455 98.3715 41.0745 98.1099 41.206C98.2838 40.9575 98.5876 40.5094 98.6229 40.4561C98.9766 39.7878 99.2558 38.2884 98.6659 37.6878C98.5717 37.5962 98.4604 37.5241 98.3384 37.4757C98.2163 37.4272 98.0859 37.4033 97.9546 37.4054C97.8233 37.4074 97.6937 37.4353 97.5732 37.4876C97.4527 37.5398 97.3437 37.6153 97.2525 37.7097L97.1819 37.7949C97.016 38.0494 96.9082 38.3374 96.8662 38.6383C96.8242 38.9392 96.849 39.2457 96.9388 39.5359C97.1854 40.1645 97.5261 40.752 97.949 41.2783C97.5188 41.4932 97.0998 41.7159 96.6937 41.9557C96.532 42.077 96.3358 42.1595 96.1783 42.2722C96.0209 42.3848 95.8651 42.5069 95.6922 42.5989L94.343 43.6101C94.553 43.3883 94.8834 43.0331 94.9101 42.9969C95.3568 42.388 95.8665 40.9524 95.372 40.2641C95.2117 40.054 94.9749 39.9157 94.7131 39.8793C94.4513 39.843 94.1857 39.9116 93.9742 40.0701C93.942 40.0916 93.9109 40.1148 93.8813 40.1398C93.6801 40.3673 93.5311 40.6362 93.4448 40.9274C93.3585 41.2186 93.337 41.5252 93.3818 41.8257C93.535 42.5038 93.7922 43.1542 94.1443 43.7537C93.8001 44.0117 93.4387 44.2826 93.1349 44.5586C92.1385 45.3807 91.3417 46.0962 90.7953 46.6079C90.2489 47.1195 89.9374 47.4283 89.9374 47.4283C89.9095 47.4557 89.8874 47.4884 89.8723 47.5244C89.8571 47.5605 89.8492 47.5991 89.849 47.6382C89.8489 47.6773 89.8564 47.716 89.8713 47.7522C89.8861 47.7884 89.9079 47.8212 89.9355 47.8489C89.9915 47.9041 90.0669 47.9352 90.1455 47.9355C90.2241 47.9359 90.2997 47.9055 90.3562 47.8508C90.6069 47.5648 90.8735 47.2932 91.1547 47.0372Z" fill="black"/>
<path d="M108.423 35.2089C108.423 35.2089 109.554 36.1788 110.188 36.3588C110.475 36.4603 110.78 36.498 111.082 36.4691C111.385 36.4402 111.677 36.3455 111.939 36.1916C112.155 36.0369 112.301 35.8033 112.345 35.5414C112.39 35.2796 112.329 35.0109 112.176 34.7937L112.114 34.7111C111.539 34.0941 110.03 34.3113 109.361 34.6242C109.286 34.6595 108.412 35.2012 108.423 35.2089Z" fill="black"/>
</g>
<path d="M25.3456 46.3502C25.145 45.6354 24.8418 44.6127 24.4243 43.4128C24.3063 43.061 24.1763 42.6894 24.0342 42.3195C23.3724 42.533 22.6823 42.6463 21.9869 42.6556C21.6843 42.6328 21.3902 42.5448 21.1246 42.3977C20.8591 42.2507 20.6285 42.048 20.4486 41.8036C20.3136 41.5784 20.2733 41.3089 20.3364 41.054C20.3995 40.7992 20.5609 40.5797 20.7854 40.4435L20.8765 40.3935C21.6592 40.0664 22.9413 40.866 23.443 41.4302C23.4808 41.4586 23.8044 41.9376 23.9585 42.1767L23.6976 41.4921C23.5659 41.1514 23.417 40.7979 23.2758 40.4556L23.0313 39.9283C22.953 39.746 22.8557 39.5817 22.7627 39.4045C22.631 39.1499 22.4744 38.8928 22.3272 38.6373C21.7353 38.9309 21.1021 39.1324 20.4495 39.2349C20.1459 39.2586 19.8409 39.2162 19.5553 39.1107C19.2697 39.0052 19.0103 38.8391 18.795 38.6238C18.6264 38.4173 18.5465 38.1523 18.573 37.8869C18.5996 37.6216 18.7303 37.3777 18.9365 37.2086L18.9976 37.163C19.7166 36.7129 21.1173 37.3112 21.6973 37.7996C21.6973 37.7996 21.8263 37.9286 21.9597 38.0662C21.8048 37.8211 21.6499 37.576 21.4829 37.3326C21.0121 36.6411 20.5078 35.9513 20.0087 35.2547C19.9054 35.1128 19.8047 34.9674 19.698 34.8229C19.09 35.1239 18.4406 35.3328 17.7712 35.4429C17.4684 35.467 17.1639 35.425 16.8789 35.32C16.5938 35.2149 16.335 35.0492 16.1202 34.8343C16.0364 34.7331 15.9734 34.6162 15.9348 34.4905C15.8963 34.3648 15.883 34.2327 15.8957 34.1019C15.9083 33.971 15.9467 33.8439 16.0087 33.728C16.0706 33.612 16.1549 33.5094 16.2566 33.4261L16.3228 33.3736C17.0384 32.9209 18.4425 33.5218 19.019 34.0076C19.0397 34.0231 19.173 34.1607 19.3219 34.3207C19.0654 33.9457 18.8116 33.5672 18.5654 33.1785C18.1394 32.5167 17.7584 31.8271 17.4249 31.1142C16.7982 31.4334 16.1264 31.6549 15.4328 31.7712C15.13 31.7953 14.8255 31.7534 14.5405 31.6483C14.2554 31.5432 13.9966 31.3775 13.7818 31.1627C13.698 31.0614 13.635 30.9445 13.5964 30.8188C13.5579 30.6931 13.5446 30.5611 13.5572 30.4302C13.5699 30.2993 13.6083 30.1723 13.6703 30.0563C13.7322 29.9403 13.8164 29.8377 13.9181 29.7544L13.9672 29.689C14.6862 29.2389 16.0868 29.8372 16.6634 30.323C16.7081 30.3566 17.1823 30.8571 17.3475 31.0454L17.3268 31.03C17.0138 30.3213 16.7665 29.5853 16.5881 28.8314C16.4208 28.1603 16.2937 27.4798 16.2072 26.7936C16.1391 26.1674 16.0812 25.5704 16.0449 25.0594C16.0294 24.7789 16.0198 24.5191 16.0163 24.28C16.0163 24.28 15.5653 23.3614 15.5472 23.2995C15.3061 22.5812 15.2635 21.0603 15.9412 20.5577C16.0509 20.4808 16.1749 20.4265 16.3059 20.3982C16.4369 20.3698 16.5722 20.3679 16.704 20.3925C16.8357 20.4172 16.9612 20.4679 17.0731 20.5417C17.185 20.6155 17.281 20.7109 17.3555 20.8222L17.408 20.91C17.5306 21.188 17.591 21.4895 17.5852 21.7933C17.5793 22.0971 17.5073 22.396 17.3742 22.6692C17.027 23.257 16.5923 23.7886 16.0851 24.2456C16.0904 24.4968 16.1068 24.7617 16.1275 25.0568C16.1681 25.5763 16.2242 26.1613 16.3104 26.8065C16.338 26.9776 16.3699 27.1574 16.4044 27.3338C16.4026 27.0787 16.4143 26.8237 16.4394 26.5698C16.557 25.8248 17.213 24.462 18.056 24.3198C18.1857 24.3007 18.318 24.3075 18.4451 24.3397C18.5722 24.372 18.6917 24.4291 18.7967 24.5077C18.9016 24.5864 18.99 24.6851 19.0566 24.798C19.1232 24.911 19.1668 25.036 19.1849 25.1659C19.1911 25.202 19.1942 25.2386 19.1944 25.2752C19.1747 25.5785 19.0892 25.874 18.9438 26.141C18.7985 26.408 18.5968 26.6401 18.3527 26.8213C17.7699 27.1834 17.1353 27.4546 16.4707 27.6254C16.5448 28.0142 16.6318 28.4073 16.7455 28.815C16.9379 29.5559 17.1975 30.2777 17.5212 30.9714C17.5505 31.0053 17.572 31.0452 17.5841 31.0884C17.5625 30.9378 17.5063 30.0948 17.5072 30.0363C17.5371 29.2793 18.0502 27.8417 18.8665 27.6203C19.123 27.5571 19.3941 27.5981 19.6204 27.7345C19.8467 27.8708 20.0097 28.0914 20.0736 28.3477L20.096 28.4613C20.1077 28.7674 20.0521 29.0724 19.9333 29.3548C19.8145 29.6372 19.6353 29.8902 19.4083 30.096C18.8542 30.5323 18.2332 30.8764 17.5695 31.1151C17.9105 31.796 18.2952 32.4542 18.7211 33.0855C19.0343 33.5568 19.3708 34.0187 19.7108 34.4831C19.6884 34.2836 19.6348 33.5016 19.6391 33.4457C19.6689 32.6887 20.1795 31.2545 20.9949 31.0271C21.2531 30.9652 21.5253 31.0078 21.7522 31.1457C21.9791 31.2835 22.1424 31.5054 22.2064 31.7631L22.2245 31.8681C22.237 32.1743 22.1819 32.4796 22.063 32.7621C21.9441 33.0447 21.7645 33.2975 21.5368 33.5027C20.9869 33.9348 20.3743 34.2804 19.7203 34.5279L20.1876 35.1523C20.7031 35.8343 21.2186 36.5163 21.71 37.2018C21.8795 37.4417 22.037 37.6834 22.2005 37.9242C22.1729 37.624 22.1384 37.082 22.1375 37.033C22.1674 36.276 22.6951 34.8547 23.4968 34.617C23.7568 34.5562 24.0303 34.6007 24.2576 34.7408C24.485 34.881 24.6476 35.1054 24.71 35.3651L24.7263 35.458C24.7388 35.7642 24.6837 36.0695 24.5648 36.352C24.446 36.6346 24.2663 36.8874 24.0386 37.0926C23.5096 37.5117 22.9192 37.847 22.2883 38.0868C22.5345 38.4755 22.8065 38.8944 23.0371 39.3038C23.1301 39.481 23.2385 39.659 23.3195 39.8379L23.576 40.3635C23.7387 40.7273 23.8885 41.0653 24.0296 41.4076C24.1037 41.5814 24.1674 41.7474 24.2406 41.9151C24.1674 41.6184 24.0623 41.1418 24.0562 41.0997C23.976 40.3461 24.2594 38.8492 25.0335 38.5049C25.1547 38.4548 25.2845 38.4291 25.4156 38.4293C25.5466 38.4294 25.6764 38.4553 25.7974 38.5056C25.9185 38.5559 26.0284 38.6296 26.121 38.7223C26.2136 38.8151 26.287 38.9253 26.337 39.0464C26.3611 39.0645 26.3619 39.1135 26.3731 39.1488C26.4334 39.447 26.4277 39.7547 26.3564 40.0504C26.2852 40.3462 26.1501 40.6228 25.9607 40.8608C25.4831 41.3664 24.933 41.7983 24.3284 42.1422C24.4954 42.5577 24.6547 42.9619 24.795 43.3412C25.2418 44.5523 25.5691 45.5716 25.8024 46.3002C26.0358 47.0288 26.1314 47.4391 26.1314 47.4391C26.145 47.4778 26.1502 47.519 26.1466 47.5599C26.143 47.6009 26.1306 47.6405 26.1105 47.6763C26.0903 47.7121 26.0627 47.7431 26.0295 47.7673C25.9963 47.7916 25.9584 47.8084 25.9182 47.8168C25.8793 47.8279 25.8386 47.8311 25.7985 47.8262C25.7583 47.8213 25.7196 47.8083 25.6846 47.7881C25.6496 47.7678 25.619 47.7408 25.5947 47.7085C25.5704 47.6762 25.5528 47.6393 25.543 47.6001C25.5374 47.1762 25.4709 46.7553 25.3456 46.3502Z" fill="#22B573"/>
<path d="M16.372 27.4397C16.372 27.4397 14.9079 27.7077 14.267 27.5445C13.9689 27.4867 13.6867 27.3653 13.4398 27.1885C13.1929 27.0118 12.9869 26.7839 12.8361 26.5204C12.7258 26.2787 12.716 26.003 12.8088 25.7541C12.9017 25.5052 13.0895 25.3033 13.3312 25.1928L13.4301 25.1541C14.2395 24.9061 15.4356 25.8563 15.8624 26.4773C15.9012 26.5332 16.384 27.438 16.372 27.4397Z" fill="#22B573"/>
<path d="M24.8443 46.6945C24.3125 46.1776 23.538 45.4467 22.5683 44.6177C22.2912 44.3777 21.9943 44.1284 21.6846 43.8747C21.2192 44.3901 20.6802 44.8338 20.0849 45.1914C19.8124 45.3257 19.5136 45.3986 19.2098 45.4049C18.906 45.4113 18.6045 45.3509 18.3266 45.228C18.2108 45.164 18.1088 45.0777 18.0264 44.9742C17.944 44.8707 17.8828 44.752 17.8463 44.6248C17.8098 44.4976 17.7988 44.3644 17.8138 44.233C17.8288 44.1015 17.8696 43.9743 17.9339 43.8586L17.9984 43.7726C18.5143 43.0842 20.0215 43.1388 20.7407 43.3769C20.7752 43.4027 21.306 43.6339 21.5701 43.762C21.3724 43.619 21.1823 43.4657 21.0005 43.3028L19.6238 42.271C19.4655 42.1523 19.296 42.0629 19.1299 41.9545C18.8838 41.8023 18.6266 41.6579 18.3796 41.5212C18.0155 42.072 17.5702 42.5646 17.0588 42.9823C16.808 43.1564 16.5225 43.274 16.222 43.3271C15.9214 43.3802 15.6129 43.3675 15.3177 43.29C15.1933 43.2469 15.0786 43.1797 14.9801 43.0923C14.8817 43.0049 14.8014 42.8989 14.7439 42.7804C14.6865 42.662 14.6529 42.5333 14.6452 42.4019C14.6374 42.2705 14.6556 42.1388 14.6988 42.0144L14.7495 41.8965C15.1433 41.1489 16.6555 40.96 17.3962 41.0905C17.4169 41.106 17.5752 41.1386 17.761 41.1919C17.502 41.0569 17.2431 40.922 16.9824 40.7964C16.2244 40.438 15.4466 40.0915 14.6628 39.7459C14.5019 39.6737 14.3436 39.5981 14.1793 39.5233C13.8076 40.0917 13.3508 40.5995 12.8249 41.0291C12.5753 41.2042 12.2905 41.3226 11.9903 41.3762C11.6902 41.4298 11.382 41.4172 11.0873 41.3394C10.9628 41.2963 10.8481 41.2291 10.7497 41.1417C10.6512 41.0543 10.571 40.9483 10.5135 40.8298C10.456 40.7114 10.4225 40.5827 10.4147 40.4513C10.407 40.3199 10.4252 40.1882 10.4684 40.0638L10.5191 39.9459C10.9128 39.1983 12.4251 39.0094 13.1658 39.1399C13.1865 39.1554 13.3766 39.1958 13.5848 39.2551C13.1606 39.0608 12.7451 38.8622 12.3338 38.6507C11.6325 38.2915 10.9556 37.8865 10.3075 37.4384C9.92339 38.022 9.45609 38.5464 8.92044 38.995C8.67008 39.1698 8.38459 39.2879 8.08388 39.3411C7.78318 39.3942 7.4745 39.3811 7.17939 39.3026C7.05497 39.2596 6.94026 39.1924 6.84181 39.105C6.74337 39.0175 6.66311 38.9116 6.60563 38.7931C6.54815 38.6746 6.51459 38.546 6.50684 38.4146C6.49909 38.2831 6.51732 38.1515 6.56048 38.0271L6.60862 37.9127C7.00238 37.165 8.51463 36.9761 9.25793 37.1032C9.29923 37.1342 9.97544 37.3077 10.2112 37.3877C9.58417 36.9321 8.99902 36.4216 8.46268 35.8621C7.97887 35.3689 7.52375 34.8483 7.09957 34.3029C6.70714 33.7938 6.37321 33.307 6.08662 32.8718C5.93342 32.6387 5.79743 32.4185 5.67005 32.2155C5.67005 32.2155 4.8234 31.6454 4.77435 31.6033C4.20557 31.1071 3.39911 29.8092 3.73351 29.0332C3.7895 28.9135 3.86862 28.806 3.96631 28.717C4.06401 28.628 4.17834 28.5591 4.30274 28.5145C4.42714 28.4698 4.55914 28.4502 4.69115 28.4568C4.82316 28.4634 4.95256 28.496 5.07191 28.5528C5.0995 28.5709 5.12594 28.5907 5.15107 28.6121C5.39565 28.7922 5.5983 29.0232 5.7451 29.2891C5.8919 29.555 5.97936 29.8496 6.00147 30.1525C5.9979 30.8357 5.88992 31.5143 5.68122 32.1648C5.81549 32.3729 5.96094 32.5948 6.13134 32.8408C6.42568 33.2657 6.76476 33.7456 7.16751 34.2409C7.27852 34.3725 7.39986 34.5119 7.51431 34.646C7.36541 34.3785 7.17087 34.007 7.15624 33.9691C6.88332 33.2646 6.76414 31.7455 7.41863 31.2094C7.62776 31.0476 7.89252 30.9755 8.15478 31.0088C8.41704 31.0421 8.65538 31.1781 8.81745 31.387C8.84142 31.4161 8.86328 31.4468 8.88285 31.479C9.01903 31.7515 9.09403 32.0504 9.10259 32.3549C9.11116 32.6593 9.05308 32.962 8.93243 33.2416C8.60809 33.8466 8.19409 34.3989 7.7045 34.8799C7.96524 35.1775 8.23804 35.4733 8.53836 35.7683C9.07973 36.3093 9.66737 36.8019 10.2946 37.2405L10.4013 37.3205C10.3075 37.2018 9.8324 36.5017 9.80657 36.4501C9.45538 35.7784 9.17362 34.2825 9.76614 33.6784C9.8612 33.5873 9.9733 33.5157 10.096 33.4679C10.2187 33.4201 10.3497 33.397 10.4813 33.3998C10.613 33.4027 10.7428 33.4314 10.8633 33.4845C10.9839 33.5375 11.0928 33.6138 11.1838 33.7089C11.2114 33.7271 11.2378 33.7469 11.263 33.7683C11.4265 34.0245 11.5327 34.3131 11.5742 34.6142C11.6157 34.9153 11.5916 35.2218 11.5036 35.5128C11.2445 36.1657 10.8861 36.7746 10.4408 37.3179C11.0798 37.7369 11.7454 38.1137 12.4335 38.4459C12.936 38.6935 13.4608 38.9256 13.9908 39.1509C13.8694 38.99 13.4297 38.3433 13.4038 38.2917C13.0501 37.6233 12.7683 36.1275 13.3608 35.5234C13.455 35.4318 13.5663 35.3597 13.6883 35.3113C13.8104 35.2628 13.9408 35.2389 14.0721 35.2409C14.2034 35.243 14.333 35.2709 14.4535 35.3231C14.574 35.3754 14.683 35.4509 14.7742 35.5453L14.8448 35.6305C15.0107 35.885 15.1185 36.173 15.1605 36.4739C15.2025 36.7748 15.1777 37.0813 15.0879 37.3715C14.828 38.0209 14.4728 38.6278 14.0338 39.1723L14.7531 39.4749C15.5412 39.8076 16.3396 40.1265 17.1001 40.4816C17.3694 40.6028 17.6275 40.7317 17.8891 40.8633C17.7153 40.6147 17.4114 40.1666 17.3762 40.1133C17.0224 39.445 16.7432 37.9457 17.3332 37.345C17.4273 37.2535 17.5386 37.1814 17.6606 37.1329C17.7827 37.0844 17.9131 37.0605 18.0444 37.0626C18.1757 37.0646 18.3053 37.0925 18.4258 37.1448C18.5463 37.197 18.6553 37.2725 18.7466 37.367L18.8171 37.4521C18.983 37.7067 19.0908 37.9946 19.1328 38.2955C19.1748 38.5964 19.15 38.9029 19.0602 39.1932C18.8136 39.8217 18.473 40.4092 18.05 40.9355C18.4802 41.1504 18.8992 41.3731 19.3053 41.613C19.4671 41.7342 19.6632 41.8167 19.8207 41.9294C19.9781 42.042 20.1339 42.1641 20.3068 42.2561L21.656 43.2674C21.446 43.0455 21.1156 42.6903 21.0889 42.6542C20.6423 42.0453 20.1325 40.6097 20.627 39.9213C20.7873 39.7112 21.0242 39.5729 21.286 39.5366C21.5478 39.5002 21.8133 39.5688 22.0248 39.7273C22.0571 39.7488 22.0881 39.7721 22.1178 39.797C22.319 40.0245 22.4679 40.2934 22.5542 40.5846C22.6405 40.8759 22.662 41.1825 22.6172 41.4829C22.464 42.1611 22.2068 42.8114 21.8548 43.411C22.1989 43.6689 22.5603 43.9398 22.8641 44.2158C23.8605 45.0379 24.6573 45.7534 25.2037 46.2651C25.7501 46.7768 26.0617 47.0855 26.0617 47.0855C26.0895 47.113 26.1116 47.1456 26.1268 47.1817C26.1419 47.2177 26.1498 47.2564 26.15 47.2955C26.1502 47.3345 26.1426 47.3733 26.1278 47.4094C26.1129 47.4456 26.0911 47.4785 26.0635 47.5062C26.0075 47.5613 25.9322 47.5924 25.8536 47.5927C25.775 47.5931 25.6993 47.5627 25.6428 47.508C25.3921 47.2221 25.1255 46.9505 24.8443 46.6945Z" fill="#22B573"/>
<path d="M7.57556 34.8661C7.57556 34.8661 6.4455 35.836 5.81069 36.016C5.52436 36.1175 5.21928 36.1552 4.91684 36.1263C4.61441 36.0974 4.32197 36.0027 4.06004 35.8488C3.84412 35.6942 3.69804 35.4605 3.65364 35.1987C3.60925 34.9368 3.67014 34.6681 3.82303 34.4509L3.88495 34.3683C4.46026 33.7514 5.96921 33.9685 6.63771 34.2815C6.71343 34.3167 7.58675 34.8584 7.57556 34.8661Z" fill="#22B573"/>
<g opacity="0.1">
<path d="M25.3456 46.3502C25.145 45.6354 24.8418 44.6127 24.4243 43.4128C24.3063 43.061 24.1763 42.6894 24.0342 42.3195C23.3724 42.533 22.6823 42.6463 21.9869 42.6556C21.6843 42.6328 21.3902 42.5448 21.1246 42.3977C20.8591 42.2507 20.6285 42.048 20.4486 41.8036C20.3136 41.5784 20.2733 41.3089 20.3364 41.054C20.3995 40.7992 20.5609 40.5797 20.7854 40.4435L20.8765 40.3935C21.6592 40.0664 22.9413 40.866 23.443 41.4302C23.4808 41.4586 23.8044 41.9376 23.9585 42.1767L23.6976 41.4921C23.5659 41.1514 23.417 40.7979 23.2758 40.4556L23.0313 39.9283C22.953 39.746 22.8557 39.5817 22.7627 39.4045C22.631 39.1499 22.4744 38.8928 22.3272 38.6373C21.7353 38.9309 21.1021 39.1324 20.4495 39.2349C20.1459 39.2586 19.8409 39.2162 19.5553 39.1107C19.2697 39.0052 19.0103 38.8391 18.795 38.6238C18.6264 38.4173 18.5465 38.1523 18.573 37.8869C18.5996 37.6216 18.7303 37.3777 18.9365 37.2086L18.9976 37.163C19.7166 36.7129 21.1173 37.3112 21.6973 37.7996C21.6973 37.7996 21.8263 37.9286 21.9597 38.0662C21.8048 37.8211 21.6499 37.576 21.4829 37.3326C21.0121 36.6411 20.5078 35.9513 20.0087 35.2547C19.9054 35.1128 19.8047 34.9674 19.698 34.8229C19.09 35.1239 18.4406 35.3328 17.7712 35.4429C17.4684 35.467 17.1639 35.425 16.8789 35.32C16.5938 35.2149 16.335 35.0492 16.1202 34.8343C16.0364 34.7331 15.9734 34.6162 15.9348 34.4905C15.8963 34.3648 15.883 34.2327 15.8957 34.1019C15.9083 33.971 15.9467 33.8439 16.0087 33.728C16.0706 33.612 16.1549 33.5094 16.2566 33.4261L16.3228 33.3736C17.0384 32.9209 18.4425 33.5218 19.019 34.0076C19.0397 34.0231 19.173 34.1607 19.3219 34.3207C19.0654 33.9457 18.8116 33.5672 18.5654 33.1785C18.1394 32.5167 17.7584 31.8271 17.4249 31.1142C16.7982 31.4334 16.1264 31.6549 15.4328 31.7712C15.13 31.7953 14.8255 31.7534 14.5405 31.6483C14.2554 31.5432 13.9966 31.3775 13.7818 31.1627C13.698 31.0614 13.635 30.9445 13.5964 30.8188C13.5579 30.6931 13.5446 30.5611 13.5572 30.4302C13.5699 30.2993 13.6083 30.1723 13.6703 30.0563C13.7322 29.9403 13.8164 29.8377 13.9181 29.7544L13.9672 29.689C14.6862 29.2389 16.0868 29.8372 16.6634 30.323C16.7081 30.3566 17.1823 30.8571 17.3475 31.0454L17.3268 31.03C17.0138 30.3213 16.7665 29.5853 16.5881 28.8314C16.4208 28.1603 16.2937 27.4798 16.2072 26.7936C16.1391 26.1674 16.0812 25.5704 16.0449 25.0594C16.0294 24.7789 16.0198 24.5191 16.0163 24.28C16.0163 24.28 15.5653 23.3614 15.5472 23.2995C15.3061 22.5812 15.2635 21.0603 15.9412 20.5577C16.0509 20.4808 16.1749 20.4265 16.3059 20.3982C16.4369 20.3698 16.5722 20.3679 16.704 20.3925C16.8357 20.4172 16.9612 20.4679 17.0731 20.5417C17.185 20.6155 17.281 20.7109 17.3555 20.8222L17.408 20.91C17.5306 21.188 17.591 21.4895 17.5852 21.7933C17.5793 22.0971 17.5073 22.396 17.3742 22.6692C17.027 23.257 16.5923 23.7886 16.0851 24.2456C16.0904 24.4968 16.1068 24.7617 16.1275 25.0568C16.1681 25.5763 16.2242 26.1613 16.3104 26.8065C16.338 26.9776 16.3699 27.1574 16.4044 27.3338C16.4026 27.0787 16.4143 26.8237 16.4394 26.5698C16.557 25.8248 17.213 24.462 18.056 24.3198C18.1857 24.3007 18.318 24.3075 18.4451 24.3397C18.5722 24.372 18.6917 24.4291 18.7967 24.5077C18.9016 24.5864 18.99 24.6851 19.0566 24.798C19.1232 24.911 19.1668 25.036 19.1849 25.1659C19.1911 25.202 19.1942 25.2386 19.1944 25.2752C19.1747 25.5785 19.0892 25.874 18.9438 26.141C18.7985 26.408 18.5968 26.6401 18.3527 26.8213C17.7699 27.1834 17.1353 27.4546 16.4707 27.6254C16.5448 28.0142 16.6318 28.4073 16.7455 28.815C16.9379 29.5559 17.1975 30.2777 17.5212 30.9714C17.5505 31.0053 17.572 31.0452 17.5841 31.0884C17.5625 30.9378 17.5063 30.0948 17.5072 30.0363C17.5371 29.2793 18.0502 27.8417 18.8665 27.6203C19.123 27.5571 19.3941 27.5981 19.6204 27.7345C19.8467 27.8708 20.0097 28.0914 20.0736 28.3477L20.096 28.4613C20.1077 28.7674 20.0521 29.0724 19.9333 29.3548C19.8145 29.6372 19.6353 29.8902 19.4083 30.096C18.8542 30.5323 18.2332 30.8764 17.5695 31.1151C17.9105 31.796 18.2952 32.4542 18.7211 33.0855C19.0343 33.5568 19.3708 34.0187 19.7108 34.4831C19.6884 34.2836 19.6348 33.5016 19.6391 33.4457C19.6689 32.6887 20.1795 31.2545 20.9949 31.0271C21.2531 30.9652 21.5253 31.0078 21.7522 31.1457C21.9791 31.2835 22.1424 31.5054 22.2064 31.7631L22.2245 31.8681C22.237 32.1743 22.1819 32.4796 22.063 32.7621C21.9441 33.0447 21.7645 33.2975 21.5368 33.5027C20.9869 33.9348 20.3743 34.2804 19.7203 34.5279L20.1876 35.1523C20.7031 35.8343 21.2186 36.5163 21.71 37.2018C21.8795 37.4417 22.037 37.6834 22.2005 37.9242C22.1729 37.624 22.1384 37.082 22.1375 37.033C22.1674 36.276 22.6951 34.8547 23.4968 34.617C23.7568 34.5562 24.0303 34.6007 24.2576 34.7408C24.485 34.881 24.6476 35.1054 24.71 35.3651L24.7263 35.458C24.7388 35.7642 24.6837 36.0695 24.5648 36.352C24.446 36.6346 24.2663 36.8874 24.0386 37.0926C23.5096 37.5117 22.9192 37.847 22.2883 38.0868C22.5345 38.4755 22.8065 38.8944 23.0371 39.3038C23.1301 39.481 23.2385 39.659 23.3195 39.8379L23.576 40.3635C23.7387 40.7273 23.8885 41.0653 24.0296 41.4076C24.1037 41.5814 24.1674 41.7474 24.2406 41.9151C24.1674 41.6184 24.0623 41.1418 24.0562 41.0997C23.976 40.3461 24.2594 38.8492 25.0335 38.5049C25.1547 38.4548 25.2845 38.4291 25.4156 38.4293C25.5466 38.4294 25.6764 38.4553 25.7974 38.5056C25.9185 38.5559 26.0284 38.6296 26.121 38.7223C26.2136 38.8151 26.287 38.9253 26.337 39.0464C26.3611 39.0645 26.3619 39.1135 26.3731 39.1488C26.4334 39.447 26.4277 39.7547 26.3564 40.0504C26.2852 40.3462 26.1501 40.6228 25.9607 40.8608C25.4831 41.3664 24.933 41.7983 24.3284 42.1422C24.4954 42.5577 24.6547 42.9619 24.795 43.3412C25.2418 44.5523 25.5691 45.5716 25.8024 46.3002C26.0358 47.0288 26.1314 47.4391 26.1314 47.4391C26.145 47.4778 26.1502 47.519 26.1466 47.5599C26.143 47.6009 26.1306 47.6405 26.1105 47.6763C26.0903 47.7121 26.0627 47.7431 26.0295 47.7673C25.9963 47.7916 25.9584 47.8084 25.9182 47.8168C25.8793 47.8279 25.8386 47.8311 25.7985 47.8262C25.7583 47.8213 25.7196 47.8083 25.6846 47.7881C25.6496 47.7678 25.619 47.7408 25.5947 47.7085C25.5704 47.6762 25.5528 47.6393 25.543 47.6001C25.5374 47.1762 25.4709 46.7553 25.3456 46.3502Z" fill="black"/>
<path d="M16.372 27.4388C16.372 27.4388 14.9079 27.7067 14.267 27.5435C13.9689 27.4857 13.6867 27.3643 13.4398 27.1876C13.1929 27.0108 12.9869 26.7829 12.8361 26.5194C12.7258 26.2777 12.716 26.0021 12.8088 25.7531C12.9017 25.5042 13.0895 25.3023 13.3312 25.1919L13.4301 25.1531C14.2395 24.9051 15.4356 25.8553 15.8624 26.4763C15.9012 26.5322 16.384 27.437 16.372 27.4388Z" fill="black"/>
<path d="M24.8443 46.6945C24.3125 46.1776 23.538 45.4467 22.5683 44.6177C22.2912 44.3777 21.9943 44.1284 21.6846 43.8747C21.2192 44.3901 20.6802 44.8338 20.0849 45.1914C19.8124 45.3257 19.5136 45.3986 19.2098 45.4049C18.906 45.4113 18.6045 45.3509 18.3266 45.228C18.2108 45.164 18.1088 45.0777 18.0264 44.9742C17.944 44.8707 17.8828 44.752 17.8463 44.6248C17.8098 44.4976 17.7988 44.3644 17.8138 44.233C17.8288 44.1015 17.8696 43.9743 17.9339 43.8586L17.9984 43.7726C18.5143 43.0842 20.0215 43.1388 20.7407 43.3769C20.7752 43.4027 21.306 43.6339 21.5701 43.762C21.3724 43.619 21.1823 43.4657 21.0005 43.3028L19.6238 42.271C19.4655 42.1523 19.296 42.0629 19.1299 41.9545C18.8838 41.8023 18.6266 41.6579 18.3796 41.5212C18.0155 42.072 17.5702 42.5646 17.0588 42.9823C16.808 43.1564 16.5225 43.274 16.222 43.3271C15.9214 43.3802 15.6129 43.3675 15.3177 43.29C15.1933 43.2469 15.0786 43.1797 14.9801 43.0923C14.8817 43.0049 14.8014 42.8989 14.7439 42.7804C14.6865 42.662 14.6529 42.5333 14.6452 42.4019C14.6374 42.2705 14.6556 42.1388 14.6988 42.0144L14.7495 41.8965C15.1433 41.1489 16.6555 40.96 17.3962 41.0905C17.4169 41.106 17.5752 41.1386 17.761 41.1919C17.502 41.0569 17.2431 40.922 16.9824 40.7964C16.2244 40.438 15.4466 40.0915 14.6628 39.7459C14.5019 39.6737 14.3436 39.5981 14.1793 39.5233C13.8076 40.0917 13.3508 40.5995 12.8249 41.0291C12.5753 41.2042 12.2905 41.3226 11.9903 41.3762C11.6902 41.4298 11.382 41.4172 11.0873 41.3394C10.9628 41.2963 10.8481 41.2291 10.7497 41.1417C10.6512 41.0543 10.571 40.9483 10.5135 40.8298C10.456 40.7114 10.4225 40.5827 10.4147 40.4513C10.407 40.3199 10.4252 40.1882 10.4684 40.0638L10.5191 39.9459C10.9128 39.1983 12.4251 39.0094 13.1658 39.1399C13.1865 39.1554 13.3766 39.1958 13.5848 39.2551C13.1606 39.0608 12.7451 38.8622 12.3338 38.6507C11.6325 38.2915 10.9556 37.8865 10.3075 37.4384C9.92339 38.022 9.45609 38.5464 8.92044 38.995C8.67008 39.1698 8.38459 39.2879 8.08388 39.3411C7.78318 39.3942 7.4745 39.3811 7.17939 39.3026C7.05497 39.2596 6.94026 39.1924 6.84181 39.105C6.74337 39.0175 6.66311 38.9116 6.60563 38.7931C6.54815 38.6746 6.51459 38.546 6.50684 38.4146C6.49909 38.2831 6.51732 38.1515 6.56048 38.0271L6.60862 37.9127C7.00238 37.165 8.51463 36.9761 9.25793 37.1032C9.29923 37.1342 9.97544 37.3077 10.2112 37.3877C9.58417 36.9321 8.99902 36.4216 8.46268 35.8621C7.97887 35.3689 7.52375 34.8483 7.09957 34.3029C6.70714 33.7938 6.37321 33.307 6.08662 32.8718C5.93342 32.6387 5.79743 32.4185 5.67005 32.2155C5.67005 32.2155 4.8234 31.6454 4.77435 31.6033C4.20557 31.1071 3.39911 29.8092 3.73351 29.0332C3.7895 28.9135 3.86862 28.806 3.96631 28.717C4.06401 28.628 4.17834 28.5591 4.30274 28.5145C4.42714 28.4698 4.55914 28.4502 4.69115 28.4568C4.82316 28.4634 4.95256 28.496 5.07191 28.5528C5.0995 28.5709 5.12594 28.5907 5.15107 28.6121C5.39565 28.7922 5.5983 29.0232 5.7451 29.2891C5.8919 29.555 5.97936 29.8496 6.00147 30.1525C5.9979 30.8357 5.88992 31.5143 5.68122 32.1648C5.81549 32.3729 5.96094 32.5948 6.13134 32.8408C6.42568 33.2657 6.76476 33.7456 7.16751 34.2409C7.27852 34.3725 7.39986 34.5119 7.51431 34.646C7.36541 34.3785 7.17087 34.007 7.15624 33.9691C6.88332 33.2646 6.76414 31.7455 7.41863 31.2094C7.62776 31.0476 7.89252 30.9755 8.15478 31.0088C8.41704 31.0421 8.65538 31.1781 8.81745 31.387C8.84142 31.4161 8.86328 31.4468 8.88285 31.479C9.01903 31.7515 9.09403 32.0504 9.10259 32.3549C9.11116 32.6593 9.05308 32.962 8.93243 33.2416C8.60809 33.8466 8.19409 34.3989 7.7045 34.8799C7.96524 35.1775 8.23804 35.4733 8.53836 35.7683C9.07973 36.3093 9.66737 36.8019 10.2946 37.2405L10.4013 37.3205C10.3075 37.2018 9.8324 36.5017 9.80657 36.4501C9.45538 35.7784 9.17362 34.2825 9.76614 33.6784C9.8612 33.5873 9.9733 33.5157 10.096 33.4679C10.2187 33.4201 10.3497 33.397 10.4813 33.3998C10.613 33.4027 10.7428 33.4314 10.8633 33.4845C10.9839 33.5375 11.0928 33.6138 11.1838 33.7089C11.2114 33.7271 11.2378 33.7469 11.263 33.7683C11.4265 34.0245 11.5327 34.3131 11.5742 34.6142C11.6157 34.9153 11.5916 35.2218 11.5036 35.5128C11.2445 36.1657 10.8861 36.7746 10.4408 37.3179C11.0798 37.7369 11.7454 38.1137 12.4335 38.4459C12.936 38.6935 13.4608 38.9256 13.9908 39.1509C13.8694 38.99 13.4297 38.3433 13.4038 38.2917C13.0501 37.6233 12.7683 36.1275 13.3608 35.5234C13.455 35.4318 13.5663 35.3597 13.6883 35.3113C13.8104 35.2628 13.9408 35.2389 14.0721 35.2409C14.2034 35.243 14.333 35.2709 14.4535 35.3231C14.574 35.3754 14.683 35.4509 14.7742 35.5453L14.8448 35.6305C15.0107 35.885 15.1185 36.173 15.1605 36.4739C15.2025 36.7748 15.1777 37.0813 15.0879 37.3715C14.828 38.0209 14.4728 38.6278 14.0338 39.1723L14.7531 39.4749C15.5412 39.8076 16.3396 40.1265 17.1001 40.4816C17.3694 40.6028 17.6275 40.7317 17.8891 40.8633C17.7153 40.6147 17.4114 40.1666 17.3762 40.1133C17.0224 39.445 16.7432 37.9457 17.3332 37.345C17.4273 37.2535 17.5386 37.1814 17.6606 37.1329C17.7827 37.0844 17.9131 37.0605 18.0444 37.0626C18.1757 37.0646 18.3053 37.0925 18.4258 37.1448C18.5463 37.197 18.6553 37.2725 18.7466 37.367L18.8171 37.4521C18.983 37.7067 19.0908 37.9946 19.1328 38.2955C19.1748 38.5964 19.15 38.9029 19.0602 39.1932C18.8136 39.8217 18.473 40.4092 18.05 40.9355C18.4802 41.1504 18.8992 41.3731 19.3053 41.613C19.4671 41.7342 19.6632 41.8167 19.8207 41.9294C19.9781 42.042 20.1339 42.1641 20.3068 42.2561L21.656 43.2674C21.446 43.0455 21.1156 42.6903 21.0889 42.6542C20.6423 42.0453 20.1325 40.6097 20.627 39.9213C20.7873 39.7112 21.0242 39.5729 21.286 39.5366C21.5478 39.5002 21.8133 39.5688 22.0248 39.7273C22.0571 39.7488 22.0881 39.7721 22.1178 39.797C22.319 40.0245 22.4679 40.2934 22.5542 40.5846C22.6405 40.8759 22.662 41.1825 22.6172 41.4829C22.464 42.1611 22.2068 42.8114 21.8548 43.411C22.1989 43.6689 22.5603 43.9398 22.8641 44.2158C23.8605 45.0379 24.6573 45.7534 25.2037 46.2651C25.7501 46.7768 26.0617 47.0855 26.0617 47.0855C26.0895 47.113 26.1116 47.1456 26.1268 47.1817C26.1419 47.2177 26.1498 47.2564 26.15 47.2955C26.1502 47.3345 26.1426 47.3733 26.1278 47.4094C26.1129 47.4456 26.0911 47.4785 26.0635 47.5062C26.0075 47.5613 25.9322 47.5924 25.8536 47.5927C25.775 47.5931 25.6993 47.5627 25.6428 47.508C25.3921 47.2221 25.1255 46.9505 24.8443 46.6945Z" fill="black"/>
<path d="M7.57556 34.8661C7.57556 34.8661 6.4455 35.836 5.81069 36.016C5.52436 36.1175 5.21928 36.1552 4.91684 36.1263C4.61441 36.0974 4.32197 36.0027 4.06004 35.8488C3.84412 35.6942 3.69804 35.4605 3.65364 35.1987C3.60925 34.9368 3.67014 34.6681 3.82303 34.4509L3.88495 34.3683C4.46026 33.7514 5.96921 33.9685 6.63771 34.2815C6.71343 34.3167 7.58675 34.8584 7.57556 34.8661Z" fill="black"/>
</g>
<path d="M32.2803 12.4454C32.1196 12.4348 31.969 12.3636 31.8589 12.246C31.7488 12.1285 31.6875 11.9735 31.6875 11.8124C31.6875 11.6514 31.7488 11.4964 31.8589 11.3788C31.969 11.2613 32.1196 11.19 32.2803 11.1795C33.8308 11.1795 35.1374 8.95948 35.1374 6.33015C35.1479 6.16945 35.2191 6.01876 35.3367 5.90866C35.4542 5.79857 35.6092 5.7373 35.7703 5.7373C35.9313 5.7373 36.0864 5.79857 36.2039 5.90866C36.3214 6.01876 36.3927 6.16945 36.4032 6.33015C36.4032 9.75911 34.5979 12.4454 32.2803 12.4454Z" fill="#0A6DE1"/>
<path d="M41.8468 12.4454C41.686 12.4348 41.5354 12.3636 41.4253 12.246C41.3152 12.1285 41.2539 11.9735 41.2539 11.8124C41.2539 11.6514 41.3152 11.4964 41.4253 11.3788C41.5354 11.2613 41.686 11.19 41.8468 11.1795C43.3972 11.1795 44.7038 8.95948 44.7038 6.33015C44.7143 6.16945 44.7856 6.01876 44.9031 5.90866C45.0206 5.79857 45.1757 5.7373 45.3367 5.7373C45.4978 5.7373 45.6528 5.79857 45.7703 5.90866C45.8879 6.01876 45.9591 6.16945 45.9696 6.33015C45.9832 9.75911 44.1589 12.4454 41.8468 12.4454Z" fill="#0A6DE1"/>
<path d="M51.4044 12.446C51.2437 12.4355 51.093 12.3642 50.9829 12.2467C50.8728 12.1291 50.8115 11.9741 50.8115 11.8131C50.8115 11.652 50.8728 11.497 50.9829 11.3795C51.093 11.2619 51.2437 11.1907 51.4044 11.1801C52.9521 11.1801 54.2614 8.96012 54.2614 6.3308C54.2614 6.16329 54.3279 6.00265 54.4464 5.8842C54.5648 5.76576 54.7255 5.69922 54.893 5.69922C55.0605 5.69922 55.2211 5.76576 55.3396 5.8842C55.458 6.00265 55.5245 6.16329 55.5245 6.3308C55.5327 9.75976 53.7247 12.446 51.4044 12.446Z" fill="#0A6DE1"/>
<path d="M60.9785 12.446C60.8919 12.4517 60.805 12.4395 60.7233 12.4103C60.6416 12.381 60.5668 12.3353 60.5034 12.276C60.4401 12.2167 60.3896 12.145 60.3551 12.0653C60.3205 11.9857 60.3027 11.8999 60.3027 11.8131C60.3027 11.7263 60.3205 11.6404 60.3551 11.5608C60.3896 11.4812 60.4401 11.4095 60.5034 11.3501C60.5668 11.2908 60.6416 11.2451 60.7233 11.2159C60.805 11.1866 60.8919 11.1745 60.9785 11.1801C62.5262 11.1801 63.8355 8.96012 63.8355 6.3308C63.8355 6.16329 63.902 6.00265 64.0205 5.8842C64.1389 5.76576 64.2996 5.69922 64.4671 5.69922C64.6346 5.69922 64.7952 5.76576 64.9137 5.8842C65.0321 6.00265 65.0986 6.16329 65.0986 6.3308C65.0986 9.75976 63.2879 12.446 60.9785 12.446Z" fill="#0A6DE1"/>
<path d="M70.5421 12.4463C70.3814 12.4358 70.2307 12.3645 70.1206 12.247C70.0105 12.1295 69.9492 11.9745 69.9492 11.8134C69.9492 11.6524 70.0105 11.4973 70.1206 11.3798C70.2307 11.2622 70.3814 11.191 70.5421 11.1805C72.0926 11.1805 73.3991 8.96045 73.3991 6.33113C73.4096 6.17042 73.4809 6.01974 73.5984 5.90964C73.7159 5.79954 73.871 5.73828 74.032 5.73828C74.1931 5.73828 74.3481 5.79954 74.4656 5.90964C74.5832 6.01974 74.6544 6.17042 74.6649 6.33113C74.6649 9.76009 72.8542 12.4463 70.5421 12.4463Z" fill="#0A6DE1"/>
<path d="M80.1075 12.4454C79.9468 12.4348 79.7961 12.3636 79.686 12.246C79.5759 12.1285 79.5146 11.9735 79.5146 11.8124C79.5146 11.6514 79.5759 11.4964 79.686 11.3788C79.7961 11.2613 79.9468 11.19 80.1075 11.1795C81.6553 11.1795 82.9645 8.95948 82.9645 6.33015C82.975 6.16945 83.0463 6.01876 83.1638 5.90866C83.2814 5.79857 83.4364 5.7373 83.5975 5.7373C83.7585 5.7373 83.9135 5.79857 84.0311 5.90866C84.1486 6.01876 84.2199 6.16945 84.2304 6.33015C84.2304 9.75911 82.4197 12.4454 80.1075 12.4454Z" fill="#0A6DE1"/>
<g opacity="0.3">
<path d="M32.2813 12.4454C32.1206 12.4348 31.9699 12.3636 31.8598 12.246C31.7497 12.1285 31.6885 11.9735 31.6885 11.8124C31.6885 11.6514 31.7497 11.4964 31.8598 11.3788C31.9699 11.2613 32.1206 11.19 32.2813 11.1795C33.8318 11.1795 35.1383 8.95948 35.1383 6.33015C35.1489 6.16945 35.2201 6.01876 35.3377 5.90866C35.4552 5.79857 35.6102 5.7373 35.7713 5.7373C35.9323 5.7373 36.0873 5.79857 36.2049 5.90866C36.3224 6.01876 36.3937 6.16945 36.4042 6.33015C36.4042 9.75911 34.5989 12.4454 32.2813 12.4454Z" fill="black"/>
<path d="M41.8468 12.4454C41.686 12.4348 41.5354 12.3636 41.4253 12.246C41.3152 12.1285 41.2539 11.9735 41.2539 11.8124C41.2539 11.6514 41.3152 11.4964 41.4253 11.3788C41.5354 11.2613 41.686 11.19 41.8468 11.1795C43.3972 11.1795 44.7038 8.95948 44.7038 6.33015C44.7143 6.16945 44.7856 6.01876 44.9031 5.90866C45.0206 5.79857 45.1757 5.7373 45.3367 5.7373C45.4978 5.7373 45.6528 5.79857 45.7703 5.90866C45.8879 6.01876 45.9591 6.16945 45.9696 6.33015C45.9832 9.75911 44.1589 12.4454 41.8468 12.4454Z" fill="black"/>
<path d="M51.4053 12.445C51.2446 12.4345 51.094 12.3632 50.9839 12.2457C50.8738 12.1282 50.8125 11.9731 50.8125 11.8121C50.8125 11.651 50.8738 11.496 50.9839 11.3785C51.094 11.2609 51.2446 11.1897 51.4053 11.1792C52.9531 11.1792 54.2624 8.95914 54.2624 6.32982C54.2624 6.16232 54.3289 6.00167 54.4474 5.88323C54.5658 5.76478 54.7264 5.69824 54.8939 5.69824C55.0614 5.69824 55.2221 5.76478 55.3405 5.88323C55.459 6.00167 55.5255 6.16232 55.5255 6.32982C55.5337 9.75878 53.7257 12.445 51.4053 12.445Z" fill="black"/>
<path d="M60.9785 12.445C60.8919 12.4507 60.805 12.4385 60.7233 12.4093C60.6416 12.38 60.5668 12.3344 60.5034 12.275C60.4401 12.2157 60.3896 12.144 60.3551 12.0644C60.3205 11.9847 60.3027 11.8989 60.3027 11.8121C60.3027 11.7253 60.3205 11.6394 60.3551 11.5598C60.3896 11.4802 60.4401 11.4085 60.5034 11.3492C60.5668 11.2898 60.6416 11.2441 60.7233 11.2149C60.805 11.1856 60.8919 11.1735 60.9785 11.1792C62.5262 11.1792 63.8355 8.95914 63.8355 6.32982C63.8355 6.16232 63.902 6.00167 64.0205 5.88323C64.1389 5.76478 64.2996 5.69824 64.4671 5.69824C64.6346 5.69824 64.7952 5.76478 64.9137 5.88323C65.0321 6.00167 65.0986 6.16232 65.0986 6.32982C65.0986 9.75878 63.2879 12.445 60.9785 12.445Z" fill="black"/>
<path d="M70.543 12.4444C70.3823 12.4339 70.2317 12.3626 70.1216 12.2451C70.0115 12.1275 69.9502 11.9725 69.9502 11.8115C69.9502 11.6504 70.0115 11.4954 70.1216 11.3778C70.2317 11.2603 70.3823 11.189 70.543 11.1785C72.0935 11.1785 73.4001 8.9585 73.4001 6.32918C73.4106 6.16847 73.4818 6.01778 73.5994 5.90769C73.7169 5.79759 73.8719 5.73633 74.033 5.73633C74.194 5.73633 74.3491 5.79759 74.4666 5.90769C74.5841 6.01778 74.6554 6.16847 74.6659 6.32918C74.6659 9.75814 72.8552 12.4444 70.543 12.4444Z" fill="black"/>
<path d="M80.1085 12.4444C79.9478 12.4339 79.7971 12.3626 79.687 12.2451C79.5769 12.1275 79.5156 11.9725 79.5156 11.8115C79.5156 11.6504 79.5769 11.4954 79.687 11.3778C79.7971 11.2603 79.9478 11.189 80.1085 11.1785C81.6563 11.1785 82.9655 8.9585 82.9655 6.32918C82.976 6.16847 83.0473 6.01778 83.1648 5.90769C83.2824 5.79759 83.4374 5.73633 83.5984 5.73633C83.7595 5.73633 83.9145 5.79759 84.032 5.90769C84.1496 6.01778 84.2208 6.16847 84.2314 6.32918C84.2314 9.75814 82.4207 12.4444 80.1085 12.4444Z" fill="black"/>
</g>
<path d="M26.2877 6.97886H87.868C88.6937 6.99539 89.485 7.31265 90.0933 7.87111C90.7017 8.42956 91.0854 9.19083 91.1723 10.0121L94.5823 48.4571C94.6238 48.8428 94.5829 49.233 94.4623 49.6018C94.3418 49.9706 94.1442 50.3095 93.8829 50.5962C93.6215 50.883 93.3022 51.111 92.9462 51.2651C92.5901 51.4192 92.2054 51.496 91.8175 51.4903H30.2344C29.4091 51.4726 28.6185 51.1549 28.0104 50.5967C27.4022 50.0385 27.0182 49.2779 26.9301 48.4571L23.5229 10.0121C23.4809 9.62622 23.5215 9.23587 23.6419 8.8669C23.7623 8.49794 23.9598 8.15879 24.2213 7.87196C24.4827 7.58512 24.8022 7.35716 25.1585 7.20318C25.5147 7.04921 25.8996 6.97274 26.2877 6.97886Z" fill="#0A6DE1"/>
<path opacity="0.4" d="M26.2877 6.97886H87.868C88.6937 6.99539 89.485 7.31265 90.0933 7.87111C90.7017 8.42956 91.0854 9.19083 91.1723 10.0121L94.5823 48.4571C94.6238 48.8428 94.5829 49.233 94.4623 49.6018C94.3418 49.9706 94.1442 50.3095 93.8829 50.5962C93.6215 50.883 93.3022 51.111 92.9462 51.2651C92.5901 51.4192 92.2054 51.496 91.8175 51.4903H30.2344C29.4091 51.4726 28.6185 51.1549 28.0104 50.5967C27.4022 50.0385 27.0182 49.2779 26.9301 48.4571L23.5229 10.0121C23.4809 9.62622 23.5215 9.23587 23.6419 8.8669C23.7623 8.49794 23.9598 8.15879 24.2213 7.87196C24.4827 7.58512 24.8022 7.35716 25.1585 7.20318C25.5147 7.04921 25.8996 6.97274 26.2877 6.97886Z" fill="#003675"/>
<path d="M87.3556 6.97857H25.7726C24.958 6.98826 24.1775 7.30682 23.5888 7.86987C23.0001 8.43291 22.6471 9.19845 22.6011 10.0118L20.8663 48.4568C20.8456 48.8484 20.9052 49.2402 21.0412 49.608C21.1772 49.9759 21.3869 50.3121 21.6574 50.5961C21.928 50.88 22.2536 51.1058 22.6144 51.2595C22.9753 51.4132 23.3637 51.4917 23.7559 51.49H85.3443C86.1589 51.4803 86.9394 51.1618 87.5281 50.5987C88.1168 50.0357 88.4698 49.2701 88.5158 48.4568L90.2533 10.0118C90.2736 9.61952 90.2136 9.22726 90.0769 8.85904C89.9402 8.49081 89.7298 8.15438 89.4585 7.87038C89.1871 7.58637 88.8607 7.36078 88.4991 7.20743C88.1375 7.05408 87.7484 6.9762 87.3556 6.97857Z" fill="#0A6DE1"/>
<path opacity="0.2" d="M87.3556 6.97857H25.7726C24.958 6.98826 24.1775 7.30682 23.5888 7.86987C23.0001 8.43291 22.6471 9.19845 22.6011 10.0118L20.8663 48.4568C20.8456 48.8484 20.9052 49.2402 21.0412 49.608C21.1772 49.9759 21.3869 50.3121 21.6574 50.5961C21.928 50.88 22.2536 51.1058 22.6144 51.2595C22.9753 51.4132 23.3637 51.4917 23.7559 51.49H85.3443C86.1589 51.4803 86.9394 51.1618 87.5281 50.5987C88.1168 50.0357 88.4698 49.2701 88.5158 48.4568L90.2533 10.0118C90.2736 9.61952 90.2136 9.22726 90.0769 8.85904C89.9402 8.49081 89.7298 8.15438 89.4585 7.87038C89.1871 7.58637 88.8607 7.36078 88.4991 7.20743C88.1375 7.05408 87.7484 6.9762 87.3556 6.97857Z" fill="#FAFAFA"/>
<path d="M26.9038 41.3298L28.3377 9.5801C28.3549 9.26865 28.49 8.97542 28.7156 8.75995C28.9411 8.54448 29.2402 8.42291 29.5521 8.41994H83.4478C83.598 8.419 83.7469 8.44877 83.8852 8.50741C84.0236 8.56604 84.1485 8.65233 84.2523 8.76096C84.3561 8.86959 84.4366 8.99827 84.4889 9.13913C84.5412 9.27999 84.5642 9.43004 84.5564 9.5801L83.1198 41.3298C83.1026 41.6413 82.9675 41.9345 82.742 42.15C82.5164 42.3655 82.2173 42.487 81.9054 42.49H28.0125C27.8622 42.4909 27.7134 42.4612 27.575 42.4025C27.4367 42.3439 27.3118 42.2576 27.208 42.149C27.1042 42.0403 27.0236 41.9117 26.9713 41.7708C26.919 41.6299 26.8961 41.4799 26.9038 41.3298Z" fill="#0A6DE1"/>
<path opacity="0.1" d="M26.9038 41.3298L28.3377 9.5801C28.3549 9.26865 28.49 8.97542 28.7156 8.75995C28.9411 8.54448 29.2402 8.42291 29.5521 8.41994H83.4478C83.598 8.419 83.7469 8.44877 83.8852 8.50741C84.0236 8.56604 84.1485 8.65233 84.2523 8.76096C84.3561 8.86959 84.4366 8.99827 84.4889 9.13913C84.5412 9.27999 84.5642 9.43004 84.5564 9.5801L83.1198 41.3298C83.1026 41.6413 82.9675 41.9345 82.742 42.15C82.5164 42.3655 82.2173 42.487 81.9054 42.49H28.0125C27.8622 42.4909 27.7134 42.4612 27.575 42.4025C27.4367 42.3439 27.3118 42.2576 27.208 42.149C27.1042 42.0403 27.0236 41.9117 26.9713 41.7708C26.919 41.6299 26.8961 41.4799 26.9038 41.3298Z" fill="#FAFAFA"/>
<path opacity="0.1" d="M25.3819 43.9213L26.8863 10.5804C26.9035 10.2534 27.045 9.9453 27.2818 9.71909C27.5186 9.49289 27.8328 9.36563 28.1603 9.36332H84.7585C84.9162 9.36198 85.0725 9.39296 85.2178 9.45436C85.3631 9.51575 85.4942 9.60627 85.6032 9.7203C85.7121 9.83434 85.7966 9.96948 85.8513 10.1174C85.906 10.2653 85.9299 10.4229 85.9213 10.5804L84.4142 43.9213C84.397 44.2481 84.256 44.5561 84.0199 44.7827C83.7837 45.0092 83.4702 45.1374 83.1429 45.1411H26.5393C26.3817 45.1421 26.2256 45.1107 26.0805 45.049C25.9355 44.9872 25.8047 44.8964 25.6962 44.782C25.5877 44.6677 25.5039 44.5323 25.4498 44.3843C25.3957 44.2362 25.3726 44.0786 25.3819 43.9213Z" fill="black"/>
<path d="M23.9834 46.6114L25.5528 11.8338C25.5739 11.4938 25.7223 11.1741 25.9684 10.9385C26.2145 10.7029 26.5404 10.5687 26.881 10.5625H85.9215C86.0862 10.5612 86.2495 10.5936 86.4012 10.6577C86.5529 10.7219 86.6898 10.8164 86.8036 10.9356C86.9174 11.0547 87.0056 11.1958 87.0627 11.3503C87.1199 11.5048 87.1448 11.6694 87.1359 11.8338L85.5583 46.6114C85.5372 46.9514 85.3888 47.2711 85.1427 47.5066C84.8966 47.7422 84.5707 47.8765 84.2301 47.8826H25.1977C25.0329 47.8844 24.8695 47.8523 24.7176 47.7882C24.5657 47.7242 24.4285 47.6297 24.3147 47.5105C24.2008 47.3913 24.1127 47.25 24.0557 47.0953C23.9987 46.9407 23.9741 46.7759 23.9834 46.6114Z" fill="#FAFAFA"/>
<path d="M80.0988 12.6469C79.9878 12.6471 79.8779 12.6245 79.7759 12.5806C79.674 12.5368 79.5821 12.4725 79.5059 12.3917C79.4297 12.3109 79.3708 12.2154 79.333 12.1111C79.2951 12.0067 79.279 11.8957 79.2856 11.7849C79.296 11.5674 79.389 11.3621 79.5457 11.2109C79.7024 11.0598 79.911 10.9742 80.1287 10.9717C80.2397 10.9715 80.3496 10.994 80.4515 11.0379C80.5535 11.0818 80.6454 11.1461 80.7216 11.2268C80.7978 11.3076 80.8567 11.4031 80.8945 11.5075C80.9324 11.6118 80.9485 11.7228 80.9419 11.8337C80.9315 12.0511 80.8385 12.2564 80.6818 12.4076C80.5251 12.5588 80.3165 12.6443 80.0988 12.6469Z" fill="#0A6DE1"/>
<path d="M70.5334 12.6469C70.4224 12.6471 70.3125 12.6245 70.2105 12.5806C70.1085 12.5368 70.0166 12.4725 69.9404 12.3917C69.8642 12.3109 69.8054 12.2154 69.7675 12.1111C69.7297 12.0067 69.7136 11.8957 69.7202 11.7849C69.7306 11.5674 69.8236 11.3621 69.9803 11.2109C70.137 11.0598 70.3455 10.9742 70.5632 10.9717C70.6742 10.9715 70.7841 10.994 70.8861 11.0379C70.9881 11.0818 71.08 11.1461 71.1562 11.2268C71.2324 11.3076 71.2912 11.4031 71.3291 11.5075C71.367 11.6118 71.3831 11.7228 71.3764 11.8337C71.3667 12.0514 71.2739 12.257 71.117 12.4083C70.9602 12.5596 70.7513 12.645 70.5334 12.6469Z" fill="#0A6DE1"/>
<path d="M60.967 12.6469C60.856 12.6471 60.7461 12.6245 60.6441 12.5806C60.5421 12.5368 60.4502 12.4725 60.374 12.3917C60.2978 12.3109 60.239 12.2154 60.2011 12.1111C60.1633 12.0067 60.1471 11.8957 60.1538 11.7849C60.1648 11.5676 60.258 11.3627 60.4146 11.2117C60.5712 11.0606 60.7793 10.9748 60.9968 10.9717C61.1078 10.9715 61.2177 10.994 61.3197 11.0379C61.4217 11.0818 61.5136 11.1461 61.5898 11.2268C61.666 11.3076 61.7248 11.4031 61.7627 11.5075C61.8006 11.6118 61.8167 11.7228 61.81 11.8337C61.8003 12.0514 61.7075 12.257 61.5506 12.4083C61.3938 12.5596 61.1849 12.645 60.967 12.6469Z" fill="#0A6DE1"/>
<path d="M51.4045 12.6469C51.2935 12.6471 51.1836 12.6245 51.0816 12.5806C50.9796 12.5368 50.8877 12.4725 50.8115 12.3917C50.7353 12.3109 50.6765 12.2154 50.6386 12.1111C50.6007 12.0067 50.5846 11.8957 50.5913 11.7849C50.603 11.5674 50.6968 11.3624 50.8538 11.2115C51.0108 11.0605 51.2192 10.9748 51.437 10.9717C51.5481 10.9715 51.6579 10.994 51.7599 11.0379C51.8619 11.0818 51.9538 11.1461 52.03 11.2268C52.1062 11.3076 52.165 11.4031 52.2029 11.5075C52.2408 11.6118 52.2569 11.7228 52.2502 11.8337C52.2405 12.0518 52.1473 12.2579 51.9899 12.4093C51.8324 12.5606 51.6229 12.6457 51.4045 12.6469Z" fill="#0A6DE1"/>
<path d="M41.8391 12.6469C41.728 12.6471 41.6182 12.6245 41.5162 12.5806C41.4142 12.5368 41.3223 12.4725 41.2461 12.3917C41.1699 12.3109 41.1111 12.2154 41.0732 12.1111C41.0353 12.0067 41.0192 11.8957 41.0259 11.7849C41.0362 11.5674 41.1293 11.3621 41.286 11.2109C41.4427 11.0598 41.6512 10.9742 41.8689 10.9717C41.9799 10.9715 42.0898 10.994 42.1918 11.0379C42.2938 11.0818 42.3857 11.1461 42.4619 11.2268C42.538 11.3076 42.5969 11.4031 42.6348 11.5075C42.6726 11.6118 42.6887 11.7228 42.6821 11.8337C42.6717 12.0511 42.5787 12.2564 42.422 12.4076C42.2653 12.5588 42.0568 12.6443 41.8391 12.6469Z" fill="#0A6DE1"/>
<path d="M32.2727 12.6469C32.1616 12.6471 32.0518 12.6245 31.9498 12.5806C31.8478 12.5368 31.7559 12.4725 31.6797 12.3917C31.6035 12.3109 31.5447 12.2154 31.5068 12.1111C31.4689 12.0067 31.4528 11.8957 31.4595 11.7849C31.4698 11.5674 31.5629 11.3621 31.7196 11.2109C31.8763 11.0598 32.0848 10.9742 32.3025 10.9717C32.4135 10.9715 32.5234 10.994 32.6254 11.0379C32.7274 11.0818 32.8193 11.1461 32.8955 11.2268C32.9716 11.3076 33.0305 11.4031 33.0684 11.5075C33.1062 11.6118 33.1223 11.7228 33.1157 11.8337C33.106 12.0514 33.0131 12.257 32.8563 12.4083C32.6995 12.5596 32.4906 12.645 32.2727 12.6469Z" fill="#0A6DE1"/>
<g opacity="0.1">
<path d="M80.0988 12.6459C79.9878 12.6461 79.8779 12.6235 79.7759 12.5797C79.674 12.5358 79.5821 12.4715 79.5059 12.3907C79.4297 12.31 79.3708 12.2145 79.333 12.1101C79.2951 12.0057 79.279 11.8947 79.2856 11.7839C79.296 11.5664 79.389 11.3611 79.5457 11.21C79.7024 11.0588 79.911 10.9732 80.1287 10.9707C80.2397 10.9705 80.3496 10.993 80.4515 11.0369C80.5535 11.0808 80.6454 11.1451 80.7216 11.2259C80.7978 11.3066 80.8567 11.4021 80.8945 11.5065C80.9324 11.6109 80.9485 11.7219 80.9419 11.8327C80.9315 12.0502 80.8385 12.2555 80.6818 12.4066C80.5251 12.5578 80.3165 12.6434 80.0988 12.6459Z" fill="#FAFAFA"/>
<path d="M70.5334 12.6459C70.4224 12.6461 70.3125 12.6235 70.2105 12.5797C70.1085 12.5358 70.0166 12.4715 69.9404 12.3907C69.8642 12.31 69.8054 12.2145 69.7675 12.1101C69.7297 12.0057 69.7136 11.8947 69.7202 11.7839C69.7306 11.5664 69.8236 11.3611 69.9803 11.21C70.137 11.0588 70.3455 10.9732 70.5632 10.9707C70.6742 10.9705 70.7841 10.993 70.8861 11.0369C70.9881 11.0808 71.08 11.1451 71.1562 11.2259C71.2324 11.3066 71.2912 11.4021 71.3291 11.5065C71.367 11.6109 71.3831 11.7219 71.3764 11.8327C71.3667 12.0504 71.2739 12.2561 71.117 12.4074C70.9602 12.5586 70.7513 12.644 70.5334 12.6459Z" fill="#FAFAFA"/>
<path d="M60.966 12.6459C60.855 12.6461 60.7451 12.6235 60.6431 12.5797C60.5412 12.5358 60.4492 12.4715 60.373 12.3907C60.2969 12.31 60.238 12.2145 60.2001 12.1101C60.1623 12.0057 60.1462 11.8947 60.1528 11.7839C60.1638 11.5666 60.2571 11.3617 60.4136 11.2107C60.5702 11.0597 60.7783 10.9739 60.9958 10.9707C61.1069 10.9705 61.2168 10.993 61.3187 11.0369C61.4207 11.0808 61.5126 11.1451 61.5888 11.2259C61.665 11.3066 61.7238 11.4021 61.7617 11.5065C61.7996 11.6109 61.8157 11.7219 61.809 11.8327C61.7993 12.0504 61.7065 12.2561 61.5497 12.4074C61.3928 12.5586 61.1839 12.644 60.966 12.6459Z" fill="#FAFAFA"/>
<path d="M51.4035 12.6459C51.2925 12.6461 51.1826 12.6235 51.0806 12.5797C50.9786 12.5358 50.8867 12.4715 50.8105 12.3907C50.7344 12.31 50.6755 12.2145 50.6376 12.1101C50.5998 12.0057 50.5837 11.8947 50.5903 11.7839C50.602 11.5664 50.6958 11.3615 50.8528 11.2105C51.0098 11.0595 51.2183 10.9738 51.4361 10.9707C51.5471 10.9705 51.657 10.993 51.7589 11.0369C51.8609 11.0808 51.9528 11.1451 52.029 11.2259C52.1052 11.3066 52.1641 11.4021 52.2019 11.5065C52.2398 11.6109 52.2559 11.7219 52.2492 11.8327C52.2395 12.0508 52.1463 12.2569 51.9889 12.4083C51.8315 12.5596 51.6219 12.6447 51.4035 12.6459Z" fill="#FAFAFA"/>
<path d="M41.8371 12.6459C41.7261 12.6461 41.6162 12.6235 41.5142 12.5797C41.4122 12.5358 41.3203 12.4715 41.2441 12.3907C41.168 12.31 41.1091 12.2145 41.0712 12.1101C41.0334 12.0057 41.0173 11.8947 41.0239 11.7839C41.0343 11.5664 41.1273 11.3611 41.284 11.21C41.4407 11.0588 41.6492 10.9732 41.8669 10.9707C41.978 10.9705 42.0878 10.993 42.1898 11.0369C42.2918 11.0808 42.3837 11.1451 42.4599 11.2259C42.5361 11.3066 42.5949 11.4021 42.6328 11.5065C42.6707 11.6109 42.6868 11.7219 42.6801 11.8327C42.6698 12.0502 42.5767 12.2555 42.42 12.4066C42.2633 12.5578 42.0548 12.6434 41.8371 12.6459Z" fill="#FAFAFA"/>
<path d="M32.2717 12.6459C32.1607 12.6461 32.0508 12.6235 31.9488 12.5797C31.8468 12.5358 31.7549 12.4715 31.6787 12.3907C31.6025 12.31 31.5437 12.2145 31.5058 12.1101C31.4679 12.0057 31.4518 11.8947 31.4585 11.7839C31.4688 11.5664 31.5619 11.3611 31.7186 11.21C31.8753 11.0588 32.0838 10.9732 32.3015 10.9707C32.4125 10.9705 32.5224 10.993 32.6244 11.0369C32.7264 11.0808 32.8183 11.1451 32.8945 11.2259C32.9707 11.3066 33.0295 11.4021 33.0674 11.5065C33.1053 11.6109 33.1214 11.7219 33.1147 11.8327C33.105 12.0504 33.0122 12.2561 32.8553 12.4074C32.6985 12.5586 32.4896 12.644 32.2717 12.6459Z" fill="#FAFAFA"/>
</g>
<path d="M34.6625 15.677H29.8511C29.7813 15.6776 29.7122 15.6637 29.6481 15.6362C29.584 15.6087 29.5263 15.5682 29.4787 15.5172C29.431 15.4663 29.3945 15.406 29.3713 15.3402C29.3482 15.2744 29.339 15.2045 29.3442 15.1349C29.3496 14.9929 29.4084 14.8581 29.5089 14.7575C29.6095 14.657 29.7443 14.5982 29.8863 14.5928H34.6977C34.7675 14.5922 34.8366 14.6061 34.9007 14.6336C34.9648 14.6611 35.0225 14.7017 35.0701 14.7526C35.1178 14.8036 35.1543 14.8639 35.1775 14.9297C35.2006 14.9955 35.2099 15.0654 35.2046 15.1349C35.1992 15.277 35.1404 15.4118 35.0399 15.5123C34.9393 15.6128 34.8046 15.6717 34.6625 15.677Z" fill="#0A6DE1"/>
<path d="M44.2289 15.677H39.4175C39.3477 15.6776 39.2786 15.6637 39.2145 15.6362C39.1504 15.6087 39.0927 15.5682 39.0451 15.5172C38.9974 15.4663 38.9609 15.406 38.9377 15.3402C38.9146 15.2744 38.9054 15.2045 38.9106 15.1349C38.9162 14.9906 38.9769 14.8539 39.0803 14.753C39.1837 14.6521 39.3219 14.5948 39.4663 14.5928H44.275C44.3448 14.5922 44.4141 14.6062 44.4783 14.6336C44.5425 14.6611 44.6004 14.7016 44.6482 14.7525C44.6961 14.8034 44.7329 14.8636 44.7564 14.9295C44.7798 14.9953 44.7894 15.0652 44.7846 15.1349C44.779 15.2793 44.7183 15.416 44.6149 15.5169C44.5115 15.6177 44.3733 15.6751 44.2289 15.677Z" fill="#0A6DE1"/>
<path d="M53.7949 15.677H48.9835C48.9136 15.6776 48.8444 15.6637 48.7802 15.6362C48.7159 15.6087 48.6581 15.5683 48.6102 15.5174C48.5624 15.4664 48.5255 15.4062 48.5021 15.3404C48.4786 15.2746 48.469 15.2046 48.4739 15.1349C48.4794 14.9906 48.5402 14.8539 48.6436 14.753C48.747 14.6521 48.8851 14.5948 49.0296 14.5928H53.8437C53.9134 14.5922 53.9825 14.6061 54.0466 14.6336C54.1107 14.6611 54.1684 14.7017 54.2161 14.7526C54.2637 14.8036 54.3003 14.8639 54.3234 14.9297C54.3466 14.9955 54.3558 15.0654 54.3506 15.1349C54.3457 15.2795 54.2851 15.4166 54.1816 15.5176C54.0781 15.6186 53.9395 15.6757 53.7949 15.677Z" fill="#0A6DE1"/>
<path d="M63.3588 15.677H58.5474C58.4776 15.6776 58.4085 15.6637 58.3444 15.6362C58.2803 15.6087 58.2226 15.5682 58.175 15.5172C58.1273 15.4663 58.0908 15.406 58.0676 15.3402C58.0445 15.2744 58.0352 15.2045 58.0405 15.1349C58.0459 14.9929 58.1047 14.8581 58.2052 14.7575C58.3058 14.657 58.4406 14.5982 58.5826 14.5928H63.394C63.4638 14.5922 63.5329 14.6061 63.597 14.6336C63.6611 14.6611 63.7188 14.7017 63.7664 14.7526C63.8141 14.8036 63.8506 14.8639 63.8738 14.9297C63.8969 14.9955 63.9062 15.0654 63.9009 15.1349C63.8955 15.277 63.8367 15.4118 63.7362 15.5123C63.6356 15.6128 63.5008 15.6717 63.3588 15.677Z" fill="#0A6DE1"/>
<path d="M72.9242 15.677H68.1128C68.0431 15.6776 67.9739 15.6637 67.9098 15.6362C67.8457 15.6087 67.788 15.5682 67.7404 15.5172C67.6928 15.4663 67.6562 15.406 67.6331 15.3402C67.6099 15.2744 67.6007 15.2045 67.6059 15.1349C67.6115 14.9906 67.6722 14.8539 67.7756 14.753C67.879 14.6521 68.0172 14.5948 68.1616 14.5928H72.973C73.0428 14.5922 73.1119 14.6061 73.176 14.6336C73.2401 14.6611 73.2978 14.7017 73.3454 14.7526C73.3931 14.8036 73.4296 14.8639 73.4528 14.9297C73.4759 14.9955 73.4851 15.0654 73.4799 15.1349C73.4743 15.2793 73.4136 15.416 73.3102 15.5169C73.2068 15.6177 73.0686 15.6751 72.9242 15.677Z" fill="#0A6DE1"/>
<path d="M82.4906 15.677H77.6792C77.6095 15.6776 77.5403 15.6637 77.4762 15.6362C77.4121 15.6087 77.3544 15.5682 77.3068 15.5172C77.2592 15.4663 77.2226 15.406 77.1995 15.3402C77.1763 15.2744 77.1671 15.2045 77.1723 15.1349C77.1779 14.9906 77.2386 14.8539 77.342 14.753C77.4454 14.6521 77.5836 14.5948 77.728 14.5928H82.5367C82.6066 14.5922 82.6758 14.6062 82.74 14.6336C82.8042 14.6611 82.8621 14.7016 82.91 14.7525C82.9578 14.8034 82.9946 14.8636 83.0181 14.9295C83.0415 14.9953 83.0512 15.0652 83.0463 15.1349C83.0408 15.2793 82.98 15.416 82.8766 15.5169C82.7732 15.6177 82.635 15.6751 82.4906 15.677Z" fill="#0A6DE1"/>
<g opacity="0.3">
<path d="M34.6635 15.677H29.8521C29.7823 15.6776 29.7132 15.6637 29.6491 15.6362C29.585 15.6087 29.5273 15.5682 29.4797 15.5172C29.432 15.4663 29.3955 15.406 29.3723 15.3402C29.3492 15.2744 29.3399 15.2045 29.3452 15.1349C29.3505 14.9929 29.4094 14.8581 29.5099 14.7575C29.6104 14.657 29.7452 14.5982 29.8873 14.5928H34.6987C34.7685 14.5922 34.8376 14.6061 34.9017 14.6336C34.9658 14.6611 35.0235 14.7017 35.0711 14.7526C35.1188 14.8036 35.1553 14.8639 35.1785 14.9297C35.2016 14.9955 35.2108 15.0654 35.2056 15.1349C35.2002 15.277 35.1414 15.4118 35.0409 15.5123C34.9403 15.6128 34.8055 15.6717 34.6635 15.677Z" fill="black"/>
<path d="M44.2289 15.677H39.4175C39.3477 15.6776 39.2786 15.6637 39.2145 15.6362C39.1504 15.6087 39.0927 15.5682 39.0451 15.5172C38.9974 15.4663 38.9609 15.406 38.9377 15.3402C38.9146 15.2744 38.9054 15.2045 38.9106 15.1349C38.9162 14.9906 38.9769 14.8539 39.0803 14.753C39.1837 14.6521 39.3219 14.5948 39.4663 14.5928H44.275C44.3448 14.5922 44.4141 14.6062 44.4783 14.6336C44.5425 14.6611 44.6004 14.7016 44.6482 14.7525C44.6961 14.8034 44.7329 14.8636 44.7564 14.9295C44.7798 14.9953 44.7894 15.0652 44.7846 15.1349C44.779 15.2793 44.7183 15.416 44.6149 15.5169C44.5115 15.6177 44.3733 15.6751 44.2289 15.677Z" fill="black"/>
<path d="M53.7958 15.677H48.9845C48.9146 15.6776 48.8454 15.6637 48.7811 15.6362C48.7169 15.6087 48.659 15.5683 48.6112 15.5174C48.5633 15.4664 48.5265 15.4062 48.5031 15.3404C48.4796 15.2746 48.47 15.2046 48.4749 15.1349C48.4804 14.9906 48.5411 14.8539 48.6445 14.753C48.7479 14.6521 48.8861 14.5948 49.0305 14.5928H53.8446C53.9144 14.5922 53.9835 14.6061 54.0476 14.6336C54.1117 14.6611 54.1694 14.7017 54.2171 14.7526C54.2647 14.8036 54.3012 14.8639 54.3244 14.9297C54.3475 14.9955 54.3568 15.0654 54.3515 15.1349C54.3466 15.2795 54.2861 15.4166 54.1826 15.5176C54.079 15.6186 53.9405 15.6757 53.7958 15.677Z" fill="black"/>
<path d="M63.3578 15.677H58.5464C58.4767 15.6776 58.4075 15.6637 58.3434 15.6362C58.2793 15.6087 58.2216 15.5682 58.174 15.5172C58.1263 15.4663 58.0898 15.406 58.0667 15.3402C58.0435 15.2744 58.0343 15.2045 58.0395 15.1349C58.0449 14.9929 58.1037 14.8581 58.2043 14.7575C58.3048 14.657 58.4396 14.5982 58.5816 14.5928H63.393C63.4628 14.5922 63.5319 14.6061 63.596 14.6336C63.6601 14.6611 63.7178 14.7017 63.7654 14.7526C63.8131 14.8036 63.8496 14.8639 63.8728 14.9297C63.8959 14.9955 63.9052 15.0654 63.8999 15.1349C63.8946 15.277 63.8357 15.4118 63.7352 15.5123C63.6347 15.6128 63.4999 15.6717 63.3578 15.677Z" fill="black"/>
<path d="M72.9252 15.677H68.1138C68.044 15.6776 67.9749 15.6637 67.9108 15.6362C67.8467 15.6087 67.789 15.5682 67.7414 15.5172C67.6937 15.4663 67.6572 15.406 67.634 15.3402C67.6109 15.2744 67.6016 15.2045 67.6069 15.1349C67.6124 14.9906 67.6732 14.8539 67.7766 14.753C67.88 14.6521 68.0181 14.5948 68.1626 14.5928H72.974C73.0437 14.5922 73.1128 14.6061 73.1769 14.6336C73.2411 14.6611 73.2987 14.7017 73.3464 14.7526C73.394 14.8036 73.4306 14.8639 73.4537 14.9297C73.4769 14.9955 73.4861 15.0654 73.4809 15.1349C73.4753 15.2793 73.4146 15.416 73.3112 15.5169C73.2078 15.6177 73.0696 15.6751 72.9252 15.677Z" fill="black"/>
<path d="M82.4906 15.677H77.6792C77.6095 15.6776 77.5403 15.6637 77.4762 15.6362C77.4121 15.6087 77.3544 15.5682 77.3068 15.5172C77.2592 15.4663 77.2226 15.406 77.1995 15.3402C77.1763 15.2744 77.1671 15.2045 77.1723 15.1349C77.1779 14.9906 77.2386 14.8539 77.342 14.753C77.4454 14.6521 77.5836 14.5948 77.728 14.5928H82.5367C82.6066 14.5922 82.6758 14.6062 82.74 14.6336C82.8042 14.6611 82.8621 14.7016 82.91 14.7525C82.9578 14.8034 82.9946 14.8636 83.0181 14.9295C83.0415 14.9953 83.0512 15.0652 83.0463 15.1349C83.0408 15.2793 82.98 15.416 82.8766 15.5169C82.7732 15.6177 82.635 15.6751 82.4906 15.677Z" fill="black"/>
</g>
<path d="M34.9296 25.9156H28.6626C28.5251 25.9161 28.389 25.8886 28.2625 25.8348C28.136 25.781 28.0219 25.7019 27.927 25.6025C27.8321 25.503 27.7585 25.3853 27.7107 25.2564C27.6628 25.1275 27.6418 24.9903 27.6488 24.853L27.9198 18.586C27.9363 18.3012 28.0601 18.0331 28.2663 17.8359C28.4726 17.6388 28.7459 17.5271 29.0312 17.5234H35.2982C35.4357 17.5229 35.5718 17.5504 35.6982 17.6042C35.8247 17.6581 35.9389 17.7371 36.0338 17.8366C36.1286 17.936 36.2023 18.0538 36.2501 18.1826C36.2979 18.3115 36.319 18.4487 36.312 18.586L36.0409 24.853C36.0239 25.1376 35.8998 25.4053 35.6937 25.6024C35.4876 25.7994 35.2147 25.9113 34.9296 25.9156Z" fill="#0A6DE1"/>
<path d="M44.4951 25.9156H38.2281C38.0906 25.9165 37.9543 25.8893 37.8276 25.8356C37.701 25.7819 37.5866 25.7028 37.4917 25.6033C37.3967 25.5038 37.3231 25.3859 37.2754 25.2568C37.2277 25.1278 37.207 24.9904 37.2144 24.853L37.4854 18.586C37.5019 18.3012 37.6257 18.0331 37.8319 17.8359C38.0381 17.6388 38.3115 17.5271 38.5968 17.5234H44.8719C45.0095 17.5229 45.1457 17.5504 45.2723 17.6042C45.3989 17.658 45.5133 17.737 45.6084 17.8364C45.7035 17.9358 45.7773 18.0536 45.8255 18.1824C45.8736 18.3113 45.895 18.4486 45.8884 18.586L45.6038 24.853C45.588 25.1376 45.4648 25.4057 45.259 25.6029C45.0532 25.8001 44.7802 25.9119 44.4951 25.9156Z" fill="#0A6DE1"/>
<path d="M54.0583 25.9156H47.794C47.6565 25.9161 47.5202 25.8886 47.3936 25.8348C47.267 25.781 47.1527 25.702 47.0576 25.6026C46.9625 25.5032 46.8886 25.3855 46.8405 25.2566C46.7923 25.1278 46.7709 24.9904 46.7775 24.853L47.0486 18.586C47.065 18.3012 47.1889 18.0331 47.3951 17.836C47.6013 17.6388 47.8747 17.5271 48.16 17.5235H54.4243C54.5618 17.5225 54.6981 17.5497 54.8248 17.6034C54.9514 17.6571 55.0658 17.7362 55.1607 17.8357C55.2557 17.9353 55.3293 18.0532 55.377 18.1822C55.4247 18.3112 55.4454 18.4487 55.438 18.586L55.167 24.853C55.1506 25.1374 55.0271 25.4051 54.8215 25.6022C54.6158 25.7993 54.3432 25.9113 54.0583 25.9156Z" fill="#0A6DE1"/>
<path d="M63.6245 25.9156H57.3684C57.2307 25.9165 57.0943 25.8893 56.9675 25.8356C56.8407 25.7819 56.7262 25.7029 56.6311 25.6035C56.5359 25.504 56.462 25.3861 56.414 25.257C56.366 25.128 56.3449 24.9905 56.3519 24.853L56.623 18.586C56.6387 18.3014 56.762 18.0334 56.9678 17.8361C57.1736 17.6389 57.4466 17.5271 57.7316 17.5234H63.9986C64.1361 17.5229 64.2722 17.5504 64.3987 17.6042C64.5251 17.6581 64.6393 17.7371 64.7342 17.8366C64.8291 17.936 64.9027 18.0538 64.9505 18.1826C64.9983 18.3115 65.0194 18.4487 65.0124 18.586L64.7413 24.853C64.7248 25.1388 64.6002 25.4076 64.3929 25.6049C64.1855 25.8023 63.9108 25.9133 63.6245 25.9156Z" fill="#0A6DE1"/>
<path opacity="0.3" d="M73.1903 25.9156H66.9233C66.7858 25.9161 66.6497 25.8887 66.5233 25.8348C66.3968 25.781 66.2826 25.7019 66.1877 25.6025C66.0929 25.503 66.0192 25.3853 65.9714 25.2564C65.9236 25.1276 65.9025 24.9903 65.9095 24.853L66.1806 18.586C66.197 18.3012 66.3208 18.0331 66.5271 17.836C66.7333 17.6388 67.0066 17.5271 67.2919 17.5235H73.5562C73.6939 17.5225 73.8303 17.5498 73.9571 17.6034C74.0839 17.6571 74.1984 17.7361 74.2936 17.8356C74.3887 17.9351 74.4626 18.053 74.5106 18.182C74.5586 18.311 74.5797 18.4485 74.5727 18.586L74.3017 24.853C74.2846 25.1377 74.1606 25.4053 73.9545 25.6024C73.7484 25.7994 73.4754 25.9113 73.1903 25.9156Z" fill="#3A89E6"/>
<path opacity="0.3" d="M82.7532 25.9156H76.4889C76.3513 25.9165 76.215 25.8893 76.0884 25.8356C75.9617 25.7819 75.8474 25.7028 75.7524 25.6033C75.6575 25.5038 75.5839 25.3859 75.5362 25.2568C75.4885 25.1278 75.4677 24.9904 75.4751 24.853L75.7462 18.586C75.7626 18.3012 75.8864 18.0331 76.0927 17.8359C76.2989 17.6388 76.5722 17.5271 76.8575 17.5234H83.1218C83.2594 17.5229 83.3956 17.5504 83.5222 17.6042C83.6488 17.658 83.7632 17.737 83.8583 17.8364C83.9534 17.9358 84.0272 18.0536 84.0754 18.1824C84.1235 18.3113 84.1449 18.4486 84.1383 18.586L83.8537 24.853C83.838 25.1363 83.7159 25.4031 83.5119 25.6002C83.3078 25.7972 83.0368 25.9099 82.7532 25.9156Z" fill="#3A89E6"/>
<g opacity="0.8">
<path d="M34.9286 25.9146H28.6616C28.5241 25.9152 28.388 25.8877 28.2615 25.8338C28.1351 25.78 28.0209 25.7009 27.926 25.6015C27.8311 25.502 27.7575 25.3843 27.7097 25.2554C27.6619 25.1266 27.6408 24.9893 27.6478 24.852L27.9189 18.585C27.9353 18.3002 28.0591 18.0321 28.2654 17.835C28.4716 17.6378 28.7449 17.5261 29.0302 17.5225H35.2972C35.4347 17.5219 35.5708 17.5494 35.6973 17.6032C35.8237 17.6571 35.9379 17.7361 36.0328 17.8356C36.1277 17.935 36.2013 18.0528 36.2491 18.1816C36.2969 18.3105 36.318 18.4478 36.311 18.585L36.0399 24.852C36.0229 25.1367 35.8989 25.4043 35.6928 25.6014C35.4867 25.7985 35.2137 25.9103 34.9286 25.9146Z" fill="#22B573"/>
<path d="M44.4942 25.9146H38.2272C38.0896 25.9155 37.9533 25.8883 37.8266 25.8346C37.7 25.7809 37.5857 25.7019 37.4907 25.6023C37.3957 25.5028 37.3221 25.3849 37.2745 25.2559C37.2268 25.1268 37.206 24.9894 37.2134 24.852L37.4844 18.585C37.5009 18.3002 37.6247 18.0321 37.8309 17.835C38.0372 17.6378 38.3105 17.5261 38.5958 17.5225H44.8709C45.0085 17.5219 45.1447 17.5494 45.2713 17.6032C45.398 17.657 45.5123 17.736 45.6074 17.8354C45.7025 17.9349 45.7763 18.0526 45.8245 18.1814C45.8726 18.3103 45.894 18.4476 45.8874 18.585L45.6028 24.852C45.587 25.1367 45.4638 25.4047 45.258 25.6019C45.0522 25.7992 44.7792 25.9109 44.4942 25.9146Z" fill="#22B573"/>
<path d="M54.0583 25.9146H47.794C47.6565 25.9152 47.5202 25.8877 47.3936 25.8339C47.267 25.7801 47.1527 25.701 47.0576 25.6016C46.9625 25.5022 46.8886 25.3845 46.8405 25.2556C46.7923 25.1268 46.7709 24.9895 46.7775 24.852L47.0486 18.5851C47.065 18.3002 47.1889 18.0322 47.3951 17.835C47.6013 17.6378 47.8747 17.5261 48.16 17.5225H54.4243C54.5618 17.5215 54.6981 17.5488 54.8248 17.6025C54.9514 17.6562 55.0658 17.7352 55.1607 17.8347C55.2557 17.9343 55.3293 18.0522 55.377 18.1812C55.4247 18.3103 55.4454 18.4477 55.438 18.5851L55.167 24.852C55.1506 25.1364 55.0271 25.4041 54.8215 25.6012C54.6158 25.7983 54.3432 25.9103 54.0583 25.9146Z" fill="#22B573"/>
<path d="M63.6236 25.9146H57.3674C57.2297 25.9155 57.0933 25.8883 56.9665 25.8346C56.8397 25.781 56.7253 25.702 56.6301 25.6025C56.5349 25.503 56.461 25.3851 56.413 25.2561C56.365 25.127 56.3439 24.9895 56.3509 24.852L56.622 18.585C56.6378 18.3004 56.761 18.0324 56.9668 17.8352C57.1726 17.6379 57.4456 17.5262 57.7306 17.5225H63.9976C64.1351 17.5219 64.2712 17.5494 64.3977 17.6032C64.5242 17.6571 64.6383 17.7361 64.7332 17.8356C64.8281 17.935 64.9017 18.0528 64.9495 18.1816C64.9974 18.3105 65.0184 18.4478 65.0114 18.585L64.7404 24.852C64.7239 25.1378 64.5993 25.4066 64.3919 25.604C64.1845 25.8013 63.9098 25.9123 63.6236 25.9146Z" fill="#22B573"/>
</g>
<path opacity="0.3" d="M34.4901 35.6382H28.2231C28.0856 35.6388 27.9495 35.6113 27.8231 35.5575C27.6966 35.5036 27.5824 35.4246 27.4875 35.3251C27.3927 35.2257 27.3191 35.1079 27.2712 34.9791C27.2234 34.8502 27.2023 34.7129 27.2093 34.5757L27.4804 28.3087C27.4974 28.024 27.6215 27.7564 27.8276 27.5593C28.0337 27.3622 28.3066 27.2504 28.5917 27.2461H34.8696C35.007 27.2456 35.1432 27.273 35.2696 27.3269C35.3961 27.3807 35.5103 27.4598 35.6051 27.5592C35.7 27.6587 35.7736 27.7764 35.8215 27.9053C35.8693 28.0341 35.8904 28.1714 35.8834 28.3087L35.6123 34.5757C35.5951 34.8622 35.4696 35.1314 35.2612 35.3287C35.0528 35.526 34.7771 35.6367 34.4901 35.6382Z" fill="#3A89E6"/>
<path opacity="0.3" d="M44.0555 35.6383H37.7885C37.6511 35.6388 37.515 35.6113 37.3885 35.5575C37.262 35.5036 37.1479 35.4246 37.053 35.3251C36.9581 35.2257 36.8845 35.1079 36.8366 34.9791C36.7888 34.8502 36.7677 34.713 36.7748 34.5757L37.0458 28.3087C37.0623 28.0238 37.1861 27.7558 37.3923 27.5586C37.5985 27.3614 37.8719 27.2498 38.1572 27.2461H44.4215C44.5602 27.2451 44.6977 27.2726 44.8254 27.327C44.9531 27.3813 45.0683 27.4612 45.1638 27.5618C45.2594 27.6625 45.3332 27.7816 45.3809 27.912C45.4285 28.0423 45.4488 28.181 45.4407 28.3195L45.1696 34.5757C45.1538 34.8612 45.0298 35.13 44.8228 35.3274C44.6159 35.5248 44.3415 35.6359 44.0555 35.6383Z" fill="#3A89E6"/>
<path opacity="0.3" d="M53.6194 35.6383H47.3551C47.2175 35.6392 47.0812 35.612 46.9546 35.5583C46.8279 35.5046 46.7136 35.4255 46.6186 35.326C46.5237 35.2265 46.4501 35.1086 46.4024 34.9795C46.3547 34.8505 46.3339 34.7131 46.3413 34.5757L46.6124 28.3087C46.6288 28.0238 46.7526 27.7558 46.9589 27.5586C47.1651 27.3614 47.4384 27.2498 47.7237 27.2461H53.988C54.1256 27.2452 54.2619 27.2724 54.3885 27.3261C54.5152 27.3798 54.6295 27.4588 54.7245 27.5584C54.8194 27.6579 54.893 27.7758 54.9407 27.9049C54.9884 28.0339 55.0092 28.1713 55.0018 28.3087L54.7307 34.5757C54.7143 34.8605 54.5905 35.1286 54.3842 35.3258C54.178 35.523 53.9047 35.6346 53.6194 35.6383Z" fill="#3A89E6"/>
<path opacity="0.3" d="M63.1853 35.6384H56.921C56.7834 35.6389 56.6472 35.6115 56.5206 35.5576C56.394 35.5038 56.2796 35.4248 56.1845 35.3254C56.0894 35.226 56.0156 35.1083 55.9674 34.9794C55.9193 34.8506 55.8979 34.7132 55.9045 34.5758L56.1756 28.3088C56.1913 28.0242 56.3146 27.7562 56.5204 27.5589C56.7262 27.3617 56.9992 27.2499 57.2842 27.2463H63.5512C63.6908 27.2437 63.8293 27.2702 63.9582 27.3238C64.087 27.3775 64.2033 27.4572 64.2998 27.5581C64.3964 27.6589 64.4709 27.7786 64.5189 27.9097C64.5669 28.0408 64.5872 28.1804 64.5785 28.3197L64.3075 34.5867C64.2883 34.8715 64.1618 35.1384 63.9535 35.3335C63.7452 35.5287 63.4707 35.6377 63.1853 35.6384Z" fill="#3A89E6"/>
<path opacity="0.3" d="M72.7508 35.6374H66.4838C66.3464 35.6379 66.2103 35.6104 66.0838 35.5566C65.9573 35.5028 65.8432 35.4237 65.7483 35.3242C65.6534 35.2248 65.5798 35.107 65.532 34.9782C65.4841 34.8493 65.4631 34.7121 65.4701 34.5748L65.7411 28.3078C65.7556 28.0208 65.8788 27.75 66.0858 27.5506C66.2927 27.3512 66.5678 27.2382 66.8552 27.2344H73.1222C73.2596 27.2338 73.3958 27.2613 73.5222 27.3152C73.6487 27.369 73.7629 27.4481 73.8578 27.5475C73.9526 27.647 74.0262 27.7647 74.0741 27.8936C74.1219 28.0224 74.143 28.1597 74.136 28.297L73.8649 34.564C73.8505 34.851 73.7272 35.1217 73.5203 35.3211C73.3133 35.5205 73.0382 35.6336 72.7508 35.6374Z" fill="#3A89E6"/>
<path opacity="0.3" d="M82.3056 35.6382H76.0494C75.9119 35.6392 75.7756 35.612 75.6489 35.5583C75.5223 35.5046 75.4079 35.4255 75.313 35.326C75.218 35.2264 75.1444 35.1085 75.0967 34.9795C75.049 34.8505 75.0282 34.713 75.0356 34.5757L75.3067 28.3087C75.3231 28.0238 75.447 27.7558 75.6532 27.5586C75.8594 27.3614 76.1328 27.2497 76.4181 27.2461H82.6824C82.8199 27.2456 82.9562 27.273 83.0828 27.3269C83.2094 27.3807 83.3237 27.4597 83.4188 27.5591C83.5139 27.6585 83.5878 27.7762 83.6359 27.9051C83.6841 28.0339 83.7055 28.1713 83.6989 28.3087L83.4142 34.5757C83.3985 34.8603 83.2752 35.1283 83.0694 35.3256C82.8636 35.5228 82.5906 35.6346 82.3056 35.6382Z" fill="#3A89E6"/>
<path opacity="0.3" d="M34.0562 45.3582H27.7838C27.6462 45.3591 27.5099 45.3319 27.3833 45.2782C27.2566 45.2245 27.1423 45.1455 27.0473 45.0459C26.9524 44.9464 26.8788 44.8285 26.8311 44.6995C26.7834 44.5704 26.7626 44.433 26.77 44.2956L27.0411 38.0313C27.0575 37.7465 27.1813 37.4784 27.3876 37.2813C27.5938 37.0841 27.8671 36.9724 28.1524 36.9688H34.4194C34.557 36.9678 34.6933 36.9951 34.82 37.0488C34.9466 37.1025 35.0609 37.1815 35.1559 37.281C35.2509 37.3806 35.3244 37.4985 35.3721 37.6275C35.4198 37.7565 35.4406 37.894 35.4332 38.0313L35.1622 44.2956C35.1464 44.5798 35.0236 44.8474 34.8183 45.0446C34.6131 45.2418 34.3408 45.3538 34.0562 45.3582Z" fill="#3A89E6"/>
<path opacity="0.3" d="M43.6172 45.3592H37.3502C37.2126 45.3601 37.0763 45.3329 36.9497 45.2792C36.823 45.2255 36.7087 45.1465 36.6137 45.0469C36.5188 44.9474 36.4452 44.8295 36.3975 44.7005C36.3498 44.5714 36.329 44.434 36.3364 44.2966L36.6075 38.0323C36.6233 37.7473 36.7469 37.4789 36.9533 37.2815C37.1597 37.0842 37.4333 36.9728 37.7188 36.9698H43.9831C44.1209 36.9685 44.2575 36.9954 44.3845 37.0489C44.5115 37.1025 44.6261 37.1815 44.7214 37.281C44.8166 37.3806 44.8905 37.4986 44.9383 37.6279C44.9862 37.7571 45.007 37.8947 44.9996 38.0323L44.7286 44.2966C44.7134 44.5819 44.59 44.8507 44.3835 45.0482C44.1769 45.2456 43.9029 45.3568 43.6172 45.3592Z" fill="#3A89E6"/>
<path opacity="0.3" d="M53.1799 45.3582H46.9156C46.7781 45.3591 46.6418 45.3319 46.5151 45.2782C46.3885 45.2245 46.2741 45.1455 46.1792 45.0459C46.0842 44.9464 46.0106 44.8285 45.9629 44.6995C45.9152 44.5704 45.8945 44.433 45.9019 44.2956L46.1729 38.0313C46.1887 37.7463 46.3123 37.4779 46.5187 37.2805C46.7251 37.0832 46.9988 36.9718 47.2843 36.9688H53.573C53.7106 36.9679 53.8471 36.9951 53.9738 37.0487C54.1006 37.1024 54.2151 37.1814 54.3103 37.2809C54.4055 37.3804 54.4793 37.4983 54.5273 37.6273C54.5753 37.7564 54.5965 37.8938 54.5895 38.0313L54.3048 44.2956C54.2889 44.583 54.1634 44.8534 53.9541 45.0511C53.7448 45.2487 53.4678 45.3586 53.1799 45.3582Z" fill="#3A89E6"/>
<path opacity="0.3" d="M62.745 45.3582H56.4807C56.343 45.3591 56.2066 45.3319 56.0798 45.2782C55.953 45.2246 55.8385 45.1456 55.7434 45.0461C55.6482 44.9466 55.5743 44.8287 55.5263 44.6997C55.4783 44.5706 55.4572 44.4331 55.4642 44.2956L55.7353 38.0313C55.7504 37.7465 55.8735 37.4781 56.0794 37.2807C56.2853 37.0834 56.5587 36.9718 56.8439 36.9688H63.1109C63.2485 36.9678 63.3848 36.9951 63.5114 37.0488C63.6381 37.1025 63.7524 37.1815 63.8474 37.281C63.9423 37.3806 64.0159 37.4985 64.0636 37.6275C64.1113 37.7565 64.1321 37.894 64.1247 38.0313L63.8536 44.2956C63.8379 44.5803 63.7146 44.8483 63.5088 45.0455C63.303 45.2428 63.03 45.3545 62.745 45.3582Z" fill="#3A89E6"/>
<path opacity="0.3" d="M72.3113 45.3582H66.0416C65.904 45.3591 65.7677 45.3319 65.6411 45.2782C65.5144 45.2245 65.4001 45.1455 65.3052 45.0459C65.2102 44.9464 65.1366 44.8285 65.0889 44.6995C65.0412 44.5704 65.0204 44.433 65.0278 44.2956L65.2989 38.0313C65.3153 37.7465 65.4391 37.4784 65.6454 37.2813C65.8516 37.0841 66.1249 36.9724 66.4102 36.9688H72.6773C72.8148 36.9678 72.9511 36.9951 73.0778 37.0488C73.2044 37.1025 73.3187 37.1815 73.4137 37.281C73.5087 37.3806 73.5823 37.4985 73.63 37.6275C73.6776 37.7565 73.6984 37.894 73.691 38.0313L73.42 44.2956C73.4036 44.58 73.2801 44.8477 73.0745 45.0448C72.8688 45.2419 72.5962 45.3539 72.3113 45.3582Z" fill="#3A89E6"/>
<path opacity="0.3" d="M81.877 45.3582H75.61C75.4724 45.3591 75.3361 45.3319 75.2095 45.2782C75.0828 45.2245 74.9685 45.1455 74.8735 45.0459C74.7786 44.9464 74.705 44.8285 74.6573 44.6995C74.6096 44.5704 74.5888 44.433 74.5962 44.2956L74.8673 38.0313C74.8831 37.7463 75.0067 37.4779 75.2131 37.2805C75.4194 37.0832 75.6931 36.9718 75.9786 36.9688H82.2429C82.3806 36.9679 82.517 36.9951 82.6438 37.0487C82.7706 37.1024 82.8851 37.1814 82.9802 37.2809C83.0754 37.3804 83.1493 37.4983 83.1973 37.6273C83.2453 37.7564 83.2664 37.8938 83.2594 38.0313L82.9748 44.2956C82.9598 44.5786 82.8383 44.8455 82.6346 45.0426C82.431 45.2397 82.1603 45.3524 81.877 45.3582Z" fill="#3A89E6"/>
<path d="M32.2813 12.4455C29.9718 12.4455 28.1611 9.75923 28.1611 6.33027C28.1611 2.90131 29.9718 0.217773 32.2813 0.217773C34.5908 0.217773 36.4042 2.90402 36.4042 6.33027C36.3937 6.49097 36.3224 6.64166 36.2049 6.75176C36.0873 6.86185 35.9323 6.92311 35.7713 6.92311C35.6102 6.92311 35.4552 6.86185 35.3376 6.75176C35.2201 6.64166 35.1488 6.49097 35.1383 6.33027C35.1383 3.70366 33.8318 1.48093 32.2813 1.48093C30.7308 1.48093 29.4243 3.70366 29.4243 6.33027C29.4243 8.95688 30.7335 11.1796 32.2813 11.1796C32.3679 11.1739 32.4548 11.1861 32.5365 11.2153C32.6182 11.2446 32.693 11.2903 32.7564 11.3496C32.8197 11.4089 32.8702 11.4806 32.9047 11.5603C32.9392 11.6399 32.957 11.7258 32.957 11.8125C32.957 11.8993 32.9392 11.9852 32.9047 12.0648C32.8702 12.1444 32.8197 12.2161 32.7564 12.2755C32.693 12.3348 32.6182 12.3805 32.5365 12.4097C32.4548 12.439 32.3679 12.4511 32.2813 12.4455Z" fill="#003675"/>
<path d="M41.8467 12.4455C39.5373 12.4455 37.7266 9.75923 37.7266 6.33027C37.7266 2.90131 39.5373 0.217773 41.8467 0.217773C44.1562 0.217773 45.9832 2.90402 45.9832 6.33027C45.9727 6.49098 45.9014 6.64166 45.7839 6.75176C45.6663 6.86185 45.5113 6.92311 45.3502 6.92311C45.1892 6.92311 45.0342 6.86185 44.9166 6.75176C44.7991 6.64166 44.7278 6.49098 44.7173 6.33027C44.7173 3.70366 43.4108 1.48093 41.8603 1.48093C40.3098 1.48093 39.0033 3.70366 39.0033 6.33027C39.0033 8.95688 40.3125 11.1796 41.8603 11.1796C42.021 11.1901 42.1717 11.2614 42.2818 11.3789C42.3919 11.4965 42.4531 11.6515 42.4531 11.8125C42.4531 11.9736 42.3919 12.1286 42.2818 12.2461C42.1717 12.3637 42.021 12.435 41.8603 12.4455H41.8467Z" fill="#003675"/>
<path d="M51.4041 12.4455C49.092 12.4455 47.2812 9.75923 47.2812 6.33027C47.2812 2.90131 49.092 0.217773 51.4041 0.217773C53.7163 0.217773 55.5243 2.90402 55.5243 6.33027C55.5243 6.49778 55.4578 6.65842 55.3393 6.77686C55.2209 6.89531 55.0602 6.96185 54.8927 6.96185C54.7252 6.96185 54.5646 6.89531 54.4461 6.77686C54.3277 6.65842 54.2612 6.49778 54.2612 6.33027C54.2612 3.70366 52.9519 1.48093 51.4041 1.48093C49.8564 1.48093 48.5471 3.70366 48.5471 6.33027C48.5471 8.95688 49.8564 11.1796 51.4041 11.1796C51.5648 11.1901 51.7155 11.2614 51.8256 11.3789C51.9357 11.4965 51.997 11.6515 51.997 11.8125C51.997 11.9736 51.9357 12.1286 51.8256 12.2461C51.7155 12.3637 51.5648 12.435 51.4041 12.4455Z" fill="#003675"/>
<path d="M60.9784 12.4455C58.6662 12.4455 56.8555 9.75923 56.8555 6.33027C56.8555 2.90131 58.6662 0.217773 60.9784 0.217773C63.2905 0.217773 65.0985 2.90402 65.0985 6.33027C65.0985 6.49778 65.032 6.65842 64.9135 6.77686C64.7951 6.89531 64.6345 6.96185 64.467 6.96185C64.2994 6.96185 64.1388 6.89531 64.0204 6.77686C63.9019 6.65842 63.8354 6.49778 63.8354 6.33027C63.8354 3.70366 62.5261 1.48093 60.9784 1.48093C59.4306 1.48093 58.1213 3.70366 58.1213 6.33027C58.1213 8.95688 59.4279 11.1796 60.9784 11.1796C61.1391 11.1901 61.2897 11.2614 61.3998 11.3789C61.5099 11.4965 61.5712 11.6515 61.5712 11.8125C61.5712 11.9736 61.5099 12.1286 61.3998 12.2461C61.2897 12.3637 61.1391 12.435 60.9784 12.4455Z" fill="#003675"/>
<path d="M70.5411 12.4455C68.2316 12.4455 66.4209 9.75923 66.4209 6.33027C66.4209 2.90131 68.2316 0.217773 70.5411 0.217773C72.8505 0.217773 74.664 2.90402 74.664 6.33027C74.6534 6.49097 74.5822 6.64166 74.4646 6.75176C74.3471 6.86185 74.1921 6.92311 74.031 6.92311C73.87 6.92311 73.715 6.86185 73.5974 6.75176C73.4799 6.64166 73.4086 6.49097 73.3981 6.33027C73.3981 3.70366 72.0916 1.48093 70.5411 1.48093C68.9906 1.48093 67.6841 3.70366 67.6841 6.33027C67.6841 8.95688 68.9933 11.1796 70.5411 11.1796C70.6277 11.1739 70.7145 11.1861 70.7962 11.2153C70.8779 11.2446 70.9528 11.2903 71.0161 11.3496C71.0795 11.4089 71.13 11.4806 71.1645 11.5603C71.199 11.6399 71.2168 11.7258 71.2168 11.8125C71.2168 11.8993 71.199 11.9852 71.1645 12.0648C71.13 12.1444 71.0795 12.2161 71.0161 12.2755C70.9528 12.3348 70.8779 12.3805 70.7962 12.4097C70.7145 12.439 70.6277 12.4511 70.5411 12.4455Z" fill="#003675"/>
<path d="M80.1085 12.4455C77.799 12.4455 75.9883 9.75923 75.9883 6.33027C75.9883 2.90131 77.799 0.217773 80.1085 0.217773C82.4179 0.217773 84.2313 2.90402 84.2313 6.33027C84.2208 6.49098 84.1496 6.64166 84.032 6.75176C83.9145 6.86185 83.7595 6.92311 83.5984 6.92311C83.4374 6.92311 83.2823 6.86185 83.1648 6.75176C83.0473 6.64166 82.976 6.49098 82.9655 6.33027C82.9655 3.70366 81.6562 1.48093 80.1085 1.48093C78.5607 1.48093 77.2514 3.70366 77.2514 6.33027C77.2514 8.95688 78.5607 11.1796 80.1085 11.1796C80.2692 11.1901 80.4198 11.2614 80.5299 11.3789C80.64 11.4965 80.7013 11.6515 80.7013 11.8125C80.7013 11.9736 80.64 12.1286 80.5299 12.2461C80.4198 12.3637 80.2692 12.435 80.1085 12.4455Z" fill="#003675"/>
<rect x="29.2627" y="21.0615" width="1.12106" height="3.0268" rx="0.560529" transform="rotate(-33.5913 29.2627 21.0615)" fill="white"/>
<rect x="34.0771" y="20.1514" width="1.12106" height="4.51372" rx="0.560529" transform="rotate(56.4087 34.0771 20.1514)" fill="white"/>
<rect x="39.1299" y="21.0605" width="1.12106" height="3.0268" rx="0.560529" transform="rotate(-33.5913 39.1299 21.0605)" fill="white"/>
<rect x="43.9453" y="20.1504" width="1.12106" height="4.51372" rx="0.560529" transform="rotate(56.4087 43.9453 20.1504)" fill="white"/>
<rect x="48.6855" y="21.0605" width="1.12106" height="3.0268" rx="0.560529" transform="rotate(-33.5913 48.6855 21.0605)" fill="white"/>
<rect x="53.5" y="20.1504" width="1.12106" height="4.51372" rx="0.560529" transform="rotate(56.4087 53.5 20.1504)" fill="white"/>
<rect x="58.2646" y="21.0615" width="1.12106" height="3.0268" rx="0.560529" transform="rotate(-33.5913 58.2646 21.0615)" fill="white"/>
<rect x="63.0791" y="20.1514" width="1.12106" height="4.51372" rx="0.560529" transform="rotate(56.4087 63.0791 20.1514)" fill="white"/>
</svg>
