<svg width="45" height="44" viewBox="0 0 45 44" fill="none" xmlns="http://www.w3.org/2000/svg">
<rect x="0.399902" width="44" height="44" rx="22" fill="#2E3192"/>
<path d="M26.4629 24.8658C26.3876 24.5346 26.1467 24.2486 25.8005 24.1507C24.6413 23.8346 23.4369 23.6689 22.21 23.6689C20.2077 23.6689 18.3259 24.1055 16.6925 24.8658C14.5397 25.8669 12.8235 27.4326 11.8223 29.3219C11.2126 30.4736 10.8739 31.7457 10.8739 33.0856C10.8739 33.6125 11.303 34.034 11.8223 34.034H29.4738V24.8658H26.4629Z" fill="white"/>
<path d="M22.2101 20.9892C25.5447 20.9892 28.2545 18.2869 28.2545 14.9448C28.2545 11.6027 25.5522 8.90039 22.2101 8.90039C18.8756 8.90039 16.1657 11.6027 16.1657 14.9448C16.1657 18.2869 18.868 20.9892 22.2101 20.9892Z" fill="white"/>
<path d="M34.299 28.2456C34.299 29.1489 34.0431 30.007 33.5989 30.7371C33.343 31.1737 33.0193 31.5576 32.643 31.8738C31.7999 32.634 30.6859 33.0856 29.4665 33.0856C27.7051 33.0856 26.1695 32.1447 25.334 30.7371C24.8899 30.0145 24.634 29.1564 24.634 28.2456C24.634 26.7251 25.334 25.3551 26.448 24.4745C27.2836 23.8121 28.3374 23.4131 29.4665 23.4131C32.1311 23.4056 34.299 25.5734 34.299 28.2456Z" fill="#2E3192"/>
<path d="M28.7745 30.3911C28.5336 30.3911 28.2852 30.3008 28.1045 30.1126L26.9077 28.9157C26.5389 28.5469 26.5389 27.9447 26.9077 27.5684C27.2765 27.1995 27.8787 27.1995 28.2551 27.5684L28.8046 28.1178L30.709 26.3565C31.0929 26.0027 31.695 26.0253 32.0564 26.4092C32.4101 26.7931 32.3876 27.3952 32.0037 27.7565L29.4293 30.1352C29.2336 30.3083 29.0003 30.3911 28.7745 30.3911Z" fill="white"/>
<path d="M29.459 34.4029C27.3062 34.4029 25.2813 33.2588 24.1823 31.4071C23.6027 30.4661 23.2941 29.3672 23.2941 28.2381C23.2941 26.3487 24.1372 24.5949 25.6125 23.4281C26.704 22.555 28.0739 22.0732 29.459 22.0732C32.8538 22.0732 35.6238 24.8358 35.6238 28.2381C35.6238 29.3672 35.3152 30.4737 34.728 31.4221C34.4119 31.9716 33.9979 32.4609 33.4936 32.8749C32.4096 33.8609 30.9719 34.4029 29.459 34.4029ZM29.459 24.7379C28.6611 24.7379 27.9008 25.0089 27.261 25.5132C26.4255 26.1756 25.9437 27.1692 25.9437 28.2456C25.9437 28.8854 26.1169 29.5027 26.4481 30.0371C27.0879 31.1135 28.2094 31.7533 29.4514 31.7533C30.3095 31.7533 31.1225 31.4447 31.7397 30.8877C32.0258 30.6468 32.2591 30.3683 32.4322 30.0672C32.771 29.5102 32.9516 28.8854 32.9516 28.2456C32.9667 26.3111 31.3935 24.7379 29.459 24.7379Z" fill="white"/>
<path d="M29.4589 22.4568C32.6505 22.4568 35.2474 25.0537 35.2474 28.2453C35.2474 29.3066 34.9538 30.3379 34.4043 31.2336C34.1108 31.7455 33.7118 32.2122 33.2527 32.5961C32.2365 33.5144 30.8816 34.0262 29.4665 34.0262C27.4416 34.0262 25.5448 32.9498 24.5135 31.2186C23.9716 30.3379 23.678 29.3066 23.678 28.2453C23.678 26.4689 24.4683 24.8279 25.8534 23.7289C26.8771 22.9085 28.1567 22.4568 29.4589 22.4568ZM29.4589 32.1294C30.4074 32.1294 31.3106 31.7831 32.0031 31.1659C32.3193 30.9024 32.5752 30.5938 32.7709 30.2551C33.1473 29.6378 33.343 28.9529 33.343 28.2453C33.343 26.1 31.6042 24.3612 29.4589 24.3612C28.5707 24.3612 27.7352 24.6548 27.0276 25.2193C26.1018 25.957 25.5749 27.056 25.5749 28.2453C25.5749 28.9529 25.7706 29.6454 26.1319 30.24C26.847 31.4218 28.0814 32.1294 29.4589 32.1294ZM29.4589 21.7041C27.9836 21.7041 26.5383 22.216 25.3792 23.1343C23.821 24.3687 22.9253 26.2355 22.9253 28.2378C22.9253 29.4421 23.2489 30.6013 23.8737 31.61C25.0329 33.5595 27.1782 34.779 29.4665 34.779C31.0698 34.779 32.5978 34.1994 33.757 33.1531C34.2689 32.724 34.713 32.1971 35.0592 31.61C35.6765 30.6164 36.0001 29.4421 36.0001 28.2453C36.0001 24.6397 33.0645 21.7041 29.4589 21.7041ZM29.4589 31.3766C28.3524 31.3766 27.3513 30.8046 26.7792 29.8486C26.4781 29.3669 26.3276 28.8098 26.3276 28.2453C26.3276 27.2893 26.7566 26.3936 27.4943 25.8065C28.0664 25.3548 28.7438 25.114 29.4589 25.114C31.1827 25.114 32.5903 26.5215 32.5903 28.2453C32.5903 28.8249 32.4322 29.3669 32.1311 29.8637C31.9655 30.1422 31.7623 30.383 31.5214 30.5938C30.9493 31.0981 30.2267 31.3766 29.4589 31.3766Z" fill="#2E3192"/>
</svg>
