<svg width="44" height="44" viewBox="0 0 44 44" fill="none" xmlns="http://www.w3.org/2000/svg">
<path d="M21.9998 20.6265C25.5108 20.6265 28.357 17.7803 28.357 14.2693C28.357 10.7583 25.5108 7.91211 21.9998 7.91211C18.4888 7.91211 15.6426 10.7583 15.6426 14.2693C15.6426 17.7803 18.4888 20.6265 21.9998 20.6265Z" fill="white" stroke="#3E3D4B" stoke-width="2" stroke-linecap="round" stroke-linejoin="round"/>
<path d="M34.7145 28.2557C34.7145 29.2093 34.4475 30.112 33.9771 30.8748C33.7101 31.3326 33.3668 31.7394 32.9726 32.07C32.0826 32.871 30.9129 33.3414 29.6287 33.3414C27.7724 33.3414 26.1577 32.3497 25.2804 30.8748C24.81 30.112 24.543 29.2093 24.543 28.2557C24.543 26.6537 25.2804 25.2169 26.4501 24.2888C27.3274 23.5895 28.4336 23.1699 29.6287 23.1699C32.4386 23.1699 34.7145 25.4458 34.7145 28.2557Z" fill="#BDE5F6" stroke="#3E3D4B" stoke-width="2"/>
<path d="M27.6455 28.2558L28.9042 29.5145L31.6124 27.0098" stroke="#3E3D4B" stoke-width="2" stroke-linecap="round" stroke-linejoin="round"/>
<path d="M11.0781 33.3415C11.0781 28.421 15.9732 24.4414 21.9998 24.4414C23.2204 24.4414 24.4028 24.6067 25.509 24.9118" stroke="#3E3D4B" stoke-width="2" stroke-linecap="round" stroke-linejoin="round"/>
</svg>
