<svg width="45" height="44" viewBox="0 0 45 44" fill="none" xmlns="http://www.w3.org/2000/svg">
<rect x="0.799805" width="44" height="44" rx="22" fill="#FBB040"/>
<path d="M21.9532 15.2925H11.8279C11.3414 15.2925 10.9395 14.8976 10.9395 14.4041C10.9395 13.9175 11.3343 13.5156 11.8279 13.5156H21.9532C22.4398 13.5156 22.8417 13.9105 22.8417 14.4041C22.8417 14.8976 22.4468 15.2925 21.9532 15.2925Z" fill="white"/>
<path d="M18.4134 18.3316H11.8348C11.3483 18.3316 10.9464 17.9367 10.9464 17.4431C10.9464 16.9566 11.3412 16.5547 11.8348 16.5547H18.4134C18.9 16.5547 19.3019 16.9495 19.3019 17.4431C19.2948 17.9296 18.9 18.3316 18.4134 18.3316Z" fill="white"/>
<path d="M28.0307 11.873H34.1087C34.6657 11.873 35.1241 12.3243 35.1241 12.8884V18.9594C35.1241 19.5164 34.6728 19.9747 34.1087 19.9747H28.0307C27.4736 19.9747 27.0153 19.5235 27.0153 18.9594V12.8884C27.0153 12.3243 27.4736 11.873 28.0307 11.873Z" fill="white"/>
<path d="M34.1018 20.8559H28.0238C26.9803 20.8559 26.1271 20.0027 26.1271 18.9591V12.8811C26.1271 11.8376 26.9803 10.9844 28.0238 10.9844H34.1018C35.1454 10.9844 35.9986 11.8376 35.9986 12.8811V18.9591C36.0056 20.0098 35.1525 20.8559 34.1018 20.8559ZM28.0309 12.7612C27.9604 12.7612 27.904 12.8177 27.904 12.8882V18.9662C27.904 19.0367 27.9604 19.0931 28.0309 19.0931H34.1089C34.1794 19.0931 34.2358 19.0367 34.2358 18.9662V12.8882C34.2358 12.8177 34.1794 12.7612 34.1089 12.7612H28.0309Z" fill="white"/>
<path d="M30.0549 17.8239C29.8293 17.8239 29.6037 17.7393 29.4274 17.563L28.412 16.5476C28.0665 16.2021 28.0665 15.6381 28.412 15.2926C28.7575 14.9471 29.3216 14.9471 29.6671 15.2926L30.0549 15.6804L32.4664 13.2689C32.8119 12.9234 33.376 12.9234 33.7215 13.2689C34.067 13.6144 34.067 14.1785 33.7215 14.524L30.6825 17.563C30.5062 17.7322 30.2805 17.8239 30.0549 17.8239Z" fill="#FBB040"/>
<path d="M21.9532 27.4419H11.8279C11.3414 27.4419 10.9395 27.0471 10.9395 26.5535C10.9395 26.067 11.3343 25.665 11.8279 25.665H21.9532C22.4398 25.665 22.8417 26.0599 22.8417 26.5535C22.8417 27.0471 22.4468 27.4419 21.9532 27.4419Z" fill="white"/>
<path d="M18.4134 30.481H11.8348C11.3483 30.481 10.9464 30.0861 10.9464 29.5925C10.9464 29.106 11.3412 28.7041 11.8348 28.7041H18.4134C18.9 28.7041 19.3019 29.099 19.3019 29.5925C19.2948 30.0791 18.9 30.481 18.4134 30.481Z" fill="white"/>
<path d="M28.0307 24.0225H34.1087C34.6657 24.0225 35.1241 24.4737 35.1241 25.0378V31.1088C35.1241 31.6658 34.6728 32.1242 34.1087 32.1242H28.0307C27.4736 32.1242 27.0153 31.6729 27.0153 31.1088V25.0378C27.0153 24.4737 27.4736 24.0225 28.0307 24.0225Z" fill="white"/>
<path d="M34.1018 33.0051H28.0238C26.9803 33.0051 26.1271 32.1519 26.1271 31.1083V25.0374C26.1271 23.9938 26.9803 23.1406 28.0238 23.1406H34.1018C35.1454 23.1406 35.9986 23.9938 35.9986 25.0374V31.1083C36.0056 32.159 35.1525 33.0051 34.1018 33.0051ZM28.0309 24.9104C27.9604 24.9104 27.904 24.9669 27.904 25.0374V31.1083C27.904 31.1789 27.9604 31.2353 28.0309 31.2353H34.1089C34.1794 31.2353 34.2358 31.1789 34.2358 31.1083V25.0374C34.2358 24.9669 34.1794 24.9104 34.1089 24.9104H28.0309Z" fill="white"/>
<path d="M30.0549 29.9733C29.8293 29.9733 29.6037 29.8887 29.4274 29.7124L28.412 28.6971C28.0665 28.3516 28.0665 27.7875 28.412 27.442C28.7575 27.0965 29.3216 27.0965 29.6671 27.442L30.0549 27.8298L32.4664 25.4183C32.8119 25.0728 33.376 25.0728 33.7215 25.4183C34.067 25.7638 34.067 26.3279 33.7215 26.6734L30.6825 29.7124C30.5062 29.8816 30.2805 29.9733 30.0549 29.9733Z" fill="#FBB040"/>
</svg>
