<svg width="24" height="20" viewBox="0 0 24 20" fill="none" xmlns="http://www.w3.org/2000/svg">
<path d="M3.15583 7.43405C3.15583 7.43405 3.13433 7.66503 3.12573 7.95267C5.43028 7.82628 7.73913 7.84371 10.0394 8.02675C10.0394 8.02675 10.048 7.79141 10.0609 7.49506C7.76063 7.47327 5.45608 7.45148 3.15583 7.42969V7.43405Z" fill="#F7941D"/>
<path d="M23.2906 0.861328H14.9495C13.4704 0.861328 12.5503 1.41046 12 2.09033C11.454 1.41046 10.5339 0.861328 9.05052 0.861328H0.705124C0.318166 0.861328 0 1.18383 0 1.57606V16.6117C0 17.0083 0.318166 17.3264 0.705124 17.3264H9.04622C10.7746 17.3264 11.3164 18.5859 11.3379 18.6339C11.3938 18.782 11.5013 18.8997 11.6259 18.9782C11.6259 18.9782 11.6345 18.9782 11.6345 18.9825C11.699 19.0217 11.7678 19.0479 11.8409 19.0653C11.8452 19.0653 11.8495 19.0653 11.8538 19.0697C11.871 19.0697 11.8925 19.0697 11.9097 19.074C11.9355 19.074 11.9613 19.0871 11.9914 19.0871C12.0344 19.0871 12.0774 19.0871 12.1247 19.074C12.3612 19.0305 12.5503 18.8648 12.6406 18.6513C12.6406 18.6469 12.6449 18.6426 12.6492 18.6382C12.6707 18.5859 13.2125 17.3264 14.9452 17.3264H18.7503V18.83C18.7503 18.9477 18.8191 19.0566 18.9265 19.1089C19.034 19.1568 19.1587 19.1438 19.249 19.0653L19.8552 18.5423L20.4615 19.0653C20.5174 19.1133 20.5862 19.1394 20.6593 19.1394C20.7023 19.1394 20.7453 19.1307 20.7882 19.1133C20.8957 19.061 20.9645 18.9564 20.9645 18.8343V17.3308H23.2949C23.6861 17.3308 24 17.0083 24 16.616V1.57606C24 1.17947 23.6818 0.861328 23.2949 0.861328H23.2906ZM9.05052 15.8969H1.41455V2.29516H9.05052C11.1444 2.29516 11.2863 3.75514 11.2906 4.05149V16.5202C10.7488 16.1672 10.0179 15.8969 9.05052 15.8969ZM22.5812 15.8969H14.9452C13.9778 15.8969 13.2469 16.1672 12.7051 16.5202V4.05149C12.7137 3.75078 12.8513 2.29516 14.9452 2.29516H22.5812V15.8969Z" fill="#353C50"/>
<path d="M13.8702 10.3442C13.8659 10.5665 13.8616 10.7234 13.8616 10.7234C16.3639 10.7626 18.8662 10.7408 21.3686 10.6536C21.3815 10.6536 21.3858 10.5665 21.3944 10.4401C18.8877 10.4532 16.3768 10.4183 13.8702 10.3398V10.3442Z" fill="#00BAE7"/>
<path d="M15.001 12.0521C16.9917 12.1 18.9823 12.1262 20.973 12.1218C20.9773 11.8429 20.9816 11.625 20.9859 11.625C18.9995 11.6555 17.0132 11.6817 15.0268 11.7122C15.0139 11.7122 15.0053 11.856 15.001 12.0565V12.0521Z" fill="#00BAE7"/>
<path d="M21.3944 10.4414C21.4159 9.99246 21.4073 8.97266 21.4288 8.97266C18.9265 9.05982 16.4241 9.08161 13.9218 9.04239C13.9046 9.04239 13.8831 9.84864 13.8745 10.3455C16.3811 10.4239 18.8921 10.4544 21.3987 10.4457L21.3944 10.4414Z" fill="#4AC7E9"/>
<path d="M21.3945 10.4405C21.3902 10.5669 21.3816 10.6541 21.3687 10.6541C18.8664 10.7412 16.364 10.763 13.8617 10.7238C13.8617 10.7238 13.8617 10.5626 13.8703 10.3447C13.7671 10.3447 13.6596 10.3447 13.5565 10.3359C13.5436 10.3359 13.4877 12.0182 13.4963 12.0182C13.9993 12.0356 14.5023 12.04 15.0054 12.053C15.014 11.8526 15.0183 11.7088 15.0312 11.7088C17.0176 11.6782 19.004 11.6521 20.9903 11.6216C20.986 11.6216 20.9817 11.8395 20.9774 12.1184C21.1709 12.1184 21.3687 12.1184 21.5622 12.1184C21.5966 12.1184 21.6095 10.4362 21.6224 10.4362C21.545 10.4362 21.4719 10.4362 21.3945 10.4362V10.4405Z" fill="#4AC7E9"/>
<path d="M15.001 12.0532C14.9838 12.5457 14.9795 13.3911 14.9709 13.3911C16.9573 13.3606 18.9437 13.3345 20.9301 13.304C20.9559 13.304 20.9645 12.6154 20.9731 12.1186C18.9824 12.1229 16.9917 12.0968 15.001 12.0488V12.0532Z" fill="#4AC7E9"/>
<path d="M10.0609 7.49805C10.0481 7.7944 10.0352 8.02974 10.0395 8.02974C7.7392 7.8467 5.43035 7.82491 3.1258 7.95565C3.1086 8.46556 3.0957 9.17158 3.0957 9.17158C5.48194 9.19337 7.87249 9.21516 10.2587 9.23695C10.2845 9.23695 10.3189 7.50241 10.3189 7.50241C10.2329 7.50241 10.1469 7.50241 10.0609 7.50241V7.49805Z" fill="#FCAF17"/>
<path d="M3.1558 7.43368C5.45605 7.45547 7.7606 7.47726 10.0608 7.49905C10.0866 6.98915 10.121 6.2962 10.0952 6.2962C7.63161 6.10009 5.15508 6.08265 2.68715 6.24391C2.62265 6.24391 2.66995 7.97845 2.62695 7.97845C2.79034 7.96973 2.95802 7.96537 3.1214 7.95666C3.13 7.66466 3.1429 7.43804 3.1515 7.43804L3.1558 7.43368Z" fill="#FCAF17"/>
</svg>
