<svg width="26" height="24" viewBox="0 0 26 24" fill="none" xmlns="http://www.w3.org/2000/svg">
<path fill-rule="evenodd" clip-rule="evenodd" d="M13.467 21.7804C13.467 21.8718 13.5719 21.8723 13.5907 21.7804C13.7301 21.1041 13.9417 20.6532 14.2725 20.2156L13.5286 20.2161C13.4946 20.2161 13.467 20.2435 13.467 20.2775V21.7804ZM18.8148 12.3908C18.8232 13.3686 18.5424 14.2089 16.7593 15.9937L15.3491 17.4043C14.7073 18.0466 14.1302 18.6331 13.789 19.2195H15.1818L15.3466 19.0545L17.3699 17.0272C19.0548 15.3405 19.2898 13.5564 18.9301 12.3927C18.8995 12.2939 18.8139 12.2871 18.8148 12.3908ZM17.0391 18.3567L15.3491 20.0498C14.3261 21.0738 13.467 21.9562 13.467 22.9212L13.4681 23.1898C13.4681 23.2625 13.5587 23.2742 13.5865 23.1979C13.9025 22.334 14.9578 21.412 16.8935 21.7388C16.8935 21.7388 25.3266 23.1974 25.3973 23.2037C25.4797 23.2109 25.5204 23.1297 25.4673 23.0666C25.4353 23.0286 21.5425 19.132 21.5425 19.132L17.0391 18.3567ZM10.9384 20.2156C10.9221 20.2156 10.9064 20.2091 10.8949 20.1975C10.8833 20.186 10.8768 20.1703 10.8768 20.154V19.2806C10.8768 19.2464 10.9044 19.219 10.9384 19.219L12.4143 19.2193C12.4483 19.2193 12.4759 19.1917 12.4759 19.1577C12.472 18.3733 11.8812 17.8402 9.51398 18.2527L4.40243 19.132C4.40243 19.132 0.509422 23.0286 0.477617 23.0666C0.424328 23.1297 0.465099 23.2109 0.547486 23.2037C0.618538 23.1974 9.0513 21.7386 9.0513 21.7386C10.9871 21.412 12.0424 22.3341 12.3583 23.1979C12.386 23.2741 12.4769 23.2627 12.4769 23.1898L12.477 20.277C12.477 20.2432 12.4495 20.2156 12.4155 20.2156H10.9384ZM8.58218 8.00806C6.89722 9.69455 6.66224 11.4788 7.02207 12.6426C7.05252 12.7414 7.13812 12.7479 7.13711 12.6442C7.12865 11.6664 7.40981 10.8263 9.19273 9.04154L13.0365 5.1954C14.0595 4.17122 14.9186 3.28882 14.9186 2.32403V0.818896C14.9186 0.727204 14.8137 0.726866 14.7947 0.818896C14.542 2.04709 14.0512 2.53177 13.039 3.54478L8.58235 8.00789L8.58218 8.00806ZM14.9223 3.45173C14.9223 3.36038 14.8174 3.35987 14.7984 3.45173C14.5457 4.6801 14.0561 5.17222 13.0441 6.18556L9.00697 10.2225C7.04795 12.1836 6.70893 14.0814 7.70536 15.3011C7.77184 15.3825 7.84323 15.3336 7.8001 15.2355C7.14117 13.7435 8.7209 12.1616 9.47305 11.4088L13.0402 7.83838C14.0632 6.81438 14.9223 5.93198 14.9223 4.96701V3.45173ZM9.11778 12.7576C7.15859 14.7186 8.05944 16.6125 9.20237 17.1341C9.30252 17.1798 9.34244 17.0984 9.26564 17.0321C8.3494 16.2371 8.62752 14.9005 9.77992 13.7471L13.0362 10.4876C14.0592 9.46363 14.918 8.58139 14.918 7.61643V6.11147C14.918 6.02011 14.8132 6.01961 14.7945 6.11147C14.5416 7.33949 14.0519 7.82214 13.0397 8.83515L9.11778 12.7576ZM13.4635 19.1474C13.4635 19.2389 13.5684 19.2393 13.587 19.1474C13.8401 17.9194 14.3297 17.4269 15.3417 16.4139L16.9452 14.8122C18.9043 12.8515 19.2431 10.9535 18.2467 9.73397C18.1802 9.65259 18.1088 9.70131 18.1523 9.79943C18.8109 11.2914 17.2313 12.8731 16.4792 13.6261L15.3455 14.7611C14.3224 15.7849 13.4635 16.6672 13.4635 17.6321V19.1474ZM15.3461 13.764C14.3339 14.777 13.844 15.2597 13.5912 16.4879C13.5723 16.5799 13.4676 16.5795 13.4676 16.4879V14.9829C13.4676 14.0181 14.3264 13.1355 15.3496 12.1117L16.1721 11.2882C17.3247 10.1344 17.6028 8.7981 16.6864 8.00316C16.6098 7.93684 16.6497 7.8553 16.75 7.90115C17.8928 8.42254 18.7936 10.3164 16.8343 12.2776L15.3461 13.764ZM24.6778 19.9826H24.8669L25.0845 20.5697L25.302 19.9826H25.4912V20.7305H25.3587V20.153H25.3492L25.1412 20.7305H25.0278L24.8197 20.153H24.8101V20.7305H24.6778V19.9826ZM24.2427 20.0963H24.0251V19.9826H24.602V20.0963H24.375V20.7307H24.2427V20.0963Z" fill="#2E6DE7"/>
</svg>
