<svg width="18" height="21" viewBox="0 0 18 21" fill="none" xmlns="http://www.w3.org/2000/svg">
<path d="M6.5 3.33333H11.5M9 7V1" stroke="black" stoke-width="2" stroke-linecap="round" stroke-linejoin="round"/>
<path d="M17.3242 16.1227L14.3242 13.2404V20.2404H17.3242V16.1227Z" stroke="black" stoke-width="2"/>
<path d="M0.652344 16.1227L3.65234 13.2404V20.2404H0.652344V16.1227Z" stroke="black" stoke-width="2"/>
<path fill-rule="evenodd" clip-rule="evenodd" d="M13.8636 11.5322L9 7.47921L4.13636 11.5322V19.8636H13.8636V11.5322ZM9 6L15 11V19.8636V21H13.8636H4.13636H3V19.8636V11L9 6ZM10.3635 19.8638V17.5C10.3635 16.7469 9.75296 16.1364 8.99984 16.1364C8.24673 16.1364 7.63621 16.7469 7.63621 17.5V19.8638H10.3635ZM8.99984 15C7.61913 15 6.49984 16.1193 6.49984 17.5V19.8638V21.0001H7.63621H10.3635H11.4998V19.8638V17.5C11.4998 16.1193 10.3806 15 8.99984 15Z" fill="black"/>
</svg>
