<svg width="20" height="20" viewBox="0 0 20 20" fill="none" xmlns="http://www.w3.org/2000/svg">
<path d="M10.0003 18.4587C5.3348 18.4587 1.54199 14.6659 1.54199 10.0003C1.54199 5.3348 5.3348 1.54199 10.0003 1.54199C14.6659 1.54199 18.4587 5.3348 18.4587 10.0003C18.4587 14.6659 14.6659 18.4587 10.0003 18.4587ZM10.0003 1.79199C5.47418 1.79199 1.79199 5.47418 1.79199 10.0003C1.79199 14.5265 5.47418 18.2087 10.0003 18.2087C14.5265 18.2087 18.2087 14.5265 18.2087 10.0003C18.2087 5.47418 14.5265 1.79199 10.0003 1.79199Z" fill="#3E3D4B" stroke="#3E3D4B"/>
<path d="M13.0525 12.7678L13.0422 12.7608L13.0314 12.7544L10.4483 11.2129C10.4482 11.2128 10.4482 11.2128 10.4481 11.2128C9.95793 10.9198 9.5752 10.2415 9.5752 9.67546V6.25879C9.5752 6.22864 9.58748 6.19736 9.61312 6.17172C9.63877 6.14607 9.67005 6.13379 9.7002 6.13379C9.73034 6.13379 9.76162 6.14607 9.78727 6.17172C9.81291 6.19736 9.8252 6.22864 9.8252 6.25879V9.67546C9.8252 9.94382 9.92923 10.2161 10.0479 10.4247C10.1656 10.6318 10.3463 10.8613 10.5795 10.9978L13.1606 12.5381L13.1606 12.5382L13.1649 12.5407C13.2136 12.5691 13.2424 12.638 13.2052 12.7087C13.1715 12.7581 13.1256 12.7755 13.0919 12.7755C13.0762 12.7755 13.0671 12.7737 13.0628 12.7725C13.0591 12.7714 13.0563 12.7702 13.0525 12.7678Z" fill="#3E3D4B" stroke="#3E3D4B"/>
</svg>
