<svg width="44" height="44" viewBox="0 0 44 44" fill="none" xmlns="http://www.w3.org/2000/svg">
<rect x="10.8613" y="8" width="22" height="27.1765" rx="6" fill="white" stroke="#3E3D4B" stoke-width="2" stroke-linecap="round" stroke-linejoin="round"/>
<path d="M33.8115 28.8828C37.3865 28.8828 40.3115 25.9578 40.3115 22.3828C40.3115 18.8078 37.3865 15.8828 33.8115 15.8828C30.2365 15.8828 27.3115 18.8078 27.3115 22.3828C27.3115 25.9578 30.2365 28.8828 33.8115 28.8828Z" fill="#BDE5F6" stroke="#3E3D4B" stoke-width="2" stroke-linecap="round" stroke-linejoin="round"/>
<path d="M31.2646 22.3835L32.9607 24.0795L36.3587 20.6875" fill="#BDE5F6"/>
<path d="M31.2646 22.3835L32.9607 24.0795L36.3587 20.6875" stroke="#3E3D4B" stoke-width="2" stroke-linecap="round" stroke-linejoin="round"/>
<path d="M10.6245 16C14.1995 16 17.1245 18.925 17.1245 22.5C17.1245 26.075 14.1995 29 10.6245 29C7.04951 29 4.12451 26.075 4.12451 22.5C4.12451 18.925 7.04951 16 10.6245 16Z" fill="white" stroke="#3E3D4B" stoke-width="2" stroke-linecap="round" stroke-linejoin="round"/>
<path d="M8.67578 20.5525L12.3381 24.2148" stroke="#3E3D4B" stoke-width="2" stroke-linecap="round" stroke-linejoin="round"/>
<path d="M12.3381 20.5525L8.67578 24.2148" stroke="#3E3D4B" stoke-width="2" stroke-linecap="round" stroke-linejoin="round"/>
</svg>
