<svg width="32" height="32" viewBox="0 0 32 32" fill="none" xmlns="http://www.w3.org/2000/svg">
<path d="M28 7.97526C23.56 7.53526 19.0933 7.30859 14.64 7.30859C12 7.30859 9.36 7.44193 6.72 7.70859L4 7.97526" stroke="#8C0505" stoke-width="2" stroke-linecap="round" stroke-linejoin="round"/>
<path d="M11.332 6.62797L11.6254 4.8813C11.8387 3.61464 11.9987 2.66797 14.252 2.66797H17.7454C19.9987 2.66797 20.172 3.66797 20.372 4.89464L20.6654 6.62797" stroke="#8C0505" stoke-width="2" stroke-linecap="round" stroke-linejoin="round"/>
<path d="M25.1339 12.1875L24.2672 25.6142C24.1205 27.7075 24.0005 29.3342 20.2805 29.3342H11.7205C8.00052 29.3342 7.88052 27.7075 7.73385 25.6142L6.86719 12.1875" stroke="#8C0505" stoke-width="2" stroke-linecap="round" stroke-linejoin="round"/>
<path d="M13.7734 22H18.2134" stroke="#8C0505" stoke-width="2" stroke-linecap="round" stroke-linejoin="round"/>
<path d="M12.668 16.668H19.3346" stroke="#8C0505" stoke-width="2" stroke-linecap="round" stroke-linejoin="round"/>
</svg>
