<svg width="44" height="44" viewBox="0 0 44 44" fill="none" xmlns="http://www.w3.org/2000/svg">
<path d="M21.7732 25.4449C24.5868 25.4449 26.8677 23.164 26.8677 20.3504C26.8677 17.5367 24.5868 15.2559 21.7732 15.2559C18.9596 15.2559 16.6787 17.5367 16.6787 20.3504C16.6787 23.164 18.9596 25.4449 21.7732 25.4449Z" fill="#BDE5F6" stroke="#3E3D4B" stoke-width="2" stroke-linecap="round" stroke-linejoin="round"/>
<path d="M30.5257 35.6343C30.5257 31.6911 26.6029 28.502 21.7733 28.502C16.9438 28.502 13.021 31.6911 13.021 35.6343" stroke="#3E3D4B" stoke-width="2" stroke-linecap="round" stroke-linejoin="round"/>
<path d="M30 20.5H34.5" stroke="#3E3D4B" stroke-linecap="round"/>
<path d="M33 18L34.7929 19.7929C35.1834 20.1834 35.1834 20.8166 34.7929 21.2071L33 23" stroke="#3E3D4B" stroke-linecap="round"/>
<path d="M13.0464 20.5H8.54639" stroke="#3E3D4B" stroke-linecap="round"/>
<path d="M10.0464 18L8.25349 19.7929C7.86297 20.1834 7.86297 20.8166 8.25349 21.2071L10.0464 23" stroke="#3E3D4B" stroke-linecap="round"/>
<path d="M21.8374 12.3672L21.8374 7.26002" stroke="#3E3D4B" stroke-linecap="round"/>
<path d="M24.6748 8.96289L22.5446 6.83268C22.1541 6.44216 21.5209 6.44216 21.1304 6.83268L19.0002 8.96289" stroke="#3E3D4B" stroke-linecap="round"/>
</svg>
