<svg width="45" height="44" viewBox="0 0 45 44" fill="none" xmlns="http://www.w3.org/2000/svg">
<rect x="0.600098" width="44" height="44" rx="22" fill="#BE1E2D"/>
<path d="M23.1926 26.1748C25.9107 26.1748 28.1096 23.9759 28.1096 21.2578C28.1096 18.5397 25.9107 16.3408 23.1926 16.3408C20.4745 16.3408 18.2756 18.5397 18.2756 21.2578C18.2756 23.9683 20.4821 26.1748 23.1926 26.1748Z" fill="white"/>
<path d="M31.7133 32.6876C30.2092 30.0153 26.9642 28.1523 23.2001 28.1523C19.4895 28.1523 16.2904 29.9542 14.7557 32.5578C14.1449 33.5962 13.7937 34.7643 13.7937 35.9936C13.7937 36.528 14.2289 36.9556 14.7557 36.9556H31.6446H31.7133C32.2095 36.9174 32.6066 36.5128 32.6066 36.0089C32.6066 34.8178 32.2783 33.6954 31.7133 32.6876Z" fill="white"/>
<path d="M36.439 20.0362L34.7058 18.3031C34.3317 17.9289 33.7209 17.9289 33.3391 18.3031C32.965 18.6772 32.965 19.288 33.3391 19.6697L34.1026 20.4332H31.1249C30.5905 20.4332 30.1629 20.8684 30.1629 21.3953C30.1629 21.9297 30.5981 22.3573 31.1249 22.3573H34.1026L33.3391 23.1208C32.965 23.4949 32.965 24.1057 33.3391 24.4875C33.53 24.6784 33.7743 24.77 34.0186 24.77C34.263 24.77 34.5149 24.6784 34.6982 24.4875L36.4313 22.7543C37.1872 22.0137 37.1872 20.7921 36.439 20.0362Z" fill="white"/>
<path d="M14.7707 20.4332H11.793L12.5565 19.6697C12.9306 19.2956 12.9306 18.6848 12.5565 18.3031C12.1824 17.9289 11.5716 17.9289 11.1898 18.3031L9.45668 20.0362C8.7008 20.7921 8.7008 22.0137 9.45668 22.7619L11.1898 24.4951C11.3807 24.686 11.625 24.7776 11.8694 24.7776C12.1137 24.7776 12.3656 24.686 12.5489 24.4951C12.923 24.121 12.923 23.5102 12.5489 23.1284L11.7854 22.3649H14.7631C15.2975 22.3649 15.7251 21.9297 15.7251 21.4029C15.7404 20.8684 15.3052 20.4332 14.7707 20.4332Z" fill="white"/>
<path d="M26.6735 9.58377L24.6197 7.52993C23.8638 6.78169 22.6422 6.78169 21.8939 7.52993L19.8401 9.58377C19.466 9.95789 19.466 10.5687 19.8401 10.9505C20.2142 11.3246 20.825 11.3246 21.2068 10.9505L22.2986 9.85863V13.554C22.2986 14.0885 22.7338 14.516 23.2606 14.516C23.7951 14.516 24.2226 14.0808 24.2226 13.554V9.85863L25.3144 10.9505C25.5053 11.1413 25.7497 11.2329 25.994 11.2329C26.2383 11.2329 26.4903 11.1413 26.6735 10.9505C27.0552 10.5763 27.0552 9.96552 26.6735 9.58377Z" fill="white"/>
</svg>
