<svg width="22" height="22" viewBox="0 0 22 22" fill="none" xmlns="http://www.w3.org/2000/svg">
<path d="M9.72403 10.666H5.82131C5.41921 10.666 5.08807 10.9912 5.08807 11.3992C5.08807 11.8073 5.4133 12.1325 5.82131 12.1325H9.72403C10.1261 12.1325 10.4573 11.8073 10.4573 11.3992C10.4573 10.9912 10.132 10.666 9.72403 10.666Z" fill="#3E3D4B"/>
<path d="M20.0484 6.28521C19.8178 5.38049 19.2797 4.59994 18.5524 4.06184C17.961 3.61835 17.2455 3.33452 16.465 3.27539H5.38364C3.34359 3.27539 1.65832 4.80099 1.39223 6.76418C1.36858 6.94158 1.35675 7.11897 1.35675 7.29636V11.5894C1.35675 11.9323 1.39814 12.2694 1.48093 12.5887C1.71154 13.4934 2.24964 14.2739 2.97697 14.812C3.56829 15.2555 4.28379 15.5394 5.06433 15.5985C5.17077 15.6044 5.27721 15.6103 5.38364 15.6103H9.6175C10.1674 15.6103 10.6996 15.7996 11.1254 16.1366L13.8632 18.3304C14.2061 18.6024 14.6142 18.7443 15.034 18.7443C15.3119 18.7443 15.5898 18.6852 15.85 18.5551C16.5064 18.2417 16.9144 17.5913 16.9144 16.8639V16.4145C16.9144 15.971 17.2751 15.6103 17.7186 15.6103C19.0491 15.6103 20.1312 14.5282 20.1312 13.1978V12.1097C20.1548 11.9323 20.1667 11.7549 20.1667 11.5775V7.28454C20.1667 6.94158 20.1253 6.60452 20.0425 6.28521H20.0484ZM15.3119 16.4204V16.8698C15.3119 17.0177 15.2173 17.0827 15.1582 17.1123C15.105 17.1419 14.9926 17.1714 14.8743 17.0827L13.0294 15.6044L12.1365 14.8889C11.4269 14.3213 10.534 14.0079 9.62341 14.0079H5.38956C5.30677 14.0079 5.22399 14.0078 5.1412 13.996C5.1412 13.996 5.13529 13.996 5.12938 13.996C3.91717 13.8659 2.97697 12.837 2.97697 11.5953V7.30228C2.97697 7.16037 2.9888 7.02436 3.01245 6.88835C3.20758 5.75302 4.201 4.88968 5.38956 4.88968H16.4059C16.4059 4.88968 16.4118 4.88968 16.4177 4.88968C17.6299 5.01978 18.5701 6.04867 18.5701 7.29045V11.5834C18.5701 11.7254 18.5583 11.8614 18.5346 11.9974V13.2096C18.5346 13.6531 18.1739 14.0138 17.7304 14.0138C16.6838 14.0138 15.7968 14.682 15.4597 15.6103C15.3651 15.8646 15.3178 16.1425 15.3178 16.4264L15.3119 16.4204Z" fill="#3E3D4B"/>
</svg>
