<svg width="24" height="27" viewBox="0 0 24 27" fill="none" xmlns="http://www.w3.org/2000/svg">
<path d="M9 23.854H15C20 23.854 22 21.6854 22 16.2639V9.75808C22 4.33657 20 2.16797 15 2.16797H9C4 2.16797 2 4.33657 2 9.75808V16.2639C2 21.6854 4 23.854 9 23.854Z" stroke="#292D32" stoke-width="2" stroke-linecap="round" stroke-linejoin="round"/>
<path d="M9 10.8431C10.1046 10.8431 11 9.87215 11 8.67446C11 7.47678 10.1046 6.50586 9 6.50586C7.89543 6.50586 7 7.47678 7 8.67446C7 9.87215 7.89543 10.8431 9 10.8431Z" stroke="#292D32" stoke-width="2" stroke-linecap="round" stroke-linejoin="round"/>
<path d="M2.67004 20.5484L7.60004 16.9593C8.39004 16.3847 9.53004 16.4497 10.24 17.1111L10.57 17.4256C11.35 18.1521 12.61 18.1521 13.39 17.4256L17.55 13.5546C18.33 12.8281 19.59 12.8281 20.37 13.5546L22 15.0727" stroke="#292D32" stoke-width="2" stroke-linecap="round" stroke-linejoin="round"/>
</svg>
