<svg width="23" height="24" viewBox="0 0 23 24" fill="none" xmlns="http://www.w3.org/2000/svg">
<path fill-rule="evenodd" clip-rule="evenodd" d="M22.54 11.9011C22.54 11.0856 22.4668 10.3016 22.3309 9.54883H11.5V13.9972H17.6891C17.4225 15.4347 16.6123 16.6527 15.3943 17.4681V20.3536H19.1109C21.2855 18.3516 22.54 15.4034 22.54 11.9011Z" fill="#4285F4"/>
<path fill-rule="evenodd" clip-rule="evenodd" d="M11.5 23.1397C14.605 23.1397 17.2081 22.1099 19.1109 20.3536L15.3943 17.4681C14.3645 18.1581 13.0472 18.5658 11.5 18.5658C8.50474 18.5658 5.96951 16.5429 5.06519 13.8247H1.22314V16.8043C3.11542 20.5627 7.00451 23.1397 11.5 23.1397Z" fill="#34A853"/>
<path fill-rule="evenodd" clip-rule="evenodd" d="M5.06523 13.8246C4.83523 13.1346 4.70455 12.3976 4.70455 11.6396C4.70455 10.8817 4.83523 10.1446 5.06523 9.45464V6.4751H1.22318C0.444318 8.0276 0 9.78396 0 11.6396C0 13.4953 0.444318 15.2517 1.22318 16.8042L5.06523 13.8246Z" fill="#FBBC05"/>
<path fill-rule="evenodd" clip-rule="evenodd" d="M11.5 4.71351C13.1884 4.71351 14.7043 5.29374 15.8961 6.43328L19.1945 3.13488C17.2029 1.27919 14.5997 0.139648 11.5 0.139648C7.00451 0.139648 3.11542 2.71669 1.22314 6.4751L5.06519 9.45465C5.96951 6.73647 8.50474 4.71351 11.5 4.71351Z" fill="#EA4335"/>
</svg>
