<svg width="25" height="24" viewBox="0 0 25 24" fill="none" xmlns="http://www.w3.org/2000/svg">
<path d="M22.1644 11.2271H20.7744C20.5927 9.33662 19.7589 7.5683 18.416 6.22541C17.0731 4.88251 15.3048 4.04872 13.4144 3.86705V2.47705C13.4144 2.27814 13.3353 2.08737 13.1947 1.94672C13.054 1.80607 12.8633 1.72705 12.6644 1.72705C12.4654 1.72705 12.2747 1.80607 12.134 1.94672C11.9934 2.08737 11.9144 2.27814 11.9144 2.47705V3.86705C10.0322 4.0578 8.27456 4.89582 6.94143 6.23807C5.60829 7.58033 4.78227 9.34363 4.60436 11.2271H3.21436C3.11586 11.2271 3.01834 11.2464 2.92734 11.2841C2.83635 11.3218 2.75367 11.3771 2.68403 11.4467C2.61438 11.5164 2.55914 11.599 2.52145 11.69C2.48375 11.781 2.46436 11.8786 2.46436 11.9771C2.46436 12.0755 2.48375 12.1731 2.52145 12.2641C2.55914 12.3551 2.61438 12.4377 2.68403 12.5074C2.75367 12.577 2.83635 12.6323 2.92734 12.67C3.01834 12.7077 3.11586 12.7271 3.21436 12.7271H4.60436C4.78603 14.6175 5.61981 16.3858 6.96271 17.7287C8.30561 19.0716 10.0739 19.9054 11.9644 20.0871V21.4771C11.9644 21.676 12.0434 21.8667 12.184 22.0074C12.3247 22.148 12.5154 22.2271 12.7144 22.2271C12.9133 22.2271 13.104 22.148 13.2447 22.0074C13.3853 21.8667 13.4644 21.676 13.4644 21.4771V20.0871C15.3541 19.9035 17.1214 19.0691 18.4639 17.7266C19.8064 16.3841 20.6408 14.6168 20.8244 12.7271H22.2144C22.3128 12.7271 22.4104 12.7077 22.5014 12.67C22.5924 12.6323 22.675 12.577 22.7447 12.5074C22.8143 12.4377 22.8696 12.3551 22.9073 12.2641C22.945 12.1731 22.9644 12.0755 22.9644 11.9771C22.9644 11.8786 22.945 11.781 22.9073 11.69C22.8696 11.599 22.8143 11.5164 22.7447 11.4467C22.675 11.3771 22.5924 11.3218 22.5014 11.2841C22.4104 11.2464 22.3128 11.2271 22.2144 11.2271H22.1644ZM12.6644 18.6171C11.3511 18.6171 10.0673 18.2276 8.97537 17.498C7.88343 16.7684 7.03236 15.7314 6.5298 14.5181C6.02723 13.3048 5.89574 11.9697 6.15194 10.6817C6.40815 9.39362 7.04055 8.21048 7.96917 7.28186C8.89779 6.35324 10.0809 5.72084 11.369 5.46464C12.657 5.20843 13.9921 5.33993 15.2054 5.84249C16.4187 6.34506 17.4557 7.19612 18.1853 8.28806C18.9149 9.38001 19.3044 10.6638 19.3044 11.9771C19.3044 13.739 18.6051 15.4289 17.3602 16.6758C16.1152 17.9226 14.4263 18.6244 12.6644 18.6271V18.6171Z" fill="#22B573"/>
<path d="M17.1944 11.987C17.1944 12.8854 16.9279 13.7635 16.4286 14.5104C15.9292 15.2572 15.2196 15.8391 14.3894 16.1824C13.5593 16.5257 12.6459 16.615 11.765 16.4391C10.884 16.2631 10.0751 15.8297 9.44058 15.1937C8.80605 14.5578 8.37445 13.7479 8.2004 12.8666C8.02636 11.9853 8.11769 11.0721 8.46285 10.2427C8.808 9.41331 9.39146 8.70495 10.1394 8.20729C10.8873 7.70964 11.766 7.44505 12.6644 7.44703C13.2601 7.44703 13.85 7.56453 14.4003 7.79281C14.9505 8.02109 15.4503 8.35566 15.8711 8.77737C16.2919 9.19908 16.6254 9.69965 16.8524 10.2504C17.0795 10.8012 17.1957 11.3913 17.1944 11.987Z" fill="#22B573"/>
</svg>
