<svg width="33" height="32" viewBox="0 0 33 32" fill="none" xmlns="http://www.w3.org/2000/svg">
<path d="M16.7599 17.04C16.6666 17.0266 16.5466 17.0266 16.4399 17.04C14.0932 16.96 12.2266 15.04 12.2266 12.68C12.2266 10.2666 14.1732 8.30664 16.5999 8.30664C19.0132 8.30664 20.9732 10.2666 20.9732 12.68C20.9599 15.04 19.1066 16.96 16.7599 17.04Z" stroke="#3E3D4B" stoke-width="2" stroke-linecap="round" stroke-linejoin="round"/>
<path d="M25.5827 25.8401C23.2094 28.0134 20.0627 29.3334 16.596 29.3334C13.1294 29.3334 9.98271 28.0134 7.60938 25.8401C7.74271 24.5867 8.54271 23.3601 9.96938 22.4001C13.6227 19.9734 19.596 19.9734 23.2227 22.4001C24.6494 23.3601 25.4494 24.5867 25.5827 25.8401Z" stroke="#3E3D4B" stoke-width="2" stroke-linecap="round" stroke-linejoin="round"/>
<path d="M16.599 29.3334C23.9628 29.3334 29.9323 23.3638 29.9323 16C29.9323 8.63622 23.9628 2.66669 16.599 2.66669C9.23516 2.66669 3.26562 8.63622 3.26562 16C3.26562 23.3638 9.23516 29.3334 16.599 29.3334Z" stroke="#3E3D4B" stoke-width="2" stroke-linecap="round" stroke-linejoin="round"/>
</svg>
