<svg width="33" height="32" viewBox="0 0 33 32" fill="none" xmlns="http://www.w3.org/2000/svg">
<g clip-path="url(#clip0_5546_50993)">
<path d="M16.7609 17.04C16.6675 17.0266 16.5475 17.0266 16.4409 17.04C14.0942 16.96 12.2275 15.04 12.2275 12.68C12.2275 10.2666 14.1742 8.30664 16.6009 8.30664C19.0142 8.30664 20.9742 10.2666 20.9742 12.68C20.9609 15.04 19.1075 16.96 16.7609 17.04Z" stroke="#3E3D4B" stroke-width="2" stroke-linecap="round" stroke-linejoin="round"/>
<path d="M25.5876 25.8401C23.2143 28.0134 20.0676 29.3334 16.6009 29.3334C13.1343 29.3334 9.98759 28.0134 7.61426 25.8401C7.74759 24.5867 8.54759 23.3601 9.97426 22.4001C13.6276 19.9734 19.6009 19.9734 23.2276 22.4001C24.6543 23.3601 25.4543 24.5867 25.5876 25.8401Z" stroke="#3E3D4B" stroke-width="2" stroke-linecap="round" stroke-linejoin="round"/>
<path d="M16.6009 29.3334C23.9647 29.3334 29.9342 23.3639 29.9342 16.0001C29.9342 8.63628 23.9647 2.66675 16.6009 2.66675C9.23711 2.66675 3.26758 8.63628 3.26758 16.0001C3.26758 23.3639 9.23711 29.3334 16.6009 29.3334Z" stroke="#3E3D4B" stroke-width="2" stroke-linecap="round" stroke-linejoin="round"/>
</g>
<defs>
<clipPath id="clip0_5546_50993">
<rect width="32" height="32" fill="white" transform="translate(0.600586)"/>
</clipPath>
</defs>
</svg>
