<svg width="20" height="20" viewBox="0 0 20 20" fill="none" xmlns="http://www.w3.org/2000/svg">
<path d="M2.89619 7.05274L2.89632 7.05219C3.75736 3.25893 7.06522 1.5415 10.0004 1.5415H10.0004H10.0004H10.0004H10.0004H10.0004H10.0004H10.0004H10.0004H10.0004H10.0004H10.0004H10.0004H10.0004H10.0004H10.0005H10.0005H10.0005H10.0005H10.0005H10.0005H10.0005H10.0005H10.0005H10.0005H10.0005H10.0005H10.0005H10.0005H10.0005H10.0005H10.0005H10.0005H10.0005H10.0006H10.0006H10.0006H10.0006H10.0006H10.0006H10.0006H10.0006H10.0006H10.0006H10.0006H10.0006H10.0006H10.0006H10.0006H10.0006H10.0006H10.0006H10.0006H10.0006H10.0006H10.0006H10.0006H10.0007H10.0007H10.0007H10.0007H10.0007H10.0007H10.0007H10.0007H10.0007H10.0007H10.0007H10.0007H10.0007H10.0007H10.0007H10.0007H10.0007H10.0007H10.0008H10.0008H10.0008H10.0008H10.0008H10.0008H10.0008H10.0008H10.0008H10.0008H10.0008H10.0008H10.0008H10.0008H10.0008H10.0009H10.0009H10.0009H10.0009H10.0009H10.0009H10.0009H10.0009H10.0009H10.0009H10.0009H10.0009H10.0009H10.0009H10.001H10.001H10.001H10.001H10.001H10.001H10.001H10.001H10.001H10.001H10.001H10.0011H10.0011H10.0011H10.0011H10.0011H10.0011H10.0011H10.0011H10.0011H10.0011H10.0011H10.0012H10.0012H10.0012H10.0012H10.0012H10.0012H10.0012H10.0012H10.0012H10.0012H10.0013H10.0013H10.0013H10.0013H10.0013H10.0013H10.0013H10.0013H10.0013H10.0014H10.0014H10.0014H10.0014H10.0014H10.0014H10.0014H10.0014H10.0015H10.0015H10.0015H10.0015H10.0015H10.0015H10.0015H10.0015H10.0016H10.0016H10.0016H10.0016H10.0016H10.0016H10.0016H10.0017H10.0017H10.0017H10.0017H10.0017H10.0017H10.0017H10.0018H10.0018H10.0018H10.0018H10.0018H10.0018H10.0018H10.0019H10.0019H10.0019H10.0019H10.0019H10.0019H10.002H10.002H10.002H10.002H10.002H10.002H10.0021H10.0021H10.0021H10.0021H10.0021H10.0021H10.0022H10.0022H10.0022H10.0022H10.0022H10.0022H10.0023H10.0023H10.0023H10.0023H10.0023H10.0024H10.0024H10.0024H10.0024H10.0024H10.0024H10.0025H10.0025H10.0025H10.0025H10.0025H10.0026H10.0026H10.0026H10.0026H10.0026H10.0027H10.0027H10.0027H10.0027H10.0027H10.0028H10.0028H10.0028H10.0028H10.0029H10.0029H10.0029H10.0029H10.0029H10.003H10.003H10.003H10.003H10.0031H10.0031H10.0031H10.0031H10.0031H10.0032H10.0032H10.0032H10.0032H10.0033H10.0033H10.0033H10.0033H10.0034H10.0034H10.0034H10.0034H10.0035H10.0035H10.0035H10.0035H10.0036H10.0036H10.0036H10.0036H10.0037H10.0037H10.0037H10.0037H10.0038H10.0038H10.0038H10.0039H10.0039H10.0039H10.0039H10.004H10.004H10.004H10.004H10.0041H10.0041H10.0041H10.0042H10.0042H10.0042H10.0042H10.0043H10.0043H10.0043H10.0044H10.0044H10.0044H10.0045H10.0045H10.0045H10.0045H10.0046H10.0046H10.0046H10.0047H10.0047H10.0047H10.0048H10.0048H10.0048H10.0049H10.0049H10.0049H10.005H10.005H10.005H10.0051H10.0051H10.0051H10.0052H10.0052H10.0052H10.0053H10.0053H10.0053H10.0054H10.0054H10.0054H10.0055H10.0055H10.0055H10.0056H10.0056H10.0056H10.0057H10.0057H10.0058H10.0058H10.0058H10.0059H10.0059H10.0059H10.006H10.006H10.006H10.0061H10.0061H10.0062H10.0062H10.0062H10.0063H10.0063H10.0064H10.0064H10.0064H10.0065H10.0065H10.0066H10.0066H10.0066H10.0067H10.0067H10.0068H10.0068H10.0068H10.0069H10.0069H10.007H10.007H10.007H10.0071H10.0071H10.0072H10.0072H10.0073H10.0073H10.0073H10.0074H10.0074H10.0075H10.0075H10.0076H10.0076H10.0077H10.0077H10.0077H10.0078H10.0078H10.0079H10.0079H10.008H10.008H10.0081H10.0081H10.0082H10.0082H10.0082H10.0083H10.0083H10.0084H10.0084H10.0085H10.0085H10.0086H10.0086H10.0087H10.0087C12.9435 1.5415 16.2515 3.2586 17.1127 7.06022C18.0682 11.2815 15.5247 14.8756 13.096 17.2139C12.2245 18.0477 11.1076 18.4665 10.0004 18.4665C8.8932 18.4665 7.77636 18.0477 6.90486 17.214C4.47636 14.8759 1.93294 11.2738 2.89619 7.05274ZM16.8715 7.10672L16.8711 7.10473C15.9689 3.17112 12.5741 1.7915 10.0004 1.7915C7.42633 1.7915 4.03973 3.17153 3.14625 7.10528C2.18348 11.3053 4.83024 14.8624 7.08704 17.0268C8.72229 18.6048 11.2869 18.6047 12.9221 17.0267C15.1705 14.8626 17.8166 11.306 16.8715 7.10672Z" fill="#3E3D4B" stroke="#3E3D4B"/>
<circle cx="10" cy="9" r="3" fill="#3E3D4B"/>
</svg>
