<svg width="33" height="32" viewBox="0 0 33 32" fill="none" xmlns="http://www.w3.org/2000/svg">
<path d="M29.7341 12.0001V20.0001C29.7341 23.3334 29.0674 25.6668 27.5741 27.1734L19.0674 18.6668L29.3741 8.36011C29.6141 9.41344 29.7341 10.6134 29.7341 12.0001Z" stroke="#292D32" stroke-width="2" stroke-linecap="round" stroke-linejoin="round"/>
<path d="M29.3741 8.36009L8.7607 28.9734C4.74737 28.0534 3.06738 25.2801 3.06738 20.0001V12.0001C3.06738 5.33341 5.73405 2.66675 12.4007 2.66675H20.4007C25.6807 2.66675 28.4541 4.34675 29.3741 8.36009Z" stroke="#292D32" stroke-width="2" stroke-linecap="round" stroke-linejoin="round"/>
<path d="M27.5741 27.1734C26.0674 28.6668 23.7341 29.3334 20.4008 29.3334H12.4008C11.0141 29.3334 9.81408 29.2134 8.76074 28.9734L19.0674 18.6667L27.5741 27.1734Z" stroke="#292D32" stroke-width="2" stroke-linecap="round" stroke-linejoin="round"/>
<path d="M8.72074 10.64C9.62741 6.73329 15.4941 6.73329 16.4008 10.64C16.9208 12.9333 15.4807 14.88 14.2141 16.08C13.2941 16.96 11.8408 16.96 10.9074 16.08C9.64076 14.88 8.18741 12.9333 8.72074 10.64Z" stroke="#292D32" stroke-width="2"/>
<path d="M12.5265 11.6H12.5385" stroke="#292D32" stroke-width="2" stroke-linecap="round" stroke-linejoin="round"/>
</svg>
