<svg width="22" height="22" viewBox="0 0 22 22" fill="none" xmlns="http://www.w3.org/2000/svg">
<path d="M18.3337 6.41536V15.582C18.3337 19.2487 17.417 20.1654 13.7503 20.1654H8.25033C4.58366 20.1654 3.66699 19.2487 3.66699 15.582V6.41536C3.66699 2.7487 4.58366 1.83203 8.25033 1.83203H13.7503C17.417 1.83203 18.3337 2.7487 18.3337 6.41536Z" stroke="#3E3D4B" stroke-width="1.5" stroke-linecap="round" stroke-linejoin="round"/>
<path d="M12.8337 5.03906H9.16699" stroke="#3E3D4B" stroke-width="1.5" stroke-linecap="round" stroke-linejoin="round"/>
<path d="M10.9999 17.5057C11.7846 17.5057 12.4208 16.8696 12.4208 16.0849C12.4208 15.3002 11.7846 14.6641 10.9999 14.6641C10.2152 14.6641 9.5791 15.3002 9.5791 16.0849C9.5791 16.8696 10.2152 17.5057 10.9999 17.5057Z" stroke="#3E3D4B" stroke-width="1.5" stroke-linecap="round" stroke-linejoin="round"/>
</svg>
