<svg width="32" height="32" viewBox="0 0 32 32" fill="none" xmlns="http://www.w3.org/2000/svg">
<path d="M16 17.3346C16.7364 17.3346 17.3334 16.7377 17.3334 16.0013C17.3334 15.2649 16.7364 14.668 16 14.668C15.2636 14.668 14.6667 15.2649 14.6667 16.0013C14.6667 16.7377 15.2636 17.3346 16 17.3346Z" fill="#3E3D4B" stroke="#3E3D4B" stoke-width="2" stroke-linecap="round" stroke-linejoin="round"/>
<path d="M16 8.00065C16.7364 8.00065 17.3334 7.4037 17.3334 6.66732C17.3334 5.93094 16.7364 5.33398 16 5.33398C15.2636 5.33398 14.6667 5.93094 14.6667 6.66732C14.6667 7.4037 15.2636 8.00065 16 8.00065Z" fill="#3E3D4B" stroke="#3E3D4B" stoke-width="2" stroke-linecap="round" stroke-linejoin="round"/>
<path d="M16 26.6667C16.7364 26.6667 17.3334 26.0697 17.3334 25.3333C17.3334 24.597 16.7364 24 16 24C15.2636 24 14.6667 24.597 14.6667 25.3333C14.6667 26.0697 15.2636 26.6667 16 26.6667Z" fill="#3E3D4B" stroke="#3E3D4B" stoke-width="2" stroke-linecap="round" stroke-linejoin="round"/>
</svg>
