<svg width="80" height="80" viewBox="0 0 80 80" fill="none" xmlns="http://www.w3.org/2000/svg">
<mask id="mask0_1984_127509" style="mask-type:alpha" maskUnits="userSpaceOnUse" x="8" y="6" width="59" height="69">
<path d="M8.65414 12.0078L52.0498 6.76344L60.2518 13.1968L66.8741 67.9945L16.1608 74.1232L8.65414 12.0078Z" fill="#D9D9D9"/>
</mask>
<g mask="url(#mask0_1984_127509)">
<path d="M9.21296 16.6318C8.90433 14.0781 10.7244 11.7576 13.2781 11.449L50.1344 6.99491C51.3608 6.8467 52.5958 7.19174 53.5678 7.95411L58.7338 12.0061C59.7058 12.7685 60.3351 13.8858 60.4833 15.1121L66.3153 63.3705C66.6239 65.9242 64.8039 68.2446 62.2501 68.5533L20.7848 73.5644C18.231 73.873 15.9106 72.0529 15.602 69.4992L9.21296 16.6318Z" fill="#EAF7FC"/>
<path d="M45.9864 -43.4112C45.6778 -45.9649 47.4978 -48.2853 50.0516 -48.594L86.9079 -53.0481C88.1343 -53.1963 89.3693 -52.8512 90.3412 -52.0889L95.5073 -48.0368C96.4792 -47.2745 97.1085 -46.1572 97.2567 -44.9308L103.089 3.3275C103.397 5.88126 101.577 8.20168 99.0236 8.5103L57.5583 13.5214C55.0045 13.83 52.6841 12.01 52.3754 9.45621L45.9864 -43.4112Z" fill="#259ACB"/>
<rect x="17.2206" y="24.0156" width="36.955" height="1.93256" rx="0.966278" transform="rotate(-6.89079 17.2206 24.0156)" fill="#259ACB"/>
<rect x="17.9324" y="29.9062" width="36.955" height="1.93256" rx="0.966278" transform="rotate(-6.89079 17.9324 29.9062)" fill="#259ACB"/>
<rect x="18.6442" y="35.7969" width="36.955" height="1.93256" rx="0.966278" transform="rotate(-6.89079 18.6442 35.7969)" fill="#259ACB"/>
<rect x="19.3559" y="41.6875" width="36.955" height="1.93256" rx="0.966278" transform="rotate(-6.89079 19.3559 41.6875)" fill="#259ACB"/>
<rect x="20.0677" y="47.5742" width="28.6166" height="1.93256" rx="0.966278" transform="rotate(-6.89079 20.0677 47.5742)" fill="#259ACB"/>
</g>
<g filter="url(#filter0_b_1984_127509)">
<circle cx="47.9789" cy="46.8714" r="12.1956" fill="white" fill-opacity="0.2"/>
</g>
<path d="M62.2578 57.0195L74.0027 68.7644" stroke="#002530" stroke-width="2.75646"/>
<path d="M58.4335 60.8438L70.1783 72.5886" stroke="#002530" stroke-width="2.75646"/>
<path d="M70.1783 72.5898C70.6854 73.097 71.3733 73.3819 72.0905 73.3819C72.8077 73.3819 73.4955 73.097 74.0027 72.5898" stroke="#002530" stroke-width="2.75646" stroke-linecap="round" stroke-linejoin="round"/>
<path d="M74.0027 68.7656C74.5098 69.2728 74.7947 69.9606 74.7947 70.6778C74.7947 71.395 74.5098 72.0828 74.0027 72.59" stroke="#002530" stroke-width="2.75646" stroke-linecap="round" stroke-linejoin="round"/>
<path d="M36.1435 46.8995C36.1435 48.4975 36.4583 50.0799 37.0698 51.5564C37.6814 53.0328 38.5777 54.3743 39.7077 55.5043C40.8377 56.6343 42.1792 57.5306 43.6556 58.1422C45.1321 58.7537 46.7145 59.0685 48.3125 59.0685C49.9106 59.0685 51.493 58.7537 52.9694 58.1422C54.4458 57.5306 55.7873 56.6343 56.9173 55.5043C58.0473 54.3743 58.9437 53.0328 59.5552 51.5564C60.1668 50.0799 60.4815 48.4975 60.4815 46.8995C60.4815 43.6721 59.1994 40.5768 56.9173 38.2947C54.6352 36.0126 51.5399 34.7305 48.3125 34.7305C46.7145 34.7305 45.1321 35.0452 43.6556 35.6568C42.1792 36.2683 40.8377 37.1647 39.7077 38.2947C38.5777 39.4247 37.6814 40.7662 37.0698 42.2426C36.4583 43.719 36.1435 45.3014 36.1435 46.8995Z" stroke="#002530" stroke-width="2.75646" stroke-linecap="round" stroke-linejoin="round"/>
<path d="M62.2578 57.0195L58.4335 60.8439" stroke="#002530" stroke-width="2.75646" stroke-linecap="round" stroke-linejoin="round"/>
<path d="M60.3456 58.9322L56.9173 55.5039" stroke="#002530" stroke-width="2.75646" stroke-linecap="round" stroke-linejoin="round"/>
<path d="M65.5221 60.2852L61.6977 64.1095" stroke="#002530" stroke-width="2.75646" stroke-linecap="round" stroke-linejoin="round"/>
<path d="M41.552 46.8984C41.552 48.6914 42.2642 50.411 43.5321 51.6789C44.7999 52.9467 46.5195 53.659 48.3125 53.659" stroke="white" stroke-width="2.75646" stroke-linecap="round" stroke-linejoin="round"/>
<path d="M58.2023 60.9394L61.6261 57.5156L74.6127 70.2662L73.9043 72.7848L70.7954 73.5325L58.2023 60.9394Z" fill="#002530"/>
<defs>
<filter id="filter0_b_1984_127509" x="33.3833" y="32.2758" width="29.1912" height="29.1906" filterUnits="userSpaceOnUse" color-interpolation-filters="sRGB">
<feFlood flood-opacity="0" result="BackgroundImageFix"/>
<feGaussianBlur in="BackgroundImageFix" stdDeviation="1.2"/>
<feComposite in2="SourceAlpha" operator="in" result="effect1_backgroundBlur_1984_127509"/>
<feBlend mode="normal" in="SourceGraphic" in2="effect1_backgroundBlur_1984_127509" result="shape"/>
</filter>
</defs>
</svg>
