<svg width="154" height="122" viewBox="0 0 154 122" fill="none" xmlns="http://www.w3.org/2000/svg">
<g clip-path="url(#clip0_3596_65862)">
<rect x="0.96875" y="15.562" width="141.147" height="107.044" rx="5.68378" transform="rotate(-6.31255 0.96875 15.562)" fill="#CEF0FF"/>
<rect x="126.77" y="21.5889" width="56.1719" height="104.561" rx="9.24629" transform="rotate(83.3952 126.77 21.5889)" fill="#2B2B2B" stroke="#2B2B2B" stroke-width="1.79789"/>
<rect x="128.246" y="18.4526" width="56.1719" height="104.561" rx="9.24629" transform="rotate(83.3952 128.246 18.4526)" fill="white" stroke="#2B2B2B" stroke-width="1.79789"/>
<rect width="81.0318" height="4.33438" rx="2.16719" transform="matrix(0.992956 -0.118486 0.101955 0.994789 37.4609 44.3142)" fill="#E8E8E8"/>
<rect width="81.0318" height="4.33438" rx="2.16719" transform="matrix(0.992956 -0.118486 0.101955 0.994789 39.4805 55.249)" fill="#E8E8E8"/>
<rect width="81.0318" height="4.33438" rx="2.16719" transform="matrix(0.992956 -0.118486 0.101955 0.994789 41.5 66.1836)" fill="#E8E8E8"/>
<mask id="mask0_3596_65862" style="mask-type:alpha" maskUnits="userSpaceOnUse" x="100" y="72" width="11" height="12">
<path d="M106.247 81.1853C105.25 81.4076 104.915 81.7815 104.261 83.2025L100.098 81.6272L101.46 79.0788C101.349 79.019 102.01 78.7057 101.676 77.7825C101.259 76.6286 101.806 76.3122 103.098 75.1301C102.539 73.4661 103.931 73.3652 104.679 72.9609C105.426 72.5566 107.483 73.4762 108.938 73.945C109.699 73.9747 110.577 74.4952 110.906 75.6975C111.17 76.6626 110.734 77.0546 110.536 77.2871C110.668 77.4367 110.885 77.9642 110.619 79.124C110.286 80.5736 107.244 80.963 106.247 81.1853Z" fill="#FFC5A4"/>
</mask>
<g mask="url(#mask0_3596_65862)">
<path d="M106.247 81.1853C105.25 81.4076 104.915 81.7815 104.261 83.2025L100.098 81.6272L101.46 79.0788C101.349 79.019 102.01 78.7057 101.676 77.7825C101.259 76.6286 101.806 76.3122 103.098 75.1301C102.539 73.4661 103.931 73.3652 104.679 72.9609C105.426 72.5566 107.483 73.4762 108.938 73.945C109.699 73.9747 110.577 74.4952 110.906 75.6975C111.17 76.6626 110.734 77.0546 110.536 77.2871C110.668 77.4367 110.885 77.9642 110.619 79.124C110.286 80.5736 107.244 80.963 106.247 81.1853Z" fill="#FFC5A4"/>
<path d="M106.237 75.7982C105.231 76.1742 103.04 76.1457 102.39 74.3908" stroke="#CF5450" stroke-width="0.41941" stroke-linecap="round"/>
<g filter="url(#filter0_f_3596_65862)">
<circle cx="111.347" cy="73.8231" r="3.9076" transform="rotate(96.1702 111.347 73.8231)" fill="#CA4848"/>
</g>
<circle cx="101.051" cy="81.5963" r="3.9076" transform="rotate(96.1702 101.051 81.5963)" fill="#CA4848"/>
</g>
<rect x="108.008" y="63.6951" width="2.19846" height="16.0626" rx="1.09923" transform="rotate(15.3211 108.008 63.6951)" fill="#2B4BBB"/>
<path d="M109.908 78.2838C112.347 77.0723 106.061 73.6031 105.632 75.4706C105.332 76.7724 108.731 78.8684 109.908 78.2838Z" fill="#F4AA90"/>
<path d="M110.488 77.2847C109.8 76.1563 105.981 73.9265 105.627 75.4681C105.334 76.7416 106.999 77.499 107.807 77.6709" stroke="#CF5450" stroke-width="0.41941" stroke-linecap="round"/>
<rect width="8.8986" height="3.12063" transform="matrix(-0.90744 -0.420181 -0.420181 0.90744 107.379 82.3625)" fill="white"/>
<path fill-rule="evenodd" clip-rule="evenodd" d="M58.515 77.0466C60.8117 76.8098 63.2089 77.4052 65.3355 78.3042C67.3436 79.1532 69.6555 79.3089 71.8905 78.5782C76.8079 76.9705 79.4909 71.6809 77.8833 66.7635C77.595 65.8819 77.1885 65.0721 76.6869 64.3459C74.8641 61.7071 73.2304 58.2558 72.7111 55.0909C72.6202 54.5372 72.486 53.9834 72.3062 53.4335C70.4101 47.6339 64.1716 44.4695 58.372 46.3656C54.2631 47.7089 51.4769 51.232 50.8759 55.2343C50.4723 57.9224 49.2503 60.6436 47.5328 62.7505C46.2195 64.3616 45.4954 66.2969 45.5995 68.3439C45.8624 73.5108 51.302 77.4334 57.7493 77.1055C58.0069 77.0924 58.2622 77.0727 58.515 77.0466Z" fill="#210028"/>
<mask id="mask1_3596_65862" style="mask-type:alpha" maskUnits="userSpaceOnUse" x="58" y="66" width="9" height="12">
<rect width="6.64088" height="11.763" rx="3.32044" transform="matrix(-0.986285 0.165049 0.165049 0.986285 64.6016 65.6152)" fill="#FFC5A4"/>
</mask>
<g mask="url(#mask1_3596_65862)">
<rect width="6.64088" height="11.763" rx="3.32044" transform="matrix(-0.986285 0.165049 0.165049 0.986285 64.6016 65.6152)" fill="#FFC5A4"/>
<circle cx="61.7123" cy="67.7341" r="5.28328" transform="rotate(40.2215 61.7123 67.7341)" fill="#CA4848"/>
</g>
<mask id="mask2_3596_65862" style="mask-type:alpha" maskUnits="userSpaceOnUse" x="54" y="48" width="17" height="23">
<rect width="15.9128" height="21.6586" rx="7.9564" transform="matrix(-0.994879 0.101075 0.101075 0.994879 69.5039 47.801)" fill="#FFC5A4"/>
</mask>
<g mask="url(#mask2_3596_65862)">
<rect width="15.9128" height="21.6586" rx="7.9564" transform="matrix(-0.994879 0.101075 0.101075 0.994879 69.5039 47.801)" fill="#FFC5A4"/>
<path d="M56.3534 57.6726C56.4888 59.5666 54.4988 61.8013 52.7119 62.2693L49.1262 55.5385L50.3591 49.8408L55.9139 47.2164L68.1496 48.6431C67.2435 49.6905 65.0267 51.862 63.4078 52.1691C61.3841 52.5529 57.9896 51.0352 56.7134 52.0615C55.4373 53.0879 56.2181 55.7786 56.3534 57.6726Z" fill="#210028"/>
<g opacity="0.67" filter="url(#filter1_f_3596_65862)">
<ellipse cx="1.64971" cy="1.71635" rx="1.64971" ry="1.71635" transform="matrix(0.974658 -0.223701 0.218439 0.97585 65.2148 60.3406)" fill="#CA4848"/>
</g>
<g opacity="0.67" filter="url(#filter2_f_3596_65862)">
<ellipse cx="1.42896" cy="1.48597" rx="1.42896" ry="1.48597" transform="matrix(0.998872 -0.0474915 0.0556954 0.998448 57.4062 60.8853)" fill="#CA4848"/>
</g>
<path d="M63.3439 59.2824C64.3364 60.9408 64.606 62.3637 63.7008 62.3015" stroke="#510E00" stroke-width="0.49567" stroke-linecap="round"/>
<path d="M67.0622 56.8041C66.6755 55.709 65.4647 55.5619 65.1835 56.5574" stroke="#510E00" stroke-width="0.49567" stroke-linecap="round"/>
<circle cx="0.606185" cy="0.606185" r="0.606185" transform="matrix(-0.989528 -0.144341 -0.144341 0.989528 66.6445 57.9958)" fill="#510E00"/>
<path d="M58.5865 57.5808C58.7307 56.437 59.8861 56.0732 60.3753 56.998" stroke="#510E00" stroke-width="0.49567" stroke-linecap="round"/>
<path d="M63.7034 65.0072C63.2056 65.6622 62.0222 65.4572 61.8652 64.7018" stroke="#510E00" stroke-width="0.49567" stroke-linecap="round"/>
<circle cx="60.4152" cy="59.3093" r="0.606185" transform="rotate(-16.7346 60.4152 59.3093)" fill="#510E00"/>
<circle cx="9.35638" cy="9.35638" r="9.35638" transform="matrix(-0.950493 0.310747 0.310747 0.950493 73.0312 35.1294)" fill="#210028"/>
</g>
<circle cx="54.196" cy="61.7021" r="2.10726" transform="rotate(-97.0492 54.196 61.7021)" fill="#FFC5A4"/>
<path d="M54.6276 60.6837C54.6617 60.6031 54.6242 60.509 54.5399 60.4853C54.413 60.4494 54.2809 60.4336 54.1484 60.4386C53.963 60.4456 53.7814 60.4934 53.6165 60.5785C53.4516 60.6636 53.3075 60.784 53.1943 60.931C53.0811 61.0781 53.0017 61.2482 52.9617 61.4294C52.9217 61.6106 52.9221 61.7984 52.9628 61.9794C53.0035 62.1605 53.0836 62.3303 53.1973 62.477C53.311 62.6236 53.4556 62.7434 53.6208 62.8278C53.7389 62.8882 53.8654 62.9294 53.9956 62.9504C54.0821 62.9643 54.1557 62.8947 54.1587 62.8072C54.1617 62.7197 54.0926 62.6477 54.0069 62.6302C53.9231 62.6131 53.8417 62.5847 53.7652 62.5455C53.6414 62.4822 53.533 62.3925 53.4478 62.2826C53.3626 62.1728 53.3026 62.0455 53.2721 61.9099C53.2416 61.7742 53.2414 61.6336 53.2713 61.4978C53.3013 61.362 53.3608 61.2345 53.4456 61.1244C53.5304 61.0142 53.6383 60.924 53.7619 60.8602C53.8854 60.7965 54.0215 60.7607 54.1604 60.7554C54.2464 60.7522 54.3321 60.7606 54.4153 60.7804C54.5005 60.8006 54.5934 60.7644 54.6276 60.6837Z" fill="#CA4848"/>
<path d="M97.7891 79.7854L106.835 84.794L95.9514 104.452C94.516 107.044 91.2508 107.982 88.6583 106.547C86.2547 105.216 85.3851 102.189 86.7158 99.7851L97.7891 79.7854Z" fill="#D4145A"/>
<path d="M45.1714 78.6299C45.1259 77.046 46.4107 75.7441 47.9951 75.7687L73.5699 76.1662C75.0855 76.1897 76.3033 77.4225 76.3083 78.9383L76.3795 100.365L78.3035 114.52C78.5113 116.049 77.4353 117.455 75.9054 117.653L49.4525 121.089C47.8197 121.301 46.361 120.056 46.3137 118.41L45.1714 78.6299Z" fill="#D4145A"/>
<path d="M56.2814 75.9165C56.3638 74.8478 57.232 74.0093 58.303 73.9643L67.7986 73.5649C69.0228 73.5134 70.0459 74.4869 70.0552 75.7122L70.0573 75.9982C70.0583 76.1263 70.0701 76.254 70.0927 76.3801C70.1838 76.8888 69.8144 77.3645 69.2989 77.4023L58.5467 78.1904C57.255 78.285 56.1818 77.2079 56.2814 75.9165Z" fill="#D4145A"/>
<path d="M88.4589 88.8509C82.9655 83.4075 78.0841 79.0139 75.3456 76.7106C74.2948 75.8268 72.7667 76.1469 72.0856 77.3392L69.1948 82.3993C68.7294 83.2138 68.794 84.2272 69.359 84.9761L72.5596 89.2186L78.6069 95.6262L87.9994 105.112C88.8235 105.945 90.1352 106.042 91.0728 105.34L96.9715 100.923C97.8087 100.296 98.0397 99.2332 97.3913 98.4126C96.1056 96.7854 93.4324 93.779 88.4589 88.8509Z" fill="#D4145A"/>
<path d="M30.7999 85.287C39.5072 79.6486 45.0874 76.7848 46.7354 76.0947L51.4527 84.3866L39 94L25.8552 103.545L18.8292 94.0353C19.1914 93.4686 22.0926 90.9255 30.7999 85.287Z" fill="#D4145A"/>
<circle cx="109.68" cy="58.6849" r="10.4677" transform="rotate(-10.4665 109.68 58.6849)" fill="#E0FBFF"/>
<circle cx="109.68" cy="58.6849" r="9.38486" transform="rotate(-10.4665 109.68 58.6849)" stroke="#2B4BBB" stroke-width="2.16574"/>
<mask id="mask3_3596_65862" style="mask-type:alpha" maskUnits="userSpaceOnUse" x="45" y="75" width="34" height="47">
<path d="M45.1422 78.4374C45.0957 76.8531 46.3805 75.5516 47.9654 75.5776L73.5449 75.9965C75.0601 76.0213 76.2779 77.2541 76.2841 78.7692L76.372 100.299L78.309 114.528C78.517 116.056 77.4423 117.461 75.9131 117.659L49.4574 121.089C47.8244 121.3 46.3645 120.055 46.3162 118.409L45.1422 78.4374Z" fill="#D4145A"/>
</mask>
<g mask="url(#mask3_3596_65862)">
<path d="M45.9581 123.039L38.7549 61.6937L56.1535 74.9057L65.1871 121.322L45.9581 123.039Z" fill="#6D0028"/>
<path d="M55.4268 127.621L69.9711 61.7995L78.853 71.6294L84.8627 119.063L55.4268 127.621Z" fill="#6D0028"/>
</g>
<mask id="mask4_3596_65862" style="mask-type:alpha" maskUnits="userSpaceOnUse" x="45" y="104" width="16" height="11">
<path d="M55.9743 105.641C54.7818 105.816 51.8979 106.333 49.4751 105.503L46.8904 104.867L45.075 107.726C45.7058 108.048 47.2411 108.885 48.3362 109.656C49.705 110.619 49.7304 111.266 50.8949 112.735C52.0593 114.205 53.3899 114.197 54.58 114.42C55.7701 114.642 56.9748 114.221 57.8686 114.136C58.7625 114.051 59.3884 112.855 59.8533 112.128C60.2252 111.548 58.9079 110.61 58.2028 110.215C58.6006 110.275 59.5177 110.391 60.0033 110.368C60.6103 110.339 61.6396 109.137 60.1669 108.447C58.6942 107.758 57.1667 105.466 55.9743 105.641Z" fill="#FFC5A4"/>
</mask>
<g mask="url(#mask4_3596_65862)">
<path d="M55.9743 105.641C54.7818 105.816 51.8979 106.333 49.4751 105.503L46.8904 104.867L45.075 107.726C45.7058 108.048 47.2411 108.885 48.3362 109.656C49.705 110.619 49.7304 111.266 50.8949 112.735C52.0593 114.205 53.3899 114.197 54.58 114.42C55.7701 114.642 56.9748 114.221 57.8686 114.136C58.7625 114.051 59.3884 112.855 59.8533 112.128C60.2252 111.548 58.9079 110.61 58.2028 110.215C58.6006 110.275 59.5177 110.391 60.0033 110.368C60.6103 110.339 61.6396 109.137 60.1669 108.447C58.6942 107.758 57.1667 105.466 55.9743 105.641Z" fill="#FFC5A4"/>
<ellipse cx="46.1717" cy="107.219" rx="9.22314" ry="4.88047" transform="rotate(-37.8586 46.1717 107.219)" fill="#CA4848"/>
<g opacity="0.4" filter="url(#filter3_f_3596_65862)">
<ellipse cx="7.51797" cy="7.82169" rx="7.51797" ry="7.82169" transform="matrix(-0.0175682 -0.999846 0.999926 -0.0121731 41.0547 120.879)" fill="#CA4848"/>
</g>
</g>
<rect width="8.8986" height="3.12063" transform="matrix(0.270514 -0.962716 -0.962716 -0.270514 48.125 112.43)" fill="white"/>
<path d="M32.1297 107.561C26.7266 105.26 22.6603 103.307 19.8779 101.867C17.4518 100.612 16.5995 97.7 17.779 95.2363C18.9568 92.7762 21.7702 91.5635 24.3675 92.3964L34.8414 95.7553L50.0315 101.451L46.0762 112.594C45.4038 112.61 41.6732 111.627 32.1297 107.561Z" fill="#D4145A"/>
<path d="M56.6875 75.8164L65.0085 75.6557" stroke="#6D0028" stroke-width="0.360956" stroke-linecap="square"/>
<path d="M76.0859 92.4209L87.6481 105.335" stroke="#6D0028" stroke-width="0.721912" stroke-linecap="square"/>
<path d="M33 96L49 102" stroke="#6D0028" stroke-width="0.721912" stroke-linecap="square"/>
<circle cx="61.1529" cy="103.989" r="0.902391" transform="rotate(-10.4665 61.1529 103.989)" fill="#4C051F"/>
<circle cx="61.5083" cy="103.924" r="0.902391" transform="rotate(-10.4665 61.5083 103.924)" fill="#210028"/>
<circle cx="61.688" cy="110.864" r="0.902391" transform="rotate(-10.4665 61.688 110.864)" fill="#4C051F"/>
<circle cx="62.0435" cy="110.799" r="0.902391" transform="rotate(-10.4665 62.0435 110.799)" fill="#210028"/>
<path d="M104.044 61.9292C102.497 58.0586 104.511 53.0334 108.471 52.1182" stroke="#2B4BBB" stroke-width="0.721912" stroke-linecap="round"/>
</g>
<defs>
<filter id="filter0_f_3596_65862" x="97.9348" y="60.4087" width="26.8258" height="26.8289" filterUnits="userSpaceOnUse" color-interpolation-filters="sRGB">
<feFlood flood-opacity="0" result="BackgroundImageFix"/>
<feBlend mode="normal" in="SourceGraphic" in2="BackgroundImageFix" result="shape"/>
<feGaussianBlur stdDeviation="4.75331" result="effect1_foregroundBlur_3596_65862"/>
</filter>
<filter id="filter1_f_3596_65862" x="62.5636" y="56.9476" width="9.26731" height="9.39743" filterUnits="userSpaceOnUse" color-interpolation-filters="sRGB">
<feFlood flood-opacity="0" result="BackgroundImageFix"/>
<feBlend mode="normal" in="SourceGraphic" in2="BackgroundImageFix" result="shape"/>
<feGaussianBlur stdDeviation="1.49163" result="effect1_foregroundBlur_3596_65862"/>
</filter>
<filter id="filter2_f_3596_65862" x="54.505" y="57.8327" width="8.8259" height="8.93699" filterUnits="userSpaceOnUse" color-interpolation-filters="sRGB">
<feFlood flood-opacity="0" result="BackgroundImageFix"/>
<feBlend mode="normal" in="SourceGraphic" in2="BackgroundImageFix" result="shape"/>
<feGaussianBlur stdDeviation="1.49163" result="effect1_foregroundBlur_3596_65862"/>
</filter>
<filter id="filter3_f_3596_65862" x="31.1727" y="96.0006" width="35.1429" height="34.5333" filterUnits="userSpaceOnUse" color-interpolation-filters="sRGB">
<feFlood flood-opacity="0" result="BackgroundImageFix"/>
<feBlend mode="normal" in="SourceGraphic" in2="BackgroundImageFix" result="shape"/>
<feGaussianBlur stdDeviation="4.8746" result="effect1_foregroundBlur_3596_65862"/>
</filter>
<clipPath id="clip0_3596_65862">
<rect x="0.96875" y="15.562" width="141.147" height="107.044" rx="5.68378" transform="rotate(-6.31255 0.96875 15.562)" fill="white"/>
</clipPath>
</defs>
</svg>
