<svg width="32" height="32" viewBox="0 0 32 32" fill="none" xmlns="http://www.w3.org/2000/svg">
<path d="M26.5401 20.436C26.4508 20.083 26.3115 19.738 26.1198 19.4114L25.9122 19.0505H25.9254C25.0979 17.6677 24.6565 16.0609 24.6565 14.441C24.6565 14.3936 24.6355 14.3514 24.6303 14.3067C24.625 13.9353 24.5908 13.5691 24.5436 13.2083V11.9018C24.5436 6.81292 20.4086 2.66699 15.3332 2.66699C10.2578 2.66699 6.1229 6.81292 6.1229 11.9018V13.174C6.07299 13.5454 6.03621 13.9221 6.03095 14.304C6.0257 14.3488 6.00468 14.3909 6.00468 14.4384C6.00468 16.0583 5.56335 17.6624 4.73583 19.0479H4.74897L4.54143 19.4087C4.34704 19.7353 4.21043 20.083 4.12111 20.4386C4.04755 20.7284 4.0029 21.0234 4.00027 21.321C3.99239 21.9795 4.15789 22.6407 4.49415 23.2438C4.74897 23.6943 5.0826 24.0815 5.4714 24.387C5.8313 24.6688 6.24112 24.8769 6.68246 25.0113C6.71923 25.0218 6.75601 25.0376 6.79279 25.0481C6.85847 25.0666 6.9294 25.0745 6.9977 25.0903C7.0949 25.1113 7.18947 25.1351 7.2893 25.1482C7.32345 25.1535 7.36023 25.1509 7.39438 25.1561C7.52573 25.1693 7.65708 25.1825 7.79369 25.1825H7.80157H10.2657C10.2683 25.1983 10.2762 25.2141 10.2788 25.2299C10.7806 27.5715 12.8481 29.3337 15.3306 29.3337H15.3332H15.3359C17.8158 29.3337 19.8859 27.5715 20.3876 25.2299C20.3902 25.2141 20.3981 25.1983 20.4008 25.1825H22.8649H22.8728C23.0068 25.1825 23.1407 25.1693 23.2721 25.1561C23.3062 25.1535 23.343 25.1535 23.3772 25.1482C23.477 25.1351 23.5716 25.1113 23.6688 25.0903C23.7371 25.0771 23.808 25.0666 23.8737 25.0481C23.9104 25.0376 23.9472 25.0218 23.984 25.0113C24.4227 24.8769 24.8352 24.6688 25.1951 24.387C25.5865 24.0815 25.9201 23.6969 26.1723 23.2438C26.5112 22.6407 26.6767 21.9822 26.6662 21.321C26.6609 21.0234 26.6163 20.7257 26.5401 20.436ZM6.31467 20.4755L6.52221 20.1146C7.54412 18.3999 8.09579 16.4323 8.09579 14.441C8.09579 14.1038 8.12732 13.7746 8.17198 13.4506V11.9018C8.17198 9.55228 9.30685 7.47142 11.0486 6.16232C12.2465 5.26149 13.7281 4.71888 15.3359 4.71888C16.9488 4.71888 18.4331 5.26149 19.6337 6.16758C21.3701 7.47932 22.4997 9.55492 22.4997 11.8992V13.4822C22.5418 13.7957 22.5707 14.1144 22.5707 14.4384C22.5707 16.4323 23.1223 18.3973 24.1443 20.112L24.3518 20.4729C24.4726 20.6731 24.5383 20.8864 24.5725 21.105C24.6329 21.4791 24.5803 21.8663 24.3781 22.2166C24.0602 22.7565 23.5085 23.0884 22.8728 23.0884H7.79106C7.15532 23.0884 6.60365 22.7565 6.28578 22.2166C6.08875 21.8715 6.03358 21.4896 6.09138 21.1182C6.12553 20.8969 6.1912 20.6783 6.31467 20.4755ZM15.3332 27.2923C13.9961 27.2923 12.877 26.431 12.454 25.2404H12.4619C12.4514 25.2141 12.4383 25.1904 12.4277 25.1667H18.2308C18.2203 25.193 18.2072 25.2167 18.1967 25.2404H18.2098C17.7895 26.431 16.6573 27.2923 15.3332 27.2923Z" fill="#333333"/>
</svg>
