<svg width="22" height="22" viewBox="0 0 22 22" fill="none" xmlns="http://www.w3.org/2000/svg">
<path d="M10.102 17.875H6.87533C6.30699 17.875 5.80283 17.8567 5.35366 17.7925C2.94283 17.5267 2.29199 16.39 2.29199 13.2917V8.70833C2.29199 5.61 2.94283 4.47333 5.35366 4.2075C5.80283 4.14333 6.30699 4.125 6.87533 4.125H10.047" stroke="#3E3D4B" stroke-width="1.5" stroke-linecap="round" stroke-linejoin="round"/>
<path d="M13.7686 4.125H15.1252C15.6936 4.125 16.1977 4.14333 16.6469 4.2075C19.0577 4.47333 19.7086 5.61 19.7086 8.70833V13.2917C19.7086 16.39 19.0577 17.5267 16.6469 17.7925C16.1977 17.8567 15.6936 17.875 15.1252 17.875H13.7686" stroke="#3E3D4B" stroke-width="1.5" stroke-linecap="round" stroke-linejoin="round"/>
<path d="M13.75 1.83203V20.1654" stroke="#3E3D4B" stroke-width="1.5" stroke-linecap="round" stroke-linejoin="round"/>
<path d="M10.1701 11.0013H10.1783" stroke="#3E3D4B" stroke-width="2" stroke-linecap="round" stroke-linejoin="round"/>
<path d="M6.5031 11.0013H6.51134" stroke="#3E3D4B" stroke-width="2" stroke-linecap="round" stroke-linejoin="round"/>
</svg>
