<svg width="44" height="44" viewBox="0 0 44 44" fill="none" xmlns="http://www.w3.org/2000/svg">
<path d="M26.875 11.5918H35.8536" stroke="#3E3D4B" stroke-width="2" stroke-linecap="round" stroke-linejoin="round"/>
<path d="M31.3643 8V20.57" stroke="#3E3D4B" stroke-width="2" stroke-linecap="round" stroke-linejoin="round"/>
<path d="M17.897 20.5675C20.3762 20.5675 22.3859 18.5578 22.3859 16.0787C22.3859 13.5996 20.3762 11.5898 17.897 11.5898C15.4179 11.5898 13.4082 13.5996 13.4082 16.0787C13.4082 18.5578 15.4179 20.5675 17.897 20.5675Z" fill="#BDE5F6" stroke="#3E3D4B" stoke-width="2" stroke-linecap="round" stroke-linejoin="round"/>
<path d="M25.6092 29.5461C25.6092 26.0717 22.1528 23.2617 17.8974 23.2617C13.6419 23.2617 10.1855 26.0717 10.1855 29.5461" stroke="#3E3D4B" stoke-width="2" stroke-linecap="round" stroke-linejoin="round"/>
<path d="M8.02197 29.745L11.1187 31.001C13.0163 31.7706 15.1771 31.5043 16.831 30.2968L17.3589 29.9115C19.1227 28.6238 21.5166 28.6238 23.2805 29.9115L23.6266 30.1641C25.2944 31.3817 27.5787 31.3004 29.1558 29.9673V29.9673C30.7031 28.6594 32.9358 28.5538 34.5997 29.7097L36.3016 30.8922" stroke="#3E3D4B" stoke-width="2" stroke-linecap="round"/>
<path d="M8.02197 32.4384L11.1187 33.6943C13.0163 34.464 15.1771 34.1976 16.831 32.9902L17.3589 32.6048C19.1227 31.3172 21.5166 31.3172 23.2805 32.6048L23.6266 32.8575C25.2944 34.0751 27.5787 33.9938 29.1558 32.6607V32.6607C30.7031 31.3528 32.9358 31.2471 34.5997 32.4031L36.3016 33.5855" stroke="#3E3D4B" stoke-width="2" stroke-linecap="round"/>
</svg>
