<svg width="28" height="28" viewBox="0 0 28 28" fill="none" xmlns="http://www.w3.org/2000/svg">
<g clip-path="url(#clip0_1411_25550)">
<path d="M26.8943 27.1765C25.4081 26.542 22.9062 25.1061 19.541 25.2899C18.6894 25.3363 18.2629 25.3599 17.874 25.3372C17.7325 25.3337 17.5914 25.3246 17.4514 25.3097C15.4716 24.9735 13.9996 23.7063 13.9996 22.1947V9.36682C14.0003 9.10449 14.1251 8.85045 14.3528 8.64801C14.5805 8.44557 14.8969 8.30726 15.2481 8.25665C15.5993 8.20604 15.9636 8.24627 16.2789 8.37047C16.5942 8.49467 16.8409 8.69516 16.9771 8.93778L20.4896 15.2305C21.8672 17.6977 22.556 18.9309 23.7565 19.5654C23.8302 19.6052 23.9672 19.6725 24.0447 19.7075C25.2996 20.2815 25.841 20.2815 26.9227 20.2815M1.10497 27.1765C2.59112 26.542 5.09303 25.1061 8.4582 25.2899C9.30983 25.3363 9.73629 25.3599 10.1253 25.3372C10.5143 25.3145 10.5259 25.3135 10.5479 25.3097C12.5277 24.9745 13.9996 23.7063 13.9996 22.1947V9.36682C13.9989 9.10449 13.8741 8.85045 13.6464 8.64801C13.4188 8.44557 13.1024 8.30726 12.7512 8.25665C12.3999 8.20604 12.0356 8.24627 11.7203 8.37047C11.4051 8.49467 11.1583 8.69516 11.0221 8.93778L7.50965 15.2314C6.13205 17.6987 5.44325 18.9328 4.24269 19.5664C4.14838 19.6156 4.05229 19.663 3.95451 19.7085C2.69968 20.2824 2.1582 20.2824 1.07654 20.2824" fill="#259ACB"/>
<path d="M26.8943 27.1765C25.4081 26.542 22.9062 25.1061 19.541 25.2899C18.6894 25.3363 18.2629 25.3599 17.874 25.3372C17.7325 25.3337 17.5914 25.3246 17.4514 25.3097C15.4716 24.9735 13.9996 23.7063 13.9996 22.1947M13.9996 22.1947V9.36682M13.9996 22.1947C13.9996 23.7063 12.5277 24.9745 10.5479 25.3097C10.5259 25.3135 10.5143 25.3145 10.1253 25.3372C9.73629 25.3599 9.30983 25.3363 8.4582 25.2899C5.09303 25.1061 2.59112 26.542 1.10497 27.1765M13.9996 9.36682C14.0003 9.10449 14.1251 8.85045 14.3528 8.64801C14.5805 8.44557 14.8969 8.30726 15.2481 8.25665C15.5993 8.20604 15.9636 8.24627 16.2789 8.37047C16.5942 8.49467 16.8409 8.69516 16.9771 8.93778L20.4896 15.2305C21.8672 17.6977 22.556 18.9309 23.7565 19.5654C23.8302 19.6052 23.9672 19.6725 24.0447 19.7075C25.2996 20.2815 25.841 20.2815 26.9227 20.2815M13.9996 9.36682C13.9989 9.10449 13.8741 8.85045 13.6464 8.64801C13.4188 8.44557 13.1024 8.30726 12.7512 8.25665C12.3999 8.20604 12.0356 8.24627 11.7203 8.37047C11.4051 8.49467 11.1583 8.69516 11.0221 8.93778L7.50965 15.2314C6.13205 17.6987 5.44325 18.9328 4.24269 19.5664C4.14838 19.6156 4.05229 19.663 3.95451 19.7085C2.69968 20.2824 2.1582 20.2824 1.07654 20.2824" stroke="#EAF7FC" stroke-linecap="round" stroke-linejoin="round"/>
<path d="M18.0833 20.125L16.3333 16.1875C14.4001 16.1875 14 17.3626 14 18.8125M14 18.8125V20.125M14 18.8125C14 17.3626 13.5998 16.1875 11.6666 16.1875L9.91663 20.125" stroke="#EAF7FC" stroke-linecap="round" stroke-linejoin="round"/>
<path d="M14 1L14 5.11097" stroke="#259ACB" stoke-width="2" stroke-linecap="round"/>
<path d="M19.8105 2.02734L18.6668 6.01294" stroke="#259ACB" stoke-width="2" stroke-linecap="round"/>
<path d="M25.517 6.13867L22.1662 8.99995" stroke="#259ACB" stoke-width="2" stroke-linecap="round"/>
<path d="M2.33313 6.13867L5.68394 8.99995" stroke="#259ACB" stoke-width="2" stroke-linecap="round"/>
<path d="M8.16626 2.02734L9.31 6.01294" stroke="#259ACB" stoke-width="2" stroke-linecap="round"/>
</g>
<defs>
<clipPath id="clip0_1411_25550">
<rect width="28" height="28" fill="white"/>
</clipPath>
</defs>
</svg>
