<svg width="29" height="28" viewBox="0 0 29 28" fill="none" xmlns="http://www.w3.org/2000/svg">
<rect x="4.6355" y="6.75391" width="19.2845" height="16.564" rx="2" stroke="#259ACB" stroke-width="2"/>
<path d="M4.6355 8.75391C4.6355 7.64934 5.53093 6.75391 6.6355 6.75391H21.9199C23.0245 6.75391 23.92 7.64934 23.92 8.75391V12.6498H4.6355V8.75391Z" fill="#259ACB" stroke="#259ACB" stroke-width="2"/>
<path d="M20.2115 4.68164V8.82546" stroke="#259ACB" stroke-width="2" stroke-linecap="round"/>
<path d="M8.34515 4.68164V8.82546" stroke="#259ACB" stroke-width="2" stroke-linecap="round"/>
<path d="M20.7487 19.1263C20.8318 19.103 20.9074 19.0587 20.9683 18.9975L28.0949 11.8361C28.0954 11.8357 28.0958 11.8352 28.0962 11.8348C28.224 11.7077 28.3254 11.5568 28.3947 11.3905C28.4642 11.2236 28.5 11.0446 28.5 10.8638C28.5 10.6831 28.4642 10.5041 28.3947 10.3372C28.3254 10.1709 28.224 10.02 28.0963 9.89293C28.0958 9.89248 28.0954 9.89202 28.0949 9.89157L26.5599 8.34786C26.4327 8.21821 26.281 8.11515 26.1135 8.0447C25.9454 7.97395 25.7648 7.9375 25.5824 7.9375C25.4 7.9375 25.2194 7.97395 25.0513 8.0447C24.8843 8.11496 24.7329 8.21765 24.606 8.3468L17.4444 15.4736C17.3832 15.5345 17.3389 15.6101 17.3156 15.6932L16.2202 19.6054C16.1715 19.7794 16.2204 19.9661 16.3481 20.0938C16.4758 20.2215 16.6625 20.2704 16.8365 20.2217L20.7487 19.1263Z" fill="#259ACB" stroke="#EAF7FC" stroke-linecap="round" stroke-linejoin="round"/>
</svg>
