<svg width="23" height="23" viewBox="0 0 23 23" fill="none" xmlns="http://www.w3.org/2000/svg">
<path d="M22.026 12.9149V9.11192L19.0139 8.36922C18.8832 7.97724 18.7251 7.59213 18.5394 7.22765L20.1142 4.60066L17.4253 1.91178L14.7983 3.4866C14.4339 3.30093 14.0488 3.14276 13.6568 3.01209L12.9141 0H9.11113L8.36842 3.01209C7.97644 3.14276 7.5982 3.30093 7.22685 3.4866L4.59987 1.91178L1.91099 4.60066L3.48581 7.22765C3.30013 7.59213 3.14196 7.97724 3.0113 8.36922L-0.000793457 9.11192V12.9149L3.0113 13.6576C3.14196 14.0496 3.30013 14.4347 3.48581 14.7991L1.91099 17.4261L4.59987 20.115L7.22685 18.5402C7.59133 18.7259 7.97644 18.884 8.36842 19.0078L9.11113 22.0199H12.9141L13.6568 19.0078C14.0488 18.8772 14.427 18.719 14.7983 18.5402L17.4253 20.115L20.1142 17.4261L18.5394 14.7991C18.7251 14.4347 18.8832 14.0496 19.0139 13.6576L22.026 12.9149ZM17.6866 12.4128C17.4253 13.3894 17.329 13.6919 16.7239 14.7372L16.6757 14.8266L18.0855 17.1717L17.1778 18.0794L14.8327 16.6697L14.7433 16.7178C13.8768 17.2198 13.6018 17.3642 12.4189 17.6806L12.3226 17.7081L11.6556 20.4038H10.3834L9.7163 17.7081L9.62002 17.6806C8.6435 17.4192 8.34091 17.323 7.29562 16.7178L7.20622 16.6697L4.86119 18.0794L3.95344 17.1717L5.3632 14.8266L5.31507 14.7372C4.81305 13.8707 4.66864 13.5957 4.3523 12.4128L4.32479 12.3166L1.62904 11.6495V10.3773L4.32479 9.71021L4.3523 9.61394C4.61362 8.63742 4.7099 8.34171 5.31507 7.28954L5.3632 7.20014L3.95344 4.8551L4.86119 3.94735L7.20622 5.35713L7.61884 5.11643C8.39593 4.66943 9.02173 4.50439 9.51687 4.36685L9.7163 4.31182L10.3834 1.61608H11.6556L12.3226 4.31182L12.4189 4.33934C13.3954 4.60066 13.698 4.69693 14.7433 5.3021L14.8327 5.35024L17.1778 3.94048L18.0855 4.84822L16.6757 7.19325L16.7239 7.28266C17.2259 8.14915 17.3703 8.42423 17.6866 9.60706L17.7142 9.70335L20.4099 10.3704V11.6426L17.7142 12.3097L17.6866 12.406V12.4128Z" fill="#3E3D4B"/>
<path d="M11.0234 6.39453C8.47889 6.39453 6.40894 8.4645 6.40894 11.009C6.40894 13.5534 8.47889 15.6234 11.0234 15.6234C13.5678 15.6234 15.6378 13.5534 15.6378 11.009C15.6378 8.4645 13.5678 6.39453 11.0234 6.39453ZM14.0286 11.009C14.0286 12.6663 12.6807 14.0142 11.0234 14.0142C9.36601 14.0142 8.01814 12.6663 8.01814 11.009C8.01814 9.35162 9.36601 8.00375 11.0234 8.00375C12.6807 8.00375 14.0286 9.35162 14.0286 11.009Z" fill="#3E3D4B"/>
</svg>
