<svg width="44" height="44" viewBox="0 0 44 44" fill="none" xmlns="http://www.w3.org/2000/svg">
<path d="M9.46826 27.5568V19.4263C9.46826 16.1917 10.8116 13.0897 13.2026 10.8025C15.5937 8.51538 18.8368 7.23047 22.2183 7.23047C25.5998 7.23047 28.8428 8.51538 31.2339 10.8025C33.625 13.0897 34.9683 16.1917 34.9683 19.4263V27.5568" stroke="#3E3D4B" stoke-width="2" stroke-linecap="round" stroke-linejoin="round"/>
<path d="M13.9429 32.447V22.0582C13.9429 18.2804 14.8873 17.3359 18.6651 17.3359H25.2762C29.054 17.3359 29.9984 18.2804 29.9984 22.0582V31.5026C29.9984 31.6348 29.9984 31.767 29.989 31.8993" stroke="#292D32" stoke-width="2" stroke-linecap="round" stroke-linejoin="round"/>
<path d="M16.6345 32.4473H29.9984V34.3362C29.9984 35.3777 28.5156 36.225 26.6929 36.225H17.2484C15.4256 36.225 13.9429 35.3777 13.9429 34.3362V33.9854C13.9429 33.1381 15.1518 32.4473 16.6345 32.4473Z" stroke="#292D32" stoke-width="2" stroke-linecap="round" stroke-linejoin="round"/>
<path d="M34.3045 34.0507C34.7296 33.6256 34.9684 33.0491 34.9684 32.4479V26.7812H31.5684C30.9673 26.7812 30.3907 27.0201 29.9656 27.4451C29.5406 27.8702 29.3018 28.4468 29.3018 29.0479V32.4479C29.3018 33.0491 29.5406 33.6256 29.9656 34.0507C30.3907 34.4758 30.9673 34.7146 31.5684 34.7146H32.7018C33.3029 34.7146 33.8795 34.4758 34.3045 34.0507Z" fill="#BDE5F6" stroke="#3E3D4B" stoke-width="2" stroke-miterlimit="10" stroke-linecap="round" stroke-linejoin="round"/>
<path d="M10.132 34.0507C9.70691 33.6256 9.4681 33.0491 9.4681 32.4479V26.7812H12.8681C13.4693 26.7812 14.0458 27.0201 14.4709 27.4451C14.896 27.8702 15.1348 28.4468 15.1348 29.0479V32.4479C15.1348 33.0491 14.896 33.6256 14.4709 34.0507C14.0458 34.4758 13.4693 34.7146 12.8681 34.7146H11.7348C11.1336 34.7146 10.5571 34.4758 10.132 34.0507Z" fill="#BDE5F6" stroke="#3E3D4B" stoke-width="2" stroke-miterlimit="10" stroke-linecap="round" stroke-linejoin="round"/>
<path d="M19.7041 25.3834V24.4814C19.7041 23.3579 20.5903 22.8988 21.6754 23.4606L22.5495 23.9143L23.4236 24.368C24.5087 24.9297 24.5087 25.848 23.4236 26.4097L22.5495 26.8634L21.6754 27.3171C20.5903 27.8789 19.7041 27.4198 19.7041 26.2963V25.3834Z" fill="#BDE5F6" stroke="#3E3D4B" stoke-width="2" stroke-miterlimit="10" stroke-linecap="round" stroke-linejoin="round"/>
</svg>
