<svg width="45" height="44" viewBox="0 0 45 44" fill="none" xmlns="http://www.w3.org/2000/svg">
<rect x="0.199707" width="44" height="44" rx="22" fill="#8B5E3C"/>
<path d="M25.5229 18.2139H19.0485C15.8833 18.2139 15.4037 18.6934 15.4037 21.8587V31.3224C15.8993 31.1546 16.4508 31.0506 17.0583 31.0506H29.1677V21.8587C29.1677 18.6934 28.6881 18.2139 25.5229 18.2139Z" fill="white"/>
<path d="M31.1262 31.1073V21.8594C31.1262 20.2448 30.9264 19.0459 30.4468 18.1826V35.4635C30.8785 35.0159 31.1262 34.4804 31.1262 33.8889V32.0425C31.1262 31.9386 31.0943 31.8427 31.0703 31.7468C31.0863 31.6908 31.1103 31.6428 31.1183 31.5789C31.1263 31.419 31.1262 31.2672 31.1262 31.1073Z" fill="white"/>
<path d="M13.446 21.8592V32.0343C13.446 32.2741 13.542 32.4819 13.6778 32.6497C13.534 32.9215 13.446 33.2252 13.446 33.545V33.8887C13.446 34.5681 13.7817 35.1755 14.3413 35.6471V17.8467C13.7018 18.7259 13.446 20.0208 13.446 21.8592Z" fill="white"/>
<path d="M17.6576 36.71H26.9056C28.2084 36.71 29.3274 36.3423 30.0868 35.7588H14.4764C15.2437 36.3503 16.3548 36.71 17.6576 36.71Z" fill="white"/>
<path d="M25.5231 16.2559H19.0488C16.9066 16.2559 15.4999 16.6076 14.6286 17.4948H29.9353C29.072 16.6076 27.6652 16.2559 25.5231 16.2559Z" fill="white"/>
<path d="M29.9429 17.5029H14.6363C14.5324 17.6148 14.4365 17.7267 14.3406 17.8546V35.6551C14.3885 35.695 14.4365 35.735 14.4845 35.775H30.0948C30.2227 35.679 30.3426 35.5831 30.4465 35.4712V18.1823C30.3026 17.9266 30.1348 17.7028 29.9429 17.5029ZM29.1676 33.8886C29.1676 34.1124 28.3923 34.7598 26.9136 34.7598H17.6657C16.187 34.7598 15.4116 34.1124 15.4116 33.8886L15.4036 33.5769C15.4676 33.417 16.0511 33.0174 17.0662 33.0174H29.1756V33.8886H29.1676ZM29.1676 31.0591H17.0582C16.4507 31.0591 15.8912 31.163 15.4036 31.3308V21.8591C15.4036 18.6939 15.8832 18.2143 19.0485 18.2143H25.5228C28.688 18.2143 29.1676 18.6939 29.1676 21.8591V31.0591Z" fill="white"/>
<path d="M31.6851 35.6306C30.742 35.6306 29.8148 35.2469 29.1434 34.5755C28.4719 33.9041 28.0883 32.9769 28.0883 32.0337V28.7006C28.0883 27.7415 28.464 26.8382 29.1434 26.1588C29.8228 25.4794 30.726 25.1038 31.6851 25.1038H33.6354V20.7236C33.6354 17.9101 32.4844 15.2644 30.4063 13.2741C28.3361 11.2918 25.4666 10.1568 22.5331 10.1568C19.5997 10.1568 16.7302 11.2918 14.66 13.2741C12.5738 15.2644 11.4308 17.9101 11.4308 20.7236V25.1038H13.3811C14.3403 25.1038 15.2435 25.4794 15.9229 26.1588C16.6023 26.8382 16.978 27.7415 16.978 28.7006V32.0337C16.978 32.9849 16.5943 33.9121 15.9229 34.5755C15.2515 35.2469 14.3243 35.6306 13.3811 35.6306H12.2701C11.3109 35.6306 10.4077 35.2549 9.72833 34.5755C9.05691 33.9041 8.67325 32.9769 8.67325 32.0337V20.7236C8.67325 17.2067 10.1599 13.7617 12.7577 11.2838C15.3714 8.78203 18.8483 7.40723 22.5411 7.40723C26.2339 7.40723 29.7029 8.78203 32.3246 11.2838C34.9223 13.7617 36.409 17.2067 36.409 20.7236V32.0337C36.409 32.9849 36.0254 33.9121 35.3539 34.5755C34.6745 35.2549 33.7713 35.6306 32.8122 35.6306H31.6851ZM31.6851 27.8614C31.4613 27.8614 31.2535 27.9493 31.0937 28.1091C30.9338 28.269 30.8459 28.4768 30.8459 28.7006V32.0337C30.8459 32.2575 30.9338 32.4733 31.0937 32.6252C31.2535 32.7851 31.4693 32.873 31.6851 32.873H32.7962C33.02 32.873 33.2358 32.7851 33.3956 32.6252C33.5475 32.4653 33.6434 32.2495 33.6434 32.0337V27.8614H31.6851ZM11.4228 32.0337C11.4228 32.2575 11.5108 32.4733 11.6706 32.6252C11.8305 32.7851 12.0463 32.873 12.2621 32.873H13.3731C13.5969 32.873 13.8128 32.7851 13.9646 32.6252C14.1245 32.4653 14.2124 32.2495 14.2124 32.0337V28.7006C14.2124 28.4768 14.1245 28.269 13.9646 28.1091C13.8048 27.9493 13.5969 27.8614 13.3731 27.8614H11.4228V32.0337Z" fill="white"/>
<path d="M22.5253 7.7993C26.1142 7.7993 29.4872 9.13413 32.029 11.564C34.5468 13.9699 35.9856 17.303 35.9856 20.716V28.6771V32.0261C35.9856 32.8654 35.6419 33.6967 35.0504 34.2882C34.4429 34.8956 33.6436 35.2233 32.7883 35.2233H31.6773C30.8381 35.2233 30.0148 34.8796 29.4153 34.2882C28.8238 33.6967 28.4801 32.8654 28.4801 32.0261V28.693C28.4801 27.8378 28.8158 27.0385 29.4153 26.431C30.0148 25.8236 30.8221 25.4958 31.6773 25.4958H34.0273V20.716C34.0273 17.7986 32.8363 15.049 30.6702 12.9788C28.5281 10.9326 25.5547 9.7496 22.5173 9.7496C19.48 9.7496 16.5066 10.9246 14.3644 12.9788C12.1983 15.049 11.0074 17.7986 11.0074 20.716V25.4958H13.3573C14.2126 25.4958 15.0199 25.8315 15.6194 26.431C16.2188 27.0305 16.5545 27.8378 16.5545 28.693V32.0261C16.5545 32.8654 16.2108 33.6967 15.6194 34.2882C15.0279 34.8876 14.1966 35.2233 13.3573 35.2233H12.2463C11.391 35.2233 10.5917 34.8876 9.98428 34.2882C9.39279 33.6967 9.0491 32.8654 9.0491 32.0261V26.479V20.716C9.0491 17.303 10.4958 13.9699 13.0056 11.564C15.5634 9.14213 18.9365 7.7993 22.5253 7.7993ZM31.6853 33.273H32.7963C33.1241 33.273 33.4438 33.1372 33.6756 32.9134C33.9074 32.6816 34.0353 32.3618 34.0353 32.0341V27.4621H31.6853C31.3496 27.4621 31.0459 27.59 30.8061 27.8218C30.5743 28.0536 30.4384 28.3653 30.4384 28.701V32.0341C30.4384 32.3618 30.5743 32.6816 30.7981 32.9134C31.0379 33.1452 31.3576 33.273 31.6853 33.273ZM12.2623 33.273H13.3733C13.701 33.273 14.0207 33.1372 14.2525 32.9134C14.4843 32.6816 14.6122 32.3618 14.6122 32.0341V28.701C14.6122 28.3733 14.4843 28.0616 14.2525 27.8218C14.0207 27.59 13.709 27.4621 13.3733 27.4621H11.0234V28.6851V32.0341C11.0234 32.3618 11.1593 32.6816 11.3831 32.9134C11.6149 33.1452 11.9346 33.273 12.2623 33.273ZM22.5253 7C18.7286 7 15.1558 8.41476 12.4701 10.9885C9.80044 13.5463 8.26578 17.0952 8.26578 20.716V26.3511V26.471V32.0181C8.26578 33.0732 8.68941 34.1043 9.44075 34.8477C10.2001 35.599 11.1992 36.0226 12.2703 36.0226H13.3813C14.4364 36.0226 15.4675 35.599 16.2108 34.8477C16.9542 34.1043 17.3858 33.0732 17.3858 32.0181V28.6851C17.3858 27.614 16.9702 26.6149 16.2188 25.8555C15.4675 25.1042 14.4604 24.6806 13.3893 24.6806H11.8387V20.7C11.8387 17.9984 12.9417 15.4566 14.9479 13.5383C16.9462 11.628 19.7118 10.5329 22.5493 10.5329C25.3868 10.5329 28.1524 11.628 30.1507 13.5383C32.1569 15.4566 33.2599 17.9984 33.2599 20.7V24.6806H31.7093C30.6382 24.6806 29.6311 25.0962 28.8798 25.8555C28.1284 26.6069 27.7128 27.614 27.7128 28.6851V32.0181C27.7128 33.0732 28.1364 34.1043 28.8878 34.8477C29.6311 35.591 30.6622 36.0226 31.7173 36.0226H32.8283C33.8994 36.0226 34.8985 35.607 35.6578 34.8477C36.4012 34.1043 36.8328 33.0732 36.8328 32.0181V28.789V28.6691V20.708C36.8328 17.0792 35.2982 13.5383 32.6285 10.9805C29.8949 8.42276 26.322 7 22.5253 7ZM31.6853 32.4737C31.5734 32.4737 31.4535 32.4258 31.3736 32.3459C31.2937 32.2659 31.2457 32.146 31.2457 32.0341V28.701C31.2457 28.5811 31.2937 28.4772 31.3736 28.3893C31.4615 28.3014 31.5654 28.2614 31.6853 28.2614H33.236V32.0341C33.236 32.146 33.188 32.2659 33.1081 32.3459C33.0281 32.4258 32.9082 32.4737 32.7963 32.4737H31.6853ZM11.8227 28.2614H13.3733C13.4932 28.2614 13.5971 28.3094 13.685 28.3893C13.765 28.4692 13.8129 28.5811 13.8129 28.701V32.0341C13.8129 32.146 13.765 32.2659 13.685 32.3459C13.6051 32.4258 13.4852 32.4737 13.3733 32.4737H12.2623C12.1504 32.4737 12.0305 32.4258 11.9506 32.3459C11.8706 32.2659 11.8227 32.146 11.8227 32.0341V28.805V28.6851V28.2614Z" fill="#8B5E3C"/>
<path d="M20.0637 25.1205V24.2333C20.0637 23.1303 20.935 22.6827 21.998 23.2342L22.8533 23.6818L23.7085 24.1294C24.7716 24.6809 24.7716 25.5761 23.7085 26.1276L22.8533 26.5753L21.998 27.0229C20.935 27.5744 20.0637 27.1268 20.0637 26.0237V25.1205Z" fill="white"/>
<path d="M21.1352 28.2217C20.7515 28.2217 20.3839 28.1258 20.0641 27.9339C19.4407 27.5583 19.081 26.8549 19.081 26.0076V24.2332C19.081 23.3859 19.4407 22.6905 20.0641 22.3069C20.7276 21.9072 21.5908 21.9232 22.446 22.3628L24.1566 23.25C24.9958 23.6897 25.4834 24.3691 25.4834 25.1204C25.4834 25.8717 25.0038 26.5512 24.1566 26.9908L22.446 27.878C22.0064 28.1098 21.5588 28.2217 21.1352 28.2217ZM21.1352 23.9774C21.1032 23.9774 21.0872 23.9774 21.0792 23.9854C21.0792 23.9934 21.0393 24.0733 21.0393 24.2332V26.0076C21.0393 26.1675 21.0792 26.2474 21.0872 26.2634C21.1032 26.2634 21.2631 26.2794 21.5428 26.1355L23.2533 25.2483C23.3493 25.2003 23.4132 25.1524 23.4612 25.1204C23.4132 25.0804 23.3493 25.0405 23.2533 24.9925L21.5428 24.1053C21.343 24.0014 21.2071 23.9774 21.1352 23.9774Z" fill="#8B5E3C"/>
<path d="M34.363 33.6011C34.7787 33.1855 35.0105 32.6179 35.0105 32.0345V26.4873H31.6774C31.0859 26.4873 30.5264 26.7191 30.1108 27.1347C29.6951 27.5504 29.4633 28.1179 29.4633 28.7014V32.0345C29.4633 32.6259 29.6951 33.1855 30.1108 33.6011C30.5264 34.0167 31.0939 34.2485 31.6774 34.2485H32.7884C33.3799 34.2565 33.9474 34.0247 34.363 33.6011Z" fill="white"/>
<path d="M10.6965 33.6011C10.2808 33.1855 10.049 32.6179 10.049 32.0345V26.4873H13.3821C13.9736 26.4873 14.5331 26.7191 14.9488 27.1347C15.3644 27.5504 15.5962 28.1179 15.5962 28.7014V32.0345C15.5962 32.6259 15.3644 33.1855 14.9488 33.6011C14.5331 34.0167 13.9656 34.2485 13.3821 34.2485H12.2711C11.6716 34.2565 11.1121 34.0247 10.6965 33.6011Z" fill="white"/>
</svg>
