<svg width="28" height="29" viewBox="0 0 28 29" fill="none" xmlns="http://www.w3.org/2000/svg">
<path d="M13.9402 15.5288C17.4614 15.5288 20.3159 12.6743 20.3159 9.15306C20.3159 5.63185 17.4614 2.77734 13.9402 2.77734C10.419 2.77734 7.56445 5.63185 7.56445 9.15306C7.56445 12.6743 10.419 15.5288 13.9402 15.5288Z" fill="#259ACB"/>
<path d="M23.1487 21.2899C21.5219 18.3997 18.0123 16.3848 13.9412 16.3848C9.92792 16.3848 6.46789 18.3336 4.80807 21.1495C4.14745 22.2726 3.76758 23.536 3.76758 24.8655C3.76758 25.4436 4.23828 25.906 4.80807 25.906H23.0744H23.1487C23.6854 25.8647 24.1149 25.4271 24.1149 24.8821C24.1149 23.5938 23.7598 22.3799 23.1487 21.2899Z" fill="#259ACB"/>
<path d="M13.3235 20.458L14.0379 20.2297L13.3235 20.458C13.4208 20.7624 13.6098 21.0292 13.8645 21.2218L16.0477 22.9381L15.2958 25.6023C15.2956 25.6029 15.2954 25.6036 15.2952 25.6042C15.2079 25.9096 15.2166 26.2344 15.3201 26.5346L16.0224 26.2925L15.3201 26.5346C15.4239 26.8355 15.6178 27.0971 15.8754 27.2839C16.1331 27.4707 16.4421 27.5736 16.7604 27.5786C17.0778 27.5835 17.3891 27.4908 17.6521 27.313C17.6527 27.3125 17.6534 27.3121 17.654 27.3117L19.9626 25.7644L22.2674 27.3092C22.5264 27.4903 22.8348 27.5875 23.151 27.5875C23.4712 27.5875 23.7835 27.4878 24.0445 27.3022L24.0445 27.3022L24.0472 27.3003C24.3061 27.1144 24.501 26.8529 24.6052 26.5517L23.8964 26.3066L24.6052 26.5517C24.7091 26.2513 24.7176 25.9262 24.6295 25.6208C24.6293 25.62 24.6291 25.6192 24.6289 25.6184L23.8705 22.9438L26.065 21.2104C26.3194 21.0178 26.5081 20.7513 26.6053 20.4472L25.8908 20.2189L26.6053 20.4472C26.7037 20.1392 26.7032 19.8081 26.604 19.5003C26.5047 19.1926 26.3117 18.9236 26.0518 18.7311C25.7945 18.5405 25.4845 18.4344 25.1645 18.4272L22.3806 18.322L21.4173 15.7201C21.4171 15.7196 21.4169 15.719 21.4167 15.7185C21.3075 15.421 21.1098 15.1642 20.8501 14.9826C20.5899 14.8007 20.2801 14.7031 19.9626 14.7031C19.6451 14.7031 19.3353 14.8007 19.0751 14.9826C18.8151 15.1643 18.6172 15.4215 18.5082 15.7193C18.5081 15.7196 18.508 15.7199 18.5079 15.7201L17.5471 18.3329L14.7643 18.438C14.4443 18.4452 14.1342 18.5513 13.8769 18.7419C13.6171 18.9344 13.424 19.2034 13.3248 19.5111C13.2255 19.8189 13.2251 20.1499 13.3235 20.458Z" fill="#259ACB" stroke="#EAF7FC" stoke-width="2"/>
</svg>
