<svg width="120" height="81" viewBox="0 0 120 81" fill="none" xmlns="http://www.w3.org/2000/svg">
<g clip-path="url(#clip0_2262_86183)">
<rect width="52.1951" height="53.9447" rx="2.68074" transform="matrix(-0.992205 0.12462 0.12462 0.992205 57.7423 20.0127)" fill="#EBD2FC"/>
<circle cx="27.2238" cy="57.6666" r="11.9637" transform="rotate(-7.1588 27.2238 57.6666)" fill="#2E0800"/>
<mask id="mask0_2262_86183" style="mask-type:alpha" maskUnits="userSpaceOnUse" x="25" y="37" width="20" height="26">
<rect x="25.0355" y="41.062" width="14.8489" height="22.0018" transform="rotate(-14.5443 25.0355 41.062)" fill="#FFC5A4"/>
</mask>
<g mask="url(#mask0_2262_86183)">
<rect x="25.0355" y="41.062" width="14.8489" height="22.0018" transform="rotate(-14.5443 25.0355 41.062)" fill="#FFC5A4"/>
<ellipse cx="39.0263" cy="46.1349" rx="10.3499" ry="11.7941" transform="rotate(-14.5053 39.0263 46.1349)" fill="#890000"/>
</g>
<mask id="mask1_2262_86183" style="mask-type:alpha" maskUnits="userSpaceOnUse" x="22" y="31" width="25" height="25">
<path d="M23.9421 46.283C21.0582 41.6591 22.4688 35.5728 27.0927 32.6889C31.7076 29.8106 37.7813 31.2094 40.6723 35.8162L45.3162 43.2161C47.6918 47.0016 46.2343 52.012 42.1988 53.9326L40.9283 54.5372C35.7276 57.0123 29.4977 55.1906 26.4498 50.3037L23.9421 46.283Z" fill="#FFC5A4"/>
</mask>
<g mask="url(#mask1_2262_86183)">
<path d="M24.2677 45.4827C21.3838 40.8588 22.7943 34.7725 27.4183 31.8886C32.0331 29.0104 38.1068 30.4091 40.9979 35.0159L45.6417 42.4158C48.0173 46.2013 46.5598 51.2117 42.5244 53.1323L41.2538 53.737C36.0532 56.212 29.8233 54.3904 26.7753 49.5034L24.2677 45.4827Z" fill="#FFC5A4"/>
<g filter="url(#filter0_f_2262_86183)">
<circle cx="0.959823" cy="0.959823" r="0.959823" transform="matrix(-0.936895 0.34961 0.34961 0.936895 38.1666 44.1392)" fill="#CA4848"/>
</g>
<g filter="url(#filter1_f_2262_86183)">
<circle cx="0.959823" cy="0.959823" r="0.959823" transform="matrix(-0.9517 0.30703 0.30703 0.9517 44.5663 41.7637)" fill="#CA4848"/>
</g>
<circle cx="37.7176" cy="21.8608" r="13.479" transform="rotate(-14.5053 37.7176 21.8608)" fill="#2E0800"/>
<circle cx="24.4903" cy="38.4567" r="10.1046" transform="rotate(-14.5053 24.4903 38.4567)" fill="#2E0800"/>
<circle cx="25.8506" cy="51.0466" r="3.61044" transform="rotate(-14.5053 25.8506 51.0466)" fill="#CA4848"/>
<path d="M34.9949 41.5832C34.915 40.494 36.2727 39.6585 37.0926 40.2723" stroke="#510E00" stroke-width="0.550082" stroke-linecap="round"/>
<path d="M39.535 39.1421C39.5159 38.2332 40.459 37.9086 41.0456 38.2541" stroke="#510E00" stroke-width="0.550082" stroke-linecap="round"/>
<path d="M40.0477 42.7236C41.7041 42.6501 42.9275 44.2162 41.8923 44.7408" stroke="#510E00" stroke-width="0.550082" stroke-linecap="round"/>
</g>
<circle cx="25.979" cy="49.5105" r="3.61044" transform="rotate(-14.5053 25.979 49.5105)" fill="#FFC5A4"/>
<path d="M27.8043 50.0157C27.9489 50.0557 28.1004 49.9711 28.1221 49.8226C28.1547 49.599 28.1523 49.371 28.1143 49.1471C28.0611 48.8337 27.9396 48.5358 27.7583 48.2746C27.5771 48.0134 27.3406 47.7953 27.0656 47.6357C26.7906 47.4762 26.4839 47.3792 26.1672 47.3515C25.8504 47.3238 25.5315 47.3662 25.233 47.4756C24.9345 47.585 24.6638 47.7588 24.44 47.9846C24.2162 48.2104 24.0448 48.4826 23.9381 48.7821C23.8618 48.996 23.8198 49.2201 23.8132 49.446C23.8088 49.596 23.9433 49.7056 24.0926 49.6913C24.2419 49.6769 24.3489 49.5436 24.3596 49.3939C24.37 49.2478 24.4002 49.1033 24.4497 48.9645C24.5297 48.7401 24.6581 48.5361 24.8258 48.3669C24.9935 48.1978 25.1963 48.0676 25.42 47.9856C25.6436 47.9036 25.8826 47.8719 26.1199 47.8926C26.3572 47.9134 26.587 47.9861 26.793 48.1056C26.999 48.2251 27.1762 48.3885 27.312 48.5843C27.4478 48.78 27.5389 49.0031 27.5787 49.238C27.6034 49.3833 27.6081 49.5308 27.593 49.6765C27.5775 49.8257 27.6598 49.9756 27.8043 50.0157Z" fill="#CA4848"/>
<circle cx="37.3784" cy="42.5016" r="0.722087" transform="rotate(-35.2486 37.3784 42.5016)" fill="#510E00"/>
<circle cx="41.6485" cy="40.194" r="0.722087" transform="rotate(-32.7344 41.6485 40.194)" fill="#510E00"/>
<path d="M19.7316 73.1038C20.1257 67.3971 24.2997 62.6647 29.9125 61.5611L43.4478 58.8996C49.7908 57.6524 56.0539 61.3875 57.9713 67.5611L62.857 83.2914C64.9306 89.9677 61.1965 97.0603 54.5188 99.1292L34.773 105.247C26.2806 107.878 17.7944 101.16 18.4069 92.2904L19.7316 73.1038Z" fill="#9F1EBA"/>
<rect width="17.3393" height="5.21286" rx="1.10016" transform="matrix(-0.978443 0.206519 0.206519 0.978443 45.2538 55.4014)" fill="#9F1EBA"/>
<path d="M42.8994 46.8643C42.891 47.1788 42.8208 47.4886 42.6926 47.776C42.5645 48.0634 42.381 48.3228 42.1527 48.5393C41.9243 48.7557 41.6556 48.9251 41.3618 49.0378C41.068 49.1504 40.7549 49.204 40.4403 49.1956C40.1258 49.1872 39.816 49.117 39.5286 48.9889C39.2412 48.8607 38.9818 48.6773 38.7653 48.4489C38.5489 48.2206 38.3795 47.9518 38.2668 47.658C38.1542 47.3642 38.1006 47.0511 38.109 46.7365L40.5042 46.8004L42.8994 46.8643Z" fill="#510E00"/>
</g>
<g clip-path="url(#clip1_2262_86183)">
<rect width="52.1951" height="53.9447" rx="4.40064" transform="matrix(-0.994472 -0.105 -0.105 0.994472 109.649 5.48047)" fill="#CEF0FF"/>
<mask id="mask2_2262_86183" style="mask-type:alpha" maskUnits="userSpaceOnUse" x="71" y="14" width="18" height="25">
<rect width="14.8489" height="22.0018" transform="matrix(-0.993836 0.110858 0.110858 0.993836 86.192 14.5151)" fill="#FFC5A4"/>
</mask>
<g mask="url(#mask2_2262_86183)">
<rect width="14.8489" height="22.0018" transform="matrix(-0.993836 0.110858 0.110858 0.993836 86.192 14.5151)" fill="#FFC5A4"/>
<ellipse cx="10.3499" cy="11.7941" rx="10.3499" ry="11.7941" transform="matrix(-0.99376 0.111536 0.111536 0.99376 83.9043 11.3716)" fill="#890000"/>
</g>
<mask id="mask3_2262_86183" style="mask-type:alpha" maskUnits="userSpaceOnUse" x="67" y="7" width="23" height="26">
<path d="M89.0785 19.0015C90.1222 13.6529 86.6324 8.47076 81.2838 7.42699C75.9456 6.38527 70.7711 9.85954 69.7145 15.1948L68.0174 23.7647C67.1492 28.1487 70.2989 32.309 74.754 32.6629L76.1567 32.7743C81.8982 33.2304 87.0678 29.3053 88.1709 23.6524L89.0785 19.0015Z" fill="#FFC5A4"/>
</mask>
<g mask="url(#mask3_2262_86183)">
<path d="M89.0785 19.0015C90.1222 13.6529 86.6324 8.47076 81.2838 7.42699C75.9456 6.38528 70.7711 9.85954 69.7145 15.1948L68.0174 23.7647C67.1492 28.1487 70.2989 32.309 74.754 32.6629L76.1567 32.7743C81.8982 33.2304 87.0678 29.3053 88.1709 23.6524L89.0785 19.0015Z" fill="#FFC5A4"/>
<g filter="url(#filter2_f_2262_86183)">
<circle cx="0.959823" cy="0.959823" r="0.959823" transform="matrix(-0.957039 0.289958 0.289958 0.957039 70.6456 22.8237)" fill="#CA4848"/>
</g>
<g filter="url(#filter3_f_2262_86183)">
<circle cx="0.959823" cy="0.959823" r="0.959823" transform="matrix(-0.969135 0.246532 0.246532 0.969135 79.1145 23.6089)" fill="#CA4848"/>
</g>
<path d="M74.8923 26.2967C74.5561 27.5348 72.7287 27.3037 72.609 26.3013" stroke="#510E00" stroke-width="0.550082" stroke-linecap="round"/>
<circle cx="13.479" cy="13.479" r="13.479" transform="matrix(-0.99376 0.111536 0.111536 0.99376 89.9918 -12.9771)" fill="#2E0800"/>
<circle cx="10.1046" cy="10.1046" r="10.1046" transform="matrix(-0.99376 0.111536 0.111536 0.99376 102.295 4.94873)" fill="#2E0800"/>
<circle cx="3.61044" cy="3.61044" r="3.61044" transform="matrix(-0.99376 0.111536 0.111536 0.99376 92.1807 20.1416)" fill="#CA4848"/>
<path d="M77.0857 18.5564C76.7717 17.5104 75.2051 17.2145 74.6582 18.0805" stroke="#510E00" stroke-width="0.550082" stroke-linecap="round"/>
<path d="M71.9743 17.8963C71.6679 17.0405 70.671 17.0738 70.2463 17.6059" stroke="#510E00" stroke-width="0.550082" stroke-linecap="round"/>
<path d="M72.7727 21.4252C71.1992 21.9477 70.6152 23.8473 71.7695 23.9679" stroke="#510E00" stroke-width="0.550082" stroke-linecap="round"/>
</g>
<circle cx="3.61044" cy="3.61044" r="3.61044" transform="matrix(-0.99376 0.111536 0.111536 0.99376 91.5101 18.752)" fill="#FFC5A4"/>
<path d="M86.8003 23.8665C86.6795 23.9555 86.5078 23.9304 86.4346 23.7995C86.3242 23.6023 86.2452 23.3885 86.2008 23.1657C86.1386 22.8539 86.1458 22.5323 86.2219 22.2236C86.2979 21.9149 86.441 21.6268 86.641 21.3796C86.8409 21.1324 87.0928 20.9323 87.3788 20.7934C87.6648 20.6545 87.9778 20.5803 88.2957 20.576C88.6136 20.5716 88.9285 20.6373 89.2182 20.7684C89.5078 20.8995 89.7651 21.0927 89.9717 21.3343C90.1193 21.5069 90.2384 21.7013 90.3253 21.91C90.3829 22.0485 90.2964 22.1989 90.1518 22.2387C90.0072 22.2786 89.8596 22.1922 89.7963 22.0563C89.7343 21.9235 89.6546 21.7993 89.5588 21.6873C89.404 21.5063 89.2113 21.3615 88.9943 21.2633C88.7772 21.1651 88.5413 21.1159 88.3031 21.1191C88.0649 21.1224 87.8304 21.178 87.6161 21.2821C87.4018 21.3861 87.2131 21.5361 87.0633 21.7213C86.9135 21.9064 86.8063 22.1223 86.7493 22.3536C86.6923 22.5849 86.6869 22.8259 86.7335 23.0595C86.7623 23.204 86.8106 23.3435 86.8767 23.4742C86.9443 23.6081 86.921 23.7774 86.8003 23.8665Z" fill="#CA4848"/>
<circle cx="0.722087" cy="0.722087" r="0.722087" transform="matrix(-0.974692 -0.223552 -0.223552 0.974692 75.8837 20.8203)" fill="#510E00"/>
<circle cx="0.722087" cy="0.722087" r="0.722087" transform="matrix(-0.98356 -0.18058 -0.18058 0.98356 71.0321 20.2725)" fill="#510E00"/>
<path d="M102.58 42.5547C100.175 37.3644 94.5872 34.4333 88.9502 35.4055L75.3564 37.7499C68.9859 38.8485 64.4683 44.5729 64.8804 51.0243L65.9304 67.4623C66.3761 74.439 72.3955 79.7319 79.3718 79.2814L100.001 77.9494C108.873 77.3765 114.403 68.0721 110.665 60.0051L102.58 42.5547Z" fill="#29ABE2"/>
<rect x="72.4203" y="35.1245" width="17.3393" height="5.21286" rx="1.10016" transform="rotate(-8.99071 72.4203 35.1245)" fill="#29ABE2"/>
</g>
<path d="M110.942 18.9662L112.408 21.8995C112.608 22.3079 113.142 22.6995 113.592 22.7745L116.25 23.2162C117.95 23.4995 118.35 24.7329 117.125 25.9495L115.058 28.0162C114.708 28.3662 114.517 29.0412 114.625 29.5245L115.217 32.0829C115.683 34.1079 114.608 34.8912 112.817 33.8329L110.325 32.3579C109.875 32.0912 109.133 32.0912 108.675 32.3579L106.183 33.8329C104.4 34.8912 103.317 34.0995 103.783 32.0829L104.375 29.5245C104.483 29.0412 104.292 28.3662 103.942 28.0162L101.875 25.9495C100.658 24.7329 101.05 23.4995 102.75 23.2162L105.408 22.7745C105.85 22.6995 106.383 22.3079 106.583 21.8995L108.05 18.9662C108.85 17.3745 110.15 17.3745 110.942 18.9662Z" fill="#FDC854"/>
<path d="M11.9417 47.9662L13.4084 50.8995C13.6084 51.3079 14.1417 51.6995 14.5917 51.7745L17.25 52.2162C18.95 52.4995 19.35 53.7329 18.125 54.9495L16.0584 57.0162C15.7084 57.3662 15.5167 58.0412 15.625 58.5245L16.2167 61.0829C16.6834 63.1079 15.6084 63.8912 13.8167 62.8329L11.325 61.3579C10.875 61.0912 10.1334 61.0912 9.67505 61.3579L7.18338 62.8329C5.40005 63.8912 4.31671 63.0995 4.78338 61.0829L5.37505 58.5245C5.48338 58.0412 5.29171 57.3662 4.94171 57.0162L2.87505 54.9495C1.65838 53.7329 2.05005 52.4995 3.75005 52.2162L6.40838 51.7745C6.85005 51.6995 7.38338 51.3079 7.58338 50.8995L9.05005 47.9662C9.85005 46.3745 11.15 46.3745 11.9417 47.9662Z" fill="#FDC854"/>
<defs>
<filter id="filter0_f_2262_86183" x="34.108" y="41.8793" width="6.98974" height="6.98949" filterUnits="userSpaceOnUse" color-interpolation-filters="sRGB">
<feFlood flood-opacity="0" result="BackgroundImageFix"/>
<feBlend mode="normal" in="SourceGraphic" in2="BackgroundImageFix" result="shape"/>
<feGaussianBlur stdDeviation="1.26739" result="effect1_foregroundBlur_2262_86183"/>
</filter>
<filter id="filter1_f_2262_86183" x="40.4526" y="39.4769" width="6.98974" height="6.98998" filterUnits="userSpaceOnUse" color-interpolation-filters="sRGB">
<feFlood flood-opacity="0" result="BackgroundImageFix"/>
<feBlend mode="normal" in="SourceGraphic" in2="BackgroundImageFix" result="shape"/>
<feGaussianBlur stdDeviation="1.26739" result="effect1_foregroundBlur_2262_86183"/>
</filter>
<filter id="filter2_f_2262_86183" x="66.5105" y="20.5258" width="6.98974" height="6.98949" filterUnits="userSpaceOnUse" color-interpolation-filters="sRGB">
<feFlood flood-opacity="0" result="BackgroundImageFix"/>
<feBlend mode="normal" in="SourceGraphic" in2="BackgroundImageFix" result="shape"/>
<feGaussianBlur stdDeviation="1.26739" result="effect1_foregroundBlur_2262_86183"/>
</filter>
<filter id="filter3_f_2262_86183" x="74.9262" y="21.2806" width="6.98961" height="6.98998" filterUnits="userSpaceOnUse" color-interpolation-filters="sRGB">
<feFlood flood-opacity="0" result="BackgroundImageFix"/>
<feBlend mode="normal" in="SourceGraphic" in2="BackgroundImageFix" result="shape"/>
<feGaussianBlur stdDeviation="1.26739" result="effect1_foregroundBlur_2262_86183"/>
</filter>
<clipPath id="clip0_2262_86183">
<rect width="52.1951" height="53.9447" rx="2.68074" transform="matrix(-0.992205 0.12462 0.12462 0.992205 57.7423 20.0127)" fill="white"/>
</clipPath>
<clipPath id="clip1_2262_86183">
<rect x="57.7423" width="52.1951" height="53.9447" rx="4.40064" transform="rotate(6.02717 57.7423 0)" fill="white"/>
</clipPath>
</defs>
</svg>
