<svg width="44" height="44" viewBox="0 0 44 44" fill="none" xmlns="http://www.w3.org/2000/svg">
<rect width="44" height="44" rx="22" fill="#009444"/>
<path d="M35.1733 13H25.4376C23.7075 13 22.6376 13.6298 22.0002 14.4114C21.3628 13.6298 20.2853 13 18.5628 13H8.82711C8.37182 13 8 13.3718 8 13.8271V31.1358C8 31.5911 8.37182 31.9629 8.82711 31.9629H18.5628C20.5812 31.9629 21.211 33.4122 21.2338 33.4653C21.3021 33.6399 21.4235 33.7689 21.5677 33.8599C21.5753 33.8599 21.5753 33.8599 21.5828 33.8675C21.6587 33.913 21.7422 33.9434 21.8257 33.9586C21.8333 33.9586 21.8333 33.9662 21.8408 33.9662C21.8636 33.9737 21.8864 33.9737 21.9091 33.9737C21.9395 33.9737 21.9698 33.9889 22.0002 33.9889C22.0533 33.9889 22.1064 33.9813 22.152 33.9737C22.4251 33.9206 22.6452 33.7309 22.7514 33.4881C22.7514 33.4805 22.759 33.4805 22.759 33.4729C22.7818 33.4122 23.4192 31.9629 25.4376 31.9629H29.8767V33.693C29.8767 33.8296 29.9602 33.9586 30.0816 34.0117C30.2106 34.0724 30.3548 34.0496 30.461 33.9586L31.1667 33.3591L31.8724 33.9586C31.9407 34.0117 32.0166 34.042 32.1001 34.042C32.1532 34.042 32.1987 34.0344 32.2518 34.0117C32.3732 33.951 32.4567 33.8296 32.4567 33.693V31.9629H35.1733C35.6286 31.9629 36.0004 31.5911 36.0004 31.1358V13.8195C36.0004 13.3642 35.6286 13 35.1733 13Z" fill="#009444" stroke="white" stroke-width="0.758819"/>
<path d="M18.5625 30.3085H9.65399V14.6465H18.5625C21.0059 14.6465 21.1729 16.3235 21.1804 16.6725V31.0218C20.543 30.6196 19.6856 30.3085 18.5625 30.3085Z" fill="white"/>
<path d="M11.6801 20.5654C11.6649 20.5654 11.6574 20.831 11.6422 21.1649C14.3284 21.0207 17.0222 21.0435 19.7084 21.2484C19.7008 21.2484 19.716 20.9752 19.7312 20.6337C17.0525 20.611 14.3663 20.5882 11.6801 20.5654Z" fill="#028439"/>
<path d="M34.3538 30.3085H25.4453C24.3146 30.3085 23.4647 30.6196 22.8273 31.0218V16.6725C22.8349 16.3311 22.9943 14.6465 25.4453 14.6465H34.3538V30.3085Z" fill="white"/>
<path d="M24.1858 23.9121C24.1782 24.1625 24.1782 24.3522 24.1782 24.3522C27.0997 24.3978 30.0211 24.375 32.9426 24.2688C32.9578 24.2688 32.9653 24.1701 32.9729 24.0259C30.0363 24.0411 27.1073 24.0032 24.1858 23.9121Z" fill="#028439"/>
<path d="M25.5062 25.877C27.8281 25.9377 30.1501 25.9681 32.4797 25.9605C32.4873 25.6418 32.4873 25.3838 32.4949 25.3838C30.1729 25.4141 27.8585 25.4521 25.5365 25.4824C25.5213 25.4824 25.5138 25.6494 25.5062 25.877Z" fill="#028439"/>
</svg>
