<svg width="32" height="28" viewBox="0 0 32 28" fill="none" xmlns="http://www.w3.org/2000/svg">
<path d="M25.2911 4.50391H16.9465C15.4636 4.50391 14.5465 5.04374 14.0002 5.71364C13.4539 5.04374 12.5303 4.50391 11.0539 4.50391H2.70933C2.31909 4.50391 2.0004 4.8226 2.0004 5.21284V20.0484C2.0004 20.4386 2.31909 20.7573 2.70933 20.7573H11.0539C12.784 20.7573 13.3238 21.9996 13.3433 22.0451C13.4018 22.1947 13.5059 22.3052 13.6295 22.3833C13.636 22.3833 13.636 22.3833 13.6425 22.3898C13.7075 22.4288 13.7791 22.4548 13.8506 22.4678C13.8571 22.4678 13.8571 22.4743 13.8636 22.4743C13.8831 22.4808 13.9026 22.4809 13.9222 22.4809C13.9482 22.4809 13.9742 22.4939 14.0002 22.4939C14.0457 22.4939 14.0913 22.4874 14.1303 22.4809C14.3644 22.4353 14.553 22.2727 14.6441 22.0646C14.6441 22.0581 14.6506 22.0581 14.6506 22.0516C14.6701 21.9996 15.2164 20.7573 16.9465 20.7573H20.7513V22.2402C20.7513 22.3573 20.8228 22.4678 20.9269 22.5134C21.0375 22.5654 21.1611 22.5459 21.2521 22.4678L21.857 21.954L22.4618 22.4678C22.5204 22.5134 22.5854 22.5394 22.657 22.5394C22.7025 22.5394 22.7415 22.5329 22.787 22.5134C22.8911 22.4613 22.9627 22.3573 22.9627 22.2402V20.7573H25.2911C25.6813 20.7573 26 20.4386 26 20.0484V5.20634C26 4.8161 25.6813 4.50391 25.2911 4.50391Z" fill="#259ACB"/>
<path d="M11.054 19.3392H3.41833V5.91504H11.054C13.1483 5.91504 13.2913 7.35241 13.2978 7.65159V19.9506C12.7515 19.6059 12.0166 19.3392 11.054 19.3392Z" fill="#259ACB"/>
<path d="M24.5885 19.3392H16.9528C15.9838 19.3392 15.2553 19.6059 14.709 19.9506V7.65159C14.7155 7.35892 14.8521 5.91504 16.9528 5.91504H24.5885V19.3392Z" fill="#259ACB"/>
<mask id="path-4-outside-1_1411_15635" maskUnits="userSpaceOnUse" x="17" y="11" width="15" height="17" fill="black">
<rect fill="white" x="17" y="11" width="15" height="17"/>
<path fill-rule="evenodd" clip-rule="evenodd" d="M27.9991 16.4668C27.9991 18.3815 26.4469 19.9337 24.5323 19.9337C22.6176 19.9337 21.0654 18.3815 21.0654 16.4668C21.0654 14.5522 22.6176 13 24.5323 13C26.4469 13 27.9991 14.5522 27.9991 16.4668ZM24.532 20.399C26.7457 20.399 28.654 21.4946 29.5386 23.0662C29.8709 23.6589 30.064 24.319 30.064 25.0195C30.064 25.3158 29.8305 25.5538 29.5386 25.5762H29.4982H19.5658C19.2559 25.5762 19 25.3248 19 25.0105C19 24.2875 19.2066 23.6005 19.5658 22.9899C20.4683 21.4587 22.3497 20.399 24.532 20.399Z"/>
</mask>
<path fill-rule="evenodd" clip-rule="evenodd" d="M27.9991 16.4668C27.9991 18.3815 26.4469 19.9337 24.5323 19.9337C22.6176 19.9337 21.0654 18.3815 21.0654 16.4668C21.0654 14.5522 22.6176 13 24.5323 13C26.4469 13 27.9991 14.5522 27.9991 16.4668ZM24.532 20.399C26.7457 20.399 28.654 21.4946 29.5386 23.0662C29.8709 23.6589 30.064 24.319 30.064 25.0195C30.064 25.3158 29.8305 25.5538 29.5386 25.5762H29.4982H19.5658C19.2559 25.5762 19 25.3248 19 25.0105C19 24.2875 19.2066 23.6005 19.5658 22.9899C20.4683 21.4587 22.3497 20.399 24.532 20.399Z" fill="#259ACB"/>
<path d="M29.5386 23.0662L30.847 22.3327L30.8458 22.3305L29.5386 23.0662ZM29.5386 25.5762V27.0762H29.5962L29.6536 27.0718L29.5386 25.5762ZM19.5658 22.9899L18.2736 22.2282L18.2729 22.2293L19.5658 22.9899ZM24.5323 21.4337C27.2754 21.4337 29.4991 19.2099 29.4991 16.4668H26.4991C26.4991 17.5531 25.6185 18.4337 24.5323 18.4337V21.4337ZM19.5654 16.4668C19.5654 19.2099 21.7892 21.4337 24.5323 21.4337V18.4337C23.446 18.4337 22.5654 17.5531 22.5654 16.4668H19.5654ZM24.5323 11.5C21.7892 11.5 19.5654 13.7237 19.5654 16.4668H22.5654C22.5654 15.3806 23.446 14.5 24.5323 14.5V11.5ZM29.4991 16.4668C29.4991 13.7237 27.2754 11.5 24.5323 11.5V14.5C25.6185 14.5 26.4991 15.3806 26.4991 16.4668H29.4991ZM30.8458 22.3305C29.6615 20.2264 27.2144 18.899 24.532 18.899V21.899C26.2769 21.899 27.6466 22.7629 28.2314 23.8019L30.8458 22.3305ZM31.564 25.0195C31.564 24.0363 31.2916 23.1258 30.847 22.3327L28.2302 23.7997C28.4501 24.192 28.564 24.6017 28.564 25.0195H31.564ZM29.6536 27.0718C30.6851 26.9925 31.564 26.1409 31.564 25.0195H28.564C28.564 24.4907 28.9758 24.1151 29.4236 24.0807L29.6536 27.0718ZM29.4982 27.0762H29.5386V24.0762H29.4982V27.0762ZM19.5658 27.0762H29.4982V24.0762H19.5658V27.0762ZM17.5 25.0105C17.5 26.161 18.4353 27.0762 19.5658 27.0762V24.0762C20.0766 24.0762 20.5 24.4886 20.5 25.0105H17.5ZM18.2729 22.2293C17.7909 23.0486 17.5 23.9958 17.5 25.0105H20.5C20.5 24.5793 20.6222 24.1525 20.8587 23.7504L18.2729 22.2293ZM24.532 18.899C21.8879 18.899 19.4792 20.1829 18.2736 22.2282L20.858 23.7516C21.4575 22.7345 22.8116 21.899 24.532 21.899V18.899Z" fill="#EAF7FC" mask="url(#path-4-outside-1_1411_15635)"/>
<path d="M14 7V20" stroke="#EAF7FC" stroke-width="0.75" stroke-linecap="round"/>
</svg>
