<svg width="44" height="44" viewBox="0 0 44 44" fill="none" xmlns="http://www.w3.org/2000/svg">
<path d="M34.9386 29.091H25.6049C24.4217 29.091 23.5271 29.4195 22.864 29.8394V14.8389C22.8721 14.4782 23.0426 12.723 25.6049 12.723H34.9386V29.091ZM18.396 29.091H9.06221V12.723H18.396C20.9572 12.723 21.1277 14.4782 21.1358 14.8389V29.8394C20.4727 29.4195 19.5787 29.091 18.396 29.091ZM35.8025 11H25.6049C23.7947 11 22.6703 11.6569 22.0002 12.4753C21.33 11.6569 20.2056 11 18.396 11H8.19786C7.72036 11 7.3335 11.3823 7.3335 11.8615V29.9579C7.3335 30.4317 7.72036 30.8194 8.19786 30.8194H18.396C20.5094 30.8194 21.1719 32.3323 21.1962 32.3915C21.2669 32.5692 21.3948 32.7092 21.5496 32.8061L21.5631 32.8116C21.6414 32.8546 21.7261 32.8869 21.8156 32.9085L21.8307 32.9138L21.9014 32.9192L21.9996 32.9354C22.053 32.9354 22.107 32.93 22.1609 32.9192C22.4501 32.8654 22.68 32.6715 22.7911 32.4131L22.8009 32.397C22.8273 32.3323 23.4915 30.8194 25.6049 30.8194H30.2542V32.6285C30.2542 32.7738 30.3384 32.9031 30.469 32.9623C30.6006 33.0215 30.7544 33.0054 30.8645 32.9085L31.6042 32.2839L32.3434 32.9085C32.4114 32.9677 32.4972 33 32.5835 33C32.6364 33 32.6892 32.9892 32.7389 32.9623C32.87 32.9031 32.9536 32.7738 32.9536 32.6285V30.8194H35.8025C36.28 30.8194 36.6668 30.4317 36.6668 29.9579V11.8615C36.6668 11.3823 36.28 11 35.8025 11Z" fill="#D3D7DC"/>
<path d="M11.0352 19.2493C11.0231 19.2493 11.011 19.6008 11 20.0488C13.7405 19.8558 16.4864 19.8834 19.2237 20.166C19.219 20.166 19.2327 19.8076 19.25 19.3458C16.5116 19.3182 13.7731 19.2838 11.0352 19.2493Z" fill="#F68712"/>
<path d="M34.9382 29.0964H25.6048C24.4216 29.0964 23.527 29.4195 22.8639 29.8394V14.8389C22.872 14.4782 23.0425 12.723 25.6048 12.723H34.9382V29.0964ZM18.3961 29.0964H9.06215V12.723H18.3961C20.9572 12.723 21.1277 14.4782 21.1358 14.8389V29.8394C20.4727 29.4195 19.5787 29.0964 18.3961 29.0964ZM35.8025 11H25.6048C23.7946 11 22.6697 11.6569 22.0002 12.4753C21.3301 11.6569 20.2051 11 18.3961 11H8.19783C7.72034 11 7.3335 11.3823 7.3335 11.8615V29.9579C7.3335 30.4317 7.72034 30.8194 8.19783 30.8194H18.3961C20.5089 30.8194 21.172 32.3377 21.1963 32.3915C21.2669 32.5692 21.3948 32.7092 21.5497 32.8061L21.5626 32.8116C21.6414 32.86 21.7261 32.8923 21.8156 32.9085L21.8307 32.9138L21.9014 32.9246L21.9996 32.9354C22.0525 32.9354 22.107 32.93 22.1609 32.9246C22.4501 32.8654 22.68 32.6715 22.7911 32.4185L22.8003 32.4023C22.8273 32.3377 23.4914 30.8194 25.6048 30.8194H30.2545V32.6285C30.2545 32.7738 30.3381 32.9031 30.4692 32.9623C30.6008 33.0269 30.7541 33.0054 30.8647 32.9085L31.6044 32.2839L32.343 32.9085C32.4115 32.9677 32.4973 33 32.5836 33C32.636 33 32.6888 32.9892 32.739 32.9623C32.8701 32.9031 32.9538 32.7738 32.9538 32.6285V30.8194H35.8025C36.28 30.8194 36.6668 30.4317 36.6668 29.9579V11.8615C36.6668 11.3823 36.28 11 35.8025 11Z" fill="#31364C"/>
<path d="M25.667 24.6183C28.1057 24.7083 30.5444 24.7573 32.9836 24.7491C32.9895 24.234 32.9944 23.8333 33.0003 23.8333C30.5665 23.8906 28.1327 23.9396 25.6994 23.9969C25.6854 23.9969 25.6751 24.2504 25.667 24.6183Z" fill="#4DC1EB"/>
<path d="M33.8727 22.9126C33.8992 22.3508 33.8909 21.0882 33.9168 21.0827C30.5785 21.1939 27.239 21.2217 23.8989 21.1717C23.8782 21.1717 23.8488 22.1728 23.8335 22.7902C27.1789 22.8848 30.5261 22.9293 33.8727 22.9126Z" fill="#66CDEC"/>
<path d="M33.6364 23.0266C33.6298 23.1548 33.6205 23.2417 33.6068 23.2417C30.502 23.3333 27.3951 23.3562 24.2887 23.315C24.2876 23.315 24.2914 23.1502 24.298 22.9258C24.1676 22.9213 24.0373 22.9212 23.9069 22.9167L23.8335 24.6381C24.4569 24.6564 25.0808 24.661 25.7047 24.6747C25.7129 24.4687 25.7233 24.3268 25.7375 24.3268C28.2031 24.2947 30.6691 24.2672 33.1352 24.2352C33.1291 24.2352 33.1242 24.4595 33.1182 24.748C33.3603 24.748 33.6019 24.7525 33.8434 24.748L33.9168 23.0266C33.8237 23.0266 33.73 23.0266 33.6364 23.0266Z" fill="#66CDEC"/>
<path d="M25.7058 24.7507C25.6859 25.4229 25.6799 26.584 25.667 26.584C28.0935 26.5412 30.5199 26.5045 32.9464 26.4618C32.9771 26.4618 32.9906 25.5267 33.0003 24.8484C30.5685 24.8545 28.1371 24.8179 25.7058 24.7507Z" fill="#66CDEC"/>
<path d="M19.8396 19.2507C19.8211 19.5664 19.8065 19.8115 19.8116 19.8115C16.8914 19.6183 13.9622 19.5994 11.0386 19.7314C11.0179 20.2734 11.0011 21.0133 11 21.0133C14.0305 21.0369 17.0605 21.0604 20.0905 21.084L20.1667 19.2554C20.0575 19.2554 19.9488 19.2554 19.8396 19.2507Z" fill="#F9A70D"/>
<path d="M11.5779 19.3525C14.1191 19.3858 16.6607 19.4191 19.2023 19.4458C19.2296 18.6856 19.2667 17.6587 19.2418 17.652C16.5199 17.3653 13.7887 17.3386 11.0643 17.5787C10.9917 17.5853 11.0458 20.1593 11 20.166C11.1818 20.146 11.3635 20.1393 11.5453 20.126C11.5555 19.6925 11.5667 19.3525 11.5779 19.3525Z" fill="#F9A70D"/>
</svg>
