<svg width="30" height="28" viewBox="0 0 30 28" fill="none" xmlns="http://www.w3.org/2000/svg">
<path d="M16.8528 13.7955C19.8339 13.7955 22.2506 11.3788 22.2506 8.39774C22.2506 5.41665 19.8339 3 16.8528 3C13.8717 3 11.4551 5.41665 11.4551 8.39774C11.4551 11.3788 13.8717 13.7955 16.8528 13.7955Z" fill="#259ACB"/>
<path d="M7.33866 13.8014C9.53313 13.8014 11.3121 12.0224 11.3121 9.82792C11.3121 7.63346 9.53313 5.85449 7.33866 5.85449C5.1442 5.85449 3.36523 7.63346 3.36523 9.82792C3.36523 12.0224 5.1442 13.8014 7.33866 13.8014Z" fill="#259ACB"/>
<path d="M24.6484 18.6723C23.2712 16.2254 20.3 14.5195 16.8533 14.5195C13.4556 14.5195 10.5263 16.1694 9.12112 18.5534C8.56183 19.5042 8.24023 20.5739 8.24023 21.6994C8.24023 22.1888 8.63874 22.5803 9.12112 22.5803H24.5855H24.6484C25.1029 22.5454 25.4664 22.1748 25.4664 21.7134C25.4664 20.6228 25.1658 19.5951 24.6484 18.6723Z" fill="#259ACB"/>
<path d="M13.0786 17.3909C12.0647 15.5897 9.87751 14.334 7.34034 14.334C4.8392 14.334 2.68287 15.5485 1.64845 17.3034C1.23674 18.0034 1 18.7907 1 19.6193C1 19.9796 1.29335 20.2678 1.64845 20.2678H13.0322H13.0786C13.4131 20.242 13.6807 19.9693 13.6807 19.6296C13.6807 18.8268 13.4594 18.0703 13.0786 17.3909Z" fill="#259ACB"/>
<path d="M18.2834 15.8626L18.283 15.8631C17.2907 16.8837 16.6816 18.2865 16.6816 19.8151C16.6816 20.8739 16.9772 21.8804 17.5017 22.7345C17.7885 23.2197 18.1569 23.6585 18.5798 24.0269C19.573 24.9307 20.8926 25.4818 22.3483 25.4818C24.4141 25.4818 26.214 24.378 27.1935 22.7368C27.4913 22.2529 27.7168 21.7041 27.8462 21.1388C27.9593 20.7081 28.015 20.2661 28.015 19.8151C28.015 18.3689 27.4624 17.0383 26.5604 16.0354C25.5328 14.8679 24.0137 14.1484 22.3483 14.1484C20.763 14.1484 19.3171 14.8006 18.2834 15.8626Z" fill="#EAF7FC" stroke="#259ACB" stroke-width="2" stroke-miterlimit="10" stroke-linecap="round" stroke-linejoin="round"/>
<path d="M24.086 19.792H20.6094" stroke="#259ACB" stroke-width="2" stroke-miterlimit="10" stroke-linecap="round" stroke-linejoin="round"/>
<path d="M22.3477 18.0879V21.5762" stroke="#259ACB" stroke-width="2" stroke-miterlimit="10" stroke-linecap="round" stroke-linejoin="round"/>
</svg>
