<svg width="32" height="32" viewBox="0 0 32 32" fill="none" xmlns="http://www.w3.org/2000/svg">
<path d="M16.0002 16.0001C19.6821 16.0001 22.6668 13.0153 22.6668 9.33341C22.6668 5.65152 19.6821 2.66675 16.0002 2.66675C12.3183 2.66675 9.3335 5.65152 9.3335 9.33341C9.3335 13.0153 12.3183 16.0001 16.0002 16.0001Z" stroke="#3E3D4B" stroke-width="2" stroke-linecap="round" stroke-linejoin="round"/>
<path d="M4.54688 29.3333C4.54688 24.1733 9.6802 20 16.0002 20C17.2802 20 18.5202 20.1733 19.6802 20.4933" stroke="#3E3D4B" stroke-width="2" stroke-linecap="round" stroke-linejoin="round"/>
<path d="M29.3332 24.0001C29.3332 24.4267 29.2798 24.8401 29.1732 25.2401C29.0532 25.7734 28.8399 26.2934 28.5599 26.7467C27.6399 28.2934 25.9465 29.3334 23.9998 29.3334C22.6265 29.3334 21.3865 28.8134 20.4532 27.96C20.0532 27.6134 19.7065 27.2001 19.4398 26.7467C18.9465 25.9467 18.6665 25.0001 18.6665 24.0001C18.6665 22.5601 19.2398 21.2401 20.1732 20.2801C21.1465 19.2801 22.5065 18.6667 23.9998 18.6667C25.5732 18.6667 26.9998 19.3468 27.9598 20.4401C28.8132 21.3868 29.3332 22.6401 29.3332 24.0001Z" stroke="#3E3D4B" stroke-width="2" stroke-miterlimit="10" stroke-linecap="round" stroke-linejoin="round"/>
<path d="M25.9865 23.9731H22.0132" stroke="#3E3D4B" stoke-width="2" stroke-miterlimit="10" stroke-linecap="round" stroke-linejoin="round"/>
<path d="M24 22.0266V26.0133" stroke="#3E3D4B" stoke-width="2" stroke-miterlimit="10" stroke-linecap="round" stroke-linejoin="round"/>
</svg>
