<svg width="20" height="21" viewBox="0 0 20 21" fill="none" xmlns="http://www.w3.org/2000/svg" class="w-5 h-5"><path d="M12.9833 10.3998C12.9833 12.0498 11.65 13.3832 10 13.3832C8.35 13.3832 7.01666 12.0498 7.01666 10.3998C7.01666 8.74984 8.35 7.4165 10 7.4165C11.65 7.4165 12.9833 8.74984 12.9833 10.3998Z" stroke="currentColor" stoke-width="2" stroke-linecap="round" stroke-linejoin="round"></path><path d="M10 17.2917C12.9417 17.2917 15.6833 15.5583 17.5917 12.5583C18.3417 11.3833 18.3417 9.40833 17.5917 8.23333C15.6833 5.23333 12.9417 3.5 10 3.5C7.05834 3.5 4.31667 5.23333 2.40834 8.23333C1.65834 9.40833 1.65834 11.3833 2.40834 12.5583C4.31667 15.5583 7.05834 17.2917 10 17.2917Z" stroke="currentColor" stoke-width="2" stroke-linecap="round" stroke-linejoin="round"></path></svg>