<svg width="28" height="28" viewBox="0 0 28 28" fill="none" xmlns="http://www.w3.org/2000/svg">
<path d="M16.8528 14.7955C19.8339 14.7955 22.2506 12.3788 22.2506 9.39774C22.2506 6.41665 19.8339 4 16.8528 4C13.8717 4 11.4551 6.41665 11.4551 9.39774C11.4551 12.3788 13.8717 14.7955 16.8528 14.7955Z" fill="#259ACB"/>
<path d="M7.33866 14.8014C9.53313 14.8014 11.3121 13.0224 11.3121 10.8279C11.3121 8.63346 9.53313 6.85449 7.33866 6.85449C5.1442 6.85449 3.36523 8.63346 3.36523 10.8279C3.36523 13.0224 5.1442 14.8014 7.33866 14.8014Z" fill="#259ACB"/>
<path d="M24.6484 19.6723C23.2712 17.2254 20.3 15.5195 16.8533 15.5195C13.4556 15.5195 10.5263 17.1694 9.12112 19.5534C8.56183 20.5042 8.24023 21.5739 8.24023 22.6994C8.24023 23.1888 8.63874 23.5803 9.12112 23.5803H24.5855H24.6484C25.1029 23.5454 25.4664 23.1748 25.4664 22.7134C25.4664 21.6228 25.1658 20.5951 24.6484 19.6723Z" fill="#259ACB"/>
<path d="M13.0786 18.3919C12.0647 16.5907 9.87751 15.335 7.34034 15.335C4.8392 15.335 2.68287 16.5495 1.64845 18.3044C1.23674 19.0043 1 19.7917 1 20.6203C1 20.9805 1.29335 21.2687 1.64845 21.2687H13.0322H13.0786C13.4131 21.243 13.6807 20.9702 13.6807 20.6306C13.6807 19.8278 13.4594 19.0712 13.0786 18.3919Z" fill="#259ACB"/>
<path d="M14.4155 20.3613C14.4155 22.1112 17.7898 24.2987 20.6017 24.2987C23.4136 24.2987 26.7879 22.1112 26.7879 20.3613C26.7879 18.6113 23.4136 16.4238 20.6017 16.4238C17.7898 16.4238 14.4155 18.6113 14.4155 20.3613Z" fill="#EAF7FC" stroke="#259ACB" stroke-width="2"/>
<path d="M20.6014 18.2031C20.0292 18.2031 19.4804 18.4304 19.0758 18.8351C18.6712 19.2397 18.4438 19.7884 18.4438 20.3607C18.4438 20.9329 18.6712 21.4817 19.0758 21.8863C19.4804 22.2909 20.0292 22.5182 20.6014 22.5182C21.1736 22.5182 21.7224 22.2909 22.127 21.8863C22.5316 21.4817 22.7589 20.9329 22.7589 20.3607C22.7589 19.7884 22.5316 19.2397 22.127 18.8351C21.7224 18.4304 21.1736 18.2031 20.6014 18.2031Z" fill="#259ACB"/>
</svg>
