<svg width="113" height="81" viewBox="0 0 113 81" fill="none" xmlns="http://www.w3.org/2000/svg">
<g clip-path="url(#clip0_691_60285)">
<rect width="52.1951" height="53.9447" rx="2.68074" transform="matrix(-0.992205 0.12462 0.12462 0.992205 56.2422 20.9717)" fill="#EBD2FC"/>
<circle cx="25.7236" cy="58.6259" r="11.9637" transform="rotate(-7.1588 25.7236 58.6259)" fill="#2E0800"/>
<mask id="mask0_691_60285" style="mask-type:alpha" maskUnits="userSpaceOnUse" x="23" y="38" width="21" height="26">
<rect x="23.5352" y="42.0208" width="14.8489" height="22.0018" transform="rotate(-14.5443 23.5352 42.0208)" fill="#FFC5A4"/>
</mask>
<g mask="url(#mask0_691_60285)">
<rect x="23.5352" y="42.0208" width="14.8489" height="22.0018" transform="rotate(-14.5443 23.5352 42.0208)" fill="#FFC5A4"/>
<ellipse cx="37.5258" cy="47.0936" rx="10.3499" ry="11.7941" transform="rotate(-14.5053 37.5258 47.0936)" fill="#890000"/>
</g>
<mask id="mask1_691_60285" style="mask-type:alpha" maskUnits="userSpaceOnUse" x="20" y="32" width="25" height="25">
<path d="M22.4415 47.242C19.5576 42.6181 20.9682 36.5318 25.5921 33.6479C30.207 30.7696 36.2806 32.1684 39.1717 36.7752L43.8155 44.1751C46.1912 47.9606 44.7337 52.971 40.6982 54.8916L39.4276 55.4962C34.227 57.9713 27.9971 56.1496 24.9491 51.2627L22.4415 47.242Z" fill="#FFC5A4"/>
</mask>
<g mask="url(#mask1_691_60285)">
<path d="M22.7667 46.4415C19.8828 41.8175 21.2934 35.7312 25.9173 32.8473C30.5322 29.9691 36.6058 31.3679 39.4969 35.9747L44.1407 43.3745C46.5164 47.16 45.0589 52.1705 41.0234 54.091L39.7528 54.6957C34.5522 57.1707 28.3223 55.3491 25.2743 50.4621L22.7667 46.4415Z" fill="#FFC5A4"/>
<g filter="url(#filter0_f_691_60285)">
<circle cx="0.959823" cy="0.959823" r="0.959823" transform="matrix(-0.936895 0.34961 0.34961 0.936895 36.666 45.0979)" fill="#CA4848"/>
</g>
<g filter="url(#filter1_f_691_60285)">
<circle cx="0.959823" cy="0.959823" r="0.959823" transform="matrix(-0.9517 0.30703 0.30703 0.9517 43.0654 42.7229)" fill="#CA4848"/>
</g>
<circle cx="36.2174" cy="22.8195" r="13.479" transform="rotate(-14.5053 36.2174 22.8195)" fill="#2E0800"/>
<circle cx="22.9902" cy="39.4157" r="10.1046" transform="rotate(-14.5053 22.9902 39.4157)" fill="#2E0800"/>
<circle cx="24.3499" cy="52.0058" r="3.61044" transform="rotate(-14.5053 24.3499 52.0058)" fill="#CA4848"/>
<path d="M33.494 42.542C33.414 41.4528 34.7717 40.6173 35.5917 41.231" stroke="#510E00" stroke-width="0.550082" stroke-linecap="round"/>
<path d="M38.0349 40.1011C38.0157 39.1922 38.9588 38.8676 39.5455 39.213" stroke="#510E00" stroke-width="0.550082" stroke-linecap="round"/>
<path d="M38.5469 43.6826C40.2033 43.6091 41.4268 45.1752 40.3915 45.6998" stroke="#510E00" stroke-width="0.550082" stroke-linecap="round"/>
</g>
<circle cx="24.4788" cy="50.4692" r="3.61044" transform="rotate(-14.5053 24.4788 50.4692)" fill="#FFC5A4"/>
<path d="M26.3043 50.9746C26.4489 51.0147 26.6004 50.93 26.6221 50.7816C26.6547 50.558 26.6523 50.33 26.6143 50.1061C26.5611 49.7927 26.4396 49.4948 26.2583 49.2336C26.0771 48.9724 25.8406 48.7543 25.5656 48.5947C25.2906 48.4352 24.9839 48.3381 24.6672 48.3105C24.3504 48.2828 24.0315 48.3251 23.733 48.4346C23.4345 48.544 23.1638 48.7177 22.94 48.9435C22.7162 49.1693 22.5448 49.4416 22.4381 49.7411C22.3618 49.955 22.3198 50.1791 22.3132 50.405C22.3088 50.5549 22.4433 50.6646 22.5926 50.6502C22.7419 50.6358 22.8489 50.5025 22.8596 50.3529C22.87 50.2068 22.9002 50.0623 22.9497 49.9235C23.0297 49.6991 23.1581 49.4951 23.3258 49.3259C23.4935 49.1568 23.6963 49.0266 23.92 48.9446C24.1436 48.8626 24.3826 48.8309 24.6199 48.8516C24.8572 48.8723 25.087 48.9451 25.293 49.0646C25.499 49.1841 25.6762 49.3475 25.812 49.5432C25.9478 49.7389 26.0389 49.9621 26.0787 50.197C26.1034 50.3422 26.1081 50.4898 26.093 50.6355C26.0775 50.7847 26.1598 50.9346 26.3043 50.9746Z" fill="#CA4848"/>
<circle cx="35.8775" cy="43.4608" r="0.722087" transform="rotate(-35.2486 35.8775 43.4608)" fill="#510E00"/>
<circle cx="40.1483" cy="41.1532" r="0.722087" transform="rotate(-32.7344 40.1483 41.1532)" fill="#510E00"/>
<path d="M18.2305 74.0625C18.6246 68.3558 22.7986 63.6234 28.4114 62.5198L41.9467 59.8584C48.2897 58.6111 54.5528 62.3463 56.4702 68.5198L61.3559 84.2502C63.4295 90.9264 59.6954 98.019 53.0177 100.088L33.2719 106.206C24.7795 108.837 16.2933 102.119 16.9058 93.2492L18.2305 74.0625Z" fill="#9F1EBA"/>
<rect width="17.3393" height="5.21286" rx="1.10016" transform="matrix(-0.978443 0.206519 0.206519 0.978443 43.7529 56.3601)" fill="#9F1EBA"/>
<path d="M41.3994 47.823C41.391 48.1376 41.3208 48.4474 41.1926 48.7348C41.0645 49.0222 40.881 49.2815 40.6527 49.498C40.4243 49.7145 40.1556 49.8839 39.8618 49.9965C39.568 50.1091 39.2549 50.1628 38.9403 50.1544C38.6258 50.146 38.316 50.0757 38.0286 49.9476C37.7412 49.8195 37.4818 49.636 37.2653 49.4077C37.0489 49.1793 36.8795 48.9106 36.7668 48.6167C36.6542 48.3229 36.6006 48.0098 36.609 47.6953L39.0042 47.7592L41.3994 47.823Z" fill="#510E00"/>
</g>
<g clip-path="url(#clip1_691_60285)">
<rect width="52.1951" height="53.9447" rx="4.40064" transform="matrix(-0.994472 -0.105 -0.105 0.994472 108.149 6.43921)" fill="#CEF0FF"/>
<mask id="mask2_691_60285" style="mask-type:alpha" maskUnits="userSpaceOnUse" x="69" y="15" width="19" height="24">
<rect width="14.8489" height="22.0018" transform="matrix(-0.993836 0.110858 0.110858 0.993836 84.6914 15.4734)" fill="#FFC5A4"/>
</mask>
<g mask="url(#mask2_691_60285)">
<rect width="14.8489" height="22.0018" transform="matrix(-0.993836 0.110858 0.110858 0.993836 84.6914 15.4734)" fill="#FFC5A4"/>
<ellipse cx="10.3499" cy="11.7941" rx="10.3499" ry="11.7941" transform="matrix(-0.99376 0.111536 0.111536 0.99376 82.4043 12.3301)" fill="#890000"/>
</g>
<mask id="mask3_691_60285" style="mask-type:alpha" maskUnits="userSpaceOnUse" x="66" y="8" width="22" height="26">
<path d="M87.5779 19.96C88.6216 14.6113 85.1318 9.42925 79.7832 8.38548C74.445 7.34377 69.2705 10.818 68.2139 16.1533L66.5168 24.7232C65.6486 29.1072 68.7983 33.2675 73.2534 33.6214L74.6561 33.7328C80.3976 34.1889 85.5671 30.2638 86.6703 24.6109L87.5779 19.96Z" fill="#FFC5A4"/>
</mask>
<g mask="url(#mask3_691_60285)">
<path d="M87.5779 19.96C88.6216 14.6113 85.1318 9.42925 79.7832 8.38548C74.445 7.34377 69.2705 10.818 68.2139 16.1533L66.5168 24.7232C65.6486 29.1072 68.7983 33.2675 73.2534 33.6214L74.6561 33.7328C80.3976 34.1889 85.5671 30.2638 86.6703 24.6109L87.5779 19.96Z" fill="#FFC5A4"/>
<g filter="url(#filter2_f_691_60285)">
<circle cx="0.959823" cy="0.959823" r="0.959823" transform="matrix(-0.957039 0.289958 0.289958 0.957039 69.1455 23.7827)" fill="#CA4848"/>
</g>
<g filter="url(#filter3_f_691_60285)">
<circle cx="0.959823" cy="0.959823" r="0.959823" transform="matrix(-0.969135 0.246532 0.246532 0.969135 77.6143 24.5676)" fill="#CA4848"/>
</g>
<path d="M73.3926 27.2554C73.0563 28.4935 71.2289 28.2624 71.1093 27.26" stroke="#510E00" stroke-width="0.550082" stroke-linecap="round"/>
<circle cx="13.479" cy="13.479" r="13.479" transform="matrix(-0.99376 0.111536 0.111536 0.99376 88.4912 -12.0181)" fill="#2E0800"/>
<circle cx="10.1046" cy="10.1046" r="10.1046" transform="matrix(-0.99376 0.111536 0.111536 0.99376 100.795 5.90771)" fill="#2E0800"/>
<circle cx="3.61044" cy="3.61044" r="3.61044" transform="matrix(-0.99376 0.111536 0.111536 0.99376 90.6807 21.1003)" fill="#CA4848"/>
<path d="M75.5858 19.5152C75.2718 18.4692 73.7053 18.1732 73.1584 19.0392" stroke="#510E00" stroke-width="0.550082" stroke-linecap="round"/>
<path d="M70.4741 18.8551C70.1676 17.9992 69.1708 18.0326 68.7461 18.5646" stroke="#510E00" stroke-width="0.550082" stroke-linecap="round"/>
<path d="M71.2725 22.3842C69.6989 22.9067 69.115 24.8063 70.2693 24.9269" stroke="#510E00" stroke-width="0.550082" stroke-linecap="round"/>
</g>
<circle cx="3.61044" cy="3.61044" r="3.61044" transform="matrix(-0.99376 0.111536 0.111536 0.99376 90.0098 19.7104)" fill="#FFC5A4"/>
<path d="M85.3004 24.825C85.1796 24.914 85.0079 24.8889 84.9347 24.758C84.8244 24.5608 84.7453 24.347 84.7009 24.1242C84.6387 23.8124 84.6459 23.4908 84.722 23.1821C84.7981 22.8734 84.9412 22.5853 85.1411 22.3381C85.341 22.0909 85.5929 21.8908 85.8789 21.7519C86.1649 21.613 86.4779 21.5388 86.7958 21.5345C87.1137 21.5301 87.4287 21.5958 87.7183 21.7269C88.008 21.858 88.2652 22.0512 88.4718 22.2928C88.6194 22.4654 88.7386 22.6598 88.8254 22.8685C88.883 23.0069 88.7965 23.1574 88.6519 23.1972C88.5073 23.2371 88.3598 23.1507 88.2964 23.0148C88.2345 22.882 88.1547 22.7578 88.0589 22.6458C87.9041 22.4648 87.7114 22.32 87.4944 22.2218C87.2774 22.1236 87.0414 22.0744 86.8032 22.0776C86.565 22.0809 86.3305 22.1365 86.1162 22.2405C85.902 22.3446 85.7132 22.4946 85.5634 22.6797C85.4136 22.8649 85.3064 23.0808 85.2494 23.3121C85.1924 23.5434 85.187 23.7844 85.2336 24.018C85.2624 24.1625 85.3107 24.302 85.3768 24.4327C85.4445 24.5666 85.4211 24.7359 85.3004 24.825Z" fill="#CA4848"/>
<circle cx="0.722087" cy="0.722087" r="0.722087" transform="matrix(-0.974692 -0.223552 -0.223552 0.974692 74.3838 21.7791)" fill="#510E00"/>
<circle cx="0.722087" cy="0.722087" r="0.722087" transform="matrix(-0.98356 -0.18058 -0.18058 0.98356 69.5322 21.231)" fill="#510E00"/>
<path d="M101.08 43.5134C98.6754 38.3232 93.0873 35.3921 87.4503 36.3642L73.8565 38.7086C67.486 39.8073 62.9684 45.5317 63.3805 51.983L64.4305 68.4211C64.8762 75.3977 70.8956 80.6906 77.872 80.2401L98.5008 78.9081C107.373 78.3352 112.903 69.0308 109.165 60.9638L101.08 43.5134Z" fill="#29ABE2"/>
<ellipse cx="68.164" cy="21.3298" rx="2.39478" ry="2.96171" transform="rotate(-7.19724 68.164 21.3298)" stroke="black" stroke-width="0.550082" stroke-linecap="round"/>
<ellipse cx="74.0675" cy="22.8151" rx="2.4861" ry="3.07465" transform="rotate(-7.19724 74.0675 22.8151)" stroke="black" stroke-width="0.550082" stroke-linecap="round"/>
<rect x="70.9209" y="36.0835" width="17.3393" height="5.21286" rx="1.10016" transform="rotate(-8.99071 70.9209 36.0835)" fill="#29ABE2"/>
</g>
<rect x="98.3115" y="16.8909" width="14.1335" height="14.1335" rx="7.06674" fill="#22B573"/>
<path d="M105.801 20.3822C105.801 20.2148 105.734 20.0544 105.616 19.936C105.498 19.8177 105.337 19.7512 105.17 19.7512C105.003 19.7512 104.842 19.8177 104.724 19.936C104.605 20.0544 104.539 20.2148 104.539 20.3822V23.1163H101.805C101.637 23.1163 101.477 23.1828 101.359 23.3011C101.24 23.4195 101.174 23.58 101.174 23.7473C101.174 23.9146 101.24 24.0751 101.359 24.1935C101.477 24.3118 101.637 24.3783 101.805 24.3783H104.539V27.1124C104.539 27.2798 104.605 27.4402 104.724 27.5586C104.842 27.6769 105.003 27.7434 105.17 27.7434C105.337 27.7434 105.498 27.6769 105.616 27.5586C105.734 27.4402 105.801 27.2798 105.801 27.1124V24.3783H108.535C108.702 24.3783 108.863 24.3118 108.981 24.1935C109.1 24.0751 109.166 23.9146 109.166 23.7473C109.166 23.58 109.1 23.4195 108.981 23.3011C108.863 23.1828 108.702 23.1163 108.535 23.1163H105.801V20.3822Z" fill="white"/>
<rect x="0.554688" y="46.3362" width="15.3113" height="15.3113" rx="7.65566" fill="#22B573"/>
<path d="M8.66693 50.1184C8.66693 49.9371 8.59492 49.7632 8.46673 49.635C8.33854 49.5068 8.16468 49.4348 7.98339 49.4348C7.80211 49.4348 7.62824 49.5068 7.50006 49.635C7.37187 49.7632 7.29985 49.9371 7.29985 50.1184L7.29985 53.0804L4.33784 53.0804C4.15655 53.0804 3.98269 53.1524 3.8545 53.2806C3.72631 53.4088 3.6543 53.5826 3.6543 53.7639C3.6543 53.9452 3.72631 54.1191 3.8545 54.2472C3.98269 54.3754 4.15655 54.4475 4.33784 54.4475L7.29985 54.4475L7.29985 57.4095C7.29985 57.5908 7.37187 57.7646 7.50006 57.8928C7.62824 58.021 7.80211 58.093 7.98339 58.093C8.16468 58.093 8.33854 58.021 8.46673 57.8928C8.59492 57.7646 8.66693 57.5908 8.66693 57.4095L8.66693 54.4475L11.6289 54.4475C11.8102 54.4475 11.9841 54.3754 12.1123 54.2472C12.2405 54.1191 12.3125 53.9452 12.3125 53.7639C12.3125 53.5826 12.2405 53.4088 12.1123 53.2806C11.9841 53.1524 11.8102 53.0804 11.6289 53.0804L8.66693 53.0804L8.66693 50.1184Z" fill="white"/>
<defs>
<filter id="filter0_f_691_60285" x="32.6078" y="42.8378" width="6.98949" height="6.98974" filterUnits="userSpaceOnUse" color-interpolation-filters="sRGB">
<feFlood flood-opacity="0" result="BackgroundImageFix"/>
<feBlend mode="normal" in="SourceGraphic" in2="BackgroundImageFix" result="shape"/>
<feGaussianBlur stdDeviation="1.26739" result="effect1_foregroundBlur_691_60285"/>
</filter>
<filter id="filter1_f_691_60285" x="38.9515" y="40.4362" width="6.99047" height="6.98974" filterUnits="userSpaceOnUse" color-interpolation-filters="sRGB">
<feFlood flood-opacity="0" result="BackgroundImageFix"/>
<feBlend mode="normal" in="SourceGraphic" in2="BackgroundImageFix" result="shape"/>
<feGaussianBlur stdDeviation="1.26739" result="effect1_foregroundBlur_691_60285"/>
</filter>
<filter id="filter2_f_691_60285" x="65.0101" y="21.4847" width="6.98949" height="6.98974" filterUnits="userSpaceOnUse" color-interpolation-filters="sRGB">
<feFlood flood-opacity="0" result="BackgroundImageFix"/>
<feBlend mode="normal" in="SourceGraphic" in2="BackgroundImageFix" result="shape"/>
<feGaussianBlur stdDeviation="1.26739" result="effect1_foregroundBlur_691_60285"/>
</filter>
<filter id="filter3_f_691_60285" x="73.4262" y="22.2396" width="6.98949" height="6.98974" filterUnits="userSpaceOnUse" color-interpolation-filters="sRGB">
<feFlood flood-opacity="0" result="BackgroundImageFix"/>
<feBlend mode="normal" in="SourceGraphic" in2="BackgroundImageFix" result="shape"/>
<feGaussianBlur stdDeviation="1.26739" result="effect1_foregroundBlur_691_60285"/>
</filter>
<clipPath id="clip0_691_60285">
<rect width="52.1951" height="53.9447" rx="2.68074" transform="matrix(-0.992205 0.12462 0.12462 0.992205 56.2422 20.9717)" fill="white"/>
</clipPath>
<clipPath id="clip1_691_60285">
<rect x="56.2422" y="0.958984" width="52.1951" height="53.9447" rx="4.40064" transform="rotate(6.02717 56.2422 0.958984)" fill="white"/>
</clipPath>
</defs>
</svg>
