<svg width="143" height="100" viewBox="0 0 143 100" fill="none" xmlns="http://www.w3.org/2000/svg">
<circle opacity="0.3" cx="77.4791" cy="85.1744" r="40.6295" fill="#29ABE2"/>
<circle opacity="0.3" cx="77.4796" cy="85.1749" r="45.6642" stroke="#29ABE2" stroke-width="0.79"/>
<path opacity="0.2" d="M128.16 85.1745C128.16 113.164 105.469 135.855 77.4792 135.855C49.4892 135.855 26.7988 113.164 26.7988 85.1745C26.7988 57.1845 49.4892 34.4941 77.4792 34.4941C105.469 34.4941 128.16 57.1845 128.16 85.1745Z" stroke="#29ABE2" stroke-width="0.79"/>
<path d="M67.0999 41.8925L75.1893 77.8337L48.2334 83.9007C47.0419 84.1689 45.7926 83.9528 44.7605 83.2999C43.7283 82.647 42.9978 81.6108 42.7296 80.4192L36.6625 53.4634C36.3944 52.2718 36.6105 51.0226 37.2634 49.9904C37.9163 48.9582 38.9525 48.2277 40.144 47.9595L67.0999 41.8925Z" fill="#2C1300" stroke="#2C1300" stroke-width="2.33501" stroke-linecap="round" stroke-linejoin="round"/>
<path d="M73.1663 68.8495L75.1888 77.8344L48.2329 83.9015C47.0413 84.1696 45.7921 83.9535 44.7599 83.3006C43.7277 82.6477 42.9972 81.6115 42.729 80.42C42.4609 79.2285 42.6769 77.9796 43.3298 76.9474C43.9827 75.9153 45.0189 75.1847 46.2104 74.9166L73.1663 68.8495Z" fill="#FFF6E6" stroke="#2C1300" stroke-width="2.33501" stroke-linecap="round" stroke-linejoin="round"/>
<path d="M73.1663 68.8495L46.2104 74.9166C45.0189 75.1847 43.9827 75.9153 43.3298 76.9474C42.6769 77.9796 42.4608 79.2289 42.7289 80.4204" stroke="#2C1300" stroke-width="2.33501" stroke-linecap="round" stroke-linejoin="round"/>
<path d="M52.8921 52.1724L55.9256 65.6504M49.4106 57.6762L58.3959 55.6539" stroke="#FFF6E6" stroke-width="2.33501" stroke-linecap="round" stroke-linejoin="round"/>
<path d="M94.5417 40.5313L101.114 46.36L99.7399 49.5419L96.2686 52.5392L90.5865 54.0313L86.1228 53.8253L80.4675 50.9332L76.8501 45.6792L79.7927 42.7451L84.6516 40.075L89.4184 39.4178L94.5417 40.5313Z" fill="white"/>
<mask id="mask0_3884_57951" style="mask-type:alpha" maskUnits="userSpaceOnUse" x="75" y="38" width="28" height="17">
<path d="M100.258 47.0688C98.8847 44.7044 97.1105 42.9016 94.9349 41.6604C95.4817 42.6997 95.728 43.808 95.6737 44.9852C95.5906 46.7852 94.8799 48.2954 93.5414 49.5158C92.2029 50.7363 90.6337 51.305 88.8337 51.2219C87.0337 51.1389 85.5235 50.4281 84.3031 49.0896C83.0827 47.7512 82.514 46.1819 82.597 44.382C82.6513 43.2047 82.9986 42.1238 83.6388 41.1393C81.3582 42.1748 79.4255 43.8066 77.8406 46.0346C79.0426 48.0889 80.5918 49.7521 82.488 51.0242C84.3843 52.2964 86.4708 52.985 88.7475 53.09C91.0243 53.195 93.1653 52.7015 95.1706 51.6093C97.176 50.5172 98.8716 49.0037 100.258 47.0688ZM90.0082 40.9797C90.0172 40.7851 89.9567 40.6166 89.8268 40.4741C89.6969 40.3316 89.5346 40.2559 89.34 40.2469C88.1238 40.1908 87.0602 40.578 86.1493 41.4087C85.2383 42.2393 84.7547 43.2627 84.6986 44.4789C84.6897 44.6735 84.7501 44.842 84.8801 44.9845C85.01 45.127 85.1723 45.2028 85.3668 45.2118C85.5614 45.2207 85.73 45.1603 85.8725 45.0303C86.015 44.9004 86.0907 44.7381 86.0997 44.5435C86.1383 43.7068 86.468 43.0054 87.0889 42.4392C87.7098 41.8731 88.4386 41.6093 89.2754 41.6479C89.47 41.6569 89.6385 41.5964 89.781 41.4665C89.9235 41.3366 89.9993 41.1743 90.0082 40.9797ZM102.126 47.155C102.111 47.4858 101.998 47.817 101.787 48.1485C100.322 50.3235 98.4078 52.0317 96.0445 53.2731C93.6813 54.5145 91.2202 55.0762 88.6613 54.9581C86.1024 54.84 83.7037 54.0517 81.465 52.5932C79.2263 51.1346 77.4773 49.2598 76.218 46.9689C76.0391 46.6194 75.9573 46.2792 75.9725 45.9484C75.9878 45.6176 76.1006 45.2864 76.3109 44.9549C77.7758 42.7896 79.69 41.0839 82.0535 39.8376C84.4169 38.5913 86.8781 38.0272 89.437 38.1453C91.9959 38.2633 94.3947 39.0516 96.6333 40.5102C98.872 41.9688 100.621 43.8436 101.88 46.1345C102.059 46.484 102.141 46.8242 102.126 47.155Z" fill="#0E8F55"/>
</mask>
<g mask="url(#mask0_3884_57951)">
<path d="M100.258 47.0688C98.8847 44.7044 97.1105 42.9016 94.9349 41.6604C95.4817 42.6997 95.728 43.808 95.6737 44.9852C95.5906 46.7852 94.8799 48.2954 93.5414 49.5158C92.2029 50.7363 90.6337 51.305 88.8337 51.2219C87.0337 51.1389 85.5235 50.4281 84.3031 49.0896C83.0827 47.7512 82.514 46.1819 82.597 44.382C82.6513 43.2047 82.9986 42.1238 83.6388 41.1393C81.3582 42.1748 79.4255 43.8066 77.8406 46.0346C79.0426 48.0889 80.5918 49.7521 82.488 51.0242C84.3843 52.2964 86.4708 52.985 88.7475 53.09C91.0243 53.195 93.1653 52.7015 95.1706 51.6093C97.176 50.5172 98.8716 49.0037 100.258 47.0688ZM90.0082 40.9797C90.0172 40.7851 89.9567 40.6166 89.8268 40.4741C89.6969 40.3316 89.5346 40.2559 89.34 40.2469C88.1238 40.1908 87.0602 40.578 86.1493 41.4087C85.2383 42.2393 84.7547 43.2627 84.6986 44.4789C84.6897 44.6735 84.7501 44.842 84.8801 44.9845C85.01 45.127 85.1723 45.2028 85.3668 45.2118C85.5614 45.2207 85.73 45.1603 85.8725 45.0303C86.015 44.9004 86.0907 44.7381 86.0997 44.5435C86.1383 43.7068 86.468 43.0054 87.0889 42.4392C87.7098 41.8731 88.4386 41.6093 89.2754 41.6479C89.47 41.6569 89.6385 41.5964 89.781 41.4665C89.9235 41.3366 89.9993 41.1743 90.0082 40.9797ZM102.126 47.155C102.111 47.4858 101.998 47.817 101.787 48.1485C100.322 50.3235 98.4078 52.0317 96.0445 53.2731C93.6813 54.5145 91.2202 55.0762 88.6613 54.9581C86.1024 54.84 83.7037 54.0517 81.465 52.5932C79.2263 51.1346 77.4773 49.2598 76.218 46.9689C76.0391 46.6194 75.9573 46.2792 75.9725 45.9484C75.9878 45.6176 76.1006 45.2864 76.3109 44.9549C77.7758 42.7896 79.69 41.0839 82.0535 39.8376C84.4169 38.5913 86.8781 38.0272 89.437 38.1453C91.9959 38.2633 94.3947 39.0516 96.6333 40.5102C98.872 41.9688 100.621 43.8436 101.88 46.1345C102.059 46.484 102.141 46.8242 102.126 47.155Z" fill="#CA4848"/>
<path d="M101.298 46.9442C97.8257 41.336 94.7545 39.1323 89.28 38.8652C83.8055 38.5981 78.7981 42.6039 76.9287 45.5415" stroke="black" stroke-width="2.212" stroke-linecap="round"/>
<circle cx="89.049" cy="44.5265" r="8.1515" fill="black"/>
</g>
<circle cx="91.6773" cy="47.8378" r="1.45491" transform="rotate(2.64144 91.6773 47.8378)" fill="white"/>
<mask id="mask1_3884_57951" style="mask-type:alpha" maskUnits="userSpaceOnUse" x="82" y="60" width="27" height="29">
<path d="M82.5524 78.8662L87.4612 67.3486C89.8156 61.8246 96.2841 59.2913 101.808 61.6456C107.24 63.9607 109.848 70.2781 107.534 75.7082L107.193 76.5082C106.522 78.0824 105.519 79.4928 104.251 80.6425C102.984 81.7921 101.483 82.6538 99.851 83.1683C97.7952 83.8192 95.8689 84.8239 94.1587 86.1372L93.0435 86.9937C91.8412 87.9181 90.3665 88.418 88.8499 88.4153C87.3333 88.4125 85.8604 87.9072 84.6615 86.9784C83.4627 86.0496 82.6054 84.7497 82.2238 83.2819C81.8422 81.8142 81.9577 80.2613 82.5524 78.8662Z" fill="#FFC5A4"/>
</mask>
<g mask="url(#mask1_3884_57951)">
<path d="M82.5524 78.8662L87.4612 67.3486C89.8156 61.8246 96.2841 59.2913 101.808 61.6456C107.24 63.9607 109.848 70.2781 107.534 75.7082L107.193 76.5082C106.522 78.0824 105.519 79.4928 104.251 80.6425C102.984 81.7921 101.483 82.6538 99.851 83.1683C97.7952 83.8192 95.8689 84.8239 94.1587 86.1372L93.0435 86.9937C91.8412 87.9181 90.3665 88.418 88.8499 88.4153C87.3333 88.4125 85.8604 87.9072 84.6615 86.9784C83.4627 86.0496 82.6054 84.7497 82.2238 83.2819C81.8422 81.8142 81.9577 80.2613 82.5524 78.8662Z" fill="#FFC5A4"/>
<g opacity="0.4" filter="url(#filter0_f_3884_57951)">
<circle cx="105.324" cy="69.6477" r="12.1349" transform="rotate(23.0837 105.324 69.6477)" fill="#CA4848"/>
</g>
</g>
<path fill-rule="evenodd" clip-rule="evenodd" d="M95.4523 70.4204C95.7537 69.9057 96.2398 69.5251 96.8117 69.3557C97.3836 69.1863 97.9985 69.2409 98.5316 69.5084C99.0648 69.7759 99.4761 70.2362 99.6822 70.796C99.8882 71.3557 99.8736 71.9729 99.6411 72.5222L99.2646 73.4058C99.1171 73.7518 99.1131 74.1421 99.2535 74.491C99.3939 74.8399 99.6671 75.1188 100.013 75.2662C100.359 75.4137 100.749 75.4177 101.098 75.2773C101.447 75.1369 101.726 74.8637 101.874 74.5177L102.25 73.6342C102.764 72.4213 102.796 71.0586 102.341 69.8226C101.886 68.5866 100.978 67.57 99.8011 66.9794C98.6239 66.3887 97.2661 66.2682 96.0033 66.6424C94.7405 67.0165 93.6675 67.8573 93.0021 68.9939L90.84 72.7069C90.7324 72.8921 90.668 73.0993 90.6519 73.3129C90.6358 73.5265 90.6683 73.741 90.7469 73.9402C90.8255 74.1395 90.9483 74.3184 91.106 74.4634C91.2636 74.6084 91.4521 74.7158 91.6572 74.7775L93.2053 75.2441C93.4043 75.3039 93.5788 75.4264 93.7027 75.5932C93.8267 75.7601 93.8935 75.9624 93.8933 76.1703C93.8931 76.3781 93.8259 76.5804 93.7017 76.747C93.5774 76.9136 93.4027 77.0357 93.2035 77.0951L90.7378 77.8364C90.386 77.9514 90.093 78.1994 89.9216 78.5275C89.7501 78.8556 89.7138 79.2377 89.8203 79.5923C89.9268 79.9468 90.1677 80.2456 90.4916 80.4249C90.8155 80.6042 91.1966 80.6497 91.5536 80.5517L94.0193 79.8104C94.7873 79.5798 95.4627 79.1122 95.9489 78.4746C96.4352 77.837 96.7074 77.062 96.7267 76.2604C96.7459 75.4587 96.5113 74.6715 96.0562 74.0113C95.6012 73.351 94.949 72.8516 94.193 72.5843L95.4523 70.4204Z" fill="#CA4848"/>
<path d="M102.512 42.8487L104.297 41.4434" stroke="black" stroke-width="1.58" stroke-linecap="round"/>
<path d="M75.583 41.7617L73.9277 40.3301" stroke="black" stroke-width="1.58" stroke-linecap="round"/>
<path d="M90.5324 35.267L90.5327 33.0155" stroke="black" stroke-width="1.58" stroke-linecap="round"/>
<path d="M94.9233 36.7381L95.9594 34.461" stroke="black" stroke-width="1.58" stroke-linecap="round"/>
<path d="M99.1289 39.1255L100.444 37.2897" stroke="black" stroke-width="1.58" stroke-linecap="round"/>
<path d="M84.6253 36.1852L83.8901 33.7691" stroke="black" stroke-width="1.58" stroke-linecap="round"/>
<path d="M79.6228 38.0928L78.2321 35.9805" stroke="black" stroke-width="1.58" stroke-linecap="round"/>
<defs>
<filter id="filter0_f_3884_57951" x="61.4654" y="25.7886" width="87.7186" height="87.7186" filterUnits="userSpaceOnUse" color-interpolation-filters="sRGB">
<feFlood flood-opacity="0" result="BackgroundImageFix"/>
<feBlend mode="normal" in="SourceGraphic" in2="BackgroundImageFix" result="shape"/>
<feGaussianBlur stdDeviation="15.8606" result="effect1_foregroundBlur_3884_57951"/>
</filter>
</defs>
</svg>
