<svg width="133" height="100" viewBox="0 0 133 100" fill="none" xmlns="http://www.w3.org/2000/svg">
<path d="M84.633 71.3045C85.3283 70.2484 86.3491 68.7457 87.6472 67.0148C88.0205 66.5049 88.4237 65.9693 88.8454 65.4426C89.8089 66.1313 90.87 66.672 91.9934 67.0468C92.4963 67.1662 93.0191 67.1756 93.526 67.0743C94.0328 66.973 94.5118 66.7634 94.9302 66.4599C95.2657 66.1643 95.4705 65.7479 95.4999 65.3017C95.5293 64.8556 95.3809 64.4159 95.0872 64.0788L94.9651 63.9506C93.8642 63.015 91.3705 63.6495 90.2647 64.3054C90.1886 64.3319 89.4158 64.9418 89.0422 65.2501L89.8196 64.2741C90.2094 63.7895 90.6339 63.293 91.04 62.8105L91.7094 62.0814C91.9308 61.8261 92.1736 61.6098 92.416 61.3704C92.7614 61.0254 93.1486 60.6892 93.5195 60.3508C94.328 61.1332 95.2512 61.7877 96.2572 62.2916C96.7374 62.487 97.2544 62.576 97.7723 62.5525C98.2903 62.5291 98.797 62.3937 99.2577 62.1556C99.6382 61.9078 99.9048 61.5191 99.9989 61.0748C100.093 60.6306 100.007 60.1672 99.7599 59.7863L99.6844 59.6807C98.7506 58.5784 96.1685 58.8248 94.9749 59.3174C94.9749 59.3174 94.6987 59.46 94.4111 59.6142C94.7893 59.2966 95.1674 58.979 95.5642 58.6705C96.6857 57.7919 97.8607 56.9336 99.0309 56.0614C99.2718 55.8845 99.5104 55.7008 99.7583 55.5215C100.589 56.3243 101.535 56.9991 102.564 57.5239C103.043 57.7196 103.559 57.809 104.075 57.786C104.592 57.7629 105.098 57.6279 105.558 57.3904C105.746 57.2694 105.909 57.1124 106.036 56.9283C106.164 56.7443 106.254 56.5369 106.301 56.318C106.348 56.0991 106.351 55.8731 106.311 55.6529C106.27 55.4327 106.187 55.2226 106.065 55.0348L105.984 54.9154C105.057 53.8108 102.468 54.0596 101.282 54.5498C101.24 54.5642 100.953 54.7185 100.628 54.9011C101.238 54.4253 101.846 53.9425 102.446 53.439C103.48 52.5856 104.455 51.6637 105.364 50.6795C106.216 51.5214 107.192 52.2283 108.257 52.7758C108.736 52.9715 109.252 53.0609 109.768 53.0378C110.285 53.0148 110.791 52.8798 111.251 52.6422C111.439 52.5212 111.602 52.3642 111.729 52.1802C111.857 51.9962 111.947 51.7887 111.994 51.5698C112.041 51.351 112.044 51.1249 112.004 50.9047C111.963 50.6845 111.88 50.4745 111.758 50.2867L111.712 50.1552C110.778 49.053 108.196 49.2994 107.009 49.7896C106.919 49.8209 105.891 50.3878 105.526 50.6079L105.567 50.5935C106.442 49.6055 107.224 48.5392 107.903 47.4082C108.521 46.4058 109.08 45.3675 109.575 44.2988C110.009 43.3179 110.412 42.3791 110.735 41.5688C110.905 41.1218 111.055 40.7052 111.184 40.319C111.184 40.319 112.391 39.0618 112.453 38.9707C113.215 37.93 114.071 35.4843 113.231 34.3183C113.093 34.1367 112.92 33.9845 112.722 33.8708C112.524 33.757 112.306 33.6839 112.079 33.6557C111.853 33.6276 111.623 33.645 111.403 33.7068C111.183 33.7687 110.978 33.8738 110.8 34.016L110.669 34.1312C110.327 34.519 110.073 34.9769 109.925 35.4729C109.777 35.9689 109.74 36.4911 109.814 37.0032C110.074 38.1365 110.504 39.2238 111.091 40.2276C110.952 40.6324 110.789 41.0538 110.602 41.5219C110.268 42.3439 109.874 43.264 109.401 44.2662C109.267 44.5297 109.123 44.8049 108.976 45.0732C109.11 44.6603 109.223 44.2405 109.314 43.8156C109.508 42.546 109.149 39.9954 107.854 39.3287C107.654 39.2306 107.436 39.1732 107.213 39.1598C106.99 39.1464 106.766 39.1773 106.555 39.2506C106.344 39.324 106.15 39.4384 105.984 39.5872C105.817 39.7361 105.682 39.9164 105.585 40.1178C105.556 40.1732 105.532 40.2308 105.513 40.2902C105.388 40.7926 105.374 41.3161 105.472 41.8245C105.57 42.3329 105.777 42.8139 106.079 43.2342C106.838 44.1232 107.727 44.8913 108.717 45.5121C108.396 46.1046 108.051 46.6975 107.656 47.3002C106.961 48.4029 106.166 49.4398 105.282 50.3979C105.217 50.4378 105.162 50.4915 105.12 50.5552C105.232 50.3221 105.76 48.9833 105.788 48.888C106.132 47.6442 106.042 45.0462 104.832 44.2649C104.449 44.0296 103.988 43.956 103.55 44.0602C103.112 44.1644 102.734 44.4379 102.498 44.8208L102.402 44.9935C102.225 45.4842 102.158 46.0078 102.204 46.5274C102.251 47.0471 102.411 47.5502 102.673 48.0015C103.346 48.9961 104.176 49.8756 105.13 50.6061C104.224 51.5345 103.259 52.4036 102.242 53.2077C101.49 53.8104 100.705 54.3858 99.9132 54.9635C100.053 54.6513 100.544 53.4103 100.566 53.3173C100.909 52.0736 100.822 49.4824 99.617 48.6918C99.2301 48.4579 98.7664 48.3862 98.327 48.4926C97.8875 48.5989 97.5078 48.8745 97.2707 49.2595L97.187 49.4204C97.0084 49.9109 96.9399 50.4347 96.9867 50.9546C97.0334 51.4745 97.1942 51.9777 97.4575 52.4284C98.1263 53.4138 98.9414 54.2915 99.8747 55.0312L98.7936 55.8027C97.6044 56.6427 96.4153 57.4827 95.2634 58.3408C94.8642 58.6424 94.4837 58.9531 94.0938 59.2593C94.2939 58.7864 94.6303 57.925 94.6571 57.8459C95.0001 56.6021 94.8788 54.023 93.701 53.2228C93.3106 52.9896 92.8437 52.9203 92.4024 53.0302C91.9611 53.14 91.5812 53.4201 91.3457 53.8091L91.271 53.9514C91.0924 54.4418 91.024 54.9657 91.0707 55.4856C91.1174 56.0055 91.2782 56.5087 91.5415 56.9594C92.1832 57.913 92.9676 58.7623 93.8673 59.4776C93.2668 59.9811 92.6089 60.5201 92.0229 61.0651C91.7805 61.3045 91.5124 61.5373 91.2886 61.7857L90.6006 62.5058C90.1484 63.012 89.7306 63.483 89.3245 63.9654C89.1145 64.209 88.9252 64.4455 88.7198 64.6798C88.992 64.2361 89.409 63.5172 89.4406 63.452C89.9605 62.2708 90.2748 59.6954 89.1968 58.7363C89.0262 58.5924 88.8288 58.4836 88.6161 58.416C88.4033 58.3485 88.1794 58.3235 87.957 58.3425C87.7346 58.3615 87.5181 58.4241 87.3199 58.5268C87.1217 58.6295 86.9457 58.7702 86.8019 58.9409C86.7534 58.9577 86.7267 59.0369 86.6903 59.0883C86.4383 59.5409 86.2884 60.0432 86.251 60.5599C86.2137 61.0766 86.2898 61.5952 86.474 62.0794C86.9875 63.1469 87.6567 64.1321 88.4599 65.0028C87.974 65.5905 87.5065 66.1641 87.0826 66.707C85.7313 68.441 84.6732 69.9256 83.9178 70.987C83.1624 72.0485 82.795 72.6648 82.795 72.6648C82.7529 72.7206 82.7232 72.7848 82.7079 72.8531C82.6925 72.9213 82.692 72.9921 82.7063 73.0605C82.7205 73.129 82.7493 73.1937 82.7906 73.2501C82.8318 73.3066 82.8847 73.3536 82.9456 73.3879C83.0029 73.4261 83.0673 73.4524 83.135 73.4651C83.2027 73.4779 83.2722 73.4769 83.3395 73.4621C83.4067 73.4474 83.4703 73.4193 83.5265 73.3795C83.5827 73.3397 83.6302 73.289 83.6664 73.2304C83.8948 72.5455 84.2203 71.8969 84.633 71.3045Z" fill="#A4DCF2"/>
<path d="M108.973 45.2626C108.973 45.2626 111.21 46.4546 112.334 46.5212C112.848 46.5816 113.368 46.5305 113.86 46.3715C114.352 46.2124 114.804 45.9491 115.185 45.5996C115.489 45.2644 115.648 44.8223 115.626 44.3704C115.604 43.9184 115.404 43.4937 115.069 43.1895L114.928 43.0755C113.743 42.2545 111.311 43.1777 110.297 43.9645C110.205 44.0352 108.954 45.2536 108.973 45.2626Z" fill="#A4DCF2"/>
<path d="M85.267 72.1238C86.3972 71.5602 88.0318 70.7746 90.034 69.9311C90.6077 69.6851 91.2183 69.434 91.8522 69.1826C92.3406 70.2595 92.9858 71.2583 93.7667 72.1463C94.1395 72.5052 94.5865 72.778 95.0762 72.9454C95.5658 73.1128 96.0863 73.1707 96.6008 73.1151C96.8218 73.0711 97.0319 72.9839 97.2192 72.8586C97.4064 72.7332 97.5671 72.5722 97.6921 72.3847C97.817 72.1972 97.9038 71.9869 97.9474 71.7658C97.991 71.5447 97.9906 71.3172 97.9462 71.0963L97.886 70.9233C97.4049 69.5396 94.9312 68.8487 93.641 68.863C93.5718 68.8871 92.5909 68.9878 92.0961 69.059C92.4909 68.9292 92.8787 68.7788 93.2578 68.6085L96.0253 67.6462C96.3436 67.5356 96.6648 67.4781 96.9903 67.3882C97.4683 67.2686 97.9604 67.1672 98.4318 67.0731C98.7377 68.1552 99.2055 69.1848 99.8193 70.127C100.136 70.5391 100.539 70.8776 100.999 71.1192C101.459 71.3608 101.966 71.4998 102.485 71.5266C102.709 71.521 102.93 71.4714 103.135 71.3804C103.34 71.2895 103.525 71.159 103.68 70.9966C103.834 70.8341 103.955 70.6428 104.036 70.4335C104.116 70.2242 104.155 70.0012 104.149 69.777L104.128 69.5595C103.876 68.1427 101.519 67.0542 100.25 66.8829C100.209 66.8974 99.9349 66.8685 99.6058 66.8588C100.096 66.7737 100.586 66.6886 101.074 66.6198C102.489 66.4301 103.93 66.2703 105.381 66.1149C105.679 66.0809 105.975 66.0401 106.28 66.0037C106.589 67.1181 107.068 68.1784 107.699 69.1475C108.014 69.5606 108.415 69.9001 108.874 70.1422C109.333 70.3844 109.84 70.5234 110.358 70.5495C110.582 70.5439 110.803 70.4943 111.008 70.4033C111.213 70.3124 111.398 70.1819 111.553 70.0195C111.707 69.857 111.828 69.6656 111.909 69.4564C111.989 69.2471 112.028 69.0241 112.022 68.7999L112.001 68.5824C111.748 67.1656 109.392 66.0771 108.123 65.9058C108.082 65.9203 107.752 65.8874 107.384 65.876C108.172 65.7801 108.949 65.6728 109.726 65.5423C111.05 65.3221 112.357 65.015 113.641 64.6232C113.962 65.7688 114.449 66.8613 115.086 67.8662C115.402 68.2794 115.804 68.6187 116.265 68.8604C116.725 69.1021 117.233 69.2405 117.752 69.2658C117.976 69.2603 118.197 69.2106 118.402 69.1197C118.607 69.0287 118.792 68.8983 118.947 68.7358C119.101 68.5733 119.222 68.382 119.303 68.1727C119.383 67.9635 119.422 67.7404 119.416 67.5162L119.397 67.3057C119.145 65.8889 116.789 64.8003 115.517 64.6221C115.434 64.651 114.247 64.5829 113.823 64.5907C115.076 64.1758 116.29 63.65 117.449 63.0197C118.489 62.4696 119.497 61.8603 120.467 61.1947C121.368 60.5716 122.161 59.9544 122.851 59.3965C123.22 59.0975 123.555 58.8106 123.866 58.5471C123.866 58.5471 125.535 58.06 125.636 58.017C126.816 57.5061 128.796 55.8173 128.654 54.3851C128.625 54.1619 128.553 53.9466 128.44 53.7517C128.328 53.5567 128.178 53.3859 127.999 53.2491C127.82 53.1123 127.616 53.0122 127.399 52.9546C127.181 52.897 126.954 52.883 126.731 52.9134C126.677 52.9286 126.624 52.947 126.572 52.9688C126.082 53.1346 125.634 53.4045 125.258 53.76C124.882 54.1156 124.588 54.5483 124.396 55.0284C124.048 56.1387 123.872 57.2956 123.875 58.459C123.549 58.7273 123.198 59.0121 122.795 59.3231C122.097 59.8602 121.299 60.4636 120.389 61.0591C120.141 61.2152 119.872 61.3785 119.617 61.537C119.997 61.1799 120.505 60.6777 120.548 60.6238C121.355 59.6219 122.334 57.2186 121.55 56.0102C121.294 55.6397 120.902 55.3857 120.459 55.3041C120.016 55.2225 119.559 55.32 119.188 55.5751C119.134 55.6098 119.083 55.6484 119.034 55.6905C118.673 56.0622 118.396 56.5084 118.225 56.998C118.054 57.4876 117.991 58.0087 118.042 58.5249C118.256 59.6741 118.642 60.7844 119.187 61.8182C118.611 62.1661 118.015 62.5051 117.375 62.8284C116.217 63.4262 115.009 63.9216 113.764 64.3088L113.55 64.3834C113.763 64.2394 114.896 63.3491 114.965 63.2787C115.882 62.3704 117.113 60.089 116.464 58.8024C116.357 58.6053 116.212 58.4313 116.037 58.2903C115.863 58.1493 115.662 58.044 115.447 57.9805C115.232 57.917 115.007 57.8966 114.784 57.9203C114.561 57.944 114.345 58.0114 114.148 58.1187C114.094 58.1339 114.04 58.1524 113.989 58.174C113.591 58.5052 113.269 58.9186 113.046 59.3857C112.823 59.8528 112.704 60.3626 112.696 60.8802C112.779 62.0736 113.045 63.247 113.487 64.3587C112.233 64.7082 110.958 64.9753 109.67 65.1585C108.727 65.3004 107.755 65.4055 106.779 65.4969C107.059 65.2987 108.107 64.4767 108.176 64.4063C109.095 63.5049 110.326 61.2235 109.677 59.9369C109.572 59.7396 109.428 59.5651 109.255 59.4234C109.082 59.2816 108.883 59.1754 108.669 59.1108C108.455 59.0462 108.23 59.0245 108.008 59.0469C107.785 59.0693 107.569 59.1355 107.372 59.2415L107.214 59.3432C106.813 59.6704 106.489 60.0819 106.265 60.5484C106.042 61.0149 105.923 61.525 105.919 62.0424C106.005 63.2304 106.267 64.399 106.698 65.5095L105.374 65.6285C103.924 65.7607 102.463 65.8652 101.046 66.048C100.546 66.1054 100.06 66.1811 99.568 66.2593C99.9786 65.9459 100.703 65.376 100.788 65.3077C101.708 64.4063 102.936 62.1179 102.29 60.8382C102.184 60.641 102.041 60.4665 101.868 60.3247C101.695 60.183 101.496 60.0767 101.282 60.0121C101.067 59.9475 100.843 59.9258 100.62 59.9483C100.398 59.9707 100.182 60.0368 99.9849 60.1429L99.8263 60.2445C99.4255 60.5718 99.1017 60.9833 98.8779 61.4498C98.6541 61.9163 98.5358 62.4264 98.5314 62.9438C98.6066 64.0912 98.8554 65.2205 99.2696 66.2933C98.4604 66.4195 97.6654 66.5641 96.8824 66.7433C96.5572 66.8564 96.1962 66.8888 95.8825 66.9902C95.5687 67.0915 95.2529 67.2091 94.9247 67.2689L92.2126 68.2119C92.668 67.9605 93.3879 67.5551 93.4499 67.5103C94.4895 66.7533 96.059 64.6876 95.6127 63.315C95.4613 62.8911 95.1485 62.5442 94.7425 62.3499C94.3365 62.1555 93.8701 62.1294 93.445 62.2773C93.3816 62.2955 93.3192 62.3172 93.2582 62.3422C92.814 62.6074 92.4333 62.9666 92.1426 63.3945C91.852 63.8225 91.6586 64.3088 91.5758 64.8195C91.4737 65.999 91.5546 67.1873 91.8158 68.3422C91.124 68.5827 90.3975 68.8353 89.7619 69.1261C87.72 69.9447 86.0571 70.6935 84.9059 71.2412C83.7547 71.7888 83.0895 72.1287 83.0895 72.1287C83.0302 72.1588 82.9774 72.2004 82.9342 72.251C82.8909 72.3016 82.8581 72.3603 82.8376 72.4236C82.8171 72.487 82.8094 72.5537 82.8148 72.62C82.8201 72.6864 82.8386 72.751 82.869 72.8102C82.9313 72.9287 83.0375 73.0181 83.1649 73.0593C83.2922 73.1005 83.4307 73.0903 83.5506 73.0308C84.1053 72.6965 84.6783 72.3937 85.267 72.1238Z" fill="#A4DCF2"/>
<path d="M119.405 61.8613C119.405 61.8613 120.737 64.0194 121.674 64.6397C122.086 64.9526 122.562 65.1715 123.067 65.281C123.573 65.3906 124.097 65.3881 124.601 65.2738C125.031 65.1346 125.389 64.831 125.597 64.4291C125.804 64.0273 125.844 63.5597 125.709 63.1283L125.651 62.9623C125.037 61.6636 122.476 61.2356 121.229 61.3977C121.088 61.4157 119.391 61.8429 119.405 61.8613Z" fill="#A4DCF2"/>
<g opacity="0.1">
<path d="M84.633 71.3045C85.3283 70.2484 86.3491 68.7457 87.6472 67.0148C88.0205 66.5049 88.4237 65.9693 88.8454 65.4426C89.8089 66.1313 90.87 66.672 91.9934 67.0468C92.4963 67.1662 93.0191 67.1756 93.526 67.0743C94.0328 66.973 94.5118 66.7634 94.9302 66.4599C95.2657 66.1643 95.4705 65.7479 95.4999 65.3017C95.5293 64.8556 95.3809 64.4159 95.0872 64.0788L94.9651 63.9506C93.8642 63.015 91.3705 63.6495 90.2647 64.3054C90.1886 64.3319 89.4158 64.9418 89.0422 65.2501L89.8196 64.2741C90.2094 63.7895 90.6339 63.293 91.04 62.8105L91.7094 62.0814C91.9308 61.8261 92.1736 61.6098 92.416 61.3704C92.7614 61.0254 93.1486 60.6892 93.5195 60.3508C94.328 61.1332 95.2512 61.7877 96.2572 62.2916C96.7374 62.487 97.2544 62.576 97.7723 62.5525C98.2903 62.5291 98.797 62.3937 99.2577 62.1556C99.6382 61.9078 99.9048 61.5191 99.9989 61.0748C100.093 60.6306 100.007 60.1672 99.7599 59.7863L99.6844 59.6807C98.7506 58.5784 96.1685 58.8248 94.9749 59.3174C94.9749 59.3174 94.6987 59.46 94.4111 59.6142C94.7893 59.2966 95.1674 58.979 95.5642 58.6705C96.6857 57.7919 97.8607 56.9336 99.0309 56.0614C99.2718 55.8845 99.5104 55.7008 99.7583 55.5215C100.589 56.3243 101.535 56.9991 102.564 57.5239C103.043 57.7196 103.559 57.809 104.075 57.786C104.592 57.7629 105.098 57.6279 105.558 57.3904C105.746 57.2694 105.909 57.1124 106.036 56.9283C106.164 56.7443 106.254 56.5369 106.301 56.318C106.348 56.0991 106.351 55.8731 106.311 55.6529C106.27 55.4327 106.187 55.2226 106.065 55.0348L105.984 54.9154C105.057 53.8108 102.468 54.0596 101.282 54.5498C101.24 54.5642 100.953 54.7185 100.628 54.9011C101.238 54.4253 101.846 53.9425 102.446 53.439C103.48 52.5856 104.455 51.6637 105.364 50.6795C106.216 51.5214 107.192 52.2283 108.257 52.7758C108.736 52.9715 109.252 53.0609 109.768 53.0378C110.285 53.0148 110.791 52.8798 111.251 52.6422C111.439 52.5212 111.602 52.3642 111.729 52.1802C111.857 51.9962 111.947 51.7887 111.994 51.5698C112.041 51.351 112.044 51.1249 112.004 50.9047C111.963 50.6845 111.88 50.4745 111.758 50.2867L111.712 50.1552C110.778 49.053 108.196 49.2994 107.009 49.7896C106.919 49.8209 105.891 50.3878 105.526 50.6079L105.567 50.5935C106.442 49.6055 107.224 48.5392 107.903 47.4082C108.521 46.4058 109.08 45.3675 109.575 44.2988C110.009 43.3179 110.412 42.3791 110.735 41.5688C110.905 41.1218 111.055 40.7052 111.184 40.319C111.184 40.319 112.391 39.0618 112.453 38.9707C113.215 37.93 114.071 35.4843 113.231 34.3183C113.093 34.1367 112.92 33.9845 112.722 33.8708C112.524 33.757 112.306 33.6839 112.079 33.6557C111.853 33.6276 111.623 33.645 111.403 33.7068C111.183 33.7687 110.978 33.8738 110.8 34.016L110.669 34.1312C110.327 34.519 110.073 34.9769 109.925 35.4729C109.777 35.9689 109.74 36.4911 109.814 37.0032C110.074 38.1365 110.504 39.2238 111.091 40.2276C110.952 40.6324 110.789 41.0538 110.602 41.5219C110.268 42.3439 109.874 43.264 109.401 44.2662C109.267 44.5297 109.123 44.8049 108.976 45.0732C109.11 44.6603 109.223 44.2405 109.314 43.8156C109.508 42.546 109.149 39.9954 107.854 39.3287C107.654 39.2306 107.436 39.1732 107.213 39.1598C106.99 39.1464 106.766 39.1773 106.555 39.2506C106.344 39.324 106.15 39.4384 105.984 39.5872C105.817 39.7361 105.682 39.9164 105.585 40.1178C105.556 40.1732 105.532 40.2308 105.513 40.2902C105.388 40.7926 105.374 41.3161 105.472 41.8245C105.57 42.3329 105.777 42.8139 106.079 43.2342C106.838 44.1232 107.727 44.8913 108.717 45.5121C108.396 46.1046 108.051 46.6975 107.656 47.3002C106.961 48.4029 106.166 49.4398 105.282 50.3979C105.217 50.4378 105.162 50.4915 105.12 50.5552C105.232 50.3221 105.76 48.9833 105.788 48.888C106.132 47.6442 106.042 45.0462 104.832 44.2649C104.449 44.0296 103.988 43.956 103.55 44.0602C103.112 44.1644 102.734 44.4379 102.498 44.8208L102.402 44.9935C102.225 45.4842 102.158 46.0078 102.204 46.5274C102.251 47.0471 102.411 47.5502 102.673 48.0015C103.346 48.9961 104.176 49.8756 105.13 50.6061C104.224 51.5345 103.259 52.4036 102.242 53.2077C101.49 53.8104 100.705 54.3858 99.9132 54.9635C100.053 54.6513 100.544 53.4103 100.566 53.3173C100.909 52.0736 100.822 49.4824 99.617 48.6918C99.2301 48.4579 98.7664 48.3862 98.327 48.4926C97.8875 48.5989 97.5078 48.8745 97.2707 49.2595L97.187 49.4204C97.0084 49.9109 96.9399 50.4347 96.9867 50.9546C97.0334 51.4745 97.1942 51.9777 97.4575 52.4284C98.1263 53.4138 98.9414 54.2915 99.8747 55.0312L98.7936 55.8027C97.6044 56.6427 96.4153 57.4827 95.2634 58.3408C94.8642 58.6424 94.4837 58.9531 94.0938 59.2593C94.2939 58.7864 94.6303 57.925 94.6571 57.8459C95.0001 56.6021 94.8788 54.023 93.701 53.2228C93.3106 52.9896 92.8437 52.9203 92.4024 53.0302C91.9611 53.14 91.5812 53.4201 91.3457 53.8091L91.271 53.9514C91.0924 54.4418 91.024 54.9657 91.0707 55.4856C91.1174 56.0055 91.2782 56.5087 91.5415 56.9594C92.1832 57.913 92.9676 58.7623 93.8673 59.4776C93.2668 59.9811 92.6089 60.5201 92.0229 61.0651C91.7805 61.3045 91.5124 61.5373 91.2886 61.7857L90.6006 62.5058C90.1484 63.012 89.7306 63.483 89.3245 63.9654C89.1145 64.209 88.9252 64.4455 88.7198 64.6798C88.992 64.2361 89.409 63.5172 89.4406 63.452C89.9605 62.2708 90.2748 59.6954 89.1968 58.7363C89.0262 58.5924 88.8288 58.4836 88.6161 58.416C88.4033 58.3485 88.1794 58.3235 87.957 58.3425C87.7346 58.3615 87.5181 58.4241 87.3199 58.5268C87.1217 58.6295 86.9457 58.7702 86.8019 58.9409C86.7534 58.9577 86.7267 59.0369 86.6903 59.0883C86.4383 59.5409 86.2884 60.0432 86.251 60.5599C86.2137 61.0766 86.2898 61.5952 86.474 62.0794C86.9875 63.1469 87.6567 64.1321 88.4599 65.0028C87.974 65.5905 87.5065 66.1641 87.0826 66.707C85.7313 68.441 84.6732 69.9256 83.9178 70.987C83.1624 72.0485 82.795 72.6648 82.795 72.6648C82.7529 72.7206 82.7232 72.7848 82.7079 72.8531C82.6925 72.9213 82.692 72.9921 82.7063 73.0605C82.7205 73.129 82.7493 73.1937 82.7906 73.2501C82.8318 73.3066 82.8847 73.3536 82.9456 73.3879C83.0029 73.4261 83.0673 73.4524 83.135 73.4651C83.2027 73.4779 83.2722 73.4769 83.3395 73.4621C83.4067 73.4474 83.4703 73.4193 83.5265 73.3795C83.5827 73.3397 83.6302 73.289 83.6664 73.2304C83.8948 72.5455 84.2203 71.8969 84.633 71.3045Z" fill="#A4DCF2"/>
<path d="M108.973 45.2626C108.973 45.2626 111.21 46.4546 112.334 46.5212C112.848 46.5816 113.368 46.5305 113.86 46.3715C114.352 46.2124 114.804 45.9491 115.185 45.5996C115.489 45.2644 115.648 44.8223 115.626 44.3704C115.604 43.9184 115.404 43.4937 115.069 43.1895L114.928 43.0755C113.743 42.2545 111.311 43.1777 110.297 43.9645C110.205 44.0352 108.954 45.2536 108.973 45.2626Z" fill="#A4DCF2"/>
<path d="M85.267 72.1238C86.3972 71.5602 88.0318 70.7746 90.034 69.9311C90.6077 69.6851 91.2183 69.434 91.8522 69.1826C92.3406 70.2595 92.9858 71.2583 93.7667 72.1463C94.1395 72.5052 94.5865 72.778 95.0762 72.9454C95.5658 73.1128 96.0863 73.1707 96.6008 73.1151C96.8218 73.0711 97.0319 72.9839 97.2192 72.8586C97.4064 72.7332 97.5671 72.5722 97.6921 72.3847C97.817 72.1972 97.9038 71.9869 97.9474 71.7658C97.991 71.5447 97.9906 71.3172 97.9462 71.0963L97.886 70.9233C97.4049 69.5396 94.9312 68.8487 93.641 68.863C93.5718 68.8871 92.5909 68.9878 92.0961 69.059C92.4909 68.9292 92.8787 68.7788 93.2578 68.6085L96.0253 67.6462C96.3436 67.5356 96.6648 67.4781 96.9903 67.3882C97.4683 67.2686 97.9604 67.1672 98.4318 67.0731C98.7377 68.1552 99.2055 69.1848 99.8193 70.127C100.136 70.5391 100.539 70.8776 100.999 71.1192C101.459 71.3608 101.966 71.4998 102.485 71.5266C102.709 71.521 102.93 71.4714 103.135 71.3804C103.34 71.2895 103.525 71.159 103.68 70.9966C103.834 70.8341 103.955 70.6428 104.036 70.4335C104.116 70.2242 104.155 70.0012 104.149 69.777L104.128 69.5595C103.876 68.1427 101.519 67.0542 100.25 66.8829C100.209 66.8974 99.9349 66.8685 99.6058 66.8588C100.096 66.7737 100.586 66.6886 101.074 66.6198C102.489 66.4301 103.93 66.2703 105.381 66.1149C105.679 66.0809 105.975 66.0401 106.28 66.0037C106.589 67.1181 107.068 68.1784 107.699 69.1475C108.014 69.5606 108.415 69.9001 108.874 70.1422C109.333 70.3844 109.84 70.5234 110.358 70.5495C110.582 70.5439 110.803 70.4943 111.008 70.4033C111.213 70.3124 111.398 70.1819 111.553 70.0195C111.707 69.857 111.828 69.6656 111.909 69.4564C111.989 69.2471 112.028 69.0241 112.022 68.7999L112.001 68.5824C111.748 67.1656 109.392 66.0771 108.123 65.9058C108.082 65.9203 107.752 65.8874 107.384 65.876C108.172 65.7801 108.949 65.6728 109.726 65.5423C111.05 65.3221 112.357 65.015 113.641 64.6232C113.962 65.7688 114.449 66.8613 115.086 67.8662C115.402 68.2794 115.804 68.6187 116.265 68.8604C116.725 69.1021 117.233 69.2405 117.752 69.2658C117.976 69.2603 118.197 69.2106 118.402 69.1197C118.607 69.0287 118.792 68.8983 118.947 68.7358C119.101 68.5733 119.222 68.382 119.303 68.1727C119.383 67.9635 119.422 67.7404 119.416 67.5162L119.397 67.3057C119.145 65.8889 116.789 64.8003 115.517 64.6221C115.434 64.651 114.247 64.5829 113.823 64.5907C115.076 64.1758 116.29 63.65 117.449 63.0197C118.489 62.4696 119.497 61.8603 120.467 61.1947C121.368 60.5716 122.161 59.9544 122.851 59.3965C123.22 59.0975 123.555 58.8106 123.866 58.5471C123.866 58.5471 125.535 58.06 125.636 58.017C126.816 57.5061 128.796 55.8173 128.654 54.3851C128.625 54.1619 128.553 53.9466 128.44 53.7517C128.328 53.5567 128.178 53.3859 127.999 53.2491C127.82 53.1123 127.616 53.0122 127.399 52.9546C127.181 52.897 126.954 52.883 126.731 52.9134C126.677 52.9286 126.624 52.947 126.572 52.9688C126.082 53.1346 125.634 53.4045 125.258 53.76C124.882 54.1156 124.588 54.5483 124.396 55.0284C124.048 56.1387 123.872 57.2956 123.875 58.459C123.549 58.7273 123.198 59.0121 122.795 59.3231C122.097 59.8602 121.299 60.4636 120.389 61.0591C120.141 61.2152 119.872 61.3785 119.617 61.537C119.997 61.1799 120.505 60.6777 120.548 60.6238C121.355 59.6219 122.334 57.2186 121.55 56.0102C121.294 55.6397 120.902 55.3857 120.459 55.3041C120.016 55.2225 119.559 55.32 119.188 55.5751C119.134 55.6098 119.083 55.6484 119.034 55.6905C118.673 56.0622 118.396 56.5084 118.225 56.998C118.054 57.4876 117.991 58.0087 118.042 58.5249C118.256 59.6741 118.642 60.7844 119.187 61.8182C118.611 62.1661 118.015 62.5051 117.375 62.8284C116.217 63.4262 115.009 63.9216 113.764 64.3088L113.55 64.3834C113.763 64.2394 114.896 63.3491 114.965 63.2787C115.882 62.3704 117.113 60.089 116.464 58.8024C116.357 58.6053 116.212 58.4313 116.037 58.2903C115.863 58.1493 115.662 58.044 115.447 57.9805C115.232 57.917 115.007 57.8966 114.784 57.9203C114.561 57.944 114.345 58.0114 114.148 58.1187C114.094 58.1339 114.04 58.1524 113.989 58.174C113.591 58.5052 113.269 58.9186 113.046 59.3857C112.823 59.8528 112.704 60.3626 112.696 60.8802C112.779 62.0736 113.045 63.247 113.487 64.3587C112.233 64.7082 110.958 64.9753 109.67 65.1585C108.727 65.3004 107.755 65.4055 106.779 65.4969C107.059 65.2987 108.107 64.4767 108.176 64.4063C109.095 63.5049 110.326 61.2235 109.677 59.9369C109.572 59.7396 109.428 59.5651 109.255 59.4234C109.082 59.2816 108.883 59.1754 108.669 59.1108C108.455 59.0462 108.23 59.0245 108.008 59.0469C107.785 59.0693 107.569 59.1355 107.372 59.2415L107.214 59.3432C106.813 59.6704 106.489 60.0819 106.265 60.5484C106.042 61.0149 105.923 61.525 105.919 62.0424C106.005 63.2304 106.267 64.399 106.698 65.5095L105.374 65.6285C103.924 65.7607 102.463 65.8652 101.046 66.048C100.546 66.1054 100.06 66.1811 99.568 66.2593C99.9786 65.9459 100.703 65.376 100.788 65.3077C101.708 64.4063 102.936 62.1179 102.29 60.8382C102.184 60.641 102.041 60.4665 101.868 60.3247C101.695 60.183 101.496 60.0767 101.282 60.0121C101.067 59.9475 100.843 59.9258 100.62 59.9483C100.398 59.9707 100.182 60.0368 99.9849 60.1429L99.8263 60.2445C99.4255 60.5718 99.1017 60.9833 98.8779 61.4498C98.6541 61.9163 98.5358 62.4264 98.5314 62.9438C98.6066 64.0912 98.8554 65.2205 99.2696 66.2933C98.4604 66.4195 97.6654 66.5641 96.8824 66.7433C96.5572 66.8564 96.1962 66.8888 95.8825 66.9902C95.5687 67.0915 95.2529 67.2091 94.9247 67.2689L92.2126 68.2119C92.668 67.9605 93.3879 67.5551 93.4499 67.5103C94.4895 66.7533 96.059 64.6876 95.6127 63.315C95.4613 62.8911 95.1485 62.5442 94.7425 62.3499C94.3365 62.1555 93.8701 62.1294 93.445 62.2773C93.3816 62.2955 93.3192 62.3172 93.2582 62.3422C92.814 62.6074 92.4333 62.9666 92.1426 63.3945C91.852 63.8225 91.6586 64.3088 91.5758 64.8195C91.4737 65.999 91.5546 67.1873 91.8158 68.3422C91.124 68.5827 90.3975 68.8353 89.7619 69.1261C87.72 69.9447 86.0571 70.6935 84.9059 71.2412C83.7547 71.7888 83.0895 72.1287 83.0895 72.1287C83.0302 72.1588 82.9774 72.2004 82.9342 72.251C82.8909 72.3016 82.8581 72.3603 82.8376 72.4236C82.8171 72.487 82.8094 72.5537 82.8148 72.62C82.8201 72.6864 82.8386 72.751 82.869 72.8102C82.9313 72.9287 83.0375 73.0181 83.1649 73.0593C83.2922 73.1005 83.4307 73.0903 83.5506 73.0308C84.1053 72.6965 84.6783 72.3937 85.267 72.1238Z" fill="#A4DCF2"/>
<path d="M119.405 61.8613C119.405 61.8613 120.737 64.0194 121.674 64.6397C122.086 64.9526 122.562 65.1715 123.067 65.281C123.573 65.3906 124.097 65.3881 124.601 65.2738C125.031 65.1346 125.389 64.831 125.597 64.4291C125.804 64.0273 125.844 63.5597 125.709 63.1283L125.651 62.9623C125.037 61.6636 122.476 61.2356 121.229 61.3977C121.088 61.4157 119.391 61.8429 119.405 61.8613Z" fill="#A4DCF2"/>
</g>
<path d="M45.6184 62.5885C44.9089 61.8093 43.8734 60.7045 42.5798 59.4478C42.2062 59.0765 41.8048 58.6877 41.3891 58.3088C40.6853 59.001 39.8818 59.5839 39.0054 60.0383C38.6068 60.2019 38.1776 60.2775 37.7471 60.2599C37.3166 60.2423 36.895 60.1319 36.5112 59.9363C36.1966 59.7365 35.9739 59.4202 35.8917 59.0567C35.8096 58.6931 35.8747 58.3119 36.0728 57.9962L36.1567 57.8748C36.9417 56.9615 39.0773 57.1602 40.0729 57.5567C40.139 57.5687 40.8545 57.9705 41.2022 58.1759L40.4354 57.4732C40.0515 57.1248 39.6375 56.771 39.2405 56.4265L38.5947 55.9131C38.3793 55.7316 38.1513 55.5851 37.9206 55.4194C37.5914 55.1802 37.229 54.9536 36.8797 54.7231C36.3155 55.4723 35.6403 56.131 34.8775 56.6765C34.5074 56.8997 34.0933 57.0401 33.6638 57.088C33.2343 57.136 32.7995 57.0902 32.3893 56.954C32.0438 56.7994 31.7739 56.5139 31.6387 56.1604C31.5035 55.8068 31.5141 55.4141 31.6682 55.0684L31.7166 54.9716C32.3425 53.9429 34.5005 53.8105 35.5472 54.0612C35.5472 54.0612 35.7931 54.1427 36.0499 54.2324C35.6973 54.02 35.3447 53.8076 34.978 53.605C33.9406 53.0272 32.8617 52.473 31.7849 51.9068C31.5636 51.7924 31.3433 51.6721 31.1159 51.5567C30.536 52.3255 29.8451 53.0039 29.0658 53.5696C28.6968 53.7929 28.2838 53.9335 27.8553 53.9816C27.4267 54.0297 26.9928 53.9842 26.5836 53.8482C26.4128 53.7731 26.2585 53.6649 26.1296 53.53C26.0007 53.395 25.8997 53.2359 25.8325 53.0618C25.7653 52.8876 25.7331 52.702 25.7379 52.5154C25.7427 52.3288 25.7843 52.145 25.8603 51.9746L25.9109 51.8658C26.5307 50.836 28.6948 50.7048 29.7355 50.9543C29.7716 50.9608 30.0284 51.0505 30.3191 51.1587C29.755 50.8462 29.192 50.5276 28.6323 50.191C27.6706 49.6225 26.7482 48.9899 25.8714 48.2976C25.2793 49.1014 24.5679 49.8101 23.7618 50.3991C23.3929 50.6224 22.9799 50.763 22.5514 50.8111C22.1228 50.8592 21.6889 50.8137 21.2797 50.6778C21.1088 50.6026 20.9545 50.4944 20.8256 50.3595C20.6967 50.2245 20.5958 50.0654 20.5286 49.8913C20.4613 49.7172 20.4292 49.5315 20.434 49.3449C20.4388 49.1584 20.4803 48.9746 20.5564 48.8041L20.5769 48.6899C21.2028 47.6612 23.3608 47.5289 24.4015 47.7784C24.4796 47.7925 25.3998 48.1258 25.7293 48.2596L25.6933 48.2531C24.845 47.5531 24.0629 46.7767 23.3566 45.9337C22.7173 45.1886 22.1229 44.4061 21.5764 43.5904C21.0914 42.8392 20.6381 42.1185 20.2668 41.4933C20.0686 41.1474 19.8911 40.8238 19.7344 40.5226C19.7344 40.5226 18.5775 39.6441 18.5151 39.577C17.7521 38.8191 16.73 36.9165 17.2701 35.8474C17.3604 35.68 17.4832 35.5322 17.6313 35.4129C17.7795 35.2935 17.95 35.2049 18.1328 35.1524C18.3156 35.0998 18.5071 35.0842 18.6961 35.1067C18.885 35.1291 19.0675 35.189 19.233 35.2829L19.3554 35.3608C19.6879 35.6356 19.9565 35.9797 20.1424 36.3689C20.3284 36.7581 20.4272 37.1832 20.4321 37.6145C20.3657 38.5814 20.1525 39.5325 19.7998 40.4351C19.9664 40.7505 20.1558 41.0762 20.3699 41.4374C20.7521 42.0708 21.1956 42.7773 21.7156 43.5411C21.8595 43.7407 22.0144 43.9485 22.1704 44.1503C22.0059 43.8278 21.8584 43.4968 21.7286 43.1588C21.4037 42.1386 21.3686 39.9919 22.3478 39.2749C22.5002 39.1681 22.6724 39.0925 22.8542 39.0525C23.036 39.0126 23.224 39.009 23.4072 39.042C23.5904 39.075 23.7653 39.144 23.9218 39.2449C24.0782 39.3458 24.2131 39.4767 24.3187 39.6301C24.3495 39.6719 24.3768 39.7163 24.4003 39.7626C24.5683 40.1601 24.6479 40.5894 24.6334 41.0206C24.6189 41.4519 24.5107 41.8749 24.3163 42.2601C23.8073 43.0905 23.1746 43.8385 22.4401 44.4781C22.7816 44.9243 23.1422 45.3677 23.5459 45.8127C24.2616 46.6304 25.0504 47.381 25.9027 48.0551C25.9614 48.0795 26.014 48.1165 26.0569 48.1635C25.9337 47.9862 25.3259 46.9523 25.2897 46.8776C24.8458 45.898 24.5819 43.7473 25.4768 42.9469C25.762 42.7034 26.1322 42.5829 26.5061 42.6119C26.88 42.6409 27.2272 42.817 27.4714 43.1016L27.5721 43.2314C27.7817 43.6125 27.9053 44.0348 27.9343 44.4687C27.9633 44.9027 27.897 45.3377 27.7399 45.7432C27.3145 46.6496 26.7456 47.4815 26.0553 48.2067C26.9214 48.8536 27.8284 49.4439 28.7706 49.9739C29.4681 50.3726 30.189 50.7444 30.9159 51.1174C30.7604 50.8784 30.1948 49.9204 30.1646 49.8467C29.7207 48.8671 29.4557 46.7224 30.3457 45.9149C30.6339 45.6721 31.0064 45.5529 31.382 45.5834C31.7577 45.6139 32.106 45.7916 32.3513 46.0778L32.441 46.1994C32.6518 46.5801 32.7761 47.0025 32.8051 47.4366C32.8342 47.8708 32.7671 48.306 32.6088 48.7113C32.1861 49.6094 31.6289 50.4379 30.9564 51.1681L31.9467 51.6629C33.0349 52.2002 34.1231 52.7375 35.1828 53.2945C35.5507 53.491 35.9043 53.6975 36.2651 53.8989C36.039 53.5356 35.6502 52.87 35.6179 52.8083C35.174 51.8287 34.939 49.6895 35.8049 48.8777C36.0961 48.6349 36.4715 48.5173 36.8492 48.5505C37.2268 48.5837 37.5759 48.7649 37.8204 49.0547L37.9003 49.1621C38.1111 49.5428 38.2354 49.9652 38.2644 50.3993C38.2934 50.8335 38.2264 51.2687 38.0681 51.674C37.6635 52.5424 37.1279 53.3435 36.48 54.0493C37.0397 54.3859 37.6514 54.7443 38.2046 55.117C38.4353 55.2826 38.6863 55.4395 38.9028 55.615L39.5628 56.1186C40.0008 56.4767 40.4059 56.8102 40.803 57.1547C41.0075 57.3281 41.194 57.4982 41.3936 57.6644C41.1118 57.3345 40.6752 56.7967 40.6407 56.7471C40.0593 55.842 39.4662 53.7622 40.2293 52.8326C40.3511 52.692 40.4995 52.5768 40.6659 52.4936C40.8323 52.4103 41.0134 52.3607 41.199 52.3474C41.3846 52.3342 41.571 52.3577 41.7475 52.4165C41.924 52.4753 42.0872 52.5683 42.2278 52.6902C42.2698 52.6978 42.3022 52.7595 42.3388 52.7971C42.605 53.1371 42.7937 53.5312 42.8915 53.9518C42.9893 54.3724 42.994 54.8092 42.9052 55.2318C42.6209 56.1774 42.1978 57.0755 41.6495 57.8967C42.1258 58.3175 42.5852 58.7291 43.0047 59.1211C44.3425 60.3733 45.4064 61.4584 46.1662 62.2343C46.926 63.0102 47.3084 63.47 47.3084 63.47C47.3504 63.5105 47.3832 63.5595 47.4046 63.6137C47.4261 63.6679 47.4357 63.7261 47.4329 63.7843C47.43 63.8426 47.4147 63.8995 47.3881 63.9513C47.3614 64.0032 47.324 64.0488 47.2783 64.085C47.2361 64.1238 47.1864 64.1538 47.1324 64.1731C47.0783 64.1924 47.0209 64.2006 46.9636 64.1972C46.9064 64.1938 46.8503 64.1789 46.7989 64.1534C46.7475 64.1279 46.7018 64.0924 46.6644 64.0488C46.3874 63.5145 46.0352 63.0227 45.6184 62.5885Z" fill="#A4DCF2"/>
<path d="M22.1962 44.3018C22.1962 44.3018 20.5091 45.5736 19.592 45.7744C19.1769 45.8908 18.7417 45.9164 18.3159 45.8493C17.8901 45.7822 17.4837 45.6241 17.1246 45.3857C16.8308 45.1492 16.6429 44.8058 16.6023 44.4308C16.5617 44.0559 16.6716 43.6801 16.9079 43.3862L17.0087 43.2741C17.8779 42.4442 20.0003 42.8887 20.9371 43.4049C21.0218 43.4512 22.2104 44.292 22.1962 44.3018Z" fill="#A4DCF2"/>
<path d="M45.2014 63.3427C44.1977 63.0254 42.7499 62.5908 40.9918 62.1561C40.4875 62.028 39.9521 61.9005 39.3976 61.7758C39.1352 62.726 38.7337 63.632 38.2059 64.4646C37.9456 64.8085 37.613 65.0911 37.2315 65.2925C36.8501 65.4939 36.4291 65.6092 35.9982 65.6302C35.8106 65.6226 35.6262 65.5781 35.4558 65.4992C35.2853 65.4203 35.1321 65.3086 35.0049 65.1704C34.8776 65.0323 34.7789 64.8704 34.7143 64.694C34.6497 64.5176 34.6205 64.3303 34.6284 64.1426L34.6555 63.9924C34.872 62.7906 36.8191 61.9006 37.8832 61.7449C37.9433 61.7557 38.764 61.7113 39.1807 61.7057C38.8388 61.6501 38.5 61.5766 38.1657 61.4856L35.7621 61.0525C35.4857 61.0027 35.2137 60.9972 34.9341 60.9654C34.525 60.9289 34.1066 60.9094 33.7063 60.8931C33.5949 61.8237 33.3433 62.7322 32.9603 63.5877C32.7529 63.9681 32.4655 64.299 32.118 64.5577C31.7704 64.8164 31.3709 64.9967 30.947 65.0861C30.7617 65.1106 30.5734 65.0984 30.3928 65.0501C30.2122 65.0019 30.043 64.9185 29.8946 64.8047C29.7463 64.691 29.6219 64.5492 29.5284 64.3874C29.4349 64.2255 29.3742 64.0468 29.3498 63.8615L29.3392 63.6797C29.3629 62.4804 31.1615 61.2783 32.1844 60.9725C32.2205 60.979 32.4421 60.9197 32.7118 60.869C32.2973 60.8625 31.8828 60.8561 31.4722 60.8628C30.2822 60.8903 29.0749 60.9457 27.8604 61.0061C27.6103 61.0169 27.3613 61.0216 27.1052 61.0313C26.9953 61.9891 26.739 62.9242 26.345 63.804C26.1397 64.185 25.8537 64.5166 25.507 64.7756C25.1603 65.0346 24.7613 65.2148 24.3377 65.3036C24.1524 65.3281 23.9642 65.3159 23.7836 65.2676C23.603 65.2193 23.4338 65.1359 23.2854 65.0222C23.1371 64.9085 23.0127 64.7667 22.9192 64.6048C22.8257 64.443 22.765 64.2643 22.7406 64.079L22.7299 63.8972C22.7537 62.6979 24.5523 61.4958 25.5752 61.19C25.6113 61.1965 25.8782 61.1267 26.1801 61.0694C25.5183 61.0928 24.8646 61.1053 24.2082 61.0987C23.0897 61.0892 21.9731 61.0062 20.8656 60.8501C20.7496 61.8351 20.4904 62.7979 20.0963 63.708C19.8899 64.0892 19.6028 64.4208 19.2551 64.6796C18.9074 64.9384 18.5074 65.1182 18.083 65.2065C17.8977 65.231 17.7094 65.2188 17.5288 65.1705C17.3483 65.1222 17.179 65.0388 17.0307 64.9251C16.8824 64.8114 16.7579 64.6696 16.6644 64.5077C16.5709 64.3459 16.5103 64.1672 16.4859 63.9819L16.4741 63.8061C16.4979 62.6068 18.2965 61.4047 19.3205 61.0929C19.3926 61.1058 20.3611 60.8957 20.711 60.8471C19.6255 60.6681 18.5582 60.3927 17.5216 60.0242C16.5937 59.7063 15.685 59.3354 14.7996 58.9134C13.9777 58.5171 13.2441 58.112 12.6035 57.7422C12.2608 57.544 11.9481 57.3511 11.6573 57.1747C11.6573 57.1747 10.2202 56.9902 10.1311 56.9679C9.09365 56.7003 7.24435 55.5668 7.17473 54.3693C7.16957 54.1818 7.20157 53.9951 7.26887 53.8199C7.33617 53.6448 7.43743 53.4847 7.56686 53.3489C7.69628 53.213 7.8513 53.1042 8.02297 53.0285C8.19465 52.9528 8.3796 52.9118 8.56718 52.9079C8.61372 52.9133 8.65988 52.9217 8.70539 52.9328C9.13036 53.0057 9.53448 53.1698 9.88999 53.4138C10.2455 53.6577 10.5439 53.9758 10.7648 54.3462C11.1951 55.2152 11.4899 56.145 11.6392 57.1032C11.942 57.2818 12.2678 57.4708 12.6405 57.6744C13.2844 58.0262 14.0201 58.4193 14.8464 58.7916C15.071 58.8879 15.3136 58.9874 15.5442 59.0848C15.1851 58.8402 14.7017 58.4925 14.6591 58.4538C13.8644 57.7337 12.7464 55.8819 13.2356 54.7851C13.398 54.4468 13.688 54.1868 14.042 54.0621C14.396 53.9375 14.7849 53.9584 15.1235 54.1202C15.1724 54.1419 15.2197 54.167 15.2651 54.1954C15.6113 54.4544 15.8967 54.786 16.1013 55.1668C16.306 55.5477 16.4249 55.9687 16.4498 56.4003C16.4233 57.3743 16.2495 58.3386 15.9344 59.2606C16.4547 59.4722 16.9891 59.6739 17.5579 59.8571C18.5891 60.1989 19.6483 60.45 20.7232 60.6073L20.9095 60.6409C20.715 60.55 19.6666 59.964 19.601 59.915C18.7278 59.2862 17.4183 57.5675 17.7856 56.4239C17.8482 56.2477 17.9449 56.0856 18.0702 55.9469C18.1955 55.8081 18.3469 55.6955 18.5158 55.6153C18.6846 55.5351 18.8677 55.4889 19.0544 55.4795C19.2411 55.4701 19.4278 55.4975 19.6039 55.5603C19.6504 55.5658 19.6966 55.5741 19.7421 55.5852C20.1127 55.8063 20.431 56.1049 20.6753 56.4605C20.9197 56.8161 21.0842 57.2204 21.1576 57.6456C21.2445 58.6389 21.1772 59.6397 20.9581 60.6124C22.0355 60.7374 23.1199 60.7919 24.2044 60.7754C24.9995 60.7698 25.8132 60.7303 26.629 60.6788C26.3726 60.5519 25.403 60.0112 25.3374 59.9621C24.4632 59.3393 23.1536 57.6206 23.5209 56.477C23.5821 56.3009 23.6774 56.1386 23.8015 55.9995C23.9255 55.8603 24.0757 55.747 24.2436 55.666C24.4115 55.585 24.5938 55.5379 24.7799 55.5275C24.966 55.5171 25.1524 55.5435 25.3283 55.6053L25.472 55.6684C25.8445 55.8858 26.1645 56.1826 26.4094 56.5377C26.6542 56.8927 26.8178 57.2974 26.8886 57.7228C26.9721 58.7121 26.9077 59.7084 26.6972 60.6786L27.8024 60.6048C29.0141 60.5253 30.2301 60.4218 31.4212 60.3883C31.84 60.3707 32.2496 60.37 32.6652 60.3705C32.2864 60.1657 31.6157 59.7905 31.537 59.7453C30.6628 59.1225 29.3543 57.3978 29.7206 56.2602C29.7817 56.0841 29.8771 55.9218 30.0011 55.7826C30.1251 55.6435 30.2754 55.5301 30.4433 55.4491C30.6112 55.3682 30.7934 55.3211 30.9795 55.3107C31.1656 55.3003 31.352 55.3267 31.5279 55.3885L31.6716 55.4516C32.0441 55.669 32.3641 55.9658 32.609 56.3208C32.8538 56.6759 33.0174 57.0805 33.0882 57.506C33.1753 58.4605 33.117 59.4227 32.9153 60.3597C33.5979 60.3586 34.2713 60.3745 34.9392 60.4204C35.2217 60.4712 35.5231 60.4511 35.7946 60.4938C36.066 60.5365 36.3414 60.5923 36.6194 60.599L38.9748 61.0234C38.5672 60.8755 37.9219 60.6352 37.865 60.6063C36.9107 60.118 35.3503 58.6208 35.5396 57.4327C35.6093 57.0641 35.8218 56.7379 36.1309 56.5251C36.4399 56.3124 36.8205 56.2304 37.1898 56.2969C37.2443 56.3037 37.2985 56.3135 37.352 56.3262C37.7521 56.4869 38.1123 56.7332 38.4071 57.0478C38.7019 57.3624 38.9244 57.7378 39.0588 58.1475C39.296 59.1054 39.3836 60.0944 39.3184 61.0791C39.9193 61.1874 40.5503 61.3011 41.1114 61.458C42.8989 61.8669 44.3653 62.2676 45.3842 62.5691C46.4032 62.8706 46.995 63.0641 46.995 63.0641C47.0478 63.0812 47.0966 63.1086 47.1388 63.1446C47.1809 63.1807 47.2156 63.2247 47.2407 63.2742C47.2658 63.3237 47.2808 63.3777 47.285 63.433C47.2892 63.4883 47.2824 63.5439 47.2651 63.5966C47.2291 63.7023 47.1533 63.7896 47.0538 63.8401C46.9542 63.8906 46.8389 63.9001 46.7325 63.8667C46.2324 63.6634 45.7212 63.4885 45.2014 63.3427Z" fill="#A4DCF2"/>
<path d="M15.7617 59.325C15.7617 59.325 14.9451 61.2748 14.2542 61.9072C13.9555 62.2183 13.5923 62.4602 13.1902 62.6161C12.7881 62.7719 12.3567 62.8378 11.9264 62.8092C11.5541 62.7505 11.22 62.5469 10.997 62.243C10.7741 61.939 10.6803 61.5592 10.7361 61.1864L10.762 61.0422C11.0994 59.8932 13.1522 59.2084 14.1996 59.18C14.3181 59.1765 15.7709 59.308 15.7617 59.325Z" fill="#A4DCF2"/>
<g opacity="0.1">
<path d="M45.6175 62.5846C44.9079 61.8054 43.8724 60.7006 42.5788 59.4439C42.2053 59.0725 41.8038 58.6838 41.3882 58.3049C40.6843 58.9971 39.8808 59.58 39.0044 60.0344C38.6058 60.198 38.1766 60.2736 37.7461 60.256C37.3157 60.2384 36.8941 60.128 36.5102 59.9324C36.1956 59.7326 35.9729 59.4163 35.8908 59.0528C35.8086 58.6892 35.8737 58.3079 36.0718 57.9923L36.1557 57.8709C36.9407 56.9576 39.0763 57.1563 40.0719 57.5528C40.138 57.5647 40.8535 57.9666 41.2012 58.172L40.4344 57.4693C40.0505 57.1209 39.6365 56.7671 39.2395 56.4226L38.5937 55.9092C38.3783 55.7277 38.1503 55.5812 37.9196 55.4155C37.5905 55.1763 37.228 54.9497 36.8787 54.7192C36.3145 55.4684 35.6394 56.1271 34.8765 56.6726C34.5064 56.8958 34.0924 57.0362 33.6628 57.0841C33.2333 57.132 32.7985 57.0863 32.3883 56.9501C32.0429 56.7954 31.7729 56.51 31.6377 56.1565C31.5025 55.8029 31.5131 55.4102 31.6672 55.0645L31.7156 54.9677C32.3415 53.939 34.4995 53.8066 35.5462 54.0573C35.5462 54.0573 35.7921 54.1388 36.0489 54.2285C35.6964 54.0161 35.3438 53.8037 34.977 53.6011C33.9396 53.0233 32.8607 52.4691 31.784 51.9029C31.5626 51.7885 31.3423 51.6682 31.115 51.5528C30.5351 52.3216 29.8441 53 29.0648 53.5657C28.6959 53.789 28.2829 53.9296 27.8543 53.9777C27.4258 54.0258 26.9919 53.9803 26.5826 53.8443C26.4118 53.7692 26.2575 53.661 26.1286 53.526C25.9997 53.3911 25.8987 53.232 25.8315 53.0579C25.7643 52.8837 25.7322 52.6981 25.7369 52.5115C25.7417 52.3249 25.7833 52.1411 25.8593 51.9707L25.9099 51.8619C26.5298 50.8321 28.6938 50.7009 29.7345 50.9504C29.7706 50.9569 30.0274 51.0466 30.3181 51.1548C29.754 50.8423 29.191 50.5237 28.6313 50.1871C27.6696 49.6185 26.7472 48.986 25.8704 48.2937C25.2783 49.0975 24.5669 49.8062 23.7609 50.3952C23.3919 50.6185 22.9789 50.7591 22.5504 50.8072C22.1218 50.8553 21.6879 50.8098 21.2787 50.6739C21.1078 50.5987 20.9535 50.4905 20.8247 50.3556C20.6958 50.2206 20.5948 50.0615 20.5276 49.8874C20.4604 49.7133 20.4282 49.5276 20.433 49.341C20.4378 49.1544 20.4794 48.9707 20.5554 48.8002L20.576 48.686C21.2018 47.6573 23.3598 47.525 24.4006 47.7745C24.4787 47.7886 25.3988 48.1219 25.7284 48.2557L25.6923 48.2492C24.8441 47.5492 24.0619 46.7728 23.3557 45.9298C22.7163 45.1847 22.1219 44.4022 21.5754 43.5865C21.0904 42.8353 20.6371 42.1146 20.2658 41.4894C20.0676 41.1435 19.8901 40.8199 19.7335 40.5187C19.7335 40.5187 18.5765 39.6402 18.5141 39.5731C17.7511 38.8152 16.7291 36.9126 17.2691 35.8435C17.3594 35.6761 17.4822 35.5283 17.6303 35.409C17.7785 35.2896 17.949 35.201 18.1318 35.1484C18.3147 35.0959 18.5062 35.0803 18.6951 35.1028C18.884 35.1252 19.0666 35.1851 19.232 35.279L19.3545 35.3569C19.6869 35.6317 19.9555 35.9757 20.1415 36.365C20.3274 36.7542 20.4263 37.1793 20.4311 37.6106C20.3647 38.5775 20.1515 39.5285 19.7989 40.4312C19.9654 40.7466 20.1548 41.0723 20.3689 41.4335C20.7511 42.0669 21.1946 42.7734 21.7146 43.5371C21.8586 43.7368 22.0134 43.9446 22.1694 44.1464C22.0049 43.8239 21.8574 43.4929 21.7277 43.1549C21.4028 42.1347 21.3677 39.988 22.3468 39.271C22.4993 39.1642 22.6714 39.0886 22.8532 39.0486C23.0351 39.0087 23.223 39.0051 23.4062 39.0381C23.5895 39.0711 23.7643 39.1401 23.9208 39.241C24.0772 39.3419 24.2121 39.4728 24.3177 39.6262C24.3485 39.668 24.3758 39.7124 24.3993 39.7587C24.5674 40.1562 24.6469 40.5854 24.6324 41.0167C24.6179 41.448 24.5097 41.871 24.3153 42.2562C23.8063 43.0866 23.1737 43.8346 22.4392 44.4742C22.7806 44.9204 23.1412 45.3638 23.545 45.8088C24.2606 46.6265 25.0495 47.3771 25.9017 48.0512C25.9604 48.0756 26.0131 48.1126 26.0559 48.1596C25.9327 47.9823 25.3249 46.9484 25.2887 46.8737C24.8448 45.8941 24.5809 43.7434 25.4758 42.943C25.761 42.6995 26.1312 42.579 26.5051 42.608C26.879 42.637 27.2262 42.8131 27.4704 43.0977L27.5711 43.2275C27.7807 43.6086 27.9044 44.0309 27.9334 44.4648C27.9623 44.8987 27.896 45.3338 27.739 45.7393C27.3135 46.6457 26.7447 47.4775 26.0543 48.2028C26.9204 48.8497 27.8274 49.44 28.7696 49.97C29.4671 50.3687 30.188 50.7405 30.9149 51.1135C30.7595 50.8745 30.1938 49.9164 30.1637 49.8428C29.7198 48.8632 29.4548 46.7185 30.3447 45.911C30.6329 45.6682 31.0054 45.549 31.381 45.5795C31.7567 45.61 32.1051 45.7877 32.3503 46.0739L32.44 46.1955C32.6508 46.5762 32.7752 46.9986 32.8042 47.4327C32.8332 47.8669 32.7662 48.302 32.6079 48.7073C32.1851 49.6055 31.6279 50.434 30.9554 51.1642L31.9458 51.659C33.0339 52.1963 34.1221 52.7336 35.1819 53.2906C35.5497 53.4871 35.9034 53.6936 36.2641 53.895C36.038 53.5317 35.6492 52.8661 35.6169 52.8044C35.173 51.8248 34.938 49.6856 35.804 48.8737C36.0952 48.631 36.4706 48.5134 36.8482 48.5466C37.2258 48.5798 37.575 48.761 37.8194 49.0508L37.8993 49.1582C38.1101 49.5389 38.2344 49.9613 38.2634 50.3954C38.2924 50.8296 38.2254 51.2648 38.0671 51.6701C37.6625 52.5385 37.1269 53.3396 36.479 54.0454C37.0387 54.382 37.6504 54.7404 38.2036 55.1131C38.4344 55.2787 38.6853 55.4356 38.9018 55.6111L39.5618 56.1147C39.9998 56.4727 40.405 56.8063 40.802 57.1508C41.0065 57.3242 41.193 57.4943 41.3926 57.6605C41.1108 57.3306 40.6742 56.7928 40.6397 56.7431C40.0583 55.8381 39.4652 53.7583 40.2283 52.8287C40.3501 52.6881 40.4985 52.5729 40.6649 52.4897C40.8313 52.4064 41.0124 52.3567 41.198 52.3435C41.3836 52.3303 41.57 52.3538 41.7465 52.4126C41.923 52.4714 42.0862 52.5644 42.2268 52.6863C42.2689 52.6939 42.3012 52.7556 42.3378 52.7932C42.604 53.1332 42.7927 53.5273 42.8905 53.9479C42.9883 54.3685 42.993 54.8053 42.9042 55.2279C42.62 56.1735 42.1968 57.0716 41.6485 57.8927C42.1249 58.3136 42.5843 58.7252 43.0037 59.1171C44.3415 60.3694 45.4054 61.4545 46.1652 62.2304C46.925 63.0063 47.3074 63.4661 47.3074 63.4661C47.3494 63.5066 47.3822 63.5556 47.4037 63.6098C47.4251 63.664 47.4347 63.7222 47.4319 63.7804C47.429 63.8386 47.4138 63.8956 47.3871 63.9474C47.3604 63.9993 47.323 64.0449 47.2773 64.0811C47.2351 64.1199 47.1855 64.1499 47.1314 64.1692C47.0774 64.1885 47.02 64.1967 46.9627 64.1933C46.9054 64.1899 46.8494 64.175 46.7979 64.1495C46.7465 64.124 46.7008 64.0884 46.6634 64.0449C46.3864 63.5106 46.0342 63.0188 45.6175 62.5846Z" fill="#A4DCF2"/>
<path d="M22.1962 44.3018C22.1962 44.3018 20.5091 45.5736 19.592 45.7744C19.1769 45.8908 18.7417 45.9164 18.3159 45.8493C17.8901 45.7822 17.4837 45.6241 17.1246 45.3857C16.8308 45.1492 16.6429 44.8058 16.6023 44.4308C16.5617 44.0559 16.6716 43.6801 16.9079 43.3862L17.0087 43.2741C17.8779 42.4442 20.0003 42.8887 20.9371 43.4049C21.0218 43.4512 22.2104 44.292 22.1962 44.3018Z" fill="#A4DCF2"/>
<path d="M45.2014 63.3427C44.1977 63.0254 42.7499 62.5908 40.9918 62.1561C40.4875 62.028 39.9521 61.9005 39.3976 61.7758C39.1352 62.726 38.7337 63.632 38.2059 64.4646C37.9456 64.8085 37.613 65.0911 37.2315 65.2925C36.8501 65.4939 36.4291 65.6092 35.9982 65.6302C35.8106 65.6226 35.6262 65.5781 35.4558 65.4992C35.2853 65.4203 35.1321 65.3086 35.0049 65.1704C34.8776 65.0323 34.7789 64.8704 34.7143 64.694C34.6497 64.5176 34.6205 64.3303 34.6284 64.1426L34.6555 63.9924C34.872 62.7906 36.8191 61.9006 37.8832 61.7449C37.9433 61.7557 38.764 61.7113 39.1807 61.7057C38.8388 61.6501 38.5 61.5766 38.1657 61.4856L35.7621 61.0525C35.4857 61.0027 35.2137 60.9972 34.9341 60.9654C34.525 60.9289 34.1066 60.9094 33.7063 60.8931C33.5949 61.8237 33.3433 62.7322 32.9603 63.5877C32.7529 63.9681 32.4655 64.299 32.118 64.5577C31.7704 64.8164 31.3709 64.9967 30.947 65.0861C30.7617 65.1106 30.5734 65.0984 30.3928 65.0501C30.2122 65.0019 30.043 64.9185 29.8946 64.8047C29.7463 64.691 29.6219 64.5492 29.5284 64.3874C29.4349 64.2255 29.3742 64.0468 29.3498 63.8615L29.3392 63.6797C29.3629 62.4804 31.1615 61.2783 32.1844 60.9725C32.2205 60.979 32.4421 60.9197 32.7118 60.869C32.2973 60.8625 31.8828 60.8561 31.4722 60.8628C30.2822 60.8903 29.0749 60.9457 27.8604 61.0061C27.6103 61.0169 27.3613 61.0216 27.1052 61.0313C26.9953 61.9891 26.739 62.9242 26.345 63.804C26.1397 64.185 25.8537 64.5166 25.507 64.7756C25.1603 65.0346 24.7613 65.2148 24.3377 65.3036C24.1524 65.3281 23.9642 65.3159 23.7836 65.2676C23.603 65.2193 23.4338 65.1359 23.2854 65.0222C23.1371 64.9085 23.0127 64.7667 22.9192 64.6048C22.8257 64.443 22.765 64.2643 22.7406 64.079L22.7299 63.8972C22.7537 62.6979 24.5523 61.4958 25.5752 61.19C25.6113 61.1965 25.8782 61.1267 26.1801 61.0694C25.5183 61.0928 24.8646 61.1053 24.2082 61.0987C23.0897 61.0892 21.9731 61.0062 20.8656 60.8501C20.7496 61.8351 20.4904 62.7979 20.0963 63.708C19.8899 64.0892 19.6028 64.4208 19.2551 64.6796C18.9074 64.9384 18.5074 65.1182 18.083 65.2065C17.8977 65.231 17.7094 65.2188 17.5288 65.1705C17.3483 65.1222 17.179 65.0388 17.0307 64.9251C16.8824 64.8114 16.7579 64.6696 16.6644 64.5077C16.5709 64.3459 16.5103 64.1672 16.4859 63.9819L16.4741 63.8061C16.4979 62.6068 18.2965 61.4047 19.3205 61.0929C19.3926 61.1058 20.3611 60.8957 20.711 60.8471C19.6255 60.6681 18.5582 60.3927 17.5216 60.0242C16.5937 59.7063 15.685 59.3354 14.7996 58.9134C13.9777 58.5171 13.2441 58.112 12.6035 57.7422C12.2608 57.544 11.9481 57.3511 11.6573 57.1747C11.6573 57.1747 10.2202 56.9902 10.1311 56.9679C9.09365 56.7003 7.24435 55.5668 7.17473 54.3693C7.16957 54.1818 7.20157 53.9951 7.26887 53.8199C7.33617 53.6448 7.43743 53.4847 7.56686 53.3489C7.69628 53.213 7.8513 53.1042 8.02297 53.0285C8.19465 52.9528 8.3796 52.9118 8.56718 52.9079C8.61372 52.9133 8.65988 52.9217 8.70539 52.9328C9.13036 53.0057 9.53448 53.1698 9.88999 53.4138C10.2455 53.6577 10.5439 53.9758 10.7648 54.3462C11.1951 55.2152 11.4899 56.145 11.6392 57.1032C11.942 57.2818 12.2678 57.4708 12.6405 57.6744C13.2844 58.0262 14.0201 58.4193 14.8464 58.7916C15.071 58.8879 15.3136 58.9874 15.5442 59.0848C15.1851 58.8402 14.7017 58.4925 14.6591 58.4538C13.8644 57.7337 12.7464 55.8819 13.2356 54.7851C13.398 54.4468 13.688 54.1868 14.042 54.0621C14.396 53.9375 14.7849 53.9584 15.1235 54.1202C15.1724 54.1419 15.2197 54.167 15.2651 54.1954C15.6113 54.4544 15.8967 54.786 16.1013 55.1668C16.306 55.5477 16.4249 55.9687 16.4498 56.4003C16.4233 57.3743 16.2495 58.3386 15.9344 59.2606C16.4547 59.4722 16.9891 59.6739 17.5579 59.8571C18.5891 60.1989 19.6483 60.45 20.7232 60.6073L20.9095 60.6409C20.715 60.55 19.6666 59.964 19.601 59.915C18.7278 59.2862 17.4183 57.5675 17.7856 56.4239C17.8482 56.2477 17.9449 56.0856 18.0702 55.9469C18.1955 55.8081 18.3469 55.6955 18.5158 55.6153C18.6846 55.5351 18.8677 55.4889 19.0544 55.4795C19.2411 55.4701 19.4278 55.4975 19.6039 55.5603C19.6504 55.5658 19.6966 55.5741 19.7421 55.5852C20.1127 55.8063 20.431 56.1049 20.6753 56.4605C20.9197 56.8161 21.0842 57.2204 21.1576 57.6456C21.2445 58.6389 21.1772 59.6397 20.9581 60.6124C22.0355 60.7374 23.1199 60.7919 24.2044 60.7754C24.9995 60.7698 25.8132 60.7303 26.629 60.6788C26.3726 60.5519 25.403 60.0112 25.3374 59.9621C24.4632 59.3393 23.1536 57.6206 23.5209 56.477C23.5821 56.3009 23.6774 56.1386 23.8015 55.9995C23.9255 55.8603 24.0757 55.747 24.2436 55.666C24.4115 55.585 24.5938 55.5379 24.7799 55.5275C24.966 55.5171 25.1524 55.5435 25.3283 55.6053L25.472 55.6684C25.8445 55.8858 26.1645 56.1826 26.4094 56.5377C26.6542 56.8927 26.8178 57.2974 26.8886 57.7228C26.9721 58.7121 26.9077 59.7084 26.6972 60.6786L27.8024 60.6048C29.0141 60.5253 30.2301 60.4218 31.4212 60.3883C31.84 60.3707 32.2496 60.37 32.6652 60.3705C32.2864 60.1657 31.6157 59.7905 31.537 59.7453C30.6628 59.1225 29.3543 57.3978 29.7206 56.2602C29.7817 56.0841 29.8771 55.9218 30.0011 55.7826C30.1251 55.6435 30.2754 55.5301 30.4433 55.4491C30.6112 55.3682 30.7934 55.3211 30.9795 55.3107C31.1656 55.3003 31.352 55.3267 31.5279 55.3885L31.6716 55.4516C32.0441 55.669 32.3641 55.9658 32.609 56.3208C32.8538 56.6759 33.0174 57.0805 33.0882 57.506C33.1753 58.4605 33.117 59.4227 32.9153 60.3597C33.5979 60.3586 34.2713 60.3745 34.9392 60.4204C35.2217 60.4712 35.5231 60.4511 35.7946 60.4938C36.066 60.5365 36.3414 60.5923 36.6194 60.599L38.9748 61.0234C38.5672 60.8755 37.9219 60.6352 37.865 60.6063C36.9107 60.118 35.3503 58.6208 35.5396 57.4327C35.6093 57.0641 35.8218 56.7379 36.1309 56.5251C36.4399 56.3124 36.8205 56.2304 37.1898 56.2969C37.2443 56.3037 37.2985 56.3135 37.352 56.3262C37.7521 56.4869 38.1123 56.7332 38.4071 57.0478C38.7019 57.3624 38.9244 57.7378 39.0588 58.1475C39.296 59.1054 39.3836 60.0944 39.3184 61.0791C39.9193 61.1874 40.5503 61.3011 41.1114 61.458C42.8989 61.8669 44.3653 62.2676 45.3842 62.5691C46.4032 62.8706 46.995 63.0641 46.995 63.0641C47.0478 63.0812 47.0966 63.1086 47.1388 63.1446C47.1809 63.1807 47.2156 63.2247 47.2407 63.2742C47.2658 63.3237 47.2808 63.3777 47.285 63.433C47.2892 63.4883 47.2824 63.5439 47.2651 63.5966C47.2291 63.7023 47.1533 63.7896 47.0538 63.8401C46.9542 63.8906 46.8389 63.9001 46.7325 63.8667C46.2324 63.6634 45.7212 63.4885 45.2014 63.3427Z" fill="#A4DCF2"/>
<path d="M15.7607 59.325C15.7607 59.325 14.9441 61.2748 14.2532 61.9072C13.9545 62.2183 13.5914 62.4602 13.1892 62.6161C12.7871 62.7719 12.3558 62.8378 11.9255 62.8092C11.5531 62.7505 11.219 62.5469 10.996 62.243C10.7731 61.939 10.6793 61.5592 10.7351 61.1864L10.7611 61.0422C11.0984 59.8932 13.1512 59.2084 14.1986 59.18C14.3171 59.1765 15.77 59.308 15.7607 59.325Z" fill="#A4DCF2"/>
</g>
<path d="M53.535 16.7526C53.8544 15.8962 54.5009 15.2017 55.3323 14.822C56.1638 14.4422 57.112 14.4083 57.9684 14.7277L98.8714 29.9821C99.7278 30.3015 100.422 30.948 100.802 31.7795C101.182 32.6109 101.216 33.5591 100.896 34.4156L81.6276 86.0824C81.3082 86.9389 80.6617 87.6333 79.8302 88.0131C78.9988 88.3928 78.0506 88.4267 77.1941 88.1073L36.2912 72.853C35.4348 72.5336 34.7403 71.887 34.3605 71.0556C33.9808 70.2242 33.9469 69.2759 34.2663 68.4195L53.535 16.7526Z" fill="#2C1300"/>
<path d="M95.3867 36.0379C95.5997 35.4669 95.5771 34.8348 95.3239 34.2805C95.0708 33.7262 94.6078 33.2952 94.0368 33.0822L59.5922 20.2365C59.0213 20.0235 58.3891 20.0461 57.8348 20.2993C57.2805 20.5524 56.8495 21.0154 56.6366 21.5864L39.7765 66.7949C39.5636 67.3658 39.5862 67.998 39.8393 68.5523C40.0925 69.1066 40.5555 69.5376 41.1264 69.7505L63.9158 78.2496C64.2323 78.3676 64.5658 78.4136 64.8968 78.3874L66.2165 76.9595L70.8576 68.6706L81.0812 70.5633L82.3343 70.425C82.5726 70.1897 82.7566 69.9051 82.8734 69.5912L95.3867 36.0379Z" fill="white"/>
<path d="M82.347 70.4129L71.7768 66.4708C71.2059 66.2579 70.5737 66.2805 70.0194 66.5337C69.4651 66.7868 69.0341 67.2498 68.8212 67.8208L64.8791 78.3909C65.1536 78.3718 65.4225 78.3034 65.6729 78.1892L81.6747 70.8807C81.925 70.7663 82.1527 70.6078 82.347 70.4129Z" fill="#ABABAB"/>
<mask id="mask0_4305_86473" style="mask-type:alpha" maskUnits="userSpaceOnUse" x="54" y="19" width="34" height="46">
<path d="M81.9228 26.1131C82.3486 24.9712 82.3034 23.7069 81.7971 22.5983C81.2908 21.4897 80.3648 20.6277 79.2229 20.2018C78.081 19.7759 76.8167 19.8211 75.7081 20.3275C74.5995 20.8338 73.7375 21.7597 73.3116 22.9017L71.1588 22.0988C70.0169 21.6729 68.7526 21.7181 67.644 22.2244C66.5354 22.7308 65.6734 23.6567 65.2475 24.7986L64.0433 28.0278C63.9368 28.3133 63.9481 28.6294 64.0747 28.9065C64.2012 29.1837 64.4327 29.3992 64.7182 29.5056L84.0933 36.7314C84.3788 36.8379 84.6948 36.8266 84.972 36.7C85.2491 36.5734 85.4646 36.3419 85.5711 36.0564L86.7754 32.8273C87.2013 31.6853 87.1561 30.421 86.6497 29.3124C86.1434 28.2039 85.2175 27.3418 84.0756 26.916L81.9228 26.1131ZM79.77 25.3102C79.557 25.8812 79.126 26.3442 78.5717 26.5973C78.0174 26.8505 77.3853 26.8731 76.8143 26.6602C76.2434 26.4472 75.7804 26.0162 75.5272 25.4619C75.2741 24.9076 75.2515 24.2755 75.4644 23.7045C75.6773 23.1336 76.1084 22.6706 76.6627 22.4174C77.2169 22.1643 77.8491 22.1417 78.4201 22.3546C78.991 22.5675 79.454 22.9985 79.7072 23.5528C79.9603 24.1071 79.9829 24.7393 79.77 25.3102ZM61.6244 39.3868C61.7309 39.1013 61.9464 38.8698 62.2235 38.7432C62.5007 38.6166 62.8167 38.6053 63.1022 38.7118L85.1874 46.9483C85.4729 47.0547 85.7044 47.2702 85.831 47.5474C85.9575 47.8245 85.9688 48.1406 85.8624 48.4261C85.7559 48.7116 85.5404 48.9431 85.2633 49.0696C84.9861 49.1962 84.67 49.2075 84.3846 49.101L62.2994 40.8646C62.0139 40.7581 61.7824 40.5426 61.6558 40.2655C61.5292 39.9883 61.5179 39.6722 61.6244 39.3868ZM59.2158 45.8451C59.3223 45.5596 59.5378 45.3282 59.8149 45.2016C60.0921 45.075 60.4082 45.0637 60.6936 45.1702L82.7788 53.4066C83.0643 53.5131 83.2958 53.7286 83.4224 54.0057C83.549 54.2829 83.5603 54.599 83.4538 54.8844C83.3473 55.1699 83.1318 55.4014 82.8547 55.528C82.5775 55.6546 82.2615 55.6659 81.976 55.5594L59.8908 47.3229C59.6053 47.2165 59.3738 47.001 59.2472 46.7238C59.1206 46.4467 59.1093 46.1306 59.2158 45.8451ZM58.2851 51.6285C57.9996 51.5221 57.6835 51.5333 57.4064 51.6599C57.1292 51.7865 56.9137 52.018 56.8072 52.3035C56.7008 52.589 56.7121 52.905 56.8386 53.1822C56.9652 53.4593 57.1967 53.6748 57.4822 53.7813L79.5674 62.0178C79.8529 62.1242 80.1689 62.1129 80.4461 61.9863C80.7232 61.8598 80.9387 61.6283 81.0452 61.3428C81.1517 61.0573 81.1404 60.7412 81.0138 60.4641C80.8872 60.187 80.6557 59.9714 80.3703 59.865L58.2851 51.6285ZM54.3986 58.7618C54.5051 58.4764 54.7206 58.2449 54.9978 58.1183C55.2749 57.9917 55.591 57.9804 55.8765 58.0869L67.1977 62.309C67.4832 62.4155 67.7147 62.631 67.8413 62.9082C67.9679 63.1853 67.9792 63.5014 67.8727 63.7869C67.7662 64.0723 67.5507 64.3038 67.2736 64.4304C66.9964 64.557 66.6804 64.5683 66.3949 64.4618L55.0736 60.2397C54.7881 60.1332 54.5566 59.9177 54.4301 59.6405C54.3035 59.3634 54.2922 59.0473 54.3986 58.7618Z" fill="#0A6DE1"/>
</mask>
<g mask="url(#mask0_4305_86473)">
<path d="M81.9228 26.1131C82.3486 24.9712 82.3034 23.7069 81.7971 22.5983C81.2908 21.4897 80.3648 20.6277 79.2229 20.2018C78.081 19.7759 76.8167 19.8211 75.7081 20.3275C74.5995 20.8338 73.7375 21.7597 73.3116 22.9017L71.1588 22.0988C70.0169 21.6729 68.7526 21.7181 67.644 22.2244C66.5354 22.7308 65.6734 23.6567 65.2475 24.7986L64.0433 28.0278C63.9368 28.3133 63.9481 28.6294 64.0747 28.9065C64.2012 29.1837 64.4327 29.3992 64.7182 29.5056L84.0933 36.7314C84.3788 36.8379 84.6948 36.8266 84.972 36.7C85.2491 36.5734 85.4646 36.3419 85.5711 36.0564L86.7754 32.8273C87.2013 31.6853 87.1561 30.421 86.6497 29.3124C86.1434 28.2039 85.2175 27.3418 84.0756 26.916L81.9228 26.1131ZM79.77 25.3102C79.557 25.8812 79.126 26.3442 78.5717 26.5973C78.0174 26.8505 77.3853 26.8731 76.8143 26.6602C76.2434 26.4472 75.7804 26.0162 75.5272 25.4619C75.2741 24.9076 75.2515 24.2755 75.4644 23.7045C75.6773 23.1336 76.1084 22.6706 76.6627 22.4174C77.2169 22.1643 77.8491 22.1417 78.4201 22.3546C78.991 22.5675 79.454 22.9985 79.7072 23.5528C79.9603 24.1071 79.9829 24.7393 79.77 25.3102ZM61.6244 39.3868C61.7309 39.1013 61.9464 38.8698 62.2235 38.7432C62.5007 38.6166 62.8167 38.6053 63.1022 38.7118L85.1874 46.9483C85.4729 47.0547 85.7044 47.2702 85.831 47.5474C85.9575 47.8245 85.9688 48.1406 85.8624 48.4261C85.7559 48.7116 85.5404 48.9431 85.2633 49.0696C84.9861 49.1962 84.67 49.2075 84.3846 49.101L62.2994 40.8646C62.0139 40.7581 61.7824 40.5426 61.6558 40.2655C61.5292 39.9883 61.5179 39.6722 61.6244 39.3868ZM59.2158 45.8451C59.3223 45.5596 59.5378 45.3282 59.8149 45.2016C60.0921 45.075 60.4082 45.0637 60.6936 45.1702L82.7788 53.4066C83.0643 53.5131 83.2958 53.7286 83.4224 54.0057C83.549 54.2829 83.5603 54.599 83.4538 54.8844C83.3473 55.1699 83.1318 55.4014 82.8547 55.528C82.5775 55.6546 82.2615 55.6659 81.976 55.5594L59.8908 47.3229C59.6053 47.2165 59.3738 47.001 59.2472 46.7238C59.1206 46.4467 59.1093 46.1306 59.2158 45.8451ZM58.2851 51.6285C57.9996 51.5221 57.6835 51.5333 57.4064 51.6599C57.1292 51.7865 56.9137 52.018 56.8072 52.3035C56.7008 52.589 56.7121 52.905 56.8386 53.1822C56.9652 53.4593 57.1967 53.6748 57.4822 53.7813L79.5674 62.0178C79.8529 62.1242 80.1689 62.1129 80.4461 61.9863C80.7232 61.8598 80.9387 61.6283 81.0452 61.3428C81.1517 61.0573 81.1404 60.7412 81.0138 60.4641C80.8872 60.187 80.6557 59.9714 80.3703 59.865L58.2851 51.6285ZM54.3986 58.7618C54.5051 58.4764 54.7206 58.2449 54.9978 58.1183C55.2749 57.9917 55.591 57.9804 55.8765 58.0869L67.1977 62.309C67.4832 62.4155 67.7147 62.631 67.8413 62.9082C67.9679 63.1853 67.9792 63.5014 67.8727 63.7869C67.7662 64.0723 67.5507 64.3038 67.2736 64.4304C66.9964 64.557 66.6804 64.5683 66.3949 64.4618L55.0736 60.2397C54.7881 60.1332 54.5566 59.9177 54.4301 59.6405C54.3035 59.3634 54.2922 59.0473 54.3986 58.7618Z" fill="#22B573"/>
<rect x="59.4775" y="33.6914" width="34.2588" height="30.775" transform="rotate(20.4525 59.4775 33.6914)" fill="#E5E5E5"/>
</g>
<path d="M55.4423 36.4563L56.2272 38.7724L59.5867 37.402" stroke="#22B573" stroke-width="2.09112" stroke-linecap="round" stroke-linejoin="round"/>
<path d="M53.0887 42.7649L53.8737 45.081L57.2331 43.7106" stroke="#22B573" stroke-width="2.09112" stroke-linecap="round" stroke-linejoin="round"/>
<path d="M50.7362 49.0735L51.5212 51.3896L54.8806 50.0192" stroke="#22B573" stroke-width="2.09112" stroke-linecap="round" stroke-linejoin="round"/>
<path d="M48.3827 55.3821L49.1677 57.6982L52.5271 56.3278" stroke="#22B573" stroke-width="2.09112" stroke-linecap="round" stroke-linejoin="round"/>
<path d="M83.5477 42.7657L84.7598 39.5156L85.4237 39.7632L86.1978 42.5376L87.0116 40.3554L87.6431 40.5909L86.431 43.841L85.7995 43.6055L85.0132 40.7789L84.1838 43.0029L83.5477 42.7657Z" fill="#010101"/>
<path d="M81.7299 42.1538C81.4018 42.0315 81.1374 41.8518 80.9366 41.6147C80.7402 41.3758 80.6175 41.1043 80.5686 40.8005C80.5209 40.4936 80.5576 40.1776 80.6788 39.8526C80.8024 39.5214 80.9821 39.257 81.218 39.0594C81.455 38.8587 81.7239 38.7333 82.0246 38.6833C82.3284 38.6344 82.6428 38.6706 82.9679 38.7918C83.296 38.9141 83.5567 39.0942 83.7501 39.3321C83.9477 39.568 84.0704 39.8394 84.1181 40.1463C84.167 40.4501 84.1302 40.7661 84.0079 41.0942C83.8867 41.4192 83.7075 41.682 83.4705 41.8827C83.2377 42.0815 82.9688 42.2069 82.6638 42.2589C82.3631 42.3089 82.0518 42.2739 81.7299 42.1538ZM81.9463 41.5735C82.1444 41.6474 82.3351 41.6656 82.5183 41.6281C82.7057 41.5887 82.8718 41.5026 83.0166 41.3697C83.1644 41.238 83.2782 41.0653 83.3578 40.8517C83.4387 40.6351 83.4663 40.4285 83.4408 40.2322C83.4153 40.0358 83.3441 39.8629 83.227 39.7135C83.1111 39.561 82.9526 39.4472 82.7514 39.3721C82.5564 39.2994 82.3636 39.2822 82.1731 39.3204C81.9868 39.3567 81.8197 39.4407 81.6718 39.5725C81.524 39.7042 81.4097 39.8784 81.3289 40.0951C81.2492 40.3086 81.2221 40.5136 81.2476 40.71C81.2731 40.9064 81.3453 41.0814 81.4643 41.2351C81.5844 41.3856 81.7451 41.4984 81.9463 41.5735Z" fill="#010101"/>
<path d="M79.2938 41.1798L80.5059 37.9297L81.1419 38.1669L79.9299 41.417L79.2938 41.1798Z" fill="#010101"/>
<path d="M77.6418 40.5629L78.6375 37.8932L77.6625 37.5296L77.8789 36.9492L80.4604 37.912L80.244 38.4923L79.2736 38.1304L78.2779 40.8002L77.6418 40.5629Z" fill="#010101"/>
<path d="M76.4854 40.1334L76.4531 36.4193L77.0892 36.6565L77.1586 40.3845L76.4854 40.1334ZM73.9178 39.1759L76.4113 36.4037L77.0474 36.6409L74.591 39.4269L73.9178 39.1759ZM74.788 38.686L74.9976 38.1242L77.0358 38.8843L76.8263 39.4461L74.788 38.686Z" fill="#010101"/>
<path d="M71.5848 38.3048L72.7969 35.0547L74.0041 35.5049C74.2331 35.5903 74.4191 35.7108 74.5621 35.8664C74.705 36.0219 74.7966 36.1971 74.8368 36.3919C74.8781 36.5836 74.8601 36.7832 74.7828 36.9906C74.7066 37.1949 74.5858 37.3579 74.4206 37.4796C74.2595 37.5993 74.0725 37.6706 73.8595 37.6934C73.6477 37.7131 73.4272 37.6803 73.1982 37.5949L72.6503 37.3905L72.2209 38.542L71.5848 38.3048ZM73.3723 38.9714L73.1067 37.3862L73.7241 37.2198L74.092 39.2398L73.3723 38.9714ZM72.8667 36.8102L73.4425 37.0249C73.5384 37.0607 73.6311 37.0723 73.7203 37.0598C73.8127 37.0484 73.8939 37.0152 73.9638 36.9601C74.0367 36.9063 74.09 36.8344 74.1234 36.7447C74.1754 36.6054 74.1665 36.4734 74.0966 36.3486C74.0299 36.225 73.9176 36.1337 73.7597 36.0749L73.2165 35.8723L72.8667 36.8102Z" fill="#010101"/>
<path d="M70.8936 38.0475L70.8613 34.3333L71.4974 34.5706L71.5668 38.2986L70.8936 38.0475ZM68.326 37.0899L70.8196 34.3178L71.4556 34.555L68.9992 37.341L68.326 37.0899ZM69.1962 36.6L69.4058 36.0382L71.444 36.7984L71.2345 37.3602L69.1962 36.6Z" fill="#010101"/>
<path d="M66.2156 36.3048L67.4277 33.0547L68.6349 33.5049C68.864 33.5903 69.0494 33.7124 69.1912 33.871C69.3342 34.0266 69.4246 34.2049 69.4624 34.4058C69.5015 34.6037 69.4811 34.8095 69.4015 35.0231C69.323 35.2335 69.2052 35.4029 69.048 35.5312C68.8909 35.6595 68.7109 35.7404 68.5079 35.774C68.3062 35.8045 68.0954 35.7788 67.8756 35.6969L67.2535 35.4648L66.8517 36.542L66.2156 36.3048ZM67.4716 34.8798L68.0799 35.1066C68.2222 35.1597 68.3556 35.1566 68.48 35.0972C68.6087 35.0359 68.7007 34.931 68.7561 34.7824C68.8115 34.6338 68.8055 34.494 68.738 34.3631C68.6735 34.2333 68.5624 34.1389 68.4045 34.0801L67.8474 33.8723L67.4716 34.8798Z" fill="#010101"/>
<path d="M63.8533 35.422L65.0654 32.1719L67.1223 32.939L66.9058 33.5193L65.4851 32.9895L65.2098 33.7277L66.4355 34.1848L66.2243 34.7513L64.9985 34.2942L64.7059 35.0788L66.1452 35.6156L65.9288 36.196L63.8533 35.422Z" fill="#010101"/>
<path d="M61.2322 34.4454L62.4443 31.1953L63.6515 31.6455C63.8806 31.7309 64.0666 31.8514 64.2095 32.007C64.3525 32.1626 64.4441 32.3377 64.4842 32.5325C64.5256 32.7243 64.5076 32.9238 64.4302 33.1312C64.354 33.3355 64.2333 33.4985 64.068 33.6202C63.907 33.74 63.72 33.8112 63.507 33.8341C63.2951 33.8538 63.0747 33.8209 62.8456 33.7355L62.2978 33.5312L61.8683 34.6826L61.2322 34.4454ZM63.0198 35.1121L62.7542 33.5269L63.3716 33.3605L63.7395 35.3804L63.0198 35.1121ZM62.5142 32.9508L63.0899 33.1655C63.1859 33.2013 63.2785 33.2129 63.3678 33.2004C63.4602 33.189 63.5413 33.1558 63.6112 33.1008C63.6842 33.0469 63.7374 32.9751 63.7709 32.8853C63.8229 32.746 63.8139 32.614 63.7441 32.4892C63.6774 32.3656 63.5651 32.2744 63.4072 32.2155L62.864 32.0129L62.5142 32.9508Z" fill="#010101"/>
<path d="M58.8055 33.5392L60.0176 30.2891L61.2248 30.7393C61.4538 30.8247 61.6392 30.9467 61.781 31.1054C61.924 31.261 62.0144 31.4392 62.0523 31.6402C62.0913 31.8381 62.071 32.0439 61.9913 32.2574C61.9128 32.4679 61.795 32.6373 61.6379 32.7656C61.4807 32.8938 61.3007 32.9748 61.0978 33.0084C60.896 33.0389 60.6852 33.0132 60.4655 32.9312L59.8433 32.6992L59.4416 33.7764L58.8055 33.5392ZM60.0615 32.1142L60.6697 32.341C60.8121 32.3941 60.9455 32.391 61.0699 32.3316C61.1985 32.2703 61.2905 32.1653 61.346 32.0167C61.4014 31.8682 61.3953 31.7284 61.3278 31.5975C61.2634 31.4677 61.1522 31.3733 60.9944 31.3144L60.4372 31.1067L60.0615 32.1142Z" fill="#010101"/>
<path d="M33.958 45.8909L30.1482 48.1941L28.0692 52.1662L40.7902 64.1055L44.9019 61.7625L46.68 57.8319L33.958 45.8909Z" fill="#0A6DE1"/>
<path d="M47.6281 63.0887L47.1633 64.233L46.0982 64.7188L40.8006 64.0903L46.6654 57.8416L47.6281 63.0887Z" fill="#FFE7BA"/>
<path d="M47.9682 64.9433L47.6288 63.0909L46.098 64.721L47.9682 64.9433Z" fill="#2B2B2B"/>
<path d="M28.9523 41.1903C28.7875 41.0356 28.5938 40.9148 28.3823 40.8349C28.1708 40.7551 27.9456 40.7176 27.7197 40.7248C27.4937 40.732 27.2714 40.7836 27.0654 40.8767C26.8594 40.9698 26.6738 41.1026 26.5191 41.2674L22.9863 45.0324C22.674 45.3652 22.5067 45.8084 22.5212 46.2645C22.5357 46.7207 22.7307 47.1524 23.0634 47.4647L26.2002 50.4096L30.0321 48.339L32.0899 44.1352L28.9523 41.1903Z" fill="#0A6DE1"/>
<path d="M32.0897 44.1359L26.2 50.4104L28.0829 52.1768L33.9709 45.9032L32.0897 44.1359Z" fill="#003069"/>
</svg>
