<svg width="139" height="69" viewBox="0 0 139 69" fill="none" xmlns="http://www.w3.org/2000/svg">
<path d="M98.0004 50.4229C98.1887 49.752 98.4732 48.792 98.8652 47.6658C98.9759 47.3355 99.098 46.9868 99.2313 46.6396C99.8525 46.84 100.5 46.9464 101.153 46.9551C101.437 46.9336 101.713 46.8511 101.962 46.713C102.211 46.575 102.428 46.3848 102.597 46.1554C102.724 45.944 102.761 45.691 102.702 45.4518C102.643 45.2126 102.491 45.0066 102.281 44.8787L102.195 44.8319C101.46 44.5248 100.257 45.2753 99.7863 45.8049C99.7507 45.8315 99.447 46.2812 99.3024 46.5056L99.5472 45.863C99.6709 45.5432 99.8107 45.2114 99.9432 44.8901L100.173 44.3952C100.246 44.2241 100.337 44.0699 100.425 43.9036C100.548 43.6646 100.695 43.4232 100.834 43.1834C101.389 43.459 101.983 43.6481 102.596 43.7444C102.881 43.7666 103.167 43.7268 103.435 43.6278C103.703 43.5288 103.947 43.3729 104.149 43.1707C104.307 42.9769 104.382 42.7282 104.357 42.4791C104.332 42.2301 104.21 42.0011 104.016 41.8425L103.959 41.7997C103.284 41.3772 101.969 41.9387 101.425 42.3972C101.425 42.3972 101.304 42.5183 101.178 42.6474C101.324 42.4173 101.469 42.1873 101.626 41.9588C102.068 41.3098 102.541 40.6623 103.01 40.0085C103.107 39.8753 103.201 39.7388 103.301 39.6032C103.872 39.8857 104.482 40.0818 105.11 40.1851C105.394 40.2077 105.68 40.1684 105.947 40.0698C106.215 39.9711 106.458 39.8156 106.659 39.6139C106.738 39.5189 106.797 39.4092 106.833 39.2912C106.87 39.1732 106.882 39.0493 106.87 38.9264C106.858 38.8036 106.822 38.6843 106.764 38.5755C106.706 38.4666 106.627 38.3703 106.532 38.2921L106.469 38.2428C105.798 37.8179 104.48 38.3819 103.939 38.838C103.919 38.8525 103.794 38.9816 103.654 39.1318C103.895 38.7798 104.133 38.4246 104.364 38.0597C104.764 37.4386 105.122 36.7913 105.435 36.1222C106.023 36.4217 106.654 36.6297 107.305 36.7388C107.589 36.7614 107.875 36.7221 108.142 36.6235C108.41 36.5248 108.653 36.3693 108.854 36.1676C108.933 36.0726 108.992 35.9629 109.028 35.8449C109.065 35.7269 109.077 35.603 109.065 35.4801C109.053 35.3573 109.017 35.238 108.959 35.1292C108.901 35.0203 108.822 34.924 108.726 34.8458L108.68 34.7844C108.005 34.3619 106.691 34.9235 106.15 35.3796C106.108 35.411 105.663 35.8808 105.508 36.0576L105.527 36.0431C105.821 35.3779 106.053 34.6871 106.22 33.9795C106.377 33.3496 106.497 32.7109 106.578 32.0668C106.642 31.479 106.696 30.9186 106.73 30.439C106.745 30.1758 106.754 29.9319 106.757 29.7075C106.757 29.7075 107.18 28.8453 107.197 28.7871C107.424 28.113 107.464 26.6854 106.828 26.2137C106.725 26.1415 106.608 26.0906 106.485 26.064C106.362 26.0373 106.235 26.0355 106.112 26.0587C105.988 26.0818 105.87 26.1294 105.765 26.1986C105.66 26.2679 105.57 26.3574 105.5 26.462L105.451 26.5443C105.336 26.8053 105.279 27.0883 105.284 27.3734C105.29 27.6586 105.358 27.9392 105.483 28.1956C105.808 28.7473 106.216 29.2462 106.692 29.6752C106.688 29.9109 106.672 30.1596 106.653 30.4366C106.615 30.9242 106.562 31.4733 106.481 32.0788C106.455 32.2395 106.425 32.4083 106.393 32.5738C106.394 32.3344 106.383 32.095 106.36 31.8568C106.249 31.1575 105.634 29.8783 104.843 29.7448C104.721 29.7269 104.597 29.7333 104.477 29.7635C104.358 29.7938 104.246 29.8474 104.147 29.9212C104.049 29.9951 103.966 30.0877 103.903 30.1937C103.841 30.2997 103.8 30.4171 103.783 30.539C103.777 30.5729 103.774 30.6072 103.774 30.6416C103.793 30.9263 103.873 31.2036 104.009 31.4542C104.146 31.7048 104.335 31.9227 104.564 32.0928C105.111 32.4327 105.707 32.6872 106.331 32.8475C106.261 33.2124 106.179 33.5814 106.073 33.9641C105.892 34.6595 105.648 35.337 105.344 35.9881C105.317 36.02 105.297 36.0574 105.286 36.0979C105.306 35.9566 105.358 35.1654 105.358 35.1104C105.33 34.3999 104.848 33.0505 104.082 32.8428C103.841 32.7834 103.587 32.8219 103.374 32.9499C103.162 33.0779 103.009 33.2849 102.949 33.5255L102.928 33.6321C102.917 33.9194 102.969 34.2057 103.08 34.4708C103.192 34.7358 103.36 34.9733 103.573 35.1664C104.093 35.576 104.676 35.899 105.299 36.123C104.979 36.7621 104.618 37.3799 104.218 37.9725C103.924 38.4148 103.608 38.8483 103.289 39.2843C103.31 39.0969 103.361 38.363 103.357 38.3105C103.329 37.6 102.849 36.2538 102.084 36.0404C101.842 35.9823 101.586 36.0223 101.373 36.1517C101.16 36.2811 101.007 36.4894 100.947 36.7312L100.93 36.8297C100.918 37.1172 100.97 37.4037 101.082 37.6689C101.193 37.9341 101.362 38.1714 101.575 38.3641C102.092 38.7696 102.667 39.094 103.28 39.3263L102.842 39.9123C102.358 40.5525 101.874 41.1926 101.413 41.836C101.254 42.0612 101.106 42.2881 100.952 42.5141C100.978 42.2323 101.011 41.7237 101.012 41.6776C100.984 40.9671 100.488 39.633 99.7357 39.4099C99.4917 39.3528 99.2349 39.3946 99.0216 39.5261C98.8082 39.6577 98.6556 39.8683 98.597 40.1121L98.5817 40.1993C98.5699 40.4867 98.6217 40.7733 98.7333 41.0384C98.8448 41.3036 99.0134 41.541 99.2272 41.7336C99.7238 42.1269 100.278 42.4416 100.87 42.6667C100.639 43.0316 100.384 43.4247 100.167 43.809C100.08 43.9753 99.9781 44.1424 99.9022 44.3103L99.6614 44.8036C99.5087 45.1451 99.3681 45.4624 99.2356 45.7837C99.1661 45.9468 99.1063 46.1026 99.0376 46.2601C99.1063 45.9815 99.205 45.5342 99.2107 45.4946C99.286 44.7874 99.0199 43.3823 98.2933 43.0591C98.1796 43.0122 98.0578 42.988 97.9348 42.9882C97.8117 42.9883 97.6899 43.0126 97.5763 43.0598C97.4627 43.107 97.3595 43.1762 97.2726 43.2633C97.1857 43.3504 97.1168 43.4537 97.0699 43.5674C97.0473 43.5844 97.0465 43.6304 97.036 43.6635C96.9794 43.9434 96.9848 44.2322 97.0516 44.5098C97.1185 44.7874 97.2453 45.047 97.4231 45.2704C97.8714 45.745 98.3877 46.1504 98.9552 46.4732C98.7984 46.8631 98.6489 47.2426 98.5172 47.5986C98.0978 48.7354 97.7907 49.6921 97.5717 50.3759C97.3526 51.0598 97.2629 51.4449 97.2629 51.4449C97.2501 51.4813 97.2452 51.5199 97.2486 51.5583C97.252 51.5967 97.2636 51.634 97.2825 51.6676C97.3015 51.7011 97.3274 51.7303 97.3585 51.753C97.3896 51.7757 97.4253 51.7916 97.463 51.7994C97.4995 51.8099 97.5377 51.8129 97.5754 51.8082C97.613 51.8036 97.6494 51.7915 97.6822 51.7725C97.7151 51.7535 97.7438 51.7281 97.7666 51.6978C97.7895 51.6675 97.806 51.6329 97.8151 51.5961C97.8204 51.1982 97.8828 50.8031 98.0004 50.4229Z" fill="#22B573"/>
<path d="M106.423 32.6714C106.423 32.6714 107.797 32.9229 108.399 32.7697C108.679 32.7155 108.943 32.6015 109.175 32.4356C109.407 32.2697 109.6 32.0558 109.742 31.8085C109.845 31.5816 109.855 31.3229 109.767 31.0893C109.68 30.8556 109.504 30.6661 109.277 30.5624L109.184 30.5261C108.425 30.2933 107.302 31.1852 106.901 31.768C106.865 31.8205 106.412 32.6698 106.423 32.6714Z" fill="#22B573"/>
<path d="M98.4709 50.746C98.9701 50.2609 99.697 49.5748 100.607 48.7967C100.867 48.5715 101.146 48.3374 101.437 48.0993C101.873 48.5831 102.379 48.9996 102.938 49.3352C103.194 49.4613 103.474 49.5297 103.759 49.5357C104.045 49.5416 104.328 49.4849 104.589 49.3696C104.697 49.3095 104.793 49.2285 104.87 49.1314C104.948 49.0342 105.005 48.9228 105.039 48.8034C105.074 48.684 105.084 48.559 105.07 48.4356C105.056 48.3123 105.017 48.1929 104.957 48.0843L104.897 48.0035C104.412 47.3574 102.998 47.4087 102.323 47.6321C102.29 47.6563 101.792 47.8734 101.544 47.9936C101.73 47.8593 101.908 47.7155 102.079 47.5626L103.371 46.5941C103.52 46.4827 103.679 46.3988 103.835 46.2971C104.065 46.1542 104.307 46.0187 104.539 45.8903C104.881 46.4074 105.298 46.8697 105.779 47.2618C106.014 47.4251 106.282 47.5355 106.564 47.5854C106.846 47.6352 107.136 47.6233 107.413 47.5505C107.529 47.5101 107.637 47.447 107.73 47.365C107.822 47.2829 107.897 47.1834 107.951 47.0723C108.005 46.9611 108.037 46.8403 108.044 46.717C108.051 46.5936 108.034 46.47 107.994 46.3533L107.946 46.2426C107.576 45.5408 106.157 45.3636 105.462 45.4861C105.442 45.5006 105.294 45.5313 105.119 45.5813C105.362 45.4546 105.606 45.3279 105.85 45.2101C106.562 44.8736 107.292 44.5484 108.027 44.2241C108.178 44.1563 108.327 44.0853 108.481 44.0151C108.83 44.5485 109.259 45.0252 109.752 45.4285C109.987 45.5928 110.254 45.7039 110.536 45.7542C110.818 45.8045 111.107 45.7927 111.383 45.7197C111.5 45.6792 111.608 45.6162 111.7 45.5341C111.793 45.4521 111.868 45.3526 111.922 45.2414C111.976 45.1302 112.007 45.0095 112.015 44.8861C112.022 44.7627 112.005 44.6392 111.964 44.5224L111.917 44.4118C111.547 43.71 110.128 43.5327 109.432 43.6552C109.413 43.6698 109.235 43.7077 109.039 43.7633C109.437 43.581 109.827 43.3946 110.213 43.196C110.872 42.8589 111.507 42.4787 112.115 42.0581C112.476 42.6059 112.914 43.0981 113.417 43.5192C113.652 43.6833 113.92 43.7942 114.202 43.844C114.485 43.8939 114.774 43.8816 115.051 43.808C115.168 43.7675 115.276 43.7045 115.368 43.6224C115.461 43.5404 115.536 43.4409 115.59 43.3297C115.644 43.2185 115.675 43.0978 115.683 42.9744C115.69 42.8511 115.673 42.7275 115.632 42.6107L115.587 42.5033C115.218 41.8015 113.798 41.6243 113.1 41.7435C113.062 41.7726 112.427 41.9355 112.206 42.0105C112.794 41.5829 113.343 41.1037 113.847 40.5786C114.301 40.1157 114.728 39.627 115.126 39.1151C115.495 38.6372 115.808 38.1803 116.077 37.7719C116.221 37.5531 116.349 37.3464 116.468 37.1559C116.468 37.1559 117.263 36.6208 117.309 36.5813C117.843 36.1155 118.6 34.8973 118.286 34.1689C118.233 34.0565 118.159 33.9557 118.067 33.8721C117.976 33.7886 117.868 33.724 117.751 33.6821C117.635 33.6401 117.511 33.6217 117.387 33.6279C117.263 33.6341 117.142 33.6647 117.03 33.718C117.004 33.735 116.979 33.7536 116.955 33.7737C116.726 33.9428 116.535 34.1595 116.398 34.4091C116.26 34.6587 116.178 34.9352 116.157 35.2196C116.16 35.8608 116.262 36.4977 116.458 37.1083C116.332 37.3036 116.195 37.5119 116.035 37.7428C115.759 38.1416 115.441 38.592 115.063 39.057C114.958 39.1805 114.844 39.3113 114.737 39.4372C114.877 39.1861 115.059 38.8374 115.073 38.8018C115.329 38.1406 115.441 36.7147 114.827 36.2115C114.631 36.0597 114.382 35.992 114.136 36.0233C113.89 36.0545 113.666 36.1822 113.514 36.3782C113.491 36.4055 113.471 36.4344 113.453 36.4646C113.325 36.7203 113.254 37.0009 113.246 37.2867C113.238 37.5725 113.293 37.8565 113.406 38.119C113.71 38.6868 114.099 39.2052 114.559 39.6568C114.314 39.9361 114.058 40.2137 113.776 40.4906C113.268 40.9984 112.716 41.4608 112.127 41.8724L112.027 41.9475C112.115 41.8361 112.561 41.179 112.586 41.1305C112.915 40.5 113.18 39.096 112.623 38.529C112.534 38.4434 112.429 38.3763 112.314 38.3314C112.199 38.2866 112.076 38.2649 111.952 38.2675C111.829 38.2702 111.707 38.2972 111.594 38.347C111.48 38.3967 111.378 38.4683 111.293 38.5576C111.267 38.5747 111.242 38.5933 111.218 38.6133C111.065 38.8538 110.965 39.1247 110.926 39.4073C110.887 39.69 110.91 39.9777 110.993 40.2507C111.236 40.8636 111.572 41.4351 111.99 41.9451C111.39 42.3384 110.766 42.692 110.12 43.0038C109.648 43.2362 109.156 43.4541 108.658 43.6655C108.772 43.5145 109.185 42.9075 109.209 42.859C109.541 42.2318 109.806 40.8277 109.249 40.2607C109.161 40.1748 109.057 40.1071 108.942 40.0616C108.828 40.0161 108.705 39.9937 108.582 39.9956C108.459 39.9975 108.337 40.0237 108.224 40.0727C108.111 40.1218 108.008 40.1926 107.923 40.2813L107.857 40.3612C107.701 40.6001 107.6 40.8704 107.56 41.1529C107.521 41.4353 107.544 41.723 107.628 41.9954C107.872 42.6049 108.206 43.1746 108.618 43.6857L107.943 43.9697C107.203 44.2819 106.454 44.5813 105.74 44.9145C105.487 45.0283 105.245 45.1493 104.999 45.2728C105.162 45.0395 105.447 44.6189 105.481 44.5689C105.813 43.9416 106.075 42.5343 105.521 41.9705C105.433 41.8846 105.328 41.8169 105.214 41.7714C105.099 41.7259 104.977 41.7035 104.853 41.7054C104.73 41.7073 104.608 41.7335 104.495 41.7826C104.382 41.8316 104.28 41.9025 104.194 41.9911L104.128 42.071C103.972 42.3099 103.871 42.5802 103.832 42.8627C103.792 43.1451 103.816 43.4328 103.9 43.7052C104.131 44.2952 104.451 44.8466 104.848 45.3406C104.444 45.5423 104.051 45.7513 103.67 45.9765C103.518 46.0903 103.334 46.1677 103.186 46.2735C103.038 46.3792 102.892 46.4938 102.73 46.5801L101.463 47.5293C101.661 47.321 101.971 46.9877 101.996 46.9538C102.415 46.3822 102.893 45.0348 102.429 44.3887C102.279 44.1914 102.057 44.0616 101.811 44.0275C101.565 43.9934 101.316 44.0578 101.117 44.2066C101.087 44.2267 101.058 44.2486 101.03 44.272C100.841 44.4855 100.701 44.7379 100.62 45.0113C100.539 45.2846 100.519 45.5724 100.561 45.8544C100.705 46.4909 100.946 47.1014 101.277 47.6641C100.954 47.9062 100.615 48.1605 100.33 48.4196C99.3943 49.1912 98.6464 49.8627 98.1335 50.343C97.6207 50.8233 97.3283 51.1131 97.3283 51.1131C97.3022 51.1388 97.2814 51.1695 97.2672 51.2033C97.2529 51.2371 97.2455 51.2734 97.2454 51.3101C97.2452 51.3468 97.2523 51.3832 97.2662 51.4171C97.2802 51.451 97.3007 51.4819 97.3265 51.5079C97.3791 51.5597 97.4498 51.5888 97.5236 51.5892C97.5974 51.5895 97.6684 51.5609 97.7214 51.5096C97.9567 51.2412 98.2069 50.9863 98.4709 50.746Z" fill="#22B573"/>
<path d="M114.679 39.6445C114.679 39.6445 115.74 40.5548 116.336 40.7237C116.604 40.8191 116.891 40.8544 117.175 40.8273C117.458 40.8002 117.733 40.7113 117.979 40.5668C118.181 40.4217 118.319 40.2024 118.36 39.9566C118.402 39.7108 118.345 39.4586 118.201 39.2548L118.143 39.1772C117.603 38.5981 116.187 38.802 115.559 39.0957C115.488 39.1288 114.669 39.6372 114.679 39.6445Z" fill="#22B573"/>
<g opacity="0.1">
<path d="M98.0004 50.4229C98.1887 49.752 98.4732 48.792 98.8652 47.6658C98.9759 47.3355 99.098 46.9868 99.2313 46.6396C99.8525 46.84 100.5 46.9464 101.153 46.9551C101.437 46.9336 101.713 46.8511 101.962 46.713C102.211 46.575 102.428 46.3848 102.597 46.1554C102.724 45.944 102.761 45.691 102.702 45.4518C102.643 45.2126 102.491 45.0066 102.281 44.8787L102.195 44.8319C101.46 44.5248 100.257 45.2753 99.7863 45.8049C99.7507 45.8315 99.447 46.2812 99.3024 46.5056L99.5472 45.863C99.6709 45.5432 99.8107 45.2114 99.9432 44.8901L100.173 44.3952C100.246 44.2241 100.337 44.0699 100.425 43.9036C100.548 43.6646 100.695 43.4232 100.834 43.1834C101.389 43.459 101.983 43.6481 102.596 43.7444C102.881 43.7666 103.167 43.7268 103.435 43.6278C103.703 43.5288 103.947 43.3729 104.149 43.1707C104.307 42.9769 104.382 42.7282 104.357 42.4791C104.332 42.2301 104.21 42.0011 104.016 41.8425L103.959 41.7997C103.284 41.3772 101.969 41.9387 101.425 42.3972C101.425 42.3972 101.304 42.5183 101.178 42.6474C101.324 42.4173 101.469 42.1873 101.626 41.9588C102.068 41.3098 102.541 40.6623 103.01 40.0085C103.107 39.8753 103.201 39.7388 103.301 39.6032C103.872 39.8857 104.482 40.0818 105.11 40.1851C105.394 40.2077 105.68 40.1684 105.947 40.0698C106.215 39.9711 106.458 39.8156 106.659 39.6139C106.738 39.5189 106.797 39.4092 106.833 39.2912C106.87 39.1732 106.882 39.0493 106.87 38.9264C106.858 38.8036 106.822 38.6843 106.764 38.5755C106.706 38.4666 106.627 38.3703 106.532 38.2921L106.469 38.2428C105.798 37.8179 104.48 38.3819 103.939 38.838C103.919 38.8525 103.794 38.9816 103.654 39.1318C103.895 38.7798 104.133 38.4246 104.364 38.0597C104.764 37.4386 105.122 36.7913 105.435 36.1222C106.023 36.4217 106.654 36.6297 107.305 36.7388C107.589 36.7614 107.875 36.7221 108.142 36.6235C108.41 36.5248 108.653 36.3693 108.854 36.1676C108.933 36.0726 108.992 35.9629 109.028 35.8449C109.065 35.7269 109.077 35.603 109.065 35.4801C109.053 35.3573 109.017 35.238 108.959 35.1292C108.901 35.0203 108.822 34.924 108.726 34.8458L108.68 34.7844C108.005 34.3619 106.691 34.9235 106.15 35.3796C106.108 35.411 105.663 35.8808 105.508 36.0576L105.527 36.0431C105.821 35.3779 106.053 34.6871 106.22 33.9795C106.377 33.3496 106.497 32.7109 106.578 32.0668C106.642 31.479 106.696 30.9186 106.73 30.439C106.745 30.1758 106.754 29.9319 106.757 29.7075C106.757 29.7075 107.18 28.8453 107.197 28.7871C107.424 28.113 107.464 26.6854 106.828 26.2137C106.725 26.1415 106.608 26.0906 106.485 26.064C106.362 26.0373 106.235 26.0355 106.112 26.0587C105.988 26.0818 105.87 26.1294 105.765 26.1986C105.66 26.2679 105.57 26.3574 105.5 26.462L105.451 26.5443C105.336 26.8053 105.279 27.0883 105.284 27.3734C105.29 27.6586 105.358 27.9392 105.483 28.1956C105.808 28.7473 106.216 29.2462 106.692 29.6752C106.688 29.9109 106.672 30.1596 106.653 30.4366C106.615 30.9242 106.562 31.4733 106.481 32.0788C106.455 32.2395 106.425 32.4083 106.393 32.5738C106.394 32.3344 106.383 32.095 106.36 31.8568C106.249 31.1575 105.634 29.8783 104.843 29.7448C104.721 29.7269 104.597 29.7333 104.477 29.7635C104.358 29.7938 104.246 29.8474 104.147 29.9212C104.049 29.9951 103.966 30.0877 103.903 30.1937C103.841 30.2997 103.8 30.4171 103.783 30.539C103.777 30.5729 103.774 30.6072 103.774 30.6416C103.793 30.9263 103.873 31.2036 104.009 31.4542C104.146 31.7048 104.335 31.9227 104.564 32.0928C105.111 32.4327 105.707 32.6872 106.331 32.8475C106.261 33.2124 106.179 33.5814 106.073 33.9641C105.892 34.6595 105.648 35.337 105.344 35.9881C105.317 36.02 105.297 36.0574 105.286 36.0979C105.306 35.9566 105.358 35.1654 105.358 35.1104C105.33 34.3999 104.848 33.0505 104.082 32.8428C103.841 32.7834 103.587 32.8219 103.374 32.9499C103.162 33.0779 103.009 33.2849 102.949 33.5255L102.928 33.6321C102.917 33.9194 102.969 34.2057 103.08 34.4708C103.192 34.7358 103.36 34.9733 103.573 35.1664C104.093 35.576 104.676 35.899 105.299 36.123C104.979 36.7621 104.618 37.3799 104.218 37.9725C103.924 38.4148 103.608 38.8483 103.289 39.2843C103.31 39.0969 103.361 38.363 103.357 38.3105C103.329 37.6 102.849 36.2538 102.084 36.0404C101.842 35.9823 101.586 36.0223 101.373 36.1517C101.16 36.2811 101.007 36.4894 100.947 36.7312L100.93 36.8297C100.918 37.1172 100.97 37.4037 101.082 37.6689C101.193 37.9341 101.362 38.1714 101.575 38.3641C102.092 38.7696 102.667 39.094 103.28 39.3263L102.842 39.9123C102.358 40.5525 101.874 41.1926 101.413 41.836C101.254 42.0612 101.106 42.2881 100.952 42.5141C100.978 42.2323 101.011 41.7237 101.012 41.6776C100.984 40.9671 100.488 39.633 99.7357 39.4099C99.4917 39.3528 99.2349 39.3946 99.0216 39.5261C98.8082 39.6577 98.6556 39.8683 98.597 40.1121L98.5817 40.1993C98.5699 40.4867 98.6217 40.7733 98.7333 41.0384C98.8448 41.3036 99.0134 41.541 99.2272 41.7336C99.7238 42.1269 100.278 42.4416 100.87 42.6667C100.639 43.0316 100.384 43.4247 100.167 43.809C100.08 43.9753 99.9781 44.1424 99.9022 44.3103L99.6614 44.8036C99.5087 45.1451 99.3681 45.4624 99.2356 45.7837C99.1661 45.9468 99.1063 46.1026 99.0376 46.2601C99.1063 45.9815 99.205 45.5342 99.2107 45.4946C99.286 44.7874 99.0199 43.3823 98.2933 43.0591C98.1796 43.0122 98.0578 42.988 97.9348 42.9882C97.8117 42.9883 97.6899 43.0126 97.5763 43.0598C97.4627 43.107 97.3595 43.1762 97.2726 43.2633C97.1857 43.3504 97.1168 43.4537 97.0699 43.5674C97.0473 43.5844 97.0465 43.6304 97.036 43.6635C96.9794 43.9434 96.9848 44.2322 97.0516 44.5098C97.1185 44.7874 97.2453 45.047 97.4231 45.2704C97.8714 45.745 98.3877 46.1504 98.9552 46.4732C98.7984 46.8631 98.6489 47.2426 98.5172 47.5986C98.0978 48.7354 97.7907 49.6921 97.5717 50.3759C97.3526 51.0598 97.2629 51.4449 97.2629 51.4449C97.2501 51.4813 97.2452 51.5199 97.2486 51.5583C97.252 51.5967 97.2636 51.634 97.2825 51.6676C97.3015 51.7011 97.3274 51.7303 97.3585 51.753C97.3896 51.7757 97.4253 51.7916 97.463 51.7994C97.4995 51.8099 97.5377 51.8129 97.5754 51.8082C97.613 51.8036 97.6494 51.7915 97.6822 51.7725C97.7151 51.7535 97.7438 51.7281 97.7666 51.6978C97.7895 51.6675 97.806 51.6329 97.8151 51.5961C97.8204 51.1982 97.8828 50.8031 98.0004 50.4229Z" fill="black"/>
<path d="M106.423 32.6714C106.423 32.6714 107.797 32.9229 108.399 32.7697C108.679 32.7155 108.943 32.6015 109.175 32.4356C109.407 32.2697 109.6 32.0558 109.742 31.8085C109.845 31.5816 109.855 31.3229 109.767 31.0893C109.68 30.8556 109.504 30.6661 109.277 30.5624L109.184 30.5261C108.425 30.2933 107.302 31.1852 106.901 31.768C106.865 31.8205 106.412 32.6698 106.423 32.6714Z" fill="black"/>
<path d="M98.4709 50.746C98.9701 50.2609 99.697 49.5748 100.607 48.7967C100.867 48.5715 101.146 48.3374 101.437 48.0993C101.873 48.5831 102.379 48.9996 102.938 49.3352C103.194 49.4613 103.474 49.5297 103.759 49.5357C104.045 49.5416 104.328 49.4849 104.589 49.3696C104.697 49.3095 104.793 49.2285 104.87 49.1314C104.948 49.0342 105.005 48.9228 105.039 48.8034C105.074 48.684 105.084 48.559 105.07 48.4356C105.056 48.3123 105.017 48.1929 104.957 48.0843L104.897 48.0035C104.412 47.3574 102.998 47.4087 102.323 47.6321C102.29 47.6563 101.792 47.8734 101.544 47.9936C101.73 47.8593 101.908 47.7155 102.079 47.5626L103.371 46.5941C103.52 46.4827 103.679 46.3988 103.835 46.2971C104.065 46.1542 104.307 46.0187 104.539 45.8903C104.881 46.4074 105.298 46.8697 105.779 47.2618C106.014 47.4251 106.282 47.5355 106.564 47.5854C106.846 47.6352 107.136 47.6233 107.413 47.5505C107.529 47.5101 107.637 47.447 107.73 47.365C107.822 47.2829 107.897 47.1834 107.951 47.0723C108.005 46.9611 108.037 46.8403 108.044 46.717C108.051 46.5936 108.034 46.47 107.994 46.3533L107.946 46.2426C107.576 45.5408 106.157 45.3636 105.462 45.4861C105.442 45.5006 105.294 45.5313 105.119 45.5813C105.362 45.4546 105.606 45.3279 105.85 45.2101C106.562 44.8736 107.292 44.5484 108.027 44.2241C108.178 44.1563 108.327 44.0853 108.481 44.0151C108.83 44.5485 109.259 45.0252 109.752 45.4285C109.987 45.5928 110.254 45.7039 110.536 45.7542C110.818 45.8045 111.107 45.7927 111.383 45.7197C111.5 45.6792 111.608 45.6162 111.7 45.5341C111.793 45.4521 111.868 45.3526 111.922 45.2414C111.976 45.1302 112.007 45.0095 112.015 44.8861C112.022 44.7627 112.005 44.6392 111.964 44.5224L111.917 44.4118C111.547 43.71 110.128 43.5327 109.432 43.6552C109.413 43.6698 109.235 43.7077 109.039 43.7633C109.437 43.581 109.827 43.3946 110.213 43.196C110.872 42.8589 111.507 42.4787 112.115 42.0581C112.476 42.6059 112.914 43.0981 113.417 43.5192C113.652 43.6833 113.92 43.7942 114.202 43.844C114.485 43.8939 114.774 43.8816 115.051 43.808C115.168 43.7675 115.276 43.7045 115.368 43.6224C115.461 43.5404 115.536 43.4409 115.59 43.3297C115.644 43.2185 115.675 43.0978 115.683 42.9744C115.69 42.8511 115.673 42.7275 115.632 42.6107L115.587 42.5033C115.218 41.8015 113.798 41.6243 113.1 41.7435C113.062 41.7726 112.427 41.9355 112.206 42.0105C112.794 41.5829 113.343 41.1037 113.847 40.5786C114.301 40.1157 114.728 39.627 115.126 39.1151C115.495 38.6372 115.808 38.1803 116.077 37.7719C116.221 37.5531 116.349 37.3464 116.468 37.1559C116.468 37.1559 117.263 36.6208 117.309 36.5813C117.843 36.1155 118.6 34.8973 118.286 34.1689C118.233 34.0565 118.159 33.9557 118.067 33.8721C117.976 33.7886 117.868 33.724 117.751 33.6821C117.635 33.6401 117.511 33.6217 117.387 33.6279C117.263 33.6341 117.142 33.6647 117.03 33.718C117.004 33.735 116.979 33.7536 116.955 33.7737C116.726 33.9428 116.535 34.1595 116.398 34.4091C116.26 34.6587 116.178 34.9352 116.157 35.2196C116.16 35.8608 116.262 36.4977 116.458 37.1083C116.332 37.3036 116.195 37.5119 116.035 37.7428C115.759 38.1416 115.441 38.592 115.063 39.057C114.958 39.1805 114.844 39.3113 114.737 39.4372C114.877 39.1861 115.059 38.8374 115.073 38.8018C115.329 38.1406 115.441 36.7147 114.827 36.2115C114.631 36.0597 114.382 35.992 114.136 36.0233C113.89 36.0545 113.666 36.1822 113.514 36.3782C113.491 36.4055 113.471 36.4344 113.453 36.4646C113.325 36.7203 113.254 37.0009 113.246 37.2867C113.238 37.5725 113.293 37.8565 113.406 38.119C113.71 38.6868 114.099 39.2052 114.559 39.6568C114.314 39.9361 114.058 40.2137 113.776 40.4906C113.268 40.9984 112.716 41.4608 112.127 41.8724L112.027 41.9475C112.115 41.8361 112.561 41.179 112.586 41.1305C112.915 40.5 113.18 39.096 112.623 38.529C112.534 38.4434 112.429 38.3763 112.314 38.3314C112.199 38.2866 112.076 38.2649 111.952 38.2675C111.829 38.2702 111.707 38.2972 111.594 38.347C111.48 38.3967 111.378 38.4683 111.293 38.5576C111.267 38.5747 111.242 38.5933 111.218 38.6133C111.065 38.8538 110.965 39.1247 110.926 39.4073C110.887 39.69 110.91 39.9777 110.993 40.2507C111.236 40.8636 111.572 41.4351 111.99 41.9451C111.39 42.3384 110.766 42.692 110.12 43.0038C109.648 43.2362 109.156 43.4541 108.658 43.6655C108.772 43.5145 109.185 42.9075 109.209 42.859C109.541 42.2318 109.806 40.8277 109.249 40.2607C109.161 40.1748 109.057 40.1071 108.942 40.0616C108.828 40.0161 108.705 39.9937 108.582 39.9956C108.459 39.9975 108.337 40.0237 108.224 40.0727C108.111 40.1218 108.008 40.1926 107.923 40.2813L107.857 40.3612C107.701 40.6001 107.6 40.8704 107.56 41.1529C107.521 41.4353 107.544 41.723 107.628 41.9954C107.872 42.6049 108.206 43.1746 108.618 43.6857L107.943 43.9697C107.203 44.2819 106.454 44.5813 105.74 44.9145C105.487 45.0283 105.245 45.1493 104.999 45.2728C105.162 45.0395 105.447 44.6189 105.481 44.5689C105.813 43.9416 106.075 42.5343 105.521 41.9705C105.433 41.8846 105.328 41.8169 105.214 41.7714C105.099 41.7259 104.977 41.7035 104.853 41.7054C104.73 41.7073 104.608 41.7335 104.495 41.7826C104.382 41.8316 104.28 41.9025 104.194 41.9911L104.128 42.071C103.972 42.3099 103.871 42.5802 103.832 42.8627C103.792 43.1451 103.816 43.4328 103.9 43.7052C104.131 44.2952 104.451 44.8466 104.848 45.3406C104.444 45.5423 104.051 45.7513 103.67 45.9765C103.518 46.0903 103.334 46.1677 103.186 46.2735C103.038 46.3792 102.892 46.4938 102.73 46.5801L101.463 47.5293C101.661 47.321 101.971 46.9877 101.996 46.9538C102.415 46.3822 102.893 45.0348 102.429 44.3887C102.279 44.1914 102.057 44.0616 101.811 44.0275C101.565 43.9934 101.316 44.0578 101.117 44.2066C101.087 44.2267 101.058 44.2486 101.03 44.272C100.841 44.4855 100.701 44.7379 100.62 45.0113C100.539 45.2846 100.519 45.5724 100.561 45.8544C100.705 46.4909 100.946 47.1014 101.277 47.6641C100.954 47.9062 100.615 48.1605 100.33 48.4196C99.3943 49.1912 98.6464 49.8627 98.1335 50.343C97.6207 50.8233 97.3283 51.1131 97.3283 51.1131C97.3022 51.1388 97.2814 51.1695 97.2672 51.2033C97.2529 51.2371 97.2455 51.2734 97.2454 51.3101C97.2452 51.3468 97.2523 51.3832 97.2662 51.4171C97.2802 51.451 97.3007 51.4819 97.3265 51.5079C97.3791 51.5597 97.4498 51.5888 97.5236 51.5892C97.5974 51.5895 97.6684 51.5609 97.7214 51.5096C97.9567 51.2412 98.2069 50.9863 98.4709 50.746Z" fill="black"/>
<path d="M114.68 39.6445C114.68 39.6445 115.741 40.5548 116.337 40.7237C116.605 40.8191 116.892 40.8544 117.176 40.8273C117.459 40.8002 117.734 40.7113 117.98 40.5668C118.182 40.4217 118.32 40.2024 118.361 39.9566C118.403 39.7108 118.346 39.4586 118.202 39.2548L118.144 39.1772C117.604 38.5981 116.188 38.802 115.56 39.0957C115.489 39.1288 114.67 39.6372 114.68 39.6445Z" fill="black"/>
</g>
<path d="M42.6585 48.9645C42.6579 48.2676 42.6426 47.2665 42.5686 46.0763C42.551 45.7285 42.5274 45.3597 42.4926 44.9895C41.8403 45.0151 41.1879 44.9429 40.557 44.7755C40.2892 44.6783 40.0456 44.5244 39.8428 44.3243C39.64 44.1242 39.4828 43.8827 39.382 43.6163C39.3169 43.3786 39.3486 43.1248 39.4701 42.9104C39.5916 42.696 39.793 42.5384 40.0304 42.472L40.1254 42.4499C40.9157 42.3522 41.8722 43.3992 42.183 44.0361C42.2101 44.0713 42.3814 44.5862 42.4602 44.8412L42.3976 44.1564C42.3647 43.8152 42.3194 43.458 42.2784 43.1128L42.1908 42.5744C42.1661 42.3898 42.1197 42.2167 42.0805 42.033C42.0259 41.7696 41.9493 41.4975 41.8809 41.2294C41.2716 41.345 40.6483 41.367 40.0325 41.2947C39.7521 41.2393 39.4871 41.1238 39.2556 40.9562C39.0241 40.7887 38.8317 40.5729 38.6916 40.3238C38.5913 40.0945 38.5862 39.8348 38.6773 39.6017C38.7684 39.3685 38.9482 39.1811 39.1774 39.0805L39.2441 39.0547C40.0079 38.8297 41.1226 39.7247 41.5233 40.3129C41.5233 40.3129 41.6074 40.4621 41.6931 40.6202C41.6151 40.3595 41.5371 40.0987 41.4477 39.8365C41.1971 39.0924 40.9156 38.3414 40.6407 37.5855C40.5832 37.4311 40.5289 37.2742 40.469 37.1166C39.8433 37.2349 39.2036 37.2595 38.5706 37.1897C38.2908 37.1349 38.0262 37.02 37.7951 36.8529C37.564 36.6859 37.372 36.4706 37.2322 36.2221C37.182 36.1093 37.1546 35.9878 37.1516 35.8644C37.1486 35.741 37.1699 35.6183 37.2145 35.5032C37.259 35.3881 37.3259 35.283 37.4112 35.1938C37.4965 35.1046 37.5986 35.0332 37.7116 34.9836L37.7847 34.9529C38.5461 34.7247 39.6633 35.623 40.0615 36.2079C40.0762 36.2272 40.162 36.3853 40.2561 36.5675C40.1191 36.1637 39.9854 35.7574 39.8612 35.3438C39.6435 34.6379 39.4735 33.9182 39.3524 33.1895C38.7052 33.3194 38.0419 33.3498 37.3855 33.2795C37.1057 33.2246 36.8411 33.1097 36.61 32.9427C36.379 32.7756 36.1869 32.5604 36.0471 32.3118C35.9969 32.1991 35.9696 32.0775 35.9665 31.9542C35.9635 31.8308 35.9849 31.708 36.0294 31.593C36.074 31.4779 36.1408 31.3727 36.2261 31.2836C36.3114 31.1944 36.4135 31.123 36.5265 31.0734L36.5874 31.0267C37.3511 30.8017 38.4659 31.6967 38.8641 32.2817C38.8961 32.3233 39.1981 32.8956 39.2998 33.1077L39.285 33.0885C39.1813 32.3687 39.1439 31.6409 39.1733 30.9143C39.1919 30.2654 39.249 29.6182 39.3444 28.9761C39.4412 28.3928 39.5399 27.8385 39.6364 27.3675C39.6932 27.11 39.7503 26.8728 39.8076 26.6558C39.8076 26.6558 39.6322 25.7113 39.6316 25.6508C39.5953 24.9406 39.9414 23.5551 40.6811 23.2722C40.7998 23.2304 40.9256 23.2127 41.0511 23.2202C41.1767 23.2277 41.2995 23.2602 41.4124 23.3158C41.5252 23.3714 41.6258 23.449 41.7083 23.544C41.7908 23.639 41.8534 23.7495 41.8926 23.869L41.9179 23.9616C41.9584 24.2439 41.9368 24.5317 41.8546 24.8048C41.7725 25.078 41.6318 25.3299 41.4423 25.5432C40.9799 25.9867 40.4525 26.3572 39.8785 26.642C39.8197 26.8704 39.7676 27.114 39.7117 27.386C39.617 27.8659 39.5197 28.4088 39.4345 29.0138C39.4161 29.1755 39.3995 29.3461 39.386 29.5142C39.449 29.2832 39.5241 29.0557 39.6109 28.8325C39.9057 28.1889 40.8432 27.1229 41.6412 27.2076C41.7633 27.2231 41.8811 27.2627 41.9879 27.324C42.0947 27.3853 42.1882 27.4671 42.2632 27.5648C42.3381 27.6624 42.393 27.774 42.4247 27.8929C42.4563 28.0119 42.4641 28.1359 42.4476 28.2579C42.4441 28.2921 42.4377 28.3259 42.4286 28.3591C42.334 28.6283 42.182 28.8737 41.9831 29.0783C41.7842 29.2828 41.5432 29.4417 41.2767 29.5437C40.6583 29.7237 40.0161 29.8082 39.3722 29.7945C39.3409 30.1647 39.3201 30.5421 39.3198 30.9393C39.3062 31.6577 39.3584 32.3758 39.4756 33.0847C39.4934 33.1228 39.5027 33.1643 39.5028 33.2063C39.5214 33.0648 39.6838 32.2886 39.6994 32.2359C39.9178 31.5592 40.7452 30.3895 41.5391 30.3959C41.7869 30.4036 42.0216 30.5093 42.1917 30.6898C42.3617 30.8703 42.4533 31.1108 42.4462 31.3587L42.4378 31.467C42.3708 31.7467 42.2435 32.0083 42.0647 32.2335C41.8859 32.4587 41.6599 32.6421 41.4027 32.7707C40.7914 33.0249 40.1431 33.1789 39.4828 33.2267C39.6189 33.9285 39.8001 34.6207 40.0254 35.2991C40.1894 35.8044 40.3767 36.3069 40.5665 36.8127C40.5967 36.6266 40.7461 35.9063 40.7641 35.8568C40.9826 35.1801 41.8068 34.0129 42.6013 34.0136C42.8504 34.0229 43.0856 34.1303 43.2558 34.3123C43.4261 34.4943 43.5175 34.7362 43.5102 34.9853L43.5 35.0847C43.4339 35.3647 43.3068 35.6267 43.128 35.852C42.9491 36.0773 42.7227 36.2604 42.465 36.3884C41.8587 36.6398 41.2176 36.7973 40.5638 36.8555L40.8283 37.5381C41.1217 38.285 41.4152 39.0318 41.686 39.7757C41.7786 40.0355 41.8598 40.2938 41.9467 40.5528C41.9977 40.2744 42.1035 39.7758 42.1151 39.7313C42.3336 39.0546 43.1701 37.9033 43.9548 37.8913C44.2052 37.902 44.4412 38.0114 44.6113 38.1956C44.7813 38.3798 44.8715 38.6238 44.8622 38.8742L44.8535 38.9624C44.7874 39.2424 44.6603 39.5043 44.4814 39.7297C44.3025 39.955 44.0762 40.1381 43.8185 40.266C43.2343 40.511 42.6159 40.6648 41.985 40.7219C42.1091 41.1356 42.249 41.583 42.354 42.0114C42.3932 42.195 42.4462 42.3834 42.4741 42.5656L42.5731 43.1055C42.6281 43.4755 42.678 43.8189 42.719 44.1641C42.742 44.3398 42.7576 44.506 42.7813 44.6761C42.7902 44.3894 42.8157 43.932 42.821 43.8924C42.939 43.191 43.5738 41.9096 44.3606 41.7941C44.4828 41.7795 44.6066 41.7891 44.725 41.8224C44.8435 41.8557 44.9542 41.912 45.0509 41.988C45.1476 42.0641 45.2283 42.1585 45.2885 42.2658C45.3488 42.373 45.3872 42.4911 45.4018 42.6133C45.419 42.6357 45.4074 42.6803 45.4086 42.715C45.3876 42.9997 45.3047 43.2765 45.1655 43.5258C45.0263 43.7751 44.8343 43.9909 44.6028 44.1582C44.0432 44.4944 43.4368 44.7456 42.8033 44.9036C42.8492 45.3213 42.8909 45.727 42.9218 46.1054C43.0194 47.3131 43.0574 48.3172 43.084 49.0348C43.1107 49.7523 43.0934 50.1474 43.0934 50.1474C43.0959 50.1859 43.0901 50.2244 43.0765 50.2605C43.0629 50.2966 43.0418 50.3293 43.0145 50.3565C42.9872 50.3838 42.9544 50.4048 42.9183 50.4183C42.8821 50.4319 42.8436 50.4375 42.8051 50.4349C42.7672 50.4351 42.7296 50.4277 42.6945 50.4131C42.6595 50.3985 42.6278 50.377 42.6012 50.3499C42.5747 50.3227 42.5539 50.2905 42.5401 50.2552C42.5263 50.2199 42.5197 50.1821 42.5208 50.1442C42.6229 49.7596 42.6693 49.3623 42.6585 48.9645Z" fill="#22B573"/>
<path d="M39.3304 29.601C39.3304 29.601 37.9392 29.473 37.4012 29.1633C37.1463 29.0357 36.922 28.8546 36.7435 28.6324C36.565 28.4102 36.4365 28.1521 36.3668 27.8757C36.3282 27.6294 36.3891 27.3778 36.5359 27.1762C36.6828 26.9747 36.9037 26.8397 37.15 26.801L37.2493 26.791C38.0436 26.7715 38.8844 27.9329 39.1132 28.6022C39.1341 28.6625 39.3417 29.6025 39.3304 29.601Z" fill="#22B573"/>
<path d="M42.0112 49.9386C41.5706 49.6763 40.9366 49.3079 40.1577 48.9033C39.9343 48.7847 39.6939 48.6639 39.4454 48.5391C39.2163 48.9606 38.924 49.3445 38.5789 49.6777C38.4162 49.8102 38.2267 49.9059 38.0235 49.9583C37.8203 50.0106 37.6082 50.0183 37.4017 49.9809C37.2252 49.9318 37.0753 49.8149 36.9846 49.6558C36.8938 49.4967 36.8697 49.3081 36.9173 49.1312L36.944 49.0599C37.1754 48.5259 38.205 48.3157 38.7231 48.3607C38.757 48.3651 39.1439 48.4448 39.3359 48.4959C39.1841 48.4241 39.0355 48.3499 38.878 48.2774C38.6531 48.1701 38.4137 48.0638 38.1767 47.9607C38.0542 47.9072 37.9309 47.8593 37.8052 47.8082C37.6795 47.7571 37.5522 47.7174 37.4225 47.6745C37.2929 47.6315 37.0352 47.5545 36.8383 47.4969C36.6807 47.9234 36.4593 48.3234 36.1815 48.6833C36.0409 48.8395 35.8679 48.9632 35.6745 49.0457C35.4812 49.1282 35.2722 49.1676 35.0621 49.161C34.9721 49.1493 34.8853 49.1199 34.8067 49.0746C34.7281 49.0292 34.6592 48.9689 34.6039 48.8969C34.5487 48.8249 34.5081 48.7428 34.4846 48.6551C34.4612 48.5675 34.4552 48.476 34.4671 48.3861L34.4639 48.3223C34.6102 47.757 35.5968 47.3914 36.1158 47.3646L36.3735 47.3754C36.1823 47.3253 35.9872 47.2767 35.788 47.2294C35.2222 47.109 34.6436 46.9984 34.065 46.8879L33.7057 46.8176C33.5443 47.2574 33.3173 47.6703 33.0323 48.0421C32.8922 48.1979 32.7196 48.3212 32.5268 48.4033C32.334 48.4854 32.1255 48.5243 31.9161 48.5174C31.8261 48.5056 31.7393 48.4763 31.6607 48.4309C31.5821 48.3856 31.5132 48.3252 31.4579 48.2533C31.4027 48.1813 31.3621 48.0991 31.3387 48.0115C31.3152 47.9238 31.3092 47.8324 31.3211 47.7424L31.3332 47.6721C31.4795 47.1068 32.4661 46.7412 32.9858 46.7087L33.2831 46.7247C32.9691 46.6604 32.6679 46.5863 32.3521 46.5131C31.8223 46.3856 31.3023 46.2201 30.7962 46.0179C30.6335 46.4746 30.4014 46.9035 30.108 47.2894C29.9678 47.4452 29.7953 47.5685 29.6025 47.6506C29.4096 47.7327 29.2012 47.7716 28.9917 47.7647C28.8105 47.7399 28.6463 47.6446 28.5349 47.4995C28.4235 47.3544 28.3739 47.1712 28.3968 46.9897L28.4089 46.9193C28.5519 46.3565 29.5386 45.9909 30.0583 45.9584C30.0986 45.9579 30.5825 45.9783 30.7442 45.9967C30.253 45.7888 29.7811 45.5379 29.334 45.2471C28.9327 44.9885 28.5467 44.7071 28.1778 44.4042C27.8315 44.1255 27.5337 43.8503 27.2725 43.6029C27.1289 43.4688 27.0071 43.3434 26.8871 43.2269C26.8871 43.2269 26.2286 42.9792 26.1784 42.9668C25.7154 42.7217 24.9722 41.9791 25.0764 41.4054C25.1129 41.2273 25.2183 41.0708 25.3695 40.97C25.5208 40.8691 25.7058 40.8319 25.8842 40.8666L25.962 40.8883C26.1554 40.9699 26.3287 41.0925 26.4699 41.2478C26.6111 41.4031 26.7168 41.5873 26.7796 41.7875C26.8848 42.2465 26.9179 42.7191 26.8778 43.1882C27.0027 43.3112 27.1358 43.4381 27.2851 43.5729C27.5527 43.8153 27.8544 44.0824 28.2079 44.3506C28.2992 44.423 28.4018 44.497 28.4987 44.5702C28.3708 44.4036 28.1682 44.1927 28.1542 44.1679C27.8619 43.7408 27.5574 42.7276 27.8987 42.2772C28.0129 42.1358 28.1785 42.0455 28.3591 42.0261C28.5398 42.0066 28.7208 42.0596 28.8625 42.1734C28.8803 42.1936 28.8968 42.215 28.9116 42.2375C29.0453 42.3991 29.142 42.588 29.1949 42.7909C29.2479 42.9938 29.2557 43.2059 29.218 43.4122C29.1039 43.8648 28.9208 44.2972 28.6753 44.6941C28.8935 44.8524 29.1262 45.0096 29.3816 45.1699C29.8298 45.4495 30.3025 45.688 30.7938 45.8823L30.8822 45.9112C30.7983 45.8483 30.3723 45.4526 30.3421 45.4198C30.0049 45.0272 29.5758 44.0638 29.8803 43.5654C29.9768 43.4124 30.1301 43.304 30.3065 43.264C30.4829 43.224 30.668 43.2557 30.821 43.3521C30.8444 43.3654 30.8665 43.3808 30.8869 43.3982C31.0385 43.5429 31.1562 43.7194 31.2316 43.915C31.3069 44.1106 31.3381 44.3204 31.3228 44.5294C31.2486 45.0072 31.1042 45.4714 30.8942 45.907C31.3883 46.0889 31.8939 46.2381 32.4077 46.3534C32.7849 46.4404 33.1758 46.5119 33.5666 46.5834C33.4574 46.4942 33.0592 46.1281 33.0346 46.096C32.6943 45.7058 32.2683 44.74 32.5728 44.2416C32.6693 44.0886 32.8226 43.9802 32.999 43.9402C33.1754 43.9002 33.3605 43.9319 33.5135 44.0283C33.5369 44.0416 33.559 44.057 33.5795 44.0744C33.7311 44.2191 33.8487 44.3956 33.9241 44.5912C33.9994 44.7868 34.0306 44.9966 34.0154 45.2056C33.9434 45.6827 33.8 46.1463 33.59 46.5807L34.1272 46.6772C34.7105 46.774 35.2938 46.8708 35.8604 46.9855C36.0595 47.0261 36.2522 47.0715 36.4609 47.1047C36.3059 46.9692 36.0317 46.7115 36.0088 46.6883C35.6692 46.2924 35.2426 45.3323 35.547 44.8338C35.6435 44.6809 35.7968 44.5724 35.9732 44.5324C36.1496 44.4924 36.3347 44.5241 36.4878 44.6206C36.5115 44.6332 36.5337 44.6487 36.5537 44.6667C36.7053 44.8114 36.8229 44.9879 36.8983 45.1835C36.9737 45.379 37.0048 45.5888 36.9896 45.7979C36.9246 46.2592 36.7879 46.7075 36.5847 47.1267C36.9085 47.2038 37.2196 47.2908 37.5356 47.3841C37.6677 47.4302 37.807 47.4658 37.9327 47.5169C38.0585 47.568 38.1849 47.6134 38.3082 47.6612C38.5622 47.7666 38.7998 47.864 39.0439 47.9566C39.1633 48.0125 39.2745 48.0646 39.3889 48.1142C39.214 47.999 38.9333 47.8125 38.9104 47.7893C38.5142 47.4522 37.9479 46.5687 38.1743 46.0284C38.2189 45.9489 38.2788 45.8791 38.3504 45.8229C38.4221 45.7667 38.5042 45.7253 38.592 45.7009C38.6797 45.6766 38.7714 45.6699 38.8618 45.6811C38.9522 45.6924 39.0395 45.7215 39.1186 45.7666C39.2918 45.8877 39.4361 46.0457 39.5409 46.2292C39.6458 46.4128 39.7086 46.6173 39.7249 46.8281C39.7249 47.3065 39.6547 47.7823 39.5163 48.2403C39.7931 48.3688 40.0642 48.4966 40.3282 48.6349C41.1402 49.0295 41.7732 49.3833 42.2259 49.6414C42.6786 49.8996 42.9283 50.0591 42.9283 50.0591C42.9731 50.0895 43.0045 50.1361 43.0157 50.1891C43.027 50.2421 43.0174 50.2974 42.9888 50.3434C42.9738 50.3661 42.9545 50.3856 42.9319 50.4008C42.9094 50.416 42.884 50.4265 42.8574 50.4319C42.8307 50.4372 42.8032 50.4372 42.7766 50.4319C42.7499 50.4265 42.7246 50.416 42.702 50.4008C42.4811 50.2332 42.2504 50.0789 42.0112 49.9386Z" fill="#22B573"/>
<path d="M28.5587 44.7138C28.2764 45.111 27.937 45.4642 27.5514 45.762C27.3747 45.8742 27.1758 45.9469 26.9683 45.9753C26.7609 46.0037 26.5498 45.9871 26.3493 45.9266C26.1797 45.8583 26.0441 45.7255 25.9723 45.5574C25.9004 45.3892 25.8982 45.1995 25.9662 45.0297L25.9985 44.9591C26.2899 44.4503 27.3378 44.3634 27.8478 44.4707C27.8874 44.4759 28.5651 44.7089 28.5587 44.7138Z" fill="#22B573"/>
<path d="M42.119 49.1508C41.769 48.5492 41.2539 47.6926 40.587 46.698C40.3972 46.4111 40.1919 46.1105 39.9761 45.8029C39.4251 46.1511 38.8257 46.4158 38.1972 46.5885C37.9168 46.641 37.6284 46.6313 37.3522 46.5602C37.0759 46.4891 36.8187 46.3583 36.5985 46.1769C36.5101 46.0897 36.4397 45.986 36.3914 45.8716C36.3431 45.7572 36.3178 45.6343 36.317 45.5102C36.3162 45.386 36.3399 45.2628 36.3867 45.1478C36.4335 45.0328 36.5026 44.9281 36.5899 44.8398L36.67 44.7783C37.3104 44.2866 38.6589 44.7172 39.2489 45.1142C39.2734 45.1463 39.6948 45.4895 39.9011 45.6721C39.7586 45.4928 39.6255 45.3062 39.5024 45.113L38.519 43.8321C38.4059 43.6848 38.2753 43.5611 38.1526 43.4212C37.9686 43.2214 37.7726 43.0258 37.584 42.8397C37.1155 43.2455 36.5884 43.5782 36.0205 43.8264C35.7499 43.9203 35.4621 43.9544 35.177 43.9264C34.8918 43.8984 34.6162 43.8089 34.369 43.6641C34.2674 43.5937 34.1807 43.504 34.1138 43.4001C34.047 43.2961 34.0012 43.18 33.9792 43.0584C33.9572 42.9368 33.9594 42.8121 33.9857 42.6913C34.0119 42.5705 34.0617 42.4561 34.1322 42.3546L34.2078 42.2609C34.7528 41.6847 36.1675 41.8964 36.804 42.2017C36.8188 42.221 36.9536 42.2905 37.1081 42.3857C36.9082 42.1982 36.7082 42.0106 36.5043 41.8313C35.9098 41.3155 35.2944 40.8057 34.6734 40.2951C34.5462 40.1891 34.4222 40.0807 34.2926 39.9715C33.8129 40.3913 33.2716 40.7348 32.6875 40.9901C32.4176 41.0852 32.1302 41.1202 31.8454 41.0927C31.5606 41.0653 31.2852 40.976 31.0384 40.831C30.9369 40.7606 30.8502 40.6709 30.7833 40.567C30.7164 40.4631 30.6707 40.347 30.6487 40.2254C30.6267 40.1038 30.6289 39.979 30.6551 39.8582C30.6814 39.7375 30.7311 39.6231 30.8016 39.5215L30.8772 39.4278C31.4223 38.8516 32.837 39.0633 33.4735 39.3687C33.4882 39.3879 33.6499 39.4725 33.8231 39.5787C33.4888 39.2958 33.1634 39.0112 32.8452 38.716C32.3021 38.214 31.7927 37.6767 31.3202 37.1077C30.8254 37.5381 30.2704 37.8939 29.6728 38.164C29.4022 38.2587 29.1143 38.2932 28.8291 38.2652C28.5438 38.2372 28.2681 38.1473 28.0212 38.0017C27.9197 37.9313 27.833 37.8416 27.7661 37.7376C27.6992 37.6337 27.6535 37.5176 27.6315 37.396C27.6095 37.2744 27.6117 37.1497 27.6379 37.0289C27.6641 36.9081 27.7139 36.7937 27.7844 36.6922L27.8568 36.6009C28.4019 36.0247 29.8166 36.2365 30.4563 36.5393C30.4858 36.5778 31.0531 36.9057 31.246 37.0375C30.7944 36.4672 30.3946 35.8577 30.0513 35.2164C29.7388 34.6482 29.4591 34.0625 29.2136 33.4623C28.9876 32.9028 28.8089 32.3783 28.6599 31.9125C28.5804 31.663 28.5132 31.4296 28.4494 31.2139C28.4494 31.2139 27.8283 30.4845 27.7946 30.434C27.406 29.8417 27.0052 28.4646 27.5038 27.8477C27.5847 27.7536 27.6834 27.6765 27.7942 27.6207C27.905 27.565 28.0257 27.5317 28.1495 27.5228C28.2732 27.5139 28.3975 27.5295 28.5152 27.5689C28.6328 27.6082 28.7415 27.6704 28.8351 27.7519C28.8554 27.7753 28.8743 27.7999 28.8916 27.8256C29.0671 28.0502 29.1919 28.3103 29.2573 28.5878C29.3228 28.8652 29.3273 29.1536 29.2707 29.433C29.0947 30.0496 28.8254 30.6357 28.4723 31.1709C28.541 31.393 28.6164 31.6303 28.7082 31.8958C28.8668 32.3543 29.0519 32.8738 29.2907 33.4234C29.3577 33.5705 29.4322 33.7271 29.5017 33.8773C29.4347 33.5979 29.3529 33.2128 29.3492 33.1749C29.2807 32.4691 29.5572 31.0658 30.2844 30.7467C30.5143 30.6534 30.7719 30.6552 31.0005 30.7516C31.2291 30.8481 31.4102 31.0313 31.5038 31.2611C31.5181 31.2934 31.5301 31.3267 31.5397 31.3608C31.5939 31.6415 31.586 31.9307 31.5168 32.208C31.4475 32.4854 31.3185 32.7443 31.1387 32.9666C30.6925 33.4313 30.1786 33.8259 29.6144 34.1368C29.7749 34.4718 29.9466 34.8082 30.1435 35.1507C30.496 35.7767 30.9026 36.3706 31.3586 36.9256L31.4348 37.0249C31.38 36.8939 31.1277 36.1409 31.1174 36.0878C30.9698 35.3917 31.0935 33.9684 31.7818 33.5722C31.8908 33.5138 32.0102 33.4776 32.1332 33.4654C32.2562 33.4532 32.3804 33.4654 32.4987 33.5013C32.617 33.5371 32.7271 33.596 32.8226 33.6744C32.9182 33.7528 32.9973 33.8493 33.0556 33.9583C33.0759 33.9817 33.0948 34.0063 33.1121 34.032C33.1951 34.305 33.2181 34.5927 33.1795 34.8753C33.1408 35.158 33.0415 35.429 32.8883 35.6697C32.4891 36.1944 32.011 36.6541 31.4712 37.0326C31.9428 37.5729 32.4491 38.0819 32.9871 38.5562C33.3786 38.907 33.7943 39.2496 34.2164 39.5872C34.1474 39.4111 33.9135 38.7153 33.9032 38.6621C33.7524 37.9686 33.8761 36.5452 34.5644 36.149C34.6727 36.0901 34.7915 36.053 34.9141 36.0401C35.0367 36.0272 35.1606 36.0385 35.2788 36.0736C35.3969 36.1086 35.507 36.1667 35.6027 36.2444C35.6984 36.322 35.7779 36.4179 35.8365 36.5263L35.8787 36.6211C35.9643 36.8932 35.9889 37.1807 35.9507 37.4633C35.9126 37.7459 35.8127 38.0167 35.6581 38.2563C35.259 38.7776 34.7844 39.2363 34.2499 39.6175L34.8235 40.0729C35.4517 40.5729 36.0927 41.0631 36.6904 41.5764C36.9032 41.7541 37.1038 41.9359 37.307 42.121C37.2127 41.8523 37.0514 41.3705 37.033 41.3133C36.8823 40.6198 37.0091 39.1939 37.6943 38.8002C37.8025 38.7413 37.9214 38.7043 38.0439 38.6913C38.1665 38.6784 38.2905 38.6898 38.4086 38.7248C38.5268 38.7599 38.6369 38.8179 38.7326 38.8956C38.8283 38.9733 38.9077 39.0691 38.9663 39.1775L39.0086 39.2723C39.0941 39.5444 39.1187 39.8319 39.0806 40.1145C39.0425 40.3972 38.9426 40.6679 38.788 40.9076C38.4061 41.4133 37.9496 41.8582 37.4342 42.2269C37.7687 42.53 38.0911 42.8373 38.3975 43.1568C38.513 43.3073 38.6695 43.4315 38.7833 43.5732C38.8972 43.7148 39.0071 43.8646 39.1401 43.9914L40.1039 45.2467C39.9702 44.9931 39.7613 44.5884 39.7464 44.549C39.4966 43.8857 39.399 42.4591 40.02 41.962C40.2181 41.8126 40.4671 41.7475 40.713 41.7809C40.9588 41.8143 41.1815 41.9434 41.3326 42.1402C41.3563 42.1677 41.3784 42.1966 41.3989 42.2266C41.5233 42.4832 41.5899 42.7639 41.5943 43.049C41.5986 43.3341 41.5405 43.6166 41.424 43.8769C41.114 44.4511 40.7171 44.9739 40.2472 45.4268C40.4931 45.747 40.7512 46.0833 40.956 46.4096C41.6487 47.4047 42.188 48.2529 42.5525 48.8536C42.917 49.4543 43.1205 49.8122 43.1205 49.8122C43.1387 49.844 43.1504 49.8792 43.155 49.9156C43.1596 49.952 43.1569 49.9889 43.1472 50.0243C43.1375 50.0597 43.1209 50.0928 43.0983 50.1217C43.0757 50.1506 43.0477 50.1748 43.0157 50.1929C42.9512 50.2286 42.8752 50.2376 42.8041 50.218C42.7329 50.1985 42.6723 50.1519 42.635 50.0882C42.4808 49.7663 42.3085 49.4534 42.119 49.1508Z" fill="#22B573"/>
<path d="M29.5013 34.0903C29.5013 34.0903 28.2345 34.6812 27.6152 34.6833C27.3307 34.7027 27.0454 34.6596 26.7794 34.557C26.5133 34.4544 26.2729 34.2948 26.0751 34.0894C25.919 33.8951 25.8461 33.6469 25.8722 33.399C25.8983 33.1511 26.0213 32.9236 26.2144 32.766L26.2912 32.707C26.9673 32.2948 28.2763 32.8727 28.8014 33.3247C28.861 33.3757 29.5133 34.0862 29.5013 34.0903Z" fill="#22B573"/>
<g opacity="0.1">
<path d="M42.6585 48.9645C42.6579 48.2676 42.6426 47.2665 42.5686 46.0763C42.551 45.7285 42.5274 45.3597 42.4926 44.9895C41.8403 45.0151 41.1879 44.9429 40.557 44.7755C40.2892 44.6783 40.0456 44.5244 39.8428 44.3243C39.64 44.1242 39.4828 43.8827 39.382 43.6163C39.3169 43.3786 39.3486 43.1248 39.4701 42.9104C39.5916 42.696 39.793 42.5384 40.0304 42.472L40.1254 42.4499C40.9157 42.3522 41.8722 43.3992 42.183 44.0361C42.2101 44.0713 42.3814 44.5862 42.4602 44.8412L42.3976 44.1564C42.3647 43.8152 42.3194 43.458 42.2784 43.1128L42.1908 42.5744C42.1661 42.3898 42.1197 42.2167 42.0805 42.033C42.0259 41.7696 41.9493 41.4975 41.8809 41.2294C41.2716 41.345 40.6483 41.367 40.0325 41.2947C39.7521 41.2393 39.4871 41.1238 39.2556 40.9562C39.0241 40.7887 38.8317 40.5729 38.6916 40.3238C38.5913 40.0945 38.5862 39.8348 38.6773 39.6017C38.7684 39.3685 38.9482 39.1811 39.1774 39.0805L39.2441 39.0547C40.0079 38.8297 41.1226 39.7247 41.5233 40.3129C41.5233 40.3129 41.6074 40.4621 41.6931 40.6202C41.6151 40.3595 41.5371 40.0987 41.4477 39.8365C41.1971 39.0924 40.9156 38.3414 40.6407 37.5855C40.5832 37.4311 40.5289 37.2742 40.469 37.1166C39.8433 37.2349 39.2036 37.2595 38.5706 37.1897C38.2908 37.1349 38.0262 37.02 37.7951 36.8529C37.564 36.6859 37.372 36.4706 37.2322 36.2221C37.182 36.1093 37.1546 35.9878 37.1516 35.8644C37.1486 35.741 37.1699 35.6183 37.2145 35.5032C37.259 35.3881 37.3259 35.283 37.4112 35.1938C37.4965 35.1046 37.5986 35.0332 37.7116 34.9836L37.7847 34.9529C38.5461 34.7247 39.6633 35.623 40.0615 36.2079C40.0762 36.2272 40.162 36.3853 40.2561 36.5675C40.1191 36.1637 39.9854 35.7574 39.8612 35.3438C39.6435 34.6379 39.4735 33.9182 39.3524 33.1895C38.7052 33.3194 38.0419 33.3498 37.3855 33.2795C37.1057 33.2246 36.8411 33.1097 36.61 32.9427C36.379 32.7756 36.1869 32.5604 36.0471 32.3118C35.9969 32.1991 35.9696 32.0775 35.9665 31.9542C35.9635 31.8308 35.9849 31.708 36.0294 31.593C36.074 31.4779 36.1408 31.3727 36.2261 31.2836C36.3114 31.1944 36.4135 31.123 36.5265 31.0734L36.5874 31.0267C37.3511 30.8017 38.4659 31.6967 38.8641 32.2817C38.8961 32.3233 39.1981 32.8956 39.2998 33.1077L39.285 33.0885C39.1813 32.3687 39.1439 31.6409 39.1733 30.9143C39.1919 30.2654 39.249 29.6182 39.3444 28.9761C39.4412 28.3928 39.5399 27.8385 39.6364 27.3675C39.6932 27.11 39.7503 26.8728 39.8076 26.6558C39.8076 26.6558 39.6322 25.7113 39.6316 25.6508C39.5953 24.9406 39.9414 23.5551 40.6811 23.2722C40.7998 23.2304 40.9256 23.2127 41.0511 23.2202C41.1767 23.2277 41.2995 23.2602 41.4124 23.3158C41.5252 23.3714 41.6258 23.449 41.7083 23.544C41.7908 23.639 41.8534 23.7495 41.8926 23.869L41.9179 23.9616C41.9584 24.2439 41.9368 24.5317 41.8546 24.8048C41.7725 25.078 41.6318 25.3299 41.4423 25.5432C40.9799 25.9867 40.4525 26.3572 39.8785 26.642C39.8197 26.8704 39.7676 27.114 39.7117 27.386C39.617 27.8659 39.5197 28.4088 39.4345 29.0138C39.4161 29.1755 39.3995 29.3461 39.386 29.5142C39.449 29.2832 39.5241 29.0557 39.6109 28.8325C39.9057 28.1889 40.8432 27.1229 41.6412 27.2076C41.7633 27.2231 41.8811 27.2627 41.9879 27.324C42.0947 27.3853 42.1882 27.4671 42.2632 27.5648C42.3381 27.6624 42.393 27.774 42.4247 27.8929C42.4563 28.0119 42.4641 28.1359 42.4476 28.2579C42.4441 28.2921 42.4377 28.3259 42.4286 28.3591C42.334 28.6283 42.182 28.8737 41.9831 29.0783C41.7842 29.2828 41.5432 29.4417 41.2767 29.5437C40.6583 29.7237 40.0161 29.8082 39.3722 29.7945C39.3409 30.1647 39.3201 30.5421 39.3198 30.9393C39.3062 31.6577 39.3584 32.3758 39.4756 33.0847C39.4934 33.1228 39.5027 33.1643 39.5028 33.2063C39.5214 33.0648 39.6838 32.2886 39.6994 32.2359C39.9178 31.5592 40.7452 30.3895 41.5391 30.3959C41.7869 30.4036 42.0216 30.5093 42.1917 30.6898C42.3617 30.8703 42.4533 31.1108 42.4462 31.3587L42.4378 31.467C42.3708 31.7467 42.2435 32.0083 42.0647 32.2335C41.8859 32.4587 41.6599 32.6421 41.4027 32.7707C40.7914 33.0249 40.1431 33.1789 39.4828 33.2267C39.6189 33.9285 39.8001 34.6207 40.0254 35.2991C40.1894 35.8044 40.3767 36.3069 40.5665 36.8127C40.5967 36.6266 40.7461 35.9063 40.7641 35.8568C40.9826 35.1801 41.8068 34.0129 42.6013 34.0136C42.8504 34.0229 43.0856 34.1303 43.2558 34.3123C43.4261 34.4943 43.5175 34.7362 43.5102 34.9853L43.5 35.0847C43.4339 35.3647 43.3068 35.6267 43.128 35.852C42.9491 36.0773 42.7227 36.2604 42.465 36.3884C41.8587 36.6398 41.2176 36.7973 40.5638 36.8555L40.8283 37.5381C41.1217 38.285 41.4152 39.0318 41.686 39.7757C41.7786 40.0355 41.8598 40.2938 41.9467 40.5528C41.9977 40.2744 42.1035 39.7758 42.1151 39.7313C42.3336 39.0546 43.1701 37.9033 43.9548 37.8913C44.2052 37.902 44.4412 38.0114 44.6113 38.1956C44.7813 38.3798 44.8715 38.6238 44.8622 38.8742L44.8535 38.9624C44.7874 39.2424 44.6603 39.5043 44.4814 39.7297C44.3025 39.955 44.0762 40.1381 43.8185 40.266C43.2343 40.511 42.6159 40.6648 41.985 40.7219C42.1091 41.1356 42.249 41.583 42.354 42.0114C42.3932 42.195 42.4462 42.3834 42.4741 42.5656L42.5731 43.1055C42.6281 43.4755 42.678 43.8189 42.719 44.1641C42.742 44.3398 42.7576 44.506 42.7813 44.6761C42.7902 44.3894 42.8157 43.932 42.821 43.8924C42.939 43.191 43.5738 41.9096 44.3606 41.7941C44.4828 41.7795 44.6066 41.7891 44.725 41.8224C44.8435 41.8557 44.9542 41.912 45.0509 41.988C45.1476 42.0641 45.2283 42.1585 45.2885 42.2658C45.3488 42.373 45.3872 42.4911 45.4018 42.6133C45.419 42.6357 45.4074 42.6803 45.4086 42.715C45.3876 42.9997 45.3047 43.2765 45.1655 43.5258C45.0263 43.7751 44.8343 43.9909 44.6028 44.1582C44.0432 44.4944 43.4368 44.7456 42.8033 44.9036C42.8492 45.3213 42.8909 45.727 42.9218 46.1054C43.0194 47.3131 43.0574 48.3172 43.084 49.0348C43.1107 49.7523 43.0934 50.1474 43.0934 50.1474C43.0959 50.1859 43.0901 50.2244 43.0765 50.2605C43.0629 50.2966 43.0418 50.3293 43.0145 50.3565C42.9872 50.3838 42.9544 50.4048 42.9183 50.4183C42.8821 50.4319 42.8436 50.4375 42.8051 50.4349C42.7672 50.4351 42.7296 50.4277 42.6945 50.4131C42.6595 50.3985 42.6278 50.377 42.6012 50.3499C42.5747 50.3227 42.5539 50.2905 42.5401 50.2552C42.5263 50.2199 42.5197 50.1821 42.5208 50.1442C42.6229 49.7596 42.6693 49.3623 42.6585 48.9645Z" fill="black"/>
<path d="M39.3304 29.601C39.3304 29.601 37.9392 29.473 37.4012 29.1633C37.1463 29.0357 36.922 28.8546 36.7435 28.6324C36.565 28.4102 36.4365 28.1521 36.3668 27.8757C36.3282 27.6294 36.3891 27.3778 36.5359 27.1762C36.6828 26.9747 36.9037 26.8397 37.15 26.801L37.2493 26.791C38.0436 26.7715 38.8844 27.9329 39.1132 28.6022C39.1341 28.6625 39.3417 29.6025 39.3304 29.601Z" fill="black"/>
<path d="M28.5587 44.7138C28.2764 45.111 27.937 45.4642 27.5514 45.762C27.3747 45.8742 27.1758 45.9469 26.9683 45.9753C26.7609 46.0037 26.5498 45.9871 26.3493 45.9266C26.1797 45.8583 26.0441 45.7255 25.9723 45.5574C25.9004 45.3892 25.8982 45.1995 25.9662 45.0297L25.9985 44.9591C26.2899 44.4503 27.3378 44.3634 27.8478 44.4707C27.8874 44.4759 28.5651 44.7089 28.5587 44.7138Z" fill="black"/>
<path d="M42.119 49.1508C41.769 48.5492 41.2539 47.6926 40.587 46.698C40.3972 46.4111 40.1919 46.1105 39.9761 45.8029C39.4251 46.1511 38.8257 46.4158 38.1972 46.5885C37.9168 46.641 37.6284 46.6313 37.3522 46.5602C37.0759 46.4891 36.8187 46.3583 36.5985 46.1769C36.5101 46.0897 36.4397 45.986 36.3914 45.8716C36.3431 45.7572 36.3178 45.6343 36.317 45.5102C36.3162 45.386 36.3399 45.2628 36.3867 45.1478C36.4335 45.0328 36.5026 44.9281 36.5899 44.8398L36.67 44.7783C37.3104 44.2866 38.6589 44.7172 39.2489 45.1142C39.2734 45.1463 39.6948 45.4895 39.9011 45.6721C39.7586 45.4928 39.6255 45.3062 39.5024 45.113L38.519 43.8321C38.4059 43.6848 38.2753 43.5611 38.1526 43.4212C37.9686 43.2214 37.7726 43.0258 37.584 42.8397C37.1155 43.2455 36.5884 43.5782 36.0205 43.8264C35.7499 43.9203 35.4621 43.9544 35.177 43.9264C34.8918 43.8984 34.6162 43.8089 34.369 43.6641C34.2674 43.5937 34.1807 43.504 34.1138 43.4001C34.047 43.2961 34.0012 43.18 33.9792 43.0584C33.9572 42.9368 33.9594 42.8121 33.9857 42.6913C34.0119 42.5705 34.0617 42.4561 34.1322 42.3546L34.2078 42.2609C34.7528 41.6847 36.1675 41.8964 36.804 42.2017C36.8188 42.221 36.9536 42.2905 37.1081 42.3857C36.9082 42.1982 36.7082 42.0106 36.5043 41.8313C35.9098 41.3155 35.2944 40.8057 34.6734 40.2951C34.5462 40.1891 34.4222 40.0807 34.2926 39.9715C33.8129 40.3913 33.2716 40.7348 32.6875 40.9901C32.4176 41.0852 32.1302 41.1202 31.8454 41.0927C31.5606 41.0653 31.2852 40.976 31.0384 40.831C30.9369 40.7606 30.8502 40.6709 30.7833 40.567C30.7164 40.4631 30.6707 40.347 30.6487 40.2254C30.6267 40.1038 30.6289 39.979 30.6551 39.8582C30.6814 39.7375 30.7311 39.6231 30.8016 39.5215L30.8772 39.4278C31.4223 38.8516 32.837 39.0633 33.4735 39.3687C33.4882 39.3879 33.6499 39.4725 33.8231 39.5787C33.4888 39.2958 33.1634 39.0112 32.8452 38.716C32.3021 38.214 31.7927 37.6767 31.3202 37.1077C30.8254 37.5381 30.2704 37.8939 29.6728 38.164C29.4022 38.2587 29.1143 38.2932 28.8291 38.2652C28.5438 38.2372 28.2681 38.1473 28.0212 38.0017C27.9197 37.9313 27.833 37.8416 27.7661 37.7376C27.6992 37.6337 27.6535 37.5176 27.6315 37.396C27.6095 37.2744 27.6117 37.1497 27.6379 37.0289C27.6641 36.9081 27.7139 36.7937 27.7844 36.6922L27.8568 36.6009C28.4019 36.0247 29.8166 36.2365 30.4563 36.5393C30.4858 36.5778 31.0531 36.9057 31.246 37.0375C30.7944 36.4672 30.3946 35.8577 30.0513 35.2164C29.7388 34.6482 29.4591 34.0625 29.2136 33.4623C28.9876 32.9028 28.8089 32.3783 28.6599 31.9125C28.5804 31.663 28.5132 31.4296 28.4494 31.2139C28.4494 31.2139 27.8283 30.4845 27.7946 30.434C27.406 29.8417 27.0052 28.4646 27.5038 27.8477C27.5847 27.7536 27.6834 27.6765 27.7942 27.6207C27.905 27.565 28.0257 27.5317 28.1495 27.5228C28.2732 27.5139 28.3975 27.5295 28.5152 27.5689C28.6328 27.6082 28.7415 27.6704 28.8351 27.7519C28.8554 27.7753 28.8743 27.7999 28.8916 27.8256C29.0671 28.0502 29.1919 28.3103 29.2573 28.5878C29.3228 28.8652 29.3273 29.1536 29.2707 29.433C29.0947 30.0496 28.8254 30.6357 28.4723 31.1709C28.541 31.393 28.6164 31.6303 28.7082 31.8958C28.8668 32.3543 29.0519 32.8738 29.2907 33.4234C29.3577 33.5705 29.4322 33.7271 29.5017 33.8773C29.4347 33.5979 29.3529 33.2128 29.3492 33.1749C29.2807 32.4691 29.5572 31.0658 30.2844 30.7467C30.5143 30.6534 30.7719 30.6552 31.0005 30.7516C31.2291 30.8481 31.4102 31.0313 31.5038 31.2611C31.5181 31.2934 31.5301 31.3267 31.5397 31.3608C31.5939 31.6415 31.586 31.9307 31.5168 32.208C31.4475 32.4854 31.3185 32.7443 31.1387 32.9666C30.6925 33.4313 30.1786 33.8259 29.6144 34.1368C29.7749 34.4718 29.9466 34.8082 30.1435 35.1507C30.496 35.7767 30.9026 36.3706 31.3586 36.9256L31.4348 37.0249C31.38 36.8939 31.1277 36.1409 31.1174 36.0878C30.9698 35.3917 31.0935 33.9684 31.7818 33.5722C31.8908 33.5138 32.0102 33.4776 32.1332 33.4654C32.2562 33.4532 32.3804 33.4654 32.4987 33.5013C32.617 33.5371 32.7271 33.596 32.8226 33.6744C32.9182 33.7528 32.9973 33.8493 33.0556 33.9583C33.0759 33.9817 33.0948 34.0063 33.1121 34.032C33.1951 34.305 33.2181 34.5927 33.1795 34.8753C33.1408 35.158 33.0415 35.429 32.8883 35.6697C32.4891 36.1944 32.011 36.6541 31.4712 37.0326C31.9428 37.5729 32.4491 38.0819 32.9871 38.5562C33.3786 38.907 33.7943 39.2496 34.2164 39.5872C34.1474 39.4111 33.9135 38.7153 33.9032 38.6621C33.7524 37.9686 33.8761 36.5452 34.5644 36.149C34.6727 36.0901 34.7915 36.053 34.9141 36.0401C35.0367 36.0272 35.1606 36.0385 35.2788 36.0736C35.3969 36.1086 35.507 36.1667 35.6027 36.2444C35.6984 36.322 35.7779 36.4179 35.8365 36.5263L35.8787 36.6211C35.9643 36.8932 35.9889 37.1807 35.9507 37.4633C35.9126 37.7459 35.8127 38.0167 35.6581 38.2563C35.259 38.7776 34.7844 39.2363 34.2499 39.6175L34.8235 40.0729C35.4517 40.5729 36.0927 41.0631 36.6904 41.5764C36.9032 41.7541 37.1038 41.9359 37.307 42.121C37.2127 41.8523 37.0514 41.3705 37.033 41.3133C36.8823 40.6198 37.0091 39.1939 37.6943 38.8002C37.8025 38.7413 37.9214 38.7043 38.0439 38.6913C38.1665 38.6784 38.2905 38.6898 38.4086 38.7248C38.5268 38.7599 38.6369 38.8179 38.7326 38.8956C38.8283 38.9733 38.9077 39.0691 38.9663 39.1775L39.0086 39.2723C39.0941 39.5444 39.1187 39.8319 39.0806 40.1145C39.0425 40.3972 38.9426 40.6679 38.788 40.9076C38.4061 41.4133 37.9496 41.8582 37.4342 42.2269C37.7687 42.53 38.0911 42.8373 38.3975 43.1568C38.513 43.3073 38.6695 43.4315 38.7833 43.5732C38.8972 43.7148 39.0071 43.8646 39.1401 43.9914L40.1039 45.2467C39.9702 44.9931 39.7613 44.5884 39.7464 44.549C39.4966 43.8857 39.399 42.4591 40.02 41.962C40.2181 41.8126 40.4671 41.7475 40.713 41.7809C40.9588 41.8143 41.1815 41.9434 41.3326 42.1402C41.3563 42.1677 41.3784 42.1966 41.3989 42.2266C41.5233 42.4832 41.5899 42.7639 41.5943 43.049C41.5986 43.3341 41.5405 43.6166 41.424 43.8769C41.114 44.4511 40.7171 44.9739 40.2472 45.4268C40.4931 45.747 40.7512 46.0833 40.956 46.4096C41.6487 47.4047 42.188 48.2529 42.5525 48.8536C42.917 49.4543 43.1205 49.8122 43.1205 49.8122C43.1387 49.844 43.1504 49.8792 43.155 49.9156C43.1596 49.952 43.1569 49.9889 43.1472 50.0243C43.1375 50.0597 43.1209 50.0928 43.0983 50.1217C43.0757 50.1506 43.0477 50.1748 43.0157 50.1929C42.9512 50.2286 42.8752 50.2376 42.8041 50.218C42.7329 50.1985 42.6723 50.1519 42.635 50.0882C42.4808 49.7663 42.3085 49.4534 42.119 49.1508Z" fill="black"/>
<path d="M29.5013 34.0903C29.5013 34.0903 28.2345 34.6812 27.6152 34.6833C27.3307 34.7027 27.0454 34.6596 26.7794 34.557C26.5133 34.4544 26.2729 34.2948 26.0751 34.0894C25.919 33.8951 25.8461 33.6469 25.8722 33.399C25.8983 33.1511 26.0213 32.9236 26.2144 32.766L26.2912 32.707C26.9673 32.2948 28.2763 32.8727 28.8014 33.3247C28.861 33.3757 29.5133 34.0862 29.5013 34.0903Z" fill="black"/>
</g>
<rect width="115.783" height="2.95887" rx="1.47943" transform="matrix(-1 0 0 1 128.619 53.207)" fill="#29ABE2"/>
<rect width="89.4314" height="1.75713" rx="0.878566" transform="matrix(-1 0 0 1 116.41 51.4492)" fill="#29ABE2"/>
<rect width="26.8427" height="1.75713" rx="0.878566" transform="matrix(-1 0 0 1 129.831 51.4492)" fill="#EAF7FC"/>
<rect width="26.8427" height="1.75713" rx="0.878566" transform="matrix(-1 0 0 1 43.0225 51.4492)" fill="#EAF7FC"/>
<rect width="70.303" height="1.75713" rx="0.878566" transform="matrix(-1 0 0 1 108.221 49.6914)" fill="#29ABE2"/>
<rect width="118.321" height="4.03231" rx="2.01616" transform="matrix(-1 0 0 1 127.339 56.166)" fill="#29ABE2"/>
<path d="M106.159 57.1109C104.389 56.3655 103.084 58.0895 100.988 57.111" stroke="#EAF7FC" stroke-width="0.489956" stroke-linecap="round"/>
<rect width="22.7502" height="4.03231" rx="2.01616" transform="matrix(-1 0 0 1 138.606 56.166)" fill="#EAF7FC"/>
<rect width="22.7502" height="4.03231" rx="2.01616" transform="matrix(-1 0 0 1 22.75 56.166)" fill="#EAF7FC"/>
<g clip-path="url(#clip0_1495_72091)">
<path d="M43.1602 54.6888C40.2274 53.4539 38.0664 56.3097 34.5937 54.6888" stroke="#EAF7FC" stroke-width="0.489956" stroke-linecap="round"/>
<circle cx="12.1931" cy="12.1931" r="12.1931" transform="matrix(-0.981444 0.191751 0.191751 0.981444 88.1494 9.48828)" fill="#510E00"/>
<rect x="52.6631" y="30.7012" width="14.4161" height="38.2991" rx="7.20806" transform="rotate(28.1502 52.6631 30.7012)" fill="#9F1EBA"/>
<mask id="mask0_1495_72091" style="mask-type:alpha" maskUnits="userSpaceOnUse" x="66" y="20" width="9" height="18">
<rect x="66.9111" y="20.4453" width="7.5102" height="17.0208" rx="3.7551" transform="rotate(0.265262 66.9111 20.4453)" fill="#FFC5A4"/>
</mask>
<g mask="url(#mask0_1495_72091)">
<rect x="66.9111" y="20.4453" width="7.5102" height="17.0208" rx="3.7551" transform="rotate(0.265262 66.9111 20.4453)" fill="#FFC5A4"/>
<rect x="64.5068" y="13.5781" width="11.7746" height="17.0208" rx="5.88731" transform="rotate(0.265262 64.5068 13.5781)" fill="#CA4848"/>
</g>
<mask id="mask1_1495_72091" style="mask-type:alpha" maskUnits="userSpaceOnUse" x="47" y="32" width="47" height="56">
<path d="M49.7739 38.7015C49.9774 35.403 52.7118 32.832 56.0165 32.832H83.9938C87.2716 32.832 89.9934 35.3626 90.2317 38.6318L93.2814 80.4679C93.5421 84.0433 90.7501 87.1057 87.1658 87.1759L53.5179 87.8341C49.8644 87.9056 46.928 84.8431 47.153 81.1958L49.7739 38.7015Z" fill="#9F1EBA"/>
</mask>
<g mask="url(#mask1_1495_72091)">
<path d="M49.7739 38.7015C49.9774 35.403 52.7118 32.832 56.0165 32.832H83.9938C87.2716 32.832 89.9934 35.3626 90.2317 38.6318L93.2814 80.4679C93.5421 84.0433 90.7501 87.1057 87.1658 87.1759L53.5179 87.8341C49.8644 87.9056 46.928 84.8431 47.153 81.1958L49.7739 38.7015Z" fill="#9F1EBA"/>
<mask id="mask2_1495_72091" style="mask-type:alpha" maskUnits="userSpaceOnUse" x="61" y="42" width="13" height="13">
<path d="M68.2871 53.2429C69.5991 53.5354 69.6511 53.2006 71.0616 54.1162C72.3619 53.239 74.6699 51.1953 73.499 50.0384C72.0354 48.5922 71.79 47.6939 71.721 46.277C71.652 44.86 70.386 43.8396 70.0878 43.6732C69.7896 43.5067 68.7686 43.4553 69.113 44.5192C67.6263 42.6335 64.6143 42.2107 63.8925 42.1134C63.315 42.0355 62.8861 42.5657 62.7438 42.8406C62.5614 42.7847 62.0389 42.7668 61.4082 43.1421C60.7775 43.5173 61.1405 44.5262 61.4008 44.9837C61.2821 45.1732 61.1149 45.7153 61.3952 46.3676C61.7454 47.1831 64.3144 48.9173 64.9153 50.2126C65.5161 51.5079 66.9751 52.9503 68.2871 53.2429Z" fill="#FFC5A4"/>
</mask>
<g mask="url(#mask2_1495_72091)">
<path d="M68.2871 53.2429C69.5991 53.5354 69.6511 53.2006 71.0616 54.1162C72.3619 53.239 74.6699 51.1953 73.499 50.0384C72.0354 48.5922 71.79 47.6939 71.721 46.277C71.652 44.86 70.386 43.8396 70.0878 43.6732C69.7896 43.5067 68.7686 43.4553 69.113 44.5192C67.6263 42.6335 64.6143 42.2107 63.8925 42.1134C63.315 42.0355 62.8861 42.5657 62.7438 42.8406C62.5614 42.7847 62.0389 42.7668 61.4082 43.1421C60.7775 43.5173 61.1405 44.5262 61.4008 44.9837C61.2821 45.1732 61.1149 45.7153 61.3952 46.3676C61.7454 47.1831 64.3144 48.9173 64.9153 50.2126C65.5161 51.5079 66.9751 52.9503 68.2871 53.2429Z" fill="#FFC5A4"/>
<rect width="11.9509" height="17.2757" rx="5.97547" transform="matrix(-0.932443 -0.361318 -0.361318 0.932443 83.876 46.584)" fill="#CA4848"/>
<g opacity="0.67" filter="url(#filter0_f_1495_72091)">
<circle cx="13.9313" cy="13.9313" r="13.9313" transform="matrix(-0.928545 -0.371219 -0.371219 0.928545 82.5205 26.5664)" fill="#CA4848"/>
</g>
</g>
<mask id="mask3_1495_72091" style="mask-type:alpha" maskUnits="userSpaceOnUse" x="57" y="42" width="14" height="13">
<path d="M62.9766 53.2429C61.6645 53.5354 61.6126 53.2006 60.2021 54.1162C58.9017 53.239 56.5938 51.1953 57.7647 50.0384C59.2283 48.5922 59.4737 47.6939 59.5427 46.277C59.6116 44.86 60.8777 43.8396 61.1759 43.6732C61.4741 43.5067 62.4951 43.4553 62.1507 44.5192C63.6374 42.6335 66.6493 42.2107 67.3712 42.1134C67.9487 42.0355 68.3776 42.5657 68.5198 42.8406C68.7022 42.7847 69.2248 42.7668 69.8554 43.1421C70.4861 43.5173 70.1232 44.5262 69.8629 44.9837C69.9815 45.1732 70.1487 45.7153 69.8685 46.3676C69.5183 47.1831 66.9493 48.9173 66.3484 50.2126C65.7475 51.5079 64.2886 52.9503 62.9766 53.2429Z" fill="#FFC5A4"/>
</mask>
<g mask="url(#mask3_1495_72091)">
<path d="M62.9766 53.2429C61.6645 53.5354 61.6126 53.2006 60.2021 54.1162C58.9017 53.239 56.5938 51.1953 57.7647 50.0384C59.2283 48.5922 59.4737 47.6939 59.5427 46.277C59.6116 44.86 60.8777 43.8396 61.1759 43.6732C61.4741 43.5067 62.4951 43.4553 62.1507 44.5192C63.6374 42.6335 66.6493 42.2107 67.3712 42.1134C67.9487 42.0355 68.3776 42.5657 68.5198 42.8406C68.7022 42.7847 69.2248 42.7668 69.8554 43.1421C70.4861 43.5173 70.1232 44.5262 69.8629 44.9837C69.9815 45.1732 70.1487 45.7153 69.8685 46.3676C69.5183 47.1831 66.9493 48.9173 66.3484 50.2126C65.7475 51.5079 64.2886 52.9503 62.9766 53.2429Z" fill="#FFC5A4"/>
<rect x="47.3877" y="46.584" width="11.9509" height="17.2757" rx="5.97547" transform="rotate(-21.1811 47.3877 46.584)" fill="#CA4848"/>
<g opacity="0.67" filter="url(#filter1_f_1495_72091)">
<circle cx="66.8506" cy="34.3307" r="13.9313" transform="rotate(-21.7908 66.8506 34.3307)" fill="#CA4848"/>
</g>
</g>
<path d="M92.4932 58.5391L78.2252 58.2969L78.4353 45.9174C78.5022 41.9774 81.7504 38.8377 85.6904 38.9045C89.6303 38.9714 92.7701 42.2196 92.7033 46.1596L92.4932 58.5391Z" fill="#5F0472"/>
</g>
<path d="M76.1155 33.436C76.2884 32.8403 75.1947 30.6336 74.6262 30.1211C73.4251 31.4902 71.1912 32.8595 69.2215 32.8355C67.6457 32.8163 66.8914 31.4262 66.6993 30.8177C66.355 30.9698 65.6135 31.7065 65.4021 33.436C65.1907 35.1655 66.1788 36.9911 66.6993 37.6877L69.0773 33.7242C69.2375 33.9644 69.8076 35.1751 70.8069 38.0961C73.7374 37.6637 75.8993 34.1806 76.1155 33.436Z" fill="white"/>
<circle cx="59.5423" cy="15.528" r="2.6517" transform="rotate(-90 59.5423 15.528)" fill="#FFC5A4"/>
<path d="M60.2393 14.3219C60.2943 14.2265 60.262 14.1032 60.1605 14.0605C60.0074 13.9961 59.8449 13.9559 59.6787 13.9418C59.446 13.9219 59.2119 13.9535 58.9928 14.0343C58.7738 14.1152 58.5752 14.2432 58.4111 14.4094C58.2471 14.5756 58.1217 14.7758 58.0437 14.9959C57.9658 15.216 57.9372 15.4506 57.9601 15.683C57.983 15.9153 58.0568 16.1398 58.1761 16.3405C58.2955 16.5412 58.4576 16.7131 58.6509 16.8441C58.789 16.9377 58.9406 17.0087 59.1 17.055C59.2058 17.0857 59.3086 17.0102 59.3258 16.9014C59.343 16.7926 59.2679 16.692 59.1635 16.6569C59.0615 16.6226 58.9643 16.5745 58.8747 16.5138C58.7299 16.4157 58.6085 16.2869 58.519 16.1365C58.4296 15.9862 58.3743 15.818 58.3572 15.6439C58.34 15.4697 58.3614 15.294 58.4198 15.1291C58.4782 14.9642 58.5722 14.8141 58.6951 14.6896C58.818 14.5651 58.9668 14.4692 59.1309 14.4086C59.295 14.3481 59.4705 14.3244 59.6448 14.3393C59.7526 14.3485 59.8584 14.3723 59.9592 14.4098C60.0625 14.4482 60.1842 14.4173 60.2393 14.3219Z" fill="#CA4848"/>
<mask id="mask4_1495_72091" style="mask-type:alpha" maskUnits="userSpaceOnUse" x="59" y="0" width="22" height="29">
<rect x="59.8975" width="20.1484" height="28.3275" rx="10.0742" fill="#FFC5A4"/>
</mask>
<g mask="url(#mask4_1495_72091)">
<rect x="59.8975" width="20.1484" height="28.3275" rx="10.0742" fill="#FFC5A4"/>
<circle cx="12.1931" cy="12.1931" r="12.1931" transform="matrix(-0.981444 0.191751 0.191751 0.981444 69.5664 -15.7344)" fill="#510E00"/>
<circle cx="11.153" cy="11.153" r="11.153" transform="matrix(-0.981444 0.191751 0.191751 0.981444 91.6729 -10.6406)" fill="#510E00"/>
<g filter="url(#filter2_f_1495_72091)">
<ellipse cx="2.0669" cy="2.1504" rx="2.0669" ry="2.1504" transform="matrix(-0.99752 -0.0703792 -0.0649959 0.997885 63.4883 16.9336)" fill="#CA4848"/>
</g>
<g filter="url(#filter3_f_1495_72091)">
<ellipse cx="1.79034" cy="1.86176" rx="1.79034" ry="1.86176" transform="matrix(-0.99421 0.107456 0.0992849 0.995059 75.2295 16.3555)" fill="#CA4848"/>
</g>
<path d="M70.0736 11.2381C70.5517 10.2951 72.0746 10.4979 72.3377 11.6148" stroke="#510E00" stroke-width="0.536098" stroke-linecap="round"/>
<path d="M69.971 14.5412C70.4491 15.4842 71.9721 15.2814 72.2352 14.1645" stroke="#510E00" stroke-width="0.536098" stroke-linecap="round"/>
<path d="M64.7572 11.6157C64.2371 10.7328 63.1766 11.0023 62.8407 11.6946" stroke="#510E00" stroke-width="0.536098" stroke-linecap="round"/>
<path d="M64.6556 14.1656C64.1356 15.0485 63.075 14.7789 62.7391 14.0867" stroke="#510E00" stroke-width="0.536098" stroke-linecap="round"/>
<path d="M69.0748 21.3272C68.3109 22.624 66.7531 22.2282 66.2598 21.2113" stroke="#510E00" stroke-width="0.536098" stroke-linecap="round"/>
<path d="M67.037 16.7143C65.6743 17.6741 65.6411 19.7336 66.7803 19.5327" stroke="#510E00" stroke-width="0.536098" stroke-linecap="round"/>
</g>
<rect x="75.2686" y="37.4141" width="14.4161" height="37.6497" rx="7.20806" transform="rotate(-24.5423 75.2686 37.4141)" fill="#9F1EBA"/>
<circle cx="2.6517" cy="2.6517" r="2.6517" transform="matrix(4.37114e-08 -1 -1 -4.37114e-08 83.3467 18.6582)" fill="#FFC5A4"/>
<path d="M79.998 14.8004C79.943 14.705 79.9753 14.5817 80.0769 14.539C80.2299 14.4746 80.3924 14.4344 80.5586 14.4203C80.7913 14.4004 81.0254 14.432 81.2445 14.5129C81.4636 14.5937 81.6621 14.7217 81.8262 14.8879C81.9902 15.0541 82.1156 15.2543 82.1936 15.4744C82.2715 15.6945 82.3001 15.9291 82.2772 16.1615C82.2543 16.3938 82.1805 16.6183 82.0612 16.819C81.9418 17.0197 81.7797 17.1916 81.5864 17.3226C81.4483 17.4162 81.2967 17.4872 81.1373 17.5335C81.0315 17.5642 80.9288 17.4888 80.9115 17.3799C80.8943 17.2711 80.9694 17.1705 81.0738 17.1354C81.1758 17.1011 81.273 17.053 81.3626 16.9923C81.5074 16.8942 81.6288 16.7654 81.7183 16.615C81.8077 16.4647 81.863 16.2965 81.8801 16.1224C81.8973 15.9483 81.8759 15.7725 81.8175 15.6076C81.7591 15.4427 81.6651 15.2927 81.5422 15.1682C81.4193 15.0436 81.2705 14.9477 81.1064 14.8872C80.9423 14.8266 80.7668 14.8029 80.5925 14.8178C80.4847 14.827 80.3789 14.8508 80.2781 14.8883C80.1748 14.9268 80.0531 14.8958 79.998 14.8004Z" fill="#CA4848"/>
<path d="M68.1152 56.6445L71.704 45.6154L81.4592 49.4743C84.4375 50.6524 86.0484 54.0764 85.0574 57.1221C84.0664 60.1677 80.8487 61.6816 77.8704 60.5034L68.1152 56.6445Z" fill="white"/>
<path d="M69.5654 59.3672L73.936 45.9355L95.8441 54.6018C99.4712 56.0365 101.433 60.2064 100.226 63.9155C99.0192 67.6246 95.1006 69.4683 91.4735 68.0335L69.5654 59.3672Z" fill="#9F1EBA"/>
<path d="M56.3887 45.6152L63.9998 55.3346L48.6873 67.3255C46.0034 69.4273 42.1238 68.9553 40.0221 66.2714C37.9203 63.5874 38.3923 59.7079 41.0762 57.6061L56.3887 45.6152Z" fill="white"/>
<path d="M54.418 45.8438L63.3061 57.1939L48.7346 68.6046C45.6003 71.059 41.0698 70.5078 38.6154 67.3736C36.161 64.2393 36.7122 59.7088 39.8464 57.2544L54.418 45.8438Z" fill="#9F1EBA"/>
</g>
<rect width="127.76" height="8.28548" rx="4.14274" transform="matrix(-1 0 0 1 136.777 60.1992)" fill="#29ABE2"/>
<path d="M20.9463 61.5645C25.5883 59.61 29.009 64.1303 34.5056 61.5646" stroke="#EAF7FC" stroke-width="0.489956" stroke-linecap="round"/>
<path d="M75.0986 64.7012C70.4566 62.7467 67.036 67.267 61.5393 64.7014" stroke="#EAF7FC" stroke-width="0.489956" stroke-linecap="round"/>
<path d="M116.75 62.461C112.108 60.5065 108.687 65.0267 103.191 62.4611" stroke="#EAF7FC" stroke-width="0.489956" stroke-linecap="round"/>
<defs>
<filter id="filter0_f_1495_72091" x="25.3632" y="-4.7179" width="78.0989" height="78.0979" filterUnits="userSpaceOnUse" color-interpolation-filters="sRGB">
<feFlood flood-opacity="0" result="BackgroundImageFix"/>
<feBlend mode="normal" in="SourceGraphic" in2="BackgroundImageFix" result="shape"/>
<feGaussianBlur stdDeviation="12.5572" result="effect1_foregroundBlur_1495_72091"/>
</filter>
<filter id="filter1_f_1495_72091" x="27.8016" y="-4.7179" width="78.0989" height="78.0979" filterUnits="userSpaceOnUse" color-interpolation-filters="sRGB">
<feFlood flood-opacity="0" result="BackgroundImageFix"/>
<feBlend mode="normal" in="SourceGraphic" in2="BackgroundImageFix" result="shape"/>
<feGaussianBlur stdDeviation="12.5572" result="effect1_foregroundBlur_1495_72091"/>
</filter>
<filter id="filter2_f_1495_72091" x="55.6636" y="13.2271" width="11.246" height="11.413" filterUnits="userSpaceOnUse" color-interpolation-filters="sRGB">
<feFlood flood-opacity="0" result="BackgroundImageFix"/>
<feBlend mode="normal" in="SourceGraphic" in2="BackgroundImageFix" result="shape"/>
<feGaussianBlur stdDeviation="1.77806" result="effect1_foregroundBlur_1495_72091"/>
</filter>
<filter id="filter3_f_1495_72091" x="68.2886" y="12.981" width="10.6913" height="10.8388" filterUnits="userSpaceOnUse" color-interpolation-filters="sRGB">
<feFlood flood-opacity="0" result="BackgroundImageFix"/>
<feBlend mode="normal" in="SourceGraphic" in2="BackgroundImageFix" result="shape"/>
<feGaussianBlur stdDeviation="1.77806" result="effect1_foregroundBlur_1495_72091"/>
</filter>
<clipPath id="clip0_1495_72091">
<rect width="72.338" height="64.8548" fill="white" transform="matrix(-1 0 0 1 101.938 0)"/>
</clipPath>
</defs>
</svg>
