<svg width="390" height="234" viewBox="0 0 390 234" fill="none" xmlns="http://www.w3.org/2000/svg">
<g clip-path="url(#clip0_5725_160365)">
<rect width="390" height="234" fill="#D2F2FF"/>
<g filter="url(#filter0_f_5725_160365)">
<circle cx="-124.411" cy="81.9259" r="172.805" fill="#F2FBFF"/>
<circle cx="81.8972" cy="193.896" r="78.4675" fill="#F2FBFF"/>
<circle cx="423.98" cy="90.7429" r="107.562" fill="#F2FBFF"/>
<circle cx="289.968" cy="196.541" r="37.0296" fill="#F2FBFF"/>
<circle cx="198.716" cy="230.485" r="43.642" fill="#F2FBFF"/>
<g filter="url(#filter1_f_5725_160365)">
<path d="M59.1564 166.283C28.2615 142.846 41.0455 110.885 15.4774 42.7031L-11.1562 130.062C-8.31536 164.508 -1.99438 234.465 0.562448 238.727C3.75848 244.053 96.4434 248.315 125.208 249.38C153.972 250.446 271.16 264.295 322.296 265.36C373.433 266.426 404.328 231.269 404.328 224.877C404.328 219.764 407.169 178.002 408.589 157.76L404.328 6.48145L374.498 70.4021C362.779 95.6152 338.063 148.385 332.95 157.76C326.558 169.479 293.532 182.263 271.16 197.178C248.788 212.093 192.324 198.243 147.58 197.178C102.835 196.113 90.0513 189.721 59.1564 166.283Z" fill="#D2F2FF"/>
</g>
</g>
<rect x="200.737" y="49.3105" width="27.0547" height="15.2119" fill="#77310C"/>
<rect x="233.259" y="79.5908" width="60.8574" height="74.9658" fill="#C2EDFF"/>
<path d="M316.456 84.6878C316.766 82.3751 320.111 82.3751 320.421 84.6878L329.186 150.14C329.346 151.339 328.414 152.405 327.204 152.405H309.674C308.464 152.405 307.531 151.339 307.692 150.14L316.456 84.6878Z" fill="#79CE9A"/>
<path d="M299.847 88.8108C300.157 86.4981 303.502 86.4981 303.812 88.8108L311.799 148.455C311.96 149.655 311.027 150.721 309.817 150.721H293.843C292.633 150.721 291.7 149.655 291.86 148.455L299.847 88.8108Z" fill="#79CE9A"/>
<rect x="327.667" y="86.2002" width="75.4395" height="131.184" fill="#C2EDFF"/>
<circle cx="9.75684" cy="9.75684" r="9.75684" transform="matrix(-1 0 0 1 383.92 106.304)" fill="#79CE9A"/>
<circle cx="9.75684" cy="9.75684" r="9.75684" transform="matrix(-1 0 0 1 369.961 106.304)" fill="#79CE9A"/>
<rect x="316.418" y="113.735" width="87.5723" height="78.834" fill="#ED8D67"/>
<rect x="353.592" y="113.735" width="50.3984" height="78.834" fill="#F9DEB3"/>
<rect x="314.84" y="113.735" width="89.1504" height="1.99609" fill="#C9673B"/>
<rect x="362.053" y="156.38" width="5.28125" height="9.9834" fill="#DF7A4E"/>
<path d="M307.578 114.145L311.767 137.491L227.792 131.425L244.396 114.821L307.578 114.145Z" fill="#F0C62D"/>
<rect x="240.298" y="126.89" width="52.2129" height="68.1514" fill="#D19B2E"/>
<path d="M322.09 126.89L307.3 114.072L292.512 126.89V195.041H322.09V126.89Z" fill="#FFE086"/>
<rect x="100.963" y="75.4453" width="43.3926" height="94.1894" fill="#C2EDFF"/>
<rect x="61.4395" y="108.103" width="83.1592" height="65.7597" fill="#C2EDFF"/>
<circle cx="142.206" cy="217.384" r="81.5107" fill="#79CE9A"/>
<path d="M95.6132 99.8792C95.9229 97.5665 99.2681 97.5665 99.5778 99.8792L106.34 150.38C106.501 151.579 105.568 152.645 104.358 152.645H90.8329C89.6229 152.645 88.69 151.579 88.8506 150.38L95.6132 99.8792Z" fill="#79CE9A"/>
<path d="M110.382 95.223C110.691 92.9102 114.037 92.9102 114.346 95.2229L121.109 145.723C121.27 146.923 120.337 147.989 119.127 147.989H105.601C104.391 147.989 103.459 146.923 103.619 145.723L110.382 95.223Z" fill="#79CE9A"/>
<path d="M13.3094 95.2229C13.6191 92.9102 16.9643 92.9102 17.274 95.223L25.2612 154.868C25.4218 156.067 24.4889 157.133 23.2789 157.133H7.30457C6.09454 157.133 5.16167 156.067 5.32227 154.868L13.3094 95.2229Z" fill="#79CE9A"/>
<path d="M114.142 147.892L107.304 150.653V138.644V166.847" stroke="black" stroke-width="1.4"/>
<rect width="29.3545" height="30.3057" rx="14.6772" transform="matrix(-1 0 0 1 121.123 112.774)" fill="#0BA464"/>
<rect width="13.2698" height="13.6998" rx="6.63489" transform="matrix(-1 0 0 1 124.116 138.049)" fill="#0BA464"/>
<circle cx="-53.3555" cy="203.022" r="81.5107" fill="#79CE9A"/>
<path d="M7.51172 133.448C7.51172 130.31 9.34626 127.462 12.2033 126.164L44.937 111.296C49.4043 109.267 54.5305 109.267 58.9978 111.296L91.7315 126.164C94.5886 127.462 96.4231 130.31 96.4231 133.448V180.546C96.4231 184.965 92.8414 188.546 88.4231 188.546H15.5117C11.0934 188.546 7.51172 184.965 7.51172 180.546V133.448Z" fill="#FCCC92"/>
<path d="M2.97363 131.194L44.9373 112.134C49.4046 110.105 54.5308 110.105 58.9981 112.134L100.962 131.194" stroke="#DF7A4E" stroke-width="5" stroke-linecap="square"/>
<rect x="54.8828" y="179.912" width="34.6494" height="6.08789" fill="#BABABA"/>
<rect x="58.4463" y="173.824" width="27.5225" height="6.08789" fill="#BABABA"/>
<rect x="43.3662" y="148.481" width="17.1512" height="31.4823" fill="#74310D" stroke="#DF7A4E"/>
<path d="M88.9541 160.7C88.9541 158.314 90.8885 156.38 93.2746 156.38C95.6608 156.38 97.5951 158.314 97.5951 160.7V184.409H88.9541V160.7Z" fill="#77310C"/>
<path d="M272.911 160.7C272.911 158.314 274.845 156.38 277.232 156.38C279.618 156.38 281.552 158.314 281.552 160.7V184.409H272.911V160.7Z" fill="#77310C"/>
<path d="M97.5957 160.7C97.5957 158.314 99.5301 156.38 101.916 156.38C104.302 156.38 106.237 158.314 106.237 160.7V184.409H97.5957V160.7Z" fill="#77310C"/>
<path d="M281.553 160.7C281.553 158.314 283.487 156.38 285.873 156.38C288.259 156.38 290.194 158.314 290.194 160.7V184.409H281.553V160.7Z" fill="#77310C"/>
<path d="M-5.11133 160.7C-5.11133 158.314 -3.17697 156.38 -0.790823 156.38C1.59532 156.38 3.52968 158.314 3.52968 160.7V184.409H-5.11133V160.7Z" fill="#77310C"/>
<path d="M106.235 160.7C106.235 158.314 108.17 156.38 110.556 156.38C112.942 156.38 114.876 158.314 114.876 160.7V184.409H106.235V160.7Z" fill="#77310C"/>
<path d="M290.192 160.7C290.192 158.314 292.127 156.38 294.513 156.38C296.899 156.38 298.833 158.314 298.833 160.7V184.409H290.192V160.7Z" fill="#77310C"/>
<path d="M3.53027 160.7C3.53027 158.314 5.46463 156.38 7.85078 156.38C10.2369 156.38 12.1713 158.314 12.1713 160.7V184.409H3.53027V160.7Z" fill="#77310C"/>
<rect x="135.143" y="59.0791" width="116.614" height="126.921" fill="#F9DEB3"/>
<rect x="203.366" y="148.824" width="17.1512" height="31.4823" fill="#74310D" stroke="#DF7A4E"/>
<rect x="330.465" y="154.653" width="10.3836" height="31.4823" fill="#74310D" stroke="#DF7A4E"/>
<rect x="303.334" y="155.027" width="9.66911" height="18.0928" fill="#9E6E0F" stroke="#EBC554"/>
<rect x="193.869" y="128.055" width="5.28125" height="14.249" fill="#DF7A4E"/>
<rect x="215.736" y="128.68" width="5.28125" height="12.999" fill="#DF7A4E"/>
<rect x="275.05" y="135.18" width="5.28125" height="12.999" fill="#9E6E0F"/>
<rect x="234.584" y="129.041" width="5.28125" height="15.1611" fill="#DF7A4E"/>
<rect width="121.345" height="2.16211" transform="matrix(1 0 0 -1 132.777 59.0791)" fill="#DF7A4E"/>
<rect x="135.143" y="59.0791" width="40.6309" height="126.921" fill="url(#paint0_linear_5725_160365)"/>
<g style="mix-blend-mode:multiply">
<rect x="160.364" y="127.494" width="5.28125" height="14.8115" fill="#B3562E"/>
</g>
<g style="mix-blend-mode:multiply">
<rect x="142.688" y="128.055" width="5.28125" height="14.8115" fill="#B3562E"/>
</g>
<path d="M147.717 154.091L141.172 163.26V152.089V178.324" stroke="black" stroke-width="1.4"/>
<path d="M257.941 154.092L251.397 163.261V152.09V178.325" stroke="black" stroke-width="1.4"/>
<circle cx="13.4927" cy="13.4927" r="13.4927" transform="matrix(-1 0 0 1 266.404 131.564)" fill="#0BA464"/>
<circle cx="13.4927" cy="13.4927" r="13.4927" transform="matrix(-1 0 0 1 156.18 131.563)" fill="#0BA464"/>
<path d="M17.4102 152.273L24.4456 162.131V150.121V178.325" stroke="black" stroke-width="1.4"/>
<rect width="23.2972" height="42.7129" rx="11.6486" transform="matrix(-1 0 0 1 33.6543 111.845)" fill="#0BA464"/>
<circle cx="242.358" cy="176.868" r="16.8086" fill="#024951"/>
<path d="M184.377 178.948V158.425" stroke="white" stroke-width="2" stroke-linecap="round"/>
<path d="M176.914 178.948V158.425" stroke="white" stroke-width="2" stroke-linecap="round"/>
<path d="M169.451 178.948V158.425" stroke="white" stroke-width="2" stroke-linecap="round"/>
<path d="M161.988 178.948V158.425" stroke="white" stroke-width="2" stroke-linecap="round"/>
<path d="M158.328 162.707L188.037 162.707" stroke="white" stroke-width="2" stroke-linecap="round"/>
<path d="M371.398 183.494V162.971" stroke="white" stroke-width="2" stroke-linecap="round"/>
<path d="M363.936 183.494V162.971" stroke="white" stroke-width="2" stroke-linecap="round"/>
<path d="M356.473 183.494V162.971" stroke="white" stroke-width="2" stroke-linecap="round"/>
<path d="M349.01 183.494V162.971" stroke="white" stroke-width="2" stroke-linecap="round"/>
<path d="M345.35 167.253L375.059 167.253" stroke="white" stroke-width="2" stroke-linecap="round"/>
<rect x="192.359" y="75.625" width="5.28125" height="18.0459" fill="#DF7A4E"/>
<rect x="160.364" y="75.625" width="5.28125" height="14.8115" fill="#B3562E"/>
<rect x="142.688" y="76.1855" width="5.28125" height="14.8115" fill="#B3562E"/>
<rect x="362.053" y="123.633" width="5.28125" height="18.0459" fill="#DF7A4E"/>
<rect x="337.166" y="123.633" width="5.28125" height="18.0459" fill="#C9673B"/>
<rect x="214.227" y="79.5908" width="5.28125" height="12.999" fill="#DF7A4E"/>
<rect x="383.92" y="127.6" width="5.28125" height="12.999" fill="#DF7A4E"/>
<rect x="383.92" y="158.574" width="5.28125" height="7.19135" fill="#DF7A4E"/>
<circle cx="388.063" cy="192.792" r="28.7178" fill="#024951"/>
<rect x="233.073" y="78.5098" width="5.28125" height="15.1611" fill="#DF7A4E"/>
<rect x="222.52" y="87.2227" width="29.2373" height="10.8906" fill="#FFEDD1"/>
<rect x="357.523" y="136.621" width="43.0791" height="10.8906" fill="#FFEDD1"/>
<path d="M303.701 136.169C303.701 133.702 305.701 131.702 308.168 131.702C310.636 131.702 312.636 133.702 312.636 136.169V145.984H303.701V136.169Z" fill="#D19B2E"/>
<rect x="-11" y="175" width="420" height="59" fill="#3D3D3D"/>
<path d="M392.35 153.498L386.772 161.312V151.792V174.149" stroke="black" stroke-width="1.4"/>
<circle cx="11.4982" cy="11.4982" r="11.4982" transform="matrix(-1 0 0 1 399.562 135.18)" fill="#0BA464"/>
<path d="M111.1 27.0783L102.367 24.2348C107.083 23.3574 110.222 25.43 110.222 25.43C111.1 21.9065 116.381 21.3916 116.381 21.3916L111.1 27.0783Z" fill="black"/>
<rect width="419.674" height="3.62305" transform="matrix(1 0 0 -1 -11.085 176.292)" fill="#0BA464"/>
</g>
<defs>
<filter id="filter0_f_5725_160365" x="-305.816" y="-99.4789" width="845.958" height="382.206" filterUnits="userSpaceOnUse" color-interpolation-filters="sRGB">
<feFlood flood-opacity="0" result="BackgroundImageFix"/>
<feBlend mode="normal" in="SourceGraphic" in2="BackgroundImageFix" result="shape"/>
<feGaussianBlur stdDeviation="4.3" result="effect1_foregroundBlur_5725_160365"/>
</filter>
<filter id="filter1_f_5725_160365" x="-62.6562" y="-45.0186" width="522.745" height="361.902" filterUnits="userSpaceOnUse" color-interpolation-filters="sRGB">
<feFlood flood-opacity="0" result="BackgroundImageFix"/>
<feBlend mode="normal" in="SourceGraphic" in2="BackgroundImageFix" result="shape"/>
<feGaussianBlur stdDeviation="25.75" result="effect1_foregroundBlur_5725_160365"/>
</filter>
<linearGradient id="paint0_linear_5725_160365" x1="155.458" y1="59.0791" x2="155.458" y2="186" gradientUnits="userSpaceOnUse">
<stop stop-color="#ED8D67"/>
<stop offset="1" stop-color="#CD5649"/>
</linearGradient>
<clipPath id="clip0_5725_160365">
<rect width="390" height="234" fill="white"/>
</clipPath>
</defs>
</svg>
