<svg width="110" height="100" viewBox="0 0 110 100" fill="none" xmlns="http://www.w3.org/2000/svg">
<path d="M18.7205 107.093C22.5386 110.865 28.6911 110.827 32.4625 107.009L52.2193 87.0073C55.5554 83.6298 55.3596 78.1405 51.7912 75.0094C48.7559 72.346 44.2386 72.2715 41.1171 74.8332L19.3847 92.6683C14.9267 96.3268 14.6176 103.04 18.7205 107.093Z" fill="#00336F"/>
<mask id="mask0_4303_90524" style="mask-type:alpha" maskUnits="userSpaceOnUse" x="57" y="50" width="16" height="33">
<rect width="14.1735" height="32.1223" rx="7.08676" transform="matrix(-0.999979 -0.00641919 -0.00641919 0.999979 72.1396 50.3594)" fill="#FFC5A4"/>
</mask>
<g mask="url(#mask0_4303_90524)">
<rect width="14.1735" height="32.1223" rx="7.08676" transform="matrix(-0.999979 -0.00641919 -0.00641919 0.999979 72.1396 50.3594)" fill="#FFC5A4"/>
<rect width="22.2215" height="32.1223" rx="11.1108" transform="matrix(-0.999979 -0.00641919 -0.00641919 0.999979 73.8643 39.0312)" fill="#CA4848"/>
</g>
<mask id="mask1_4303_90524" style="mask-type:alpha" maskUnits="userSpaceOnUse" x="39" y="72" width="56" height="75">
<path d="M89.2696 82.0013C88.8058 76.8125 84.4579 72.8359 79.2484 72.8359H49.5784C44.0219 72.8359 39.5174 77.3404 39.5174 82.897V134.107C39.5174 139.345 43.5364 143.707 48.757 144.134L83.257 146.961C89.4767 147.47 94.6551 142.253 94.0995 136.037L89.2696 82.0013Z" fill="#0A6DE1"/>
</mask>
<g mask="url(#mask1_4303_90524)">
<path d="M89.2842 81.9848C88.8124 76.8031 84.4677 72.8359 79.2645 72.8359H49.5794C44.0228 72.8359 39.5183 77.3404 39.5183 82.897L39.5183 121.888C39.5183 127.155 43.5811 131.531 48.834 131.921L82.2951 134.407C88.4943 134.868 93.6237 129.652 93.0602 123.461L89.2842 81.9848Z" fill="#0A6DE1"/>
</g>
<path d="M88.2105 95.8513L70.7052 113.74C70.5389 113.91 70.2514 113.776 70.2751 113.539L72.884 87.5104C72.902 87.3313 73.0969 87.2284 73.2549 87.3148L88.1514 95.4547C88.2976 95.5346 88.3271 95.7322 88.2105 95.8513Z" fill="#00336F"/>
<mask id="mask2_4303_90524" style="mask-type:alpha" maskUnits="userSpaceOnUse" x="47" y="28" width="32" height="40">
<rect width="27.6499" height="39.7646" rx="13.4989" transform="matrix(-0.974269 -0.225389 -0.225389 0.974269 80.8418 31.9062)" fill="#FFC5A4"/>
</mask>
<g mask="url(#mask2_4303_90524)">
<rect width="27.6499" height="39.7646" rx="13.4989" transform="matrix(-0.974269 -0.225389 -0.225389 0.974269 80.8418 31.9062)" fill="#FFC5A4"/>
<path d="M70.8721 42.9222C70.3153 46.0591 73.2456 50.1357 76.1457 51.2289L83.305 40.6236L82.243 30.9005L73.4322 25.5507L52.7652 25.7939C54.0942 27.6999 57.414 31.7108 60.0619 32.5061C63.3717 33.5002 69.3014 31.5605 71.2515 33.4961C73.2017 35.4317 71.4288 39.7853 70.8721 42.9222Z" fill="#2B2B2B"/>
<g filter="url(#filter0_f_4303_90524)">
<ellipse cx="3.14318" cy="3.27016" rx="3.14318" ry="3.27016" transform="matrix(-0.95599 -0.293399 -0.288236 0.957559 52.3564 47.5742)" fill="#CA4848"/>
</g>
<g filter="url(#filter1_f_4303_90524)">
<ellipse cx="2.7226" cy="2.83121" rx="2.7226" ry="2.83121" transform="matrix(-0.992847 -0.119393 -0.127545 0.991833 66.0996 49.5898)" fill="#CA4848"/>
</g>
<path d="M61.336 42.1187C61.9611 40.9701 63.9624 41.3059 64.3115 42.7116" stroke="#510E00" stroke-width="0.754581" stroke-linecap="round"/>
<path d="M56.7594 57.2812C57.1036 55.7107 55.115 54.4843 53.7305 55.5465" stroke="#510E00" stroke-width="0.754581" stroke-linecap="round"/>
<path d="M55.7547 40.6454C55.2868 39.1591 53.6231 39.1949 52.8882 40.1054" stroke="#510E00" stroke-width="0.754581" stroke-linecap="round"/>
<ellipse cx="1.424" cy="1.47928" rx="1.424" ry="1.47928" transform="matrix(-0.903248 -0.429119 -0.418143 0.908381 64.8242 46.6133)" fill="#510E00"/>
<ellipse cx="1.21281" cy="1.32059" rx="1.21281" ry="1.32059" transform="matrix(-0.948654 -0.316315 -0.304796 0.952417 54.3076 44.1875)" fill="#510E00"/>
<path d="M55.3162 48.3244C52.9682 49.2794 52.2132 52.3193 53.9698 52.4121" stroke="#510E00" stroke-width="0.754581" stroke-linecap="round"/>
</g>
<rect width="49.8879" height="20.5052" rx="10.2526" transform="matrix(-0.442879 -0.896582 -0.896582 0.442879 105.809 114.156)" fill="#0A6DE1"/>
<path d="M99.0401 105.789C96.9 100.661 91.0081 98.2388 85.8802 100.379L60.6597 110.905C57.583 112.189 56.1297 115.724 57.4138 118.801L62.9865 132.153L93.7778 119.302C98.9057 117.162 101.328 111.27 99.1877 106.142L99.0401 105.789Z" fill="#0A6DE1"/>
<circle cx="4.4975" cy="4.4975" r="4.4975" transform="matrix(0.225389 -0.974269 -0.974269 -0.225389 80.5244 58.8555)" fill="#FFC5A4"/>
<path d="M76.4666 51.2034C76.4121 51.0247 76.5127 50.8333 76.6968 50.8016C76.9742 50.7537 77.2582 50.7494 77.5383 50.7895C77.9303 50.8457 78.3051 50.9874 78.6362 51.2047C78.9673 51.422 79.2466 51.7095 79.4541 52.0468C79.6616 52.3841 79.7923 52.763 79.837 53.1565C79.8816 53.55 79.8391 53.9485 79.7125 54.3237C79.5858 54.699 79.3781 55.0417 79.1041 55.3277C78.8302 55.6136 78.4966 55.8358 78.1271 55.9783C77.8632 56.0802 77.5855 56.1397 77.3044 56.1552C77.1178 56.1655 76.9769 56.0015 76.99 55.8151C77.0031 55.6287 77.1657 55.4912 77.3517 55.4731C77.5333 55.4554 77.7123 55.4131 77.8835 55.347C78.1603 55.2402 78.4103 55.0738 78.6156 54.8595C78.8208 54.6453 78.9764 54.3885 79.0713 54.1073C79.1662 53.8262 79.1981 53.5276 79.1646 53.2328C79.1311 52.938 79.0332 52.6541 78.8777 52.4014C78.7222 52.1486 78.5131 51.9332 78.265 51.7704C78.0169 51.6076 77.736 51.5014 77.4423 51.4594C77.2606 51.4333 77.0767 51.4322 76.8957 51.4557C76.7104 51.4797 76.5212 51.3821 76.4666 51.2034Z" fill="#CA4848"/>
<path d="M74.5903 73.2016C74.8995 72.1362 72.9436 68.1899 71.927 67.2734C69.7791 69.7219 65.784 72.1707 62.2615 72.1277C59.4435 72.0933 58.0946 69.6074 57.751 68.5192C57.1352 68.7912 55.8093 70.1086 55.4312 73.2016C55.0532 76.2945 56.8202 79.5593 57.751 80.8051L62.0038 73.717C62.2902 74.1466 63.3097 76.3117 65.0967 81.5353C70.3376 80.7621 74.2037 74.5332 74.5903 73.2016Z" fill="white"/>
<rect x="50.9844" y="59.207" width="4.53069" height="6.58451" rx="2.26534" transform="rotate(20.2542 50.9844 59.207)" fill="#F6B094"/>
<mask id="mask3_4303_90524" style="mask-type:alpha" maskUnits="userSpaceOnUse" x="32" y="57" width="21" height="28">
<path d="M37.7525 68.2104C37.6129 71.4222 36.5783 71.1861 32.7743 76.8806C32.7135 76.9717 32.7167 77.0949 32.7852 77.1803L38.1872 83.9153C38.3034 84.0602 38.5314 84.0337 38.6125 83.8666C39.5521 81.9316 41.5736 78.0966 43.4759 75.5266C43.5438 75.4349 43.6646 75.4055 43.7763 75.4286C44.8259 75.6461 46.0661 74.2479 46.718 73.2826C46.8122 73.1431 47.021 73.1186 47.1593 73.2145C47.4863 73.4411 48.081 73.7465 48.9764 73.9626C50.5212 74.3355 51.8003 71.8303 52.0365 70.5477C52.2698 69.2806 52.369 64.4079 52.0116 61.7307C52.0031 61.6673 52.0195 61.6045 52.0541 61.5506C52.8638 60.2896 52.1493 58.6582 51.7255 58.1342C51.2923 57.5986 42.9069 56.928 40.7992 58.0594C38.6916 59.1907 37.8933 64.9695 37.7525 68.2104Z" fill="#FFC5A4"/>
</mask>
<g mask="url(#mask3_4303_90524)">
<path d="M37.7525 68.2104C37.6129 71.4222 36.5783 71.1861 32.7743 76.8806C32.7135 76.9717 32.7167 77.0949 32.7852 77.1803L38.1872 83.9153C38.3034 84.0602 38.5314 84.0337 38.6125 83.8666C39.5521 81.9316 41.5736 78.0966 43.4759 75.5266C43.5438 75.4349 43.6646 75.4055 43.7763 75.4286C44.8259 75.6461 46.0661 74.2479 46.718 73.2826C46.8122 73.1431 47.021 73.1186 47.1593 73.2145C47.4863 73.4411 48.081 73.7465 48.9764 73.9626C50.5212 74.3355 51.8003 71.8303 52.0365 70.5477C52.2698 69.2806 52.369 64.4079 52.0116 61.7307C52.0031 61.6673 52.0195 61.6045 52.0541 61.5506C52.8638 60.2896 52.1493 58.6582 51.7255 58.1342C51.2923 57.5986 42.9069 56.928 40.7992 58.0594C38.6916 59.1907 37.8933 64.9695 37.7525 68.2104Z" fill="#FFC5A4"/>
<path d="M52.3902 74.8995C51.1378 75.6546 46.7655 74.4859 47.086 72.7698C47.3508 71.3522 48.4832 71.6266 49.4295 71.8834" stroke="#CF5450" stroke-width="0.754581" stroke-linecap="round"/>
<path d="M50.0993 68.2793C51.5138 67.9084 53.9103 69.778 54.5867 71.8195C55.0402 73.1885 56.3947 75.3456 55.5593 74.8322" stroke="#CF5450" stroke-width="0.754581" stroke-linecap="round"/>
<path d="M50.1667 64.9043C51.5812 64.5334 53.9777 66.403 54.654 68.4445C55.1076 69.8135 56.4621 71.9706 55.6267 71.4572" stroke="#CF5450" stroke-width="0.754581" stroke-linecap="round"/>
<path d="M50.0671 61.0215C51.4816 60.6506 53.8781 62.5202 54.5544 64.5617C55.008 65.9307 56.3624 68.0878 55.5271 67.5744" stroke="#CF5450" stroke-width="0.754581" stroke-linecap="round"/>
<ellipse cx="20.0853" cy="7.24949" rx="20.0853" ry="7.24949" transform="matrix(-0.901337 -0.433118 -0.433118 0.901337 64.04 83.2656)" fill="#CA4848"/>
<g filter="url(#filter2_f_4303_90524)">
<circle cx="7.82833" cy="7.82833" r="7.82833" transform="matrix(-0.983974 0.178314 0.178314 0.983974 60.2734 47.9805)" fill="#CA4848"/>
</g>
</g>
<path d="M18.6164 108.742C23.3456 111.784 29.657 110.268 32.4874 105.409L44.8395 84.2039C45.6064 82.8872 45.2313 81.2022 43.9783 80.3352L34.1335 73.5238C32.7779 72.5859 30.9184 72.9266 29.9834 74.2842L15.8268 94.8405C12.6655 99.431 13.9289 105.727 18.6164 108.742Z" fill="#338DF6"/>
<rect width="11.5032" height="11.8275" rx="0.503054" transform="matrix(-0.842258 -0.539075 -0.539075 0.842258 44.9395 77.9453)" fill="#338DF6"/>
<rect x="0.786133" y="10.9883" width="38.7311" height="25.5812" rx="6" fill="#22B573"/>
<rect x="87.249" y="29.2656" width="22.1125" height="14.6049" rx="3.2369" fill="#D4145A"/>
<circle cx="35.6378" cy="41.5226" r="3.17105" fill="#22B573"/>
<circle cx="41.4286" cy="46.8143" r="1.34555" fill="#22B573"/>
<circle cx="1.54364" cy="1.54364" r="1.54364" transform="matrix(-1 0 0 1 87.249 45.2734)" fill="#D4145A"/>
<rect x="94.4736" y="34.0469" width="1.84742" height="8.98695" rx="0.923709" transform="rotate(-45 94.4736 34.0469)" fill="white"/>
<rect width="1.84742" height="8.98695" rx="0.923709" transform="matrix(-0.707107 -0.707107 -0.707107 0.707107 102.137 34.0469)" fill="white"/>
<rect x="13.1299" y="21.3867" width="3.32856" height="8.98695" rx="1.66428" transform="rotate(-33.5913 13.1299 21.3867)" fill="white"/>
<rect x="27.4258" y="18.6836" width="3.32856" height="13.4018" rx="1.66428" transform="rotate(56.4087 27.4258 18.6836)" fill="white"/>
<defs>
<filter id="filter0_f_4303_90524" x="40.2534" y="41.5141" width="16.3106" height="16.5381" filterUnits="userSpaceOnUse" color-interpolation-filters="sRGB">
<feFlood flood-opacity="0" result="BackgroundImageFix"/>
<feBlend mode="normal" in="SourceGraphic" in2="BackgroundImageFix" result="shape"/>
<feGaussianBlur stdDeviation="2.50269" result="effect1_foregroundBlur_4303_90524"/>
</filter>
<filter id="filter1_f_4303_90524" x="55.3022" y="44.2407" width="15.4658" height="15.6631" filterUnits="userSpaceOnUse" color-interpolation-filters="sRGB">
<feFlood flood-opacity="0" result="BackgroundImageFix"/>
<feBlend mode="normal" in="SourceGraphic" in2="BackgroundImageFix" result="shape"/>
<feGaussianBlur stdDeviation="2.50269" result="effect1_foregroundBlur_4303_90524"/>
</filter>
<filter id="filter2_f_4303_90524" x="29.0329" y="32.1462" width="49.8668" height="49.8678" filterUnits="userSpaceOnUse" color-interpolation-filters="sRGB">
<feFlood flood-opacity="0" result="BackgroundImageFix"/>
<feBlend mode="normal" in="SourceGraphic" in2="BackgroundImageFix" result="shape"/>
<feGaussianBlur stdDeviation="8.55191" result="effect1_foregroundBlur_4303_90524"/>
</filter>
</defs>
</svg>
