<svg width="161" height="100" viewBox="0 0 161 100" fill="none" xmlns="http://www.w3.org/2000/svg">
<g clip-path="url(#clip0_4076_68660)">
<mask id="mask0_4076_68660" style="mask-type:alpha" maskUnits="userSpaceOnUse" x="133" y="57" width="11" height="16">
<path d="M141.28 70.1581C140.299 71.1502 140.065 70.8872 139.349 72.4783C137.721 72.4431 134.56 71.9557 134.932 70.2885C135.397 68.2045 135.106 67.2828 134.371 66.0075C133.635 64.7322 134.167 63.1307 134.334 62.818C134.501 62.5052 135.363 61.887 135.66 63.0089C135.898 60.5283 138.289 58.4679 138.864 57.9775C139.325 57.5852 139.997 57.8071 140.275 57.9671C140.403 57.8159 140.849 57.5069 141.61 57.4801C142.371 57.4534 142.621 58.5377 142.651 59.0831C142.861 59.1819 143.311 59.5611 143.433 60.2877C143.585 61.196 142.317 64.1522 142.52 65.62C142.723 67.0879 142.26 69.166 141.28 70.1581Z" fill="#FFC5A4"/>
</mask>
<g mask="url(#mask0_4076_68660)">
<path d="M141.28 70.1581C140.299 71.1502 140.065 70.8872 139.349 72.4783C137.721 72.4431 134.56 71.9557 134.932 70.2885C135.397 68.2045 135.106 67.2828 134.371 66.0075C133.635 64.7322 134.167 63.1307 134.334 62.818C134.501 62.5052 135.363 61.887 135.66 63.0089C135.898 60.5283 138.289 58.4679 138.864 57.9775C139.325 57.5852 139.997 57.8071 140.275 57.9671C140.403 57.8159 140.849 57.5069 141.61 57.4801C142.371 57.4534 142.621 58.5377 142.651 59.0831C142.861 59.1819 143.311 59.5611 143.433 60.2877C143.585 61.196 142.317 64.1522 142.52 65.62C142.723 67.0879 142.26 69.166 141.28 70.1581Z" fill="#FFC5A4"/>
<rect x="128" y="72.3828" width="12.4023" height="17.9282" rx="6.20116" transform="rotate(-32.4968 128 72.3828)" fill="#CA4848"/>
<g opacity="0.67" filter="url(#filter0_f_4076_68660)">
<circle cx="134.039" cy="51.4779" r="14.4575" transform="rotate(-54.5529 134.039 51.4779)" fill="#CA4848"/>
</g>
<path d="M136.966 63.2227C138.585 63.5143 140.512 64.3565 140.884 64.6479" stroke="#C94848" stroke-width="0.504685" stroke-linecap="round"/>
<path d="M140.215 64.0548C140.926 62.4538 142.468 59.1764 142.946 58.875" stroke="#C94848" stroke-width="0.504685" stroke-linecap="round"/>
<path d="M137.922 63.2322C138.392 61.5443 140.647 57.5196 141.075 57.1515" stroke="#C94848" stroke-width="0.504685" stroke-linecap="round"/>
</g>
<circle cx="9.19322" cy="9.19322" r="9.19322" transform="matrix(-0.900667 0.434509 0.434509 0.900667 116.242 41.5273)" fill="#2B2B2B"/>
<circle cx="6.58167" cy="6.58167" r="6.58167" transform="matrix(-0.900667 0.434509 0.434509 0.900667 112.977 36.2266)" fill="#2B2B2B"/>
<rect width="12.023" height="23.8715" rx="6.01151" transform="matrix(-0.991574 0.129543 0.129543 0.991574 125.583 71.082)" fill="#9F1EBA"/>
<path d="M129.389 80.993C128.248 84.0755 129.871 87.4924 132.98 88.557C136.102 89.6257 139.489 87.9025 140.463 84.7501L144.3 72.3381L133.935 68.707L129.389 80.993Z" fill="#9F1EBA"/>
<path d="M119.589 82.7866C116.66 81.4648 115.339 78.0321 116.627 75.0876C117.98 71.9945 121.657 70.6785 124.666 72.2112L134.871 77.4111L135.264 85.7613C135.354 87.6774 133.389 89.0132 131.641 88.2243L119.589 82.7866Z" fill="#9F1EBA"/>
<circle cx="8.46566" cy="8.46566" r="8.46566" transform="matrix(-0.991979 0.126401 0.126401 0.991979 123.631 37.6738)" fill="#2B2B2B"/>
<path d="M126.678 77.4505C125.816 73.7255 122.56 71.0439 118.738 70.9132L105.668 70.4662C100.113 70.2762 95.8926 75.4117 97.1552 80.8245L99.0831 89.0896C99.6406 91.4795 99.8363 93.9396 99.6637 96.3876L98.8939 107.303L128.331 106.551L130.336 105.729L128.331 90.1708L126.696 77.5306L126.678 77.4505Z" fill="#9F1EBA"/>
<mask id="mask1_4076_68660" style="mask-type:alpha" maskUnits="userSpaceOnUse" x="107" y="54" width="11" height="18">
<rect width="8.43247" height="17.2734" rx="4.21624" transform="matrix(-0.988773 0.149423 0.149423 0.988773 115.2 54.0469)" fill="#FFC5A4"/>
</mask>
<g mask="url(#mask1_4076_68660)">
<rect width="8.43247" height="17.2734" rx="4.21624" transform="matrix(-0.988773 0.149423 0.149423 0.988773 115.2 54.0469)" fill="#FFC5A4"/>
<rect width="3.57775" height="1.89758" transform="matrix(-1 0 0 1 116.679 70.7168)" fill="#29ABE2"/>
<circle cx="8.35214" cy="8.35214" r="8.35214" transform="matrix(-0.991979 0.126401 0.126401 0.991979 123.442 50.6914)" fill="#CA4848"/>
</g>
<mask id="mask2_4076_68660" style="mask-type:alpha" maskUnits="userSpaceOnUse" x="105" y="41" width="18" height="26">
<rect width="16.9495" height="25.0769" rx="8.47477" transform="matrix(-0.999475 0.0323869 0.0677591 0.997702 121.669 40.7559)" fill="#FFC5A4"/>
</mask>
<g mask="url(#mask2_4076_68660)">
<rect width="16.9495" height="25.0769" rx="8.47477" transform="matrix(-0.999341 0.0363021 0.0716671 0.997429 121.618 40.7246)" fill="#FFC5A4"/>
<circle cx="9.19322" cy="9.19322" r="9.19322" transform="matrix(-0.900667 0.434509 0.434509 0.900667 105.423 37.2852)" fill="#2B2B2B"/>
<circle cx="9.19322" cy="9.19322" r="9.19322" transform="matrix(-0.900667 0.434509 0.434509 0.900667 115.196 29.498)" fill="#2B2B2B"/>
<g filter="url(#filter1_f_4076_68660)">
<circle cx="121.806" cy="55.9612" r="1.5" transform="rotate(-12.3389 121.806 55.9612)" fill="#CA4848"/>
</g>
</g>
<path d="M113.172 52.2508C113.449 51.288 114.883 51.0003 115.394 51.7891" stroke="#2B2B2B" stroke-width="0.504685" stroke-linecap="round"/>
<path d="M119.046 58.5681C118.559 59.6392 116.699 59.949 115.96 58.6998" stroke="#510E00" stroke-width="0.504685" stroke-linecap="round"/>
<path d="M121.352 51.5856C121.121 50.7682 119.934 50.6686 119.347 51.0965" stroke="#2B2B2B" stroke-width="0.504685" stroke-linecap="round"/>
<circle cx="114.917" cy="53.8041" r="0.662495" transform="rotate(-23.1265 114.917 53.8041)" fill="#510E00"/>
<circle cx="120.208" cy="53.3204" r="0.662495" transform="rotate(-20.6123 120.208 53.3204)" fill="#510E00"/>
<g filter="url(#filter2_f_4076_68660)">
<circle cx="113.639" cy="56.6773" r="1.5" transform="rotate(-7.66031 113.639 56.6773)" fill="#CA4848"/>
</g>
<circle cx="106.628" cy="56.6093" r="2.59442" transform="rotate(-14.3399 106.628 56.6093)" fill="#FFC5A4"/>
<path d="M107.937 56.978C108.041 57.0071 108.15 56.9465 108.166 56.8399C108.19 56.6793 108.189 56.5155 108.162 56.3545C108.124 56.1291 108.038 55.9148 107.908 55.7268C107.778 55.5387 107.609 55.3815 107.412 55.2663C107.214 55.151 106.994 55.0807 106.767 55.0601C106.539 55.0396 106.31 55.0694 106.095 55.1474C105.88 55.2254 105.685 55.3497 105.524 55.5115C105.363 55.6733 105.239 55.8686 105.162 56.0835C105.107 56.2371 105.076 56.398 105.071 56.5604C105.067 56.6681 105.164 56.7472 105.271 56.7371C105.378 56.7271 105.455 56.6315 105.463 56.5241C105.471 56.4191 105.493 56.3153 105.529 56.2157C105.587 56.0546 105.68 55.9083 105.801 55.787C105.921 55.6658 106.067 55.5727 106.228 55.5142C106.389 55.4558 106.561 55.4335 106.731 55.4489C106.902 55.4643 107.067 55.517 107.215 55.6033C107.363 55.6896 107.49 55.8074 107.587 55.9484C107.684 56.0893 107.749 56.2498 107.777 56.4187C107.794 56.5231 107.797 56.6291 107.786 56.7338C107.775 56.841 107.834 56.9489 107.937 56.978Z" fill="#CA4848"/>
<path d="M118.192 54.737C119.283 55.5914 119.206 57.2498 118.265 57.0193" stroke="#510E00" stroke-width="0.402136" stroke-linecap="round"/>
<rect width="12.023" height="23.8715" rx="6.01151" transform="matrix(-0.988872 -0.148769 -0.148769 0.988872 109.13 72.4648)" fill="#9F1EBA"/>
<rect width="12.023" height="27.9953" rx="6.01151" transform="matrix(-0.987355 0.158522 0.158522 0.987355 105.344 83.3711)" fill="#9F1EBA"/>
<rect x="107.671" y="68.125" width="10.5227" height="5.51517" rx="0.856466" fill="#9F1EBA"/>
<path d="M135.654 63.1016C135.858 63.3731 136.446 63.7238 136.715 63.8652C137.422 63.9217 138.818 64.4842 138.75 66.2823" stroke="#C94848" stroke-width="0.504685" stroke-linecap="round"/>
<path d="M94.4509 92.9823C92.4026 89.5759 93.5809 85.2899 97.0827 83.4094C100.584 81.5288 105.084 82.7657 107.132 86.1721L118.669 105.359C120.717 108.766 119.539 113.051 116.037 114.932C112.535 116.813 108.036 115.576 105.988 112.169L94.4509 92.9823Z" fill="#22B573"/>
<path d="M86.6468 71.0078C85.2708 67.2788 87.2288 63.2883 91.0202 62.0948C94.8115 60.9013 99.0006 62.9567 100.377 66.6857L108.127 87.6898C109.503 91.4188 107.545 95.4093 103.754 96.6028C99.9627 97.7963 95.7737 95.7409 94.3976 92.0119L86.6468 71.0078Z" fill="#22B573"/>
<path d="M86.6468 71.0078C85.2708 67.2788 87.2288 63.2883 91.0202 62.0948C94.8115 60.9013 99.0006 62.9567 100.377 66.6857L108.127 87.6898C109.503 91.4188 107.545 95.4093 103.754 96.6028C99.9627 97.7963 95.7737 95.7409 94.3976 92.0119L86.6468 71.0078Z" fill="#22B573"/>
<path d="M78.4364 72.2815C77.4748 67.5524 80.5623 63.1261 85.3325 62.3951C90.1026 61.6641 94.7491 64.9051 95.7107 69.6342L102.109 101.099C103.07 105.828 99.9829 110.254 95.2127 110.985C90.4426 111.716 85.796 108.475 84.8344 103.746L78.4364 72.2815Z" fill="#005E34"/>
<mask id="mask3_4076_68660" style="mask-type:alpha" maskUnits="userSpaceOnUse" x="78" y="50" width="8" height="17">
<rect width="7.23372" height="15.7726" rx="3.61686" transform="matrix(-1.00573 0.00442636 0.00483978 0.993752 85.4873 50.5586)" fill="#FFC5A4"/>
</mask>
<g mask="url(#mask3_4076_68660)">
<rect width="7.23372" height="15.7726" rx="3.61686" transform="matrix(-1.00573 0.00442636 0.00483978 0.993752 85.4873 50.5586)" fill="#B65946"/>
<rect width="11.3412" height="15.7726" rx="5.67058" transform="matrix(-1.00573 0.00442636 0.00483978 0.993752 87.8154 44.2344)" fill="#510E00"/>
</g>
<mask id="mask4_4076_68660" style="mask-type:alpha" maskUnits="userSpaceOnUse" x="66" y="60" width="33" height="44">
<path d="M68.2113 66.0002C68.3598 63.4076 70.4565 61.3608 73.0529 61.274L89.7003 60.7169C92.3525 60.6281 94.6267 62.612 94.8995 65.2522L98.4527 99.6481C98.65 101.558 97.1559 103.215 95.2359 103.215L69.5312 103.215C67.6603 103.215 66.1704 101.638 66.2774 99.7711L68.2113 66.0002Z" fill="#D2F2FF"/>
</mask>
<g mask="url(#mask4_4076_68660)">
<path d="M68.2113 66.0002C68.3598 63.4076 70.4565 61.3608 73.0529 61.274L89.7003 60.7169C92.3525 60.6281 94.6267 62.612 94.8995 65.2522L98.4527 99.6481C98.65 101.558 97.1559 103.215 95.2359 103.215L69.5312 103.215C67.6603 103.215 66.1704 101.638 66.2774 99.7711L68.2113 66.0002Z" fill="#22B573"/>
<path d="M56.0703 70.8617C56.6393 65.7777 61.1948 62.3169 66.2452 63.132C71.2957 63.947 74.9286 68.7291 74.3596 73.8131L70.5923 107.473C70.0233 112.557 65.4678 116.018 60.4174 115.203C55.3669 114.388 51.734 109.606 52.303 104.522L56.0703 70.8617Z" fill="#005E34"/>
</g>
<ellipse cx="2.58169" cy="2.71578" rx="2.58169" ry="2.71578" transform="matrix(4.59817e-08 -1 -1 -4.15531e-08 92.248 50.9902)" fill="#B65946"/>
<path d="M88.8193 47.2363C88.7629 47.1434 88.7941 47.0245 88.8954 46.9837C89.0534 46.9199 89.2215 46.8801 89.3934 46.8662C89.6317 46.8469 89.8715 46.8776 90.0959 46.9563C90.3203 47.035 90.5236 47.1597 90.6916 47.3215C90.8596 47.4832 90.9881 47.6782 91.0679 47.8925C91.1477 48.1068 91.177 48.3352 91.1535 48.5614C91.1301 48.7876 91.0546 49.0062 90.9323 49.2016C90.81 49.3969 90.644 49.5643 90.4461 49.6919C90.3045 49.7831 90.149 49.8523 89.9855 49.8974C89.8781 49.927 89.7722 49.8517 89.7543 49.7445C89.7369 49.6398 89.8104 49.5443 89.914 49.5119C90.0211 49.4783 90.123 49.4308 90.2168 49.3703C90.3652 49.2748 90.4895 49.1494 90.5811 49.003C90.6728 48.8566 90.7293 48.6928 90.7469 48.5233C90.7645 48.3538 90.7426 48.1827 90.6828 48.0222C90.6229 47.8616 90.5267 47.7155 90.4008 47.5943C90.275 47.4731 90.1226 47.3797 89.9545 47.3207C89.7864 47.2618 89.6067 47.2387 89.4282 47.2532C89.316 47.2623 89.2061 47.286 89.1014 47.3236C88.9984 47.3605 88.8757 47.3292 88.8193 47.2363Z" fill="#510E00"/>
<mask id="mask5_4076_68660" style="mask-type:alpha" maskUnits="userSpaceOnUse" x="73" y="35" width="18" height="24">
<rect x="73.8311" y="35.2598" width="16.8534" height="22.8087" rx="8.42672" fill="#FFC5A4"/>
</mask>
<g mask="url(#mask5_4076_68660)">
<rect x="73.8311" y="35.2598" width="16.8534" height="22.8087" rx="8.42672" fill="#B65946"/>
<ellipse cx="0.787629" cy="0.78124" rx="0.787629" ry="0.78124" transform="matrix(0.978896 -0.204358 0.212705 0.977117 81.0293 45.7773)" fill="#510E00"/>
<ellipse cx="0.787629" cy="0.78124" rx="0.787629" ry="0.78124" transform="matrix(0.978896 -0.204358 0.212705 0.977117 87.1289 45.6875)" fill="#510E00"/>
<g filter="url(#filter3_f_4076_68660)">
<ellipse cx="1.74197" cy="1.72366" rx="1.74197" ry="1.72366" transform="matrix(0.997758 -0.0669202 0.0683564 0.997661 87.2549 47.1348)" fill="#CA4848"/>
</g>
<g filter="url(#filter4_f_4076_68660)">
<ellipse cx="1.5084" cy="1.49274" rx="1.5084" ry="1.49274" transform="matrix(0.994763 0.102207 -0.104387 0.994537 78.1016 46.6641)" fill="#CA4848"/>
</g>
<path d="M82.5101 43.9016C82.1071 43.1459 80.8233 43.3084 80.6015 44.2035" stroke="#510E00" stroke-width="0.451927" stroke-linecap="round"/>
<path d="M86.803 43.9921C87.2414 43.2846 88.1354 43.5006 88.4186 44.0554" stroke="#510E00" stroke-width="0.451927" stroke-linecap="round"/>
<path d="M84.9998 46.8279C86.1486 47.5971 86.1765 49.2475 85.2162 49.0865" stroke="#510E00" stroke-width="0.451927" stroke-linecap="round"/>
<path d="M77.3018 45.2422C77.1955 47.4391 73.7673 46.8161 71.5036 47.1141L68.726 41.8152L71.0617 35.427L78.2671 33.1553L93.1008 36.4423C91.8363 37.5252 88.7989 39.7249 86.7649 39.8604C84.2223 40.0298 80.2685 37.8273 78.5522 38.8362C76.836 39.8451 77.4081 43.0453 77.3018 45.2422Z" fill="#2B2B2B"/>
</g>
<rect x="76.291" y="58.8926" width="11.9324" height="5.52743" rx="2.76371" fill="#22B573"/>
<path d="M65.0374 65.871C66.4653 62.1302 70.701 60.1832 74.4711 61.5345C78.2599 62.8925 80.1161 67.0563 78.5948 70.7843L63.0337 108.918C62.6529 109.851 61.5864 110.328 60.6375 109.99L55.1102 108.019C54.2588 107.715 53.7554 106.861 53.9056 105.975L57.2428 86.2902L65.0374 65.871Z" fill="#22B573"/>
<path d="M78.3874 50.8913C77.0129 50.6621 77.6172 47.212 77.1301 45.4453L74.4208 45.8621C74.1492 46.4222 74.118 48.0807 73.8736 49.9748C73.5681 52.3423 75.2305 56.1609 76.6052 57.9939C77.9799 59.8268 80.6275 60.8705 83.7842 60.896C86.9409 60.9215 89.3848 59.9286 90.7086 57.6884C91.7676 55.8962 91.1499 51.5786 90.7086 49.6438C90.6068 50.1954 90.1995 51.324 89.3848 51.4258C88.3665 51.5531 87.6792 50.3821 87.1955 49.9748C86.7118 49.5675 82.9187 49.4911 81.4421 49.6438C79.9656 49.7966 79.7619 51.1204 78.3874 50.8913Z" fill="#2B2B2B"/>
<ellipse cx="73.163" cy="48.0472" rx="2.58169" ry="2.71578" transform="rotate(-90 73.163 48.0472)" fill="#B65946"/>
<path d="M73.876 46.875C73.9324 46.7821 73.9013 46.6632 73.7999 46.6223C73.6419 46.5586 73.4738 46.5188 73.3019 46.5048C73.0636 46.4855 72.8238 46.5163 72.5994 46.595C72.3751 46.6737 72.1717 46.7983 72.0037 46.9601C71.8357 47.1219 71.7072 47.3169 71.6274 47.5312C71.5476 47.7455 71.5183 47.9738 71.5418 48.2001C71.5652 48.4263 71.6407 48.6449 71.763 48.8402C71.8853 49.0356 72.0513 49.203 72.2492 49.3305C72.3908 49.4218 72.5463 49.491 72.7098 49.536C72.8172 49.5656 72.9231 49.4903 72.941 49.3831C72.9584 49.2785 72.8849 49.183 72.7813 49.1505C72.6742 49.117 72.5723 49.0694 72.4785 49.009C72.3302 48.9134 72.2058 48.788 72.1142 48.6416C72.0226 48.4953 71.966 48.3315 71.9484 48.162C71.9308 47.9925 71.9527 47.8214 72.0126 47.6608C72.0724 47.5003 72.1686 47.3542 72.2945 47.233C72.4203 47.1118 72.5727 47.0184 72.7408 46.9594C72.9089 46.9004 73.0886 46.8774 73.2672 46.8919C73.3793 46.901 73.4892 46.9247 73.5939 46.9622C73.697 46.9991 73.8196 46.9679 73.876 46.875Z" fill="#510E00"/>
<path d="M84.6707 52.1177C83.447 52.761 81.9828 51.999 82.582 51.2315" stroke="#B65946" stroke-width="0.451927" stroke-linecap="round"/>
<rect x="35.8281" y="73.9492" width="13.0926" height="25.995" rx="6.54628" transform="rotate(7.44318 35.8281 73.9492)" fill="#0A6DE1"/>
<rect x="36.5146" y="86.5059" width="13.0926" height="30.4857" rx="6.54628" transform="rotate(25.1199 36.5146 86.5059)" fill="#0A6DE1"/>
<circle cx="56.2422" cy="57.9015" r="10.7046" transform="rotate(7.26167 56.2422 57.9015)" fill="white"/>
<circle cx="59.907" cy="42.2864" r="8.30343" transform="rotate(7.26167 59.907 42.2864)" fill="white"/>
<circle cx="45.9307" cy="47.8804" r="9.21875" transform="rotate(7.26167 45.9307 47.8804)" fill="white"/>
<path d="M34.6157 80.9713C34.6158 77.5759 37.2622 74.7689 40.6517 74.5691L57.2169 73.5928C63.3532 73.2311 68.11 78.8757 66.7136 84.862L64.6851 93.5585C64.078 96.1611 63.8649 98.84 64.0529 101.506L64.8911 113.392L32.8348 112.574L37.0909 97.4845L34.384 94.4804C32.1072 91.9537 31.4991 88.3372 32.8245 85.2048L34.6157 80.9713Z" fill="#29ABE2"/>
<mask id="mask6_4076_68660" style="mask-type:alpha" maskUnits="userSpaceOnUse" x="44" y="56" width="12" height="19">
<rect x="47.1338" y="55.3984" width="9.18261" height="18.81" rx="4.59131" transform="rotate(8.59351 47.1338 55.3984)" fill="#FFC5A4"/>
</mask>
<g mask="url(#mask6_4076_68660)">
<rect x="47.1338" y="55.3984" width="9.18261" height="18.81" rx="4.59131" transform="rotate(8.59351 47.1338 55.3984)" fill="#FFC5A4"/>
<rect x="45.5234" y="73.5527" width="3.89602" height="2.06639" fill="#29ABE2"/>
<circle cx="46.0308" cy="61.9179" r="9.09513" transform="rotate(7.26167 46.0308 61.9179)" fill="#CA4848"/>
</g>
<mask id="mask7_4076_68660" style="mask-type:alpha" maskUnits="userSpaceOnUse" x="37" y="41" width="23" height="28">
<rect width="18.4574" height="27.3077" rx="9.22868" transform="matrix(0.948568 0.316575 -0.349966 0.936762 44.4082 39.1367)" fill="#FFC5A4"/>
</mask>
<g mask="url(#mask7_4076_68660)">
<rect width="18.4574" height="27.3077" rx="9.22868" transform="matrix(0.948568 0.316575 -0.349966 0.936762 44.4082 39.1367)" fill="#FFC5A4"/>
<circle cx="62.4431" cy="50.5149" r="10.011" transform="rotate(25.7541 62.4431 50.5149)" fill="white"/>
<circle cx="50.1286" cy="39.2923" r="10.011" transform="rotate(25.7541 50.1286 39.2923)" fill="white"/>
<g filter="url(#filter5_f_4076_68660)">
<circle cx="1.63344" cy="1.63344" r="1.63344" transform="matrix(-0.976901 -0.213693 -0.213693 0.976901 40.9854 54.1328)" fill="#CA4848"/>
</g>
</g>
<path d="M48.6128 52.9674C48.6051 51.8763 47.1859 51.1532 46.4186 51.8302" stroke="white" stroke-width="0.549581" stroke-linecap="round"/>
<path d="M42.1044 60.4338C42.8577 61.9427 45.0235 62.0182 45.4659 60.5772" stroke="#510E00" stroke-width="0.549581" stroke-linecap="round"/>
<path d="M43.8953 50.9012C43.8414 49.9945 42.8761 49.7469 42.3197 50.138" stroke="white" stroke-width="0.549581" stroke-linecap="round"/>
<circle cx="0.721429" cy="0.721429" r="0.721429" transform="matrix(-0.91964 -0.392763 -0.392763 0.91964 47.1865 54.3008)" fill="#510E00"/>
<circle cx="0.721429" cy="0.721429" r="0.721429" transform="matrix(-0.935984 -0.352043 -0.352043 0.935984 42.8154 53.2383)" fill="#510E00"/>
<g filter="url(#filter6_f_4076_68660)">
<circle cx="1.63344" cy="1.63344" r="1.63344" transform="matrix(-0.991076 -0.1333 -0.1333 0.991076 49.5273 55.709)" fill="#CA4848"/>
</g>
<path d="M56.0208 72.1162L54.9702 70.0141C54.7888 69.6511 54.1849 69.691 53.9547 70.0253C52.6579 71.9083 49.5182 72.7509 47.6181 73.2452C47.3499 73.3149 47.216 73.6127 47.3393 73.8608L49.6912 78.5929C49.7889 78.7896 50.0188 78.8841 50.2236 78.8046C54.3817 77.1904 55.794 73.2448 56.0492 72.4165C56.0803 72.3158 56.068 72.2105 56.0208 72.1162Z" fill="#0A6DE1"/>
<path d="M43.5951 69.8211L44.4901 69.1106C44.8059 68.8599 45.2753 69.1369 45.2464 69.5392C45.1168 71.3418 45.6699 72.1686 46.7919 73.1438C47.0104 73.3337 46.9994 73.6792 46.763 73.8464L43.1909 76.3733C42.8745 76.5971 42.4447 76.3299 42.5055 75.9471L43.4349 70.0953C43.4521 69.9871 43.5092 69.8892 43.5951 69.8211Z" fill="#0A6DE1"/>
<path d="M48.3281 56.5605L55.2567 57.6546" stroke="#0A6DE1" stroke-width="0.43791" stroke-linecap="round"/>
<ellipse cx="2.48661" cy="3.00572" rx="2.48661" ry="3.00572" transform="matrix(0.983792 0.179311 -0.109765 0.993958 43.9258 52.0488)" stroke="#0A6DE1" stroke-width="0.43791"/>
<ellipse cx="1.86454" cy="2.69705" rx="1.86454" ry="2.69705" transform="matrix(0.983792 0.179311 -0.109765 0.993958 39.0225 50.4141)" stroke="#0A6DE1" stroke-width="0.43791"/>
<path d="M42.2636 54.1881C42.4239 53.2609 43.802 53.9675 43.5144 54.8711" stroke="#0A6DE1" stroke-width="0.43791" stroke-linecap="round"/>
<circle cx="2.82521" cy="2.82521" r="2.82521" transform="matrix(-0.968843 -0.247674 -0.247674 0.968843 59.2812 58.1387)" fill="#FFC5A4"/>
<path d="M54.4164 60.5798C54.3033 60.6115 54.1846 60.5456 54.1673 60.4295C54.1412 60.2546 54.1426 60.0762 54.1719 59.9009C54.2128 59.6555 54.3072 59.4221 54.4484 59.2173C54.5896 59.0125 54.7742 58.8413 54.989 58.7158C55.2039 58.5904 55.4437 58.5137 55.6914 58.4914C55.9392 58.469 56.1889 58.5014 56.4227 58.5864C56.6565 58.6713 56.8688 58.8067 57.0444 58.9828C57.2201 59.159 57.3548 59.3717 57.439 59.6058C57.4991 59.773 57.5325 59.9483 57.5382 60.1251C57.5419 60.2424 57.4369 60.3285 57.3201 60.3176C57.2032 60.3067 57.1192 60.2026 57.1105 60.0855C57.102 59.9712 57.078 59.8582 57.039 59.7497C56.9759 59.5743 56.875 59.415 56.7434 59.2829C56.6118 59.1509 56.4528 59.0495 56.2776 58.9859C56.1024 58.9222 55.9153 58.8979 55.7297 58.9147C55.544 58.9315 55.3644 58.9889 55.2034 59.0829C55.0425 59.1769 54.9042 59.3052 54.7983 59.4586C54.6925 59.6121 54.6218 59.7869 54.5911 59.9708C54.5722 60.0845 54.5688 60.2 54.581 60.314C54.5934 60.4307 54.5294 60.5481 54.4164 60.5798Z" fill="#CA4848"/>
<path d="M42.1858 55.5408C40.7204 55.8977 40.0501 57.5767 41.0877 57.7717" stroke="#510E00" stroke-width="0.43791" stroke-linecap="round"/>
<rect x="53.7461" y="75.4531" width="13.0926" height="25.995" rx="6.54628" transform="rotate(-8.55559 53.7461 75.4531)" fill="#0A6DE1"/>
<rect x="57.8672" y="87.334" width="13.0926" height="30.4857" rx="6.54628" transform="rotate(9.12112 57.8672 87.334)" fill="#0A6DE1"/>
</g>
<defs>
<filter id="filter0_f_4076_68660" x="93.5181" y="10.9566" width="81.0428" height="81.0438" filterUnits="userSpaceOnUse" color-interpolation-filters="sRGB">
<feFlood flood-opacity="0" result="BackgroundImageFix"/>
<feBlend mode="normal" in="SourceGraphic" in2="BackgroundImageFix" result="shape"/>
<feGaussianBlur stdDeviation="13.0315" result="effect1_foregroundBlur_4076_68660"/>
</filter>
<filter id="filter1_f_4076_68660" x="116.344" y="50.4996" width="10.9236" height="10.9227" filterUnits="userSpaceOnUse" color-interpolation-filters="sRGB">
<feFlood flood-opacity="0" result="BackgroundImageFix"/>
<feBlend mode="normal" in="SourceGraphic" in2="BackgroundImageFix" result="shape"/>
<feGaussianBlur stdDeviation="1.98067" result="effect1_foregroundBlur_4076_68660"/>
</filter>
<filter id="filter2_f_4076_68660" x="108.177" y="51.2164" width="10.9227" height="10.9227" filterUnits="userSpaceOnUse" color-interpolation-filters="sRGB">
<feFlood flood-opacity="0" result="BackgroundImageFix"/>
<feBlend mode="normal" in="SourceGraphic" in2="BackgroundImageFix" result="shape"/>
<feGaussianBlur stdDeviation="1.98067" result="effect1_foregroundBlur_4076_68660"/>
</filter>
<filter id="filter3_f_4076_68660" x="84.3704" y="44.0159" width="9.47994" height="9.44283" filterUnits="userSpaceOnUse" color-interpolation-filters="sRGB">
<feFlood flood-opacity="0" result="BackgroundImageFix"/>
<feBlend mode="normal" in="SourceGraphic" in2="BackgroundImageFix" result="shape"/>
<feGaussianBlur stdDeviation="1.49889" result="effect1_foregroundBlur_4076_68660"/>
</filter>
<filter id="filter4_f_4076_68660" x="74.9397" y="43.8128" width="9.01314" height="8.97994" filterUnits="userSpaceOnUse" color-interpolation-filters="sRGB">
<feFlood flood-opacity="0" result="BackgroundImageFix"/>
<feBlend mode="normal" in="SourceGraphic" in2="BackgroundImageFix" result="shape"/>
<feGaussianBlur stdDeviation="1.49889" result="effect1_foregroundBlur_4076_68660"/>
</filter>
<filter id="filter5_f_4076_68660" x="33.0935" y="49.4324" width="11.895" height="11.895" filterUnits="userSpaceOnUse" color-interpolation-filters="sRGB">
<feFlood flood-opacity="0" result="BackgroundImageFix"/>
<feBlend mode="normal" in="SourceGraphic" in2="BackgroundImageFix" result="shape"/>
<feGaussianBlur stdDeviation="2.15687" result="effect1_foregroundBlur_4076_68660"/>
</filter>
<filter id="filter6_f_4076_68660" x="41.7429" y="51.1628" width="11.895" height="11.895" filterUnits="userSpaceOnUse" color-interpolation-filters="sRGB">
<feFlood flood-opacity="0" result="BackgroundImageFix"/>
<feBlend mode="normal" in="SourceGraphic" in2="BackgroundImageFix" result="shape"/>
<feGaussianBlur stdDeviation="2.15687" result="effect1_foregroundBlur_4076_68660"/>
</filter>
<clipPath id="clip0_4076_68660">
<rect width="161" height="100" fill="white"/>
</clipPath>
</defs>
</svg>
