<svg width="102" height="100" viewBox="0 0 102 100" fill="none" xmlns="http://www.w3.org/2000/svg">
<path d="M88.248 43.3184L97.8302 51.9156C99.1957 53.1407 98.3291 55.4042 96.4946 55.4042H43.2704L31.8521 43.3184H88.248Z" fill="#F6864E"/>
<path d="M88.2764 43.3184H31.8521V99.7428H84.2764C86.4856 99.7428 88.2764 97.9519 88.2764 95.7428V43.3184Z" fill="#FDB467"/>
<path d="M70.1549 43.3184H13.7305V95.7428C13.7305 97.9519 15.5213 99.7428 17.7305 99.7428H66.1549C68.364 99.7428 70.1549 97.9519 70.1549 95.7428V43.3184Z" fill="#FFC686"/>
<path d="M13.7518 43.3184L4.1696 51.9156C2.80414 53.1407 3.67075 55.4042 5.50523 55.4042H57.0056C58.1059 55.4042 59.1576 54.951 59.9132 54.1512L70.1478 43.3184H13.7518Z" fill="#FFD8AD"/>
<rect x="16.5376" y="86.418" width="15.925" height="10.1465" fill="#FFD9AF"/>
<ellipse cx="51.9385" cy="14.0625" rx="18.7241" ry="14.0625" fill="#29ABE2"/>
<circle cx="44.6785" cy="14.0638" r="2.14581" fill="white"/>
<circle cx="51.9388" cy="14.0638" r="2.14581" fill="white"/>
<circle cx="59.1981" cy="14.0638" r="2.14581" fill="white"/>
<path d="M41.2186 29.9384C40.5519 30.3233 39.7186 29.8422 39.7186 29.0724L39.7186 23.2529C39.7186 22.4831 40.5519 22.002 41.2186 22.3869L46.2584 25.2966C46.925 25.6815 46.925 26.6438 46.2584 27.0287L41.2186 29.9384Z" fill="#29ABE2"/>
</svg>
