<svg width="128" height="128" viewBox="0 0 128 128" fill="none" xmlns="http://www.w3.org/2000/svg">
<ellipse cx="72.5" cy="99" rx="47" ry="6" fill="url(#paint0_linear_2983_174072)"/>
<circle cx="79.54" cy="89.5512" r="10.5" transform="rotate(56.4983 79.54 89.5512)" fill="#1075D2"/>
<ellipse cx="64.3118" cy="64.4362" rx="29" ry="53" transform="rotate(56.4983 64.3118 64.4362)" fill="#57AFE0"/>
<ellipse cx="62.104" cy="61.1007" rx="25" ry="53" transform="rotate(56.4983 62.104 61.1007)" fill="#D6F3FF"/>
<path d="M64.7697 61.3805C65.1987 61.0795 66.1644 61.2663 66.6178 61.529C68.7264 62.7508 66.2454 65.4376 64.135 66.6563L25.2031 89.1396L64.7697 61.3805Z" fill="url(#paint1_linear_2983_174072)"/>
<path d="M67.3903 62.022C67.6204 62.3203 67.667 62.7247 67.4845 63.0542C66.049 65.6446 63.5668 67.3719 60.7928 67.4929C60.4443 67.5081 60.1268 67.3098 59.9557 67.0058L36.305 24.9717C35.6968 23.8907 37.2109 22.8884 37.9684 23.8706L67.3903 62.022Z" fill="#B1D8E9"/>
<circle cx="32.9151" cy="15.9151" r="2.5" transform="rotate(-30 32.9151 15.9151)" fill="#29ABE2"/>
<path d="M35.0768 7.2356C36.2184 7.5415 37.2886 8.06926 38.2263 8.78875C39.164 9.50824 39.9507 10.4054 40.5417 11.4289C41.1326 12.4525 41.5162 13.5824 41.6705 14.7542C41.8247 15.926 41.7467 17.1167 41.4408 18.2583" stroke="#29ABE2" stroke-width="2" stroke-linecap="round"/>
<path d="M36.72 1.36064C38.6861 1.88747 40.5292 2.79639 42.1441 4.03552C43.759 5.27464 45.1139 6.81971 46.1317 8.58249C47.1494 10.3453 47.81 12.2913 48.0757 14.3093C48.3414 16.3274 48.207 18.3781 47.6801 20.3442" stroke="#29ABE2" stroke-width="2" stroke-linecap="round"/>
<path d="M23.5592 13.7417C23.2533 14.8833 23.1753 16.074 23.3295 17.2458C23.4838 18.4176 23.8674 19.5475 24.4583 20.5711C25.0493 21.5946 25.836 22.4918 26.7737 23.2112C27.7114 23.9307 28.7816 24.4585 29.9232 24.7644" stroke="#29ABE2" stroke-width="2" stroke-linecap="round"/>
<path d="M18.3199 11.6553C17.793 13.6215 17.6586 15.6721 17.9243 17.6902C18.19 19.7083 18.8506 21.6542 19.8683 23.417C20.8861 25.1798 22.241 26.7249 23.8559 27.964C25.4708 29.2031 27.3139 30.112 29.28 30.6389" stroke="#29ABE2" stroke-width="2" stroke-linecap="round"/>
<defs>
<linearGradient id="paint0_linear_2983_174072" x1="25.5" y1="99" x2="119.5" y2="99" gradientUnits="userSpaceOnUse">
<stop stop-color="#1A7FDC"/>
<stop offset="1" stop-color="#1A7FDC" stop-opacity="0"/>
</linearGradient>
<linearGradient id="paint1_linear_2983_174072" x1="30.1185" y1="85.9824" x2="65.5188" y2="61.7958" gradientUnits="userSpaceOnUse">
<stop stop-color="#80ACBF" stop-opacity="0"/>
<stop offset="1" stop-color="#80ACBF"/>
</linearGradient>
</defs>
</svg>
