<svg width="308" height="202" viewBox="0 0 308 202" fill="none" xmlns="http://www.w3.org/2000/svg">
<g opacity="0.1" filter="url(#filter0_f_2664_94618)">
<ellipse cx="153.892" cy="144.096" rx="71.4253" ry="61.2305" fill="#29ABE2"/>
</g>
<path d="M167.448 115.063C168.133 114.33 169.132 113.293 170.379 112.114C170.739 111.765 171.126 111.4 171.526 111.045C172.187 111.713 172.944 112.278 173.771 112.721C174.149 112.882 174.556 112.959 174.966 112.948C175.375 112.937 175.778 112.837 176.146 112.656C176.448 112.47 176.663 112.172 176.746 111.827C176.829 111.482 176.772 111.119 176.587 110.816L176.509 110.699C175.774 109.82 173.74 109.982 172.788 110.347C172.725 110.357 172.039 110.73 171.705 110.921L172.444 110.263C172.814 109.936 173.212 109.605 173.594 109.282L174.215 108.802C174.422 108.632 174.641 108.496 174.863 108.341C175.179 108.117 175.526 107.907 175.862 107.692C176.389 108.412 177.023 109.047 177.742 109.576C178.091 109.793 178.483 109.932 178.891 109.983C179.299 110.034 179.713 109.996 180.105 109.871C180.436 109.729 180.696 109.461 180.829 109.126C180.962 108.791 180.957 108.418 180.815 108.087L180.77 107.994C180.188 107.007 178.137 106.854 177.138 107.079C177.138 107.079 176.903 107.153 176.657 107.236C176.996 107.038 177.334 106.84 177.685 106.652C178.679 106.116 179.713 105.602 180.745 105.078C180.957 104.972 181.168 104.86 181.385 104.753C181.927 105.492 182.576 106.146 183.31 106.694C183.658 106.911 184.049 107.05 184.456 107.102C184.864 107.153 185.277 107.115 185.668 106.991C185.831 106.922 185.98 106.821 186.104 106.694C186.228 106.567 186.326 106.417 186.393 106.252C186.459 106.088 186.492 105.911 186.49 105.734C186.487 105.556 186.45 105.381 186.38 105.218L186.333 105.114C185.757 104.126 183.7 103.974 182.706 104.198C182.672 104.203 182.427 104.285 182.149 104.385C182.689 104.094 183.229 103.799 183.766 103.486C184.688 102.957 185.573 102.367 186.416 101.72C186.969 102.492 187.637 103.175 188.397 103.746C188.745 103.963 189.136 104.102 189.543 104.153C189.95 104.204 190.363 104.167 190.754 104.043C190.918 103.973 191.066 103.872 191.19 103.746C191.315 103.619 191.413 103.469 191.479 103.304C191.545 103.139 191.578 102.963 191.576 102.785C191.574 102.608 191.537 102.432 191.466 102.269L191.448 102.16C190.866 101.174 188.815 101.02 187.821 101.244C187.747 101.257 186.867 101.562 186.552 101.685L186.586 101.68C187.402 101.024 188.156 100.296 188.839 99.5028C189.457 98.8021 190.032 98.0653 190.563 97.2963C191.034 96.5879 191.474 95.908 191.835 95.318C192.028 94.9914 192.201 94.6859 192.354 94.4013C192.354 94.4013 193.466 93.5803 193.526 93.5173C194.262 92.8061 195.258 91.0091 194.758 89.9851C194.675 89.8247 194.56 89.6825 194.42 89.5671C194.281 89.4516 194.12 89.3652 193.947 89.3128C193.773 89.2605 193.591 89.2433 193.411 89.2622C193.231 89.2811 193.057 89.3358 192.898 89.423L192.781 89.4955C192.461 89.7527 192.201 90.0766 192.019 90.4445C191.837 90.8124 191.738 91.2156 191.728 91.6258C191.778 92.5465 191.969 93.454 192.293 94.3172C192.131 94.6152 191.946 94.9226 191.738 95.2635C191.366 95.8612 190.935 96.5277 190.431 97.2476C190.291 97.4357 190.141 97.6314 189.99 97.8214C190.151 97.5167 190.296 97.2037 190.423 96.8837C190.745 95.9174 190.806 93.8756 189.884 93.181C189.74 93.0774 189.577 93.0033 189.405 92.9629C189.233 92.9226 189.054 92.9168 188.879 92.9458C188.704 92.9749 188.537 93.0382 188.387 93.1323C188.237 93.2263 188.107 93.3491 188.004 93.4936C187.975 93.5331 187.948 93.5749 187.925 93.6187C187.76 93.9947 187.679 94.402 187.687 94.8125C187.696 95.223 187.793 95.6268 187.973 95.9958C188.447 96.7923 189.039 97.5119 189.73 98.1298C189.399 98.5499 189.05 98.9671 188.661 99.3853C187.969 100.154 187.209 100.858 186.39 101.488C186.334 101.511 186.283 101.545 186.242 101.59C186.361 101.423 186.953 100.447 186.988 100.376C187.423 99.4499 187.701 97.4072 186.86 96.6343C186.592 96.399 186.241 96.2796 185.885 96.3024C185.529 96.3253 185.197 96.4883 184.961 96.7559L184.863 96.8782C184.659 97.238 184.536 97.6382 184.503 98.0506C184.47 98.4631 184.527 98.8778 184.671 99.2656C185.065 100.133 185.595 100.932 186.243 101.631C185.41 102.235 184.54 102.785 183.637 103.277C182.968 103.648 182.278 103.992 181.581 104.338C181.732 104.112 182.283 103.208 182.312 103.138C182.747 102.212 183.027 100.175 182.19 99.3957C181.919 99.1609 181.566 99.0428 181.209 99.067C180.851 99.0913 180.517 99.2558 180.28 99.5249L180.193 99.6395C179.988 99.999 179.864 100.399 179.831 100.812C179.798 101.225 179.856 101.639 180.002 102.027C180.392 102.887 180.912 103.682 181.542 104.385L180.594 104.844C179.552 105.341 178.51 105.838 177.494 106.354C177.142 106.537 176.803 106.728 176.457 106.916C176.677 106.573 177.055 105.944 177.087 105.886C177.521 104.96 177.772 102.928 176.959 102.144C176.685 101.91 176.329 101.793 175.97 101.82C175.61 101.847 175.275 102.015 175.039 102.287L174.962 102.388C174.756 102.748 174.633 103.148 174.6 103.561C174.566 103.973 174.625 104.388 174.77 104.776C175.144 105.607 175.643 106.376 176.251 107.056C175.714 107.369 175.127 107.702 174.596 108.049C174.375 108.204 174.134 108.35 173.926 108.514L173.291 108.985C172.87 109.32 172.48 109.632 172.098 109.955C171.901 110.117 171.722 110.277 171.53 110.432C171.802 110.122 172.224 109.616 172.258 109.569C172.823 108.716 173.413 106.745 172.699 105.85C172.585 105.715 172.445 105.604 172.288 105.522C172.131 105.441 171.959 105.391 171.783 105.376C171.607 105.362 171.429 105.381 171.26 105.435C171.092 105.489 170.935 105.575 170.8 105.689C170.76 105.696 170.728 105.754 170.693 105.79C170.435 106.11 170.251 106.482 170.152 106.881C170.054 107.28 170.044 107.696 170.123 108.099C170.381 109.002 170.772 109.862 171.283 110.65C170.825 111.044 170.383 111.43 169.978 111.797C168.69 112.972 167.664 113.99 166.931 114.719C166.198 115.447 165.829 115.88 165.829 115.88C165.788 115.918 165.756 115.964 165.735 116.015C165.714 116.067 165.704 116.122 165.706 116.177C165.708 116.233 165.722 116.287 165.747 116.337C165.771 116.386 165.806 116.43 165.849 116.465C165.889 116.503 165.936 116.532 165.987 116.551C166.038 116.57 166.093 116.578 166.147 116.576C166.202 116.573 166.255 116.56 166.305 116.536C166.354 116.513 166.398 116.48 166.434 116.439C166.704 115.934 167.046 115.471 167.448 115.063Z" fill="#22B573"/>
<path d="M189.963 97.9681C189.963 97.9681 191.552 99.1996 192.422 99.4023C192.815 99.5184 193.229 99.5482 193.635 99.4899C194.041 99.4315 194.429 99.2862 194.774 99.0641C195.056 98.8428 195.239 98.5185 195.283 98.1623C195.326 97.8061 195.227 97.4473 195.006 97.1646L194.911 97.0567C194.095 96.2561 192.07 96.6518 191.172 97.1309C191.091 97.1739 189.949 97.9585 189.963 97.9681Z" fill="#22B573"/>
<path d="M167.833 115.787C168.792 115.498 170.175 115.103 171.853 114.712C172.335 114.597 172.846 114.482 173.375 114.371C173.612 115.278 173.983 116.145 174.474 116.944C174.718 117.274 175.03 117.548 175.391 117.744C175.751 117.94 176.15 118.056 176.56 118.081C176.738 118.076 176.914 118.036 177.077 117.963C177.241 117.89 177.388 117.786 177.511 117.656C177.633 117.526 177.729 117.374 177.793 117.207C177.857 117.04 177.887 116.862 177.882 116.683L177.858 116.54C177.667 115.394 175.826 114.522 174.816 114.361C174.759 114.37 173.978 114.317 173.582 114.307C173.908 114.258 174.231 114.193 174.551 114.11L176.843 113.729C177.106 113.685 177.365 113.683 177.632 113.657C178.021 113.627 178.42 113.614 178.801 113.604C178.895 114.49 179.122 115.358 179.476 116.177C179.668 116.541 179.937 116.86 180.265 117.11C180.592 117.361 180.97 117.537 181.372 117.628C181.548 117.654 181.727 117.644 181.9 117.601C182.072 117.557 182.234 117.48 182.377 117.374C182.519 117.267 182.64 117.134 182.731 116.981C182.822 116.829 182.882 116.659 182.907 116.483L182.92 116.31C182.912 115.169 181.217 114.003 180.247 113.699C180.213 113.704 180.003 113.645 179.747 113.593C180.141 113.593 180.536 113.592 180.926 113.603C182.058 113.645 183.206 113.713 184.361 113.786C184.598 113.799 184.835 113.807 185.079 113.82C185.171 114.732 185.403 115.625 185.766 116.467C185.957 116.832 186.225 117.151 186.551 117.402C186.878 117.653 187.255 117.829 187.657 117.919C187.833 117.945 188.012 117.936 188.185 117.892C188.357 117.849 188.519 117.771 188.662 117.665C188.804 117.559 188.924 117.425 189.015 117.273C189.106 117.12 189.166 116.951 189.192 116.775L189.204 116.602C189.197 115.461 187.501 114.294 186.532 113.99C186.498 113.996 186.245 113.926 185.958 113.868C186.588 113.898 187.209 113.919 187.834 113.921C188.898 113.926 189.961 113.861 191.017 113.727C191.115 114.665 191.349 115.585 191.712 116.456C191.904 116.821 192.173 117.14 192.5 117.391C192.828 117.641 193.206 117.817 193.609 117.907C193.785 117.933 193.964 117.923 194.136 117.88C194.309 117.836 194.471 117.759 194.613 117.653C194.756 117.546 194.876 117.413 194.967 117.26C195.058 117.107 195.118 116.938 195.144 116.762L195.157 116.595C195.15 115.454 193.454 114.287 192.484 113.978C192.415 113.989 191.496 113.777 191.164 113.726C192.199 113.57 193.218 113.321 194.209 112.984C195.096 112.693 195.965 112.352 196.813 111.962C197.6 111.595 198.303 111.219 198.917 110.876C199.245 110.692 199.545 110.512 199.824 110.348C199.824 110.348 201.194 110.191 201.279 110.171C202.269 109.929 204.043 108.875 204.125 107.736C204.132 107.558 204.104 107.38 204.042 107.213C203.98 107.045 203.886 106.891 203.765 106.761C203.643 106.63 203.497 106.524 203.335 106.45C203.172 106.376 202.997 106.334 202.819 106.328C202.774 106.333 202.73 106.34 202.687 106.35C202.282 106.414 201.895 106.565 201.554 106.793C201.212 107.02 200.924 107.319 200.709 107.668C200.289 108.49 199.997 109.37 199.842 110.28C199.552 110.446 199.24 110.622 198.882 110.811C198.265 111.137 197.561 111.502 196.77 111.845C196.555 111.934 196.323 112.026 196.102 112.115C196.447 111.887 196.911 111.563 196.952 111.526C197.717 110.852 198.805 109.104 198.353 108.055C198.203 107.731 197.931 107.48 197.595 107.356C197.26 107.233 196.89 107.248 196.566 107.398C196.519 107.418 196.474 107.441 196.43 107.468C196.097 107.71 195.822 108.021 195.622 108.381C195.423 108.741 195.304 109.14 195.275 109.55C195.288 110.477 195.441 111.397 195.729 112.278C195.231 112.472 194.72 112.657 194.176 112.824C193.191 113.136 192.18 113.362 191.156 113.498L190.978 113.527C191.164 113.443 192.169 112.899 192.232 112.853C193.071 112.266 194.339 110.648 194.004 109.555C193.946 109.387 193.856 109.232 193.739 109.098C193.622 108.964 193.479 108.855 193.319 108.777C193.16 108.698 192.986 108.652 192.809 108.641C192.631 108.629 192.453 108.653 192.285 108.711C192.241 108.715 192.197 108.723 192.153 108.733C191.798 108.938 191.491 109.218 191.254 109.553C191.017 109.889 190.855 110.271 190.78 110.675C190.685 111.618 190.736 112.571 190.932 113.5C189.906 113.605 188.873 113.643 187.842 113.613C187.085 113.598 186.312 113.55 185.536 113.49C185.782 113.373 186.711 112.871 186.774 112.825C187.614 112.244 188.882 110.625 188.547 109.533C188.491 109.364 188.402 109.209 188.286 109.075C188.17 108.941 188.028 108.831 187.87 108.752C187.711 108.673 187.538 108.626 187.361 108.613C187.184 108.601 187.007 108.624 186.839 108.68L186.701 108.738C186.344 108.941 186.036 109.219 185.798 109.553C185.561 109.888 185.4 110.271 185.327 110.675C185.235 111.615 185.284 112.563 185.471 113.489L184.421 113.405C183.269 113.314 182.114 113.2 180.981 113.153C180.583 113.131 180.193 113.125 179.798 113.12C180.161 112.93 180.804 112.581 180.879 112.539C181.719 111.958 182.985 110.334 182.652 109.247C182.596 109.079 182.507 108.923 182.391 108.789C182.275 108.655 182.133 108.546 181.974 108.466C181.816 108.387 181.643 108.34 181.466 108.328C181.289 108.315 181.111 108.338 180.943 108.395L180.806 108.453C180.449 108.655 180.14 108.933 179.903 109.268C179.665 109.603 179.505 109.985 179.432 110.389C179.337 111.296 179.38 112.212 179.56 113.106C178.911 113.097 178.27 113.103 177.634 113.138C177.364 113.183 177.078 113.16 176.819 113.197C176.56 113.234 176.298 113.284 176.033 113.287L173.787 113.66C174.176 113.525 174.793 113.304 174.848 113.278C175.762 112.825 177.266 111.421 177.101 110.288C177.039 109.937 176.841 109.624 176.55 109.417C176.259 109.211 175.897 109.128 175.545 109.187C175.493 109.192 175.442 109.201 175.391 109.212C175.008 109.36 174.662 109.59 174.378 109.885C174.093 110.181 173.877 110.535 173.744 110.923C173.506 111.832 173.41 112.771 173.459 113.709C172.886 113.804 172.284 113.904 171.749 114.046C170.043 114.413 168.643 114.775 167.669 115.049C166.696 115.323 166.131 115.499 166.131 115.499C166.08 115.515 166.034 115.54 165.993 115.574C165.952 115.608 165.919 115.649 165.894 115.696C165.87 115.743 165.855 115.794 165.85 115.846C165.845 115.899 165.851 115.952 165.867 116.002C165.9 116.103 165.971 116.187 166.065 116.237C166.159 116.286 166.269 116.297 166.37 116.266C166.849 116.079 167.337 115.919 167.833 115.787Z" fill="#22B573"/>
<path d="M195.892 112.341C195.892 112.341 196.644 114.206 197.294 114.817C197.574 115.116 197.916 115.351 198.297 115.505C198.677 115.658 199.087 115.726 199.497 115.705C199.852 115.653 200.172 115.464 200.388 115.178C200.604 114.891 200.698 114.531 200.65 114.176L200.627 114.038C200.321 112.941 198.377 112.263 197.38 112.223C197.268 112.218 195.884 112.325 195.892 112.341Z" fill="#22B573"/>
<g opacity="0.1">
<path d="M167.448 115.063C168.133 114.33 169.132 113.293 170.379 112.114C170.739 111.765 171.126 111.4 171.526 111.045C172.187 111.713 172.944 112.278 173.771 112.721C174.149 112.882 174.556 112.959 174.966 112.948C175.375 112.937 175.778 112.837 176.146 112.656C176.448 112.47 176.663 112.172 176.746 111.827C176.829 111.482 176.772 111.119 176.587 110.816L176.509 110.699C175.774 109.82 173.74 109.982 172.788 110.347C172.725 110.357 172.039 110.73 171.705 110.921L172.444 110.263C172.814 109.936 173.212 109.605 173.594 109.282L174.215 108.802C174.422 108.632 174.641 108.496 174.863 108.341C175.179 108.117 175.526 107.907 175.862 107.692C176.389 108.412 177.023 109.047 177.742 109.576C178.091 109.793 178.483 109.932 178.891 109.983C179.299 110.034 179.713 109.996 180.105 109.871C180.436 109.729 180.696 109.461 180.829 109.126C180.962 108.791 180.957 108.418 180.815 108.087L180.77 107.994C180.188 107.007 178.137 106.854 177.138 107.079C177.138 107.079 176.903 107.153 176.657 107.236C176.996 107.038 177.334 106.84 177.685 106.652C178.679 106.116 179.713 105.602 180.745 105.078C180.957 104.972 181.168 104.86 181.385 104.753C181.927 105.492 182.576 106.146 183.31 106.694C183.658 106.911 184.049 107.05 184.456 107.102C184.864 107.153 185.277 107.115 185.668 106.991C185.831 106.922 185.98 106.821 186.104 106.694C186.228 106.567 186.326 106.417 186.393 106.252C186.459 106.088 186.492 105.911 186.49 105.734C186.487 105.556 186.45 105.381 186.38 105.218L186.333 105.114C185.757 104.126 183.7 103.974 182.706 104.198C182.672 104.203 182.427 104.285 182.149 104.385C182.689 104.094 183.229 103.799 183.766 103.486C184.688 102.957 185.573 102.367 186.416 101.72C186.969 102.492 187.637 103.175 188.397 103.746C188.745 103.963 189.136 104.102 189.543 104.153C189.95 104.204 190.363 104.167 190.754 104.043C190.918 103.973 191.066 103.872 191.19 103.746C191.315 103.619 191.413 103.469 191.479 103.304C191.545 103.139 191.578 102.963 191.576 102.785C191.574 102.608 191.537 102.432 191.466 102.269L191.448 102.16C190.866 101.174 188.815 101.02 187.821 101.244C187.747 101.257 186.867 101.562 186.552 101.685L186.586 101.68C187.402 101.024 188.156 100.296 188.839 99.5028C189.457 98.8021 190.032 98.0653 190.563 97.2963C191.034 96.5879 191.474 95.908 191.835 95.318C192.028 94.9914 192.201 94.6859 192.354 94.4013C192.354 94.4013 193.466 93.5803 193.526 93.5173C194.262 92.8061 195.258 91.0091 194.758 89.9851C194.675 89.8247 194.56 89.6825 194.42 89.5671C194.281 89.4516 194.12 89.3652 193.947 89.3128C193.773 89.2605 193.591 89.2433 193.411 89.2622C193.231 89.2811 193.057 89.3358 192.898 89.423L192.781 89.4955C192.461 89.7527 192.201 90.0766 192.019 90.4445C191.837 90.8124 191.738 91.2156 191.728 91.6258C191.778 92.5465 191.969 93.454 192.293 94.3172C192.131 94.6152 191.946 94.9226 191.738 95.2635C191.366 95.8612 190.935 96.5277 190.431 97.2476C190.291 97.4357 190.141 97.6314 189.99 97.8214C190.151 97.5167 190.296 97.2037 190.423 96.8837C190.745 95.9174 190.806 93.8756 189.884 93.181C189.74 93.0774 189.577 93.0033 189.405 92.9629C189.233 92.9226 189.054 92.9168 188.879 92.9458C188.704 92.9749 188.537 93.0382 188.387 93.1323C188.237 93.2263 188.107 93.3491 188.004 93.4936C187.975 93.5331 187.948 93.5749 187.925 93.6187C187.76 93.9947 187.679 94.402 187.687 94.8125C187.696 95.223 187.793 95.6268 187.973 95.9958C188.447 96.7923 189.039 97.5119 189.73 98.1298C189.399 98.5499 189.05 98.9671 188.661 99.3853C187.969 100.154 187.209 100.858 186.39 101.488C186.334 101.511 186.283 101.545 186.242 101.59C186.361 101.423 186.953 100.447 186.988 100.376C187.423 99.4499 187.701 97.4072 186.86 96.6343C186.592 96.399 186.241 96.2796 185.885 96.3024C185.529 96.3253 185.197 96.4883 184.961 96.7559L184.863 96.8782C184.659 97.238 184.536 97.6382 184.503 98.0506C184.47 98.4631 184.527 98.8778 184.671 99.2656C185.065 100.133 185.595 100.932 186.243 101.631C185.41 102.235 184.54 102.785 183.637 103.277C182.968 103.648 182.278 103.992 181.581 104.338C181.732 104.112 182.283 103.208 182.312 103.138C182.747 102.212 183.027 100.175 182.19 99.3957C181.919 99.1609 181.566 99.0428 181.209 99.067C180.851 99.0913 180.517 99.2558 180.28 99.5249L180.193 99.6395C179.988 99.999 179.864 100.399 179.831 100.812C179.798 101.225 179.856 101.639 180.002 102.027C180.392 102.887 180.912 103.682 181.542 104.385L180.594 104.844C179.552 105.341 178.51 105.838 177.494 106.354C177.142 106.537 176.803 106.728 176.457 106.916C176.677 106.573 177.055 105.944 177.087 105.886C177.521 104.96 177.772 102.928 176.959 102.144C176.685 101.91 176.329 101.793 175.97 101.82C175.61 101.847 175.275 102.015 175.039 102.287L174.962 102.388C174.756 102.748 174.633 103.148 174.6 103.561C174.566 103.973 174.625 104.388 174.77 104.776C175.144 105.607 175.643 106.376 176.251 107.056C175.714 107.369 175.127 107.702 174.596 108.049C174.375 108.204 174.134 108.35 173.926 108.514L173.291 108.985C172.87 109.32 172.48 109.632 172.098 109.955C171.901 110.117 171.722 110.277 171.53 110.432C171.802 110.122 172.224 109.616 172.258 109.569C172.823 108.716 173.413 106.745 172.699 105.85C172.585 105.715 172.445 105.604 172.288 105.522C172.131 105.441 171.959 105.391 171.783 105.376C171.607 105.362 171.429 105.381 171.26 105.435C171.092 105.489 170.935 105.575 170.8 105.689C170.76 105.696 170.728 105.754 170.693 105.79C170.435 106.11 170.251 106.482 170.152 106.881C170.054 107.28 170.044 107.696 170.123 108.099C170.381 109.002 170.772 109.862 171.283 110.65C170.825 111.044 170.383 111.43 169.978 111.797C168.69 112.972 167.664 113.99 166.931 114.719C166.198 115.447 165.829 115.88 165.829 115.88C165.788 115.918 165.756 115.964 165.735 116.015C165.714 116.067 165.704 116.122 165.706 116.177C165.708 116.233 165.722 116.287 165.747 116.337C165.771 116.386 165.806 116.43 165.849 116.465C165.889 116.503 165.936 116.532 165.987 116.551C166.038 116.57 166.093 116.578 166.147 116.576C166.202 116.573 166.255 116.56 166.305 116.536C166.354 116.513 166.398 116.48 166.434 116.439C166.704 115.934 167.046 115.471 167.448 115.063Z" fill="black"/>
<path d="M189.963 97.9681C189.963 97.9681 191.552 99.1996 192.422 99.4023C192.815 99.5184 193.229 99.5482 193.635 99.4899C194.041 99.4315 194.429 99.2862 194.774 99.0641C195.056 98.8428 195.239 98.5185 195.283 98.1623C195.326 97.8061 195.227 97.4473 195.006 97.1646L194.911 97.0567C194.095 96.2561 192.07 96.6518 191.172 97.1309C191.091 97.1739 189.949 97.9585 189.963 97.9681Z" fill="black"/>
<path d="M167.833 115.787C168.792 115.498 170.175 115.103 171.853 114.712C172.335 114.597 172.846 114.482 173.375 114.371C173.612 115.278 173.983 116.145 174.474 116.944C174.718 117.274 175.03 117.548 175.391 117.744C175.751 117.94 176.15 118.056 176.56 118.081C176.738 118.076 176.914 118.036 177.077 117.963C177.241 117.89 177.388 117.786 177.511 117.656C177.633 117.526 177.729 117.374 177.793 117.207C177.857 117.04 177.887 116.862 177.882 116.683L177.858 116.54C177.667 115.394 175.826 114.522 174.816 114.361C174.759 114.37 173.978 114.317 173.582 114.307C173.908 114.258 174.231 114.193 174.551 114.11L176.843 113.729C177.106 113.685 177.365 113.683 177.632 113.657C178.021 113.627 178.42 113.614 178.801 113.604C178.895 114.49 179.122 115.358 179.476 116.177C179.668 116.541 179.937 116.86 180.265 117.11C180.592 117.361 180.97 117.537 181.372 117.628C181.548 117.654 181.727 117.644 181.9 117.601C182.072 117.557 182.234 117.48 182.377 117.374C182.519 117.267 182.64 117.134 182.731 116.981C182.822 116.829 182.882 116.659 182.907 116.483L182.92 116.31C182.912 115.169 181.217 114.003 180.247 113.699C180.213 113.704 180.003 113.645 179.747 113.593C180.141 113.593 180.536 113.592 180.926 113.603C182.058 113.645 183.206 113.713 184.361 113.786C184.598 113.799 184.835 113.807 185.079 113.82C185.171 114.732 185.403 115.625 185.766 116.467C185.957 116.832 186.225 117.151 186.551 117.402C186.878 117.653 187.255 117.829 187.657 117.919C187.833 117.945 188.012 117.936 188.185 117.892C188.357 117.849 188.519 117.771 188.662 117.665C188.804 117.559 188.924 117.425 189.015 117.273C189.106 117.12 189.166 116.951 189.192 116.775L189.204 116.602C189.197 115.461 187.501 114.294 186.532 113.99C186.498 113.996 186.245 113.926 185.958 113.868C186.588 113.898 187.209 113.919 187.834 113.921C188.898 113.926 189.961 113.861 191.017 113.727C191.115 114.665 191.349 115.585 191.712 116.456C191.904 116.821 192.173 117.14 192.5 117.391C192.828 117.641 193.206 117.817 193.609 117.907C193.785 117.933 193.964 117.923 194.136 117.88C194.309 117.836 194.471 117.759 194.613 117.653C194.756 117.546 194.876 117.413 194.967 117.26C195.058 117.107 195.118 116.938 195.144 116.762L195.157 116.595C195.15 115.454 193.454 114.287 192.484 113.978C192.415 113.989 191.496 113.777 191.164 113.726C192.199 113.57 193.218 113.321 194.209 112.984C195.096 112.693 195.965 112.352 196.813 111.962C197.6 111.595 198.303 111.219 198.917 110.876C199.245 110.692 199.545 110.512 199.824 110.348C199.824 110.348 201.194 110.191 201.279 110.171C202.269 109.929 204.043 108.875 204.125 107.736C204.132 107.558 204.104 107.38 204.042 107.213C203.98 107.045 203.886 106.891 203.765 106.761C203.643 106.63 203.497 106.524 203.335 106.45C203.172 106.376 202.997 106.334 202.819 106.328C202.774 106.333 202.73 106.34 202.687 106.35C202.282 106.414 201.895 106.565 201.554 106.793C201.212 107.02 200.924 107.319 200.709 107.668C200.289 108.49 199.997 109.37 199.842 110.28C199.552 110.446 199.24 110.622 198.882 110.811C198.265 111.137 197.561 111.502 196.77 111.845C196.555 111.934 196.323 112.026 196.102 112.115C196.447 111.887 196.911 111.563 196.952 111.526C197.717 110.852 198.805 109.104 198.353 108.055C198.203 107.731 197.931 107.48 197.595 107.356C197.26 107.233 196.89 107.248 196.566 107.398C196.519 107.418 196.474 107.441 196.43 107.468C196.097 107.71 195.822 108.021 195.622 108.381C195.423 108.741 195.304 109.14 195.275 109.55C195.288 110.477 195.441 111.397 195.729 112.278C195.231 112.472 194.72 112.657 194.176 112.824C193.191 113.136 192.18 113.362 191.156 113.498L190.978 113.527C191.164 113.443 192.169 112.899 192.232 112.853C193.071 112.266 194.339 110.648 194.004 109.555C193.946 109.387 193.856 109.232 193.739 109.098C193.622 108.964 193.479 108.855 193.319 108.777C193.16 108.698 192.986 108.652 192.809 108.641C192.631 108.629 192.453 108.653 192.285 108.711C192.241 108.715 192.197 108.723 192.153 108.733C191.798 108.938 191.491 109.218 191.254 109.553C191.017 109.889 190.855 110.271 190.78 110.675C190.685 111.618 190.736 112.571 190.932 113.5C189.906 113.605 188.873 113.643 187.842 113.613C187.085 113.598 186.312 113.55 185.536 113.49C185.782 113.373 186.711 112.871 186.774 112.825C187.614 112.244 188.882 110.625 188.547 109.533C188.491 109.364 188.402 109.209 188.286 109.075C188.17 108.941 188.028 108.831 187.87 108.752C187.711 108.673 187.538 108.626 187.361 108.613C187.184 108.601 187.007 108.624 186.839 108.68L186.701 108.738C186.344 108.941 186.036 109.219 185.798 109.553C185.561 109.888 185.4 110.271 185.327 110.675C185.235 111.615 185.284 112.563 185.471 113.489L184.421 113.405C183.269 113.314 182.114 113.2 180.981 113.153C180.583 113.131 180.193 113.125 179.798 113.12C180.161 112.93 180.804 112.581 180.879 112.539C181.719 111.958 182.985 110.334 182.652 109.247C182.596 109.079 182.507 108.923 182.391 108.789C182.275 108.655 182.133 108.546 181.974 108.466C181.816 108.387 181.643 108.34 181.466 108.328C181.289 108.315 181.111 108.338 180.943 108.395L180.806 108.453C180.449 108.655 180.14 108.933 179.903 109.268C179.665 109.603 179.505 109.985 179.432 110.389C179.337 111.296 179.38 112.212 179.56 113.106C178.911 113.097 178.27 113.103 177.634 113.138C177.364 113.183 177.078 113.16 176.819 113.197C176.56 113.234 176.298 113.284 176.033 113.287L173.787 113.66C174.176 113.525 174.793 113.304 174.848 113.278C175.762 112.825 177.266 111.421 177.101 110.288C177.039 109.937 176.841 109.624 176.55 109.417C176.259 109.211 175.897 109.128 175.545 109.187C175.493 109.192 175.442 109.201 175.391 109.212C175.008 109.36 174.662 109.59 174.378 109.885C174.093 110.181 173.877 110.535 173.744 110.923C173.506 111.832 173.41 112.771 173.459 113.709C172.886 113.804 172.284 113.904 171.749 114.046C170.043 114.413 168.643 114.775 167.669 115.049C166.696 115.323 166.131 115.499 166.131 115.499C166.08 115.515 166.034 115.54 165.993 115.574C165.952 115.608 165.919 115.649 165.894 115.696C165.87 115.743 165.855 115.794 165.85 115.846C165.845 115.899 165.851 115.952 165.867 116.002C165.9 116.103 165.971 116.187 166.065 116.237C166.159 116.286 166.269 116.297 166.37 116.266C166.849 116.079 167.337 115.919 167.833 115.787Z" fill="black"/>
<path d="M195.892 112.341C195.892 112.341 196.644 114.206 197.294 114.817C197.574 115.116 197.916 115.351 198.297 115.505C198.677 115.658 199.087 115.726 199.497 115.705C199.852 115.653 200.172 115.464 200.388 115.178C200.604 114.891 200.698 114.531 200.65 114.176L200.627 114.038C200.321 112.941 198.377 112.263 197.38 112.223C197.268 112.218 195.884 112.325 195.892 112.341Z" fill="black"/>
</g>
<path d="M187.991 58.5067C193.934 59.1173 194.162 64.0091 193.552 69.9521L175.016 68.0478C175.627 62.1048 175.399 57.213 169.456 56.6024L187.991 58.5067Z" fill="#711A08"/>
<path d="M146.554 54.2491C140.611 53.6386 139.392 58.3818 138.782 64.3248L134.139 109.522C133.528 115.464 132.31 120.208 126.367 119.597L167.818 123.856C173.761 124.466 174.979 119.723 175.59 113.78L180.233 68.5836C180.844 62.6406 182.062 57.8974 188.005 58.5079L146.554 54.2491Z" fill="#FFE7CB"/>
<path d="M126.383 119.599C120.44 118.988 120.212 114.096 120.822 108.153L162.517 112.437C161.906 118.38 162.135 123.272 168.078 123.882L126.383 119.599Z" fill="#FFF5E9"/>
<rect x="144.191" y="65.3954" width="8.68848" height="1.70678" transform="rotate(5.86612 144.191 65.3954)" fill="#E5B173"/>
<rect x="143.887" y="68.3774" width="30.6871" height="1.70678" transform="rotate(5.86612 143.887 68.3774)" fill="#E5B173"/>
<rect x="142.967" y="77.3245" width="30.6871" height="1.70678" transform="rotate(5.86612 142.967 77.3245)" fill="#E5B173"/>
<rect x="141.741" y="89.2534" width="30.6871" height="1.70678" transform="rotate(5.86612 141.741 89.2534)" fill="#E5B173"/>
<rect x="140.516" y="101.182" width="30.6871" height="1.70678" transform="rotate(5.86612 140.516 101.182)" fill="#E5B173"/>
<rect x="143.579" y="71.3597" width="30.6871" height="1.70678" transform="rotate(5.86612 143.579 71.3597)" fill="#E5B173"/>
<rect x="142.66" y="80.3066" width="30.6871" height="1.70678" transform="rotate(5.86612 142.66 80.3066)" fill="#E5B173"/>
<rect x="141.436" y="92.2357" width="30.6871" height="1.70678" transform="rotate(5.86612 141.436 92.2357)" fill="#E5B173"/>
<rect x="140.209" y="104.165" width="30.6871" height="1.70678" transform="rotate(5.86612 140.209 104.165)" fill="#E5B173"/>
<rect x="142.354" y="83.2888" width="27.0083" height="1.70678" transform="rotate(5.86612 142.354 83.2888)" fill="#E5B173"/>
<rect x="141.128" y="95.218" width="21.1925" height="1.70678" transform="rotate(5.86612 141.128 95.218)" fill="#E5B173"/>
<rect x="139.902" y="107.147" width="21.1925" height="1.70678" transform="rotate(5.86612 139.902 107.147)" fill="#E5B173"/>
<path d="M114.696 69.0609C114.315 68.6775 114.318 68.0584 114.701 67.678C115.084 67.2977 115.704 67.3002 116.084 67.6835L124.682 76.3509C125.063 76.7343 125.06 77.3534 124.677 77.7338C124.293 78.1141 123.674 78.1116 123.294 77.7282L114.696 69.0609Z" fill="#0D000F"/>
<path d="M116.163 73.0891C115.085 72.0015 115.092 70.2452 116.179 69.1663C117.267 68.0874 119.023 68.0944 120.102 69.182L138.483 87.7101C139.562 88.7977 139.555 90.554 138.467 91.6329C137.379 92.7118 135.623 92.7048 134.544 91.6172L116.163 73.0891Z" fill="#FF72A5"/>
<path d="M116.587 76.294C116.207 75.9107 116.209 75.2915 116.593 74.9112C116.976 74.5308 117.595 74.5333 117.975 74.9167L126.574 83.5841C126.954 83.9675 126.952 84.5866 126.568 84.9669C126.185 85.3473 125.566 85.3448 125.186 84.9614L116.587 76.294Z" fill="#0D000F"/>
<mask id="mask0_2664_94618" style="mask-type:alpha" maskUnits="userSpaceOnUse" x="123" y="76" width="21" height="21">
<path d="M124.662 81.6566C123.583 80.569 123.59 78.8128 124.677 77.7338C125.765 76.6549 127.521 76.662 128.6 77.7495L142.854 92.1182C143.933 93.2057 143.926 94.962 142.839 96.0409C141.751 97.1198 139.995 97.1128 138.916 96.0253L124.662 81.6566Z" fill="#9F1EBA"/>
</mask>
<g mask="url(#mask0_2664_94618)">
<path d="M124.662 81.6566C123.583 80.569 123.59 78.8128 124.677 77.7338C125.765 76.6549 127.521 76.662 128.6 77.7495L142.854 92.1182C143.933 93.2057 143.926 94.962 142.839 96.0409C141.751 97.1198 139.995 97.1128 138.916 96.0253L124.662 81.6566Z" fill="#D4145A"/>
</g>
<path d="M141.362 95.941C140.981 95.5576 140.984 94.9385 141.367 94.5582C141.75 94.1778 142.37 94.1803 142.75 94.5637L144.314 96.1406C144.695 96.524 144.692 97.1432 144.309 97.5235C143.925 97.9038 143.306 97.9014 142.926 97.518L141.362 95.941Z" fill="#0D000F"/>
<defs>
<filter id="filter0_f_2664_94618" x="0.466797" y="0.865967" width="306.851" height="286.461" filterUnits="userSpaceOnUse" color-interpolation-filters="sRGB">
<feFlood flood-opacity="0" result="BackgroundImageFix"/>
<feBlend mode="normal" in="SourceGraphic" in2="BackgroundImageFix" result="shape"/>
<feGaussianBlur stdDeviation="41" result="effect1_foregroundBlur_2664_94618"/>
</filter>
</defs>
</svg>
