<svg width="36" height="26" viewBox="0 0 36 26" fill="none" xmlns="http://www.w3.org/2000/svg">
<path d="M33.8766 4.24615C31.6452 2.92308 29.2279 1.90769 26.7176 1.2C23.9904 0.430769 21.1392 0 18.257 0C18.195 0 18.102 0.0307692 18.04 0.0307692C17.9781 0.0307692 17.8851 0 17.8231 0H17.7611C14.8789 0 12.0277 0.4 9.30052 1.2C6.79023 1.90769 4.4039 2.92308 2.14154 4.24615C0.37504 5.29231 -0.213794 7.56923 0.808917 9.35385L9.57944 24.4615C10.1373 25.4462 11.16 26 12.2757 26C13.3914 26 14.4141 25.4154 14.9719 24.4615L17.9781 19.2615L20.9842 24.4615C21.5421 25.4462 22.5648 26 23.6804 26C24.7961 26 25.8188 25.4154 26.3767 24.4615L35.1472 9.38462C36.2319 7.56923 35.6431 5.26154 33.8766 4.24615ZM14.0422 5.96923C14.2591 4.06154 15.9636 2.55385 18.0091 2.46154C20.0545 2.55385 21.759 4.06154 21.9759 5.96923C22.0689 6.76923 21.883 7.56923 21.5111 8.24615L18.0091 14.3077L14.507 8.27692C14.1351 7.56923 13.9492 6.76923 14.0422 5.96923ZM12.8335 23.2C12.6786 23.4769 12.3996 23.5077 12.2757 23.5077C12.1517 23.5077 11.9038 23.4769 11.7178 23.2L2.94731 8.12308C2.57542 7.50769 2.79236 6.73846 3.38119 6.36923C5.42661 5.16923 7.65798 4.21538 9.95133 3.56923C10.8191 3.32308 11.6868 3.13846 12.5856 2.95385C12.0277 3.78462 11.6559 4.70769 11.5319 5.72308C11.4079 7.01538 11.6559 8.30769 12.3067 9.47692L16.5835 16.7692L12.8335 23.2ZM33.0398 8.12308L24.2693 23.2C24.1143 23.4769 23.8354 23.5077 23.7114 23.5077C23.5875 23.5077 23.3395 23.4769 23.1536 23.2L19.4656 16.7692L23.7114 9.44615C24.3313 8.30769 24.6102 7.01538 24.4552 5.72308C24.3623 4.70769 23.9594 3.78462 23.4015 2.95385C24.2693 3.10769 25.168 3.32308 26.0358 3.56923C28.3291 4.21538 30.5605 5.16923 32.6059 6.36923C33.2257 6.70769 33.4117 7.50769 33.0398 8.12308Z" fill="#145AFF"/>
</svg>
